<svg viewBox="-407 -526 1863 2265" data-name="Layer 1" id="Layer_1" xmlns="http://www.w3.org/2000/svg"
    xmlns:xlink="http://www.w3.org/1999/xlink">
    <style type="text/css">
        text {
            font-size: 250.0%;
            font-family: PTSans-NarrowBold, PT Sans Narrow;
            font-weight: 600;
            paint-order: stroke;
            stroke: black;
            fill: white;
            stroke-width: 4.444444444444445;
        }

        .grid {
            fill: none;
            stroke-width: 6.666666666666667;
            stroke: #8E8E8E;
            stroke-miterlimit: 10;
        }

        .path {
            fill: transparent;
            stroke-width: 8.0;
        }


        .path.roads {
            stroke: saddlebrown;
        }

        .path.rivers {
            stroke: blue;
        }

        .number {}

        .alt_text {}

        .icon {
            paint-order: stroke;
            stroke: black;
            fill: darkslategrey;
            stroke-width: 2;
        }

        .terrain {
            fill: none;
            stroke-width: 6.666666666666667;
        }

        .terrain.plains {
            fill: lightgreen;
        }

        .terrain.light_wood {
            fill: green;
        }

        .terrain.heavy_woods {
            fill: darkgreen;
        }

        .terrain.grassland {
            fill: chartreuse;
        }

        .terrain.mountains {
            fill: maroon;
        }

        .terrain.hills {
            fill: bisque;
        }

        .terrain.sea {
            fill: blue;
        }


        .terrain.lake {
            fill: lightskyblue;
        }


        .terrain.marsh {
            fill: yellowgreen;
        }


        .terrain.desert {
            fill: lightyellow;
        }

        .terrain.unknown {
            fill: gray;
        }

        .zone {
            fill: none;
            stroke-width: 6.666666666666667;
            stroke-dasharray: 15;
            stroke-linejoin: round;
            stroke-linecap: round;
        }

        .zone.secured {
            stroke: green;
        }

        
.fortin {
    fill: green;
}

.zone.dangerous {
    stroke: red;
}

    </style>
    <defs>
        <svg xmlns:inkscape="http://www.inkscape.org/namespaces/inkscape" xmlns:sodipodi="http://sodipodi.sourceforge.net/DTD/sodipodi-0.dtd" xmlns="http://www.w3.org/2000/svg" xmlns:svg="http://www.w3.org/2000/svg" style="height: 512px; width: 512px;" version="1.1" id="terrain/grassland" sodipodi:docname="grassland.svg" inkscape:version="1.2 (dc2aedaf03, 2022-05-15)" class="icon terrain grassland">
  <defs id="defs24"/>
  <sodipodi:namedview id="namedview22" pagecolor="#ffffff" bordercolor="#000000" borderopacity="0.25" inkscape:showpageshadow="2" inkscape:pageopacity="0.0" inkscape:pagecheckerboard="0" inkscape:deskcolor="#d1d1d1" showgrid="false" inkscape:zoom="1.9570312" inkscape:cx="256.51098" inkscape:cy="256.00001" inkscape:window-width="3440" inkscape:window-height="1377" inkscape:window-x="1912" inkscape:window-y="-8" inkscape:window-maximized="1" inkscape:current-layer="svg20"/>
  <g class="" transform="matrix(1.0716222,0,0,0.35370027,-19.684408,154.73714)" style="fill:#000000" id="g18">
    <path d="M 18,494 54.35,163.6 c 6.728,107.62 4.086,231.82 35.556,295.67 11.205,-84.926 15.707,-168.18 10.562,-249.01 15.225,71.69 35.543,141.68 39.468,217.14 7.395,-55.935 12.667,-111.52 31.798,-169.41 -0.76,65.19 -17.16,124.9 12.677,157.47 14.433,-51.01 28.992,-101.9 31.46,-164.88 21.27,61.862 18.342,135.82 24.948,205.02 8.417,-68.06 15.28,-257.84 46.907,-318.17 -3.11,124.98 -3.862,223.94 27.398,274.23 30.897,-38.673 33.566,-114.44 34.28,-186.34 21.812,61.75 36.457,132.1 37.857,218.34 8.626,-71.955 18.667,-143.91 43.39,-215.86 -5.748,88.29 -1.284,156.95 19.525,194.17 13.76,-55.55 25.504,-111.1 29.12,-166.66 18.42,82.78 13,159.59 16.706,238.69 z" fill="#fff" fill-opacity="1" id="path16" style="fill:#000000"/>
  </g>
</svg><svg xmlns:inkscape="http://www.inkscape.org/namespaces/inkscape" xmlns:sodipodi="http://sodipodi.sourceforge.net/DTD/sodipodi-0.dtd" xmlns="http://www.w3.org/2000/svg" xmlns:svg="http://www.w3.org/2000/svg" style="height: 512px; width: 512px;" version="1.1" id="terrain/grassland" sodipodi:docname="grassland.svg" inkscape:version="1.2 (dc2aedaf03, 2022-05-15)" class="icon terrain grassland">
  <defs id="defs24"/>
  <sodipodi:namedview id="namedview22" pagecolor="#ffffff" bordercolor="#000000" borderopacity="0.25" inkscape:showpageshadow="2" inkscape:pageopacity="0.0" inkscape:pagecheckerboard="0" inkscape:deskcolor="#d1d1d1" showgrid="false" inkscape:zoom="1.9570312" inkscape:cx="256.51098" inkscape:cy="256.00001" inkscape:window-width="3440" inkscape:window-height="1377" inkscape:window-x="1912" inkscape:window-y="-8" inkscape:window-maximized="1" inkscape:current-layer="svg20"/>
  <g class="" transform="matrix(1.0716222,0,0,0.35370027,-19.684408,154.73714)" style="fill:#000000" id="g18">
    <path d="M 18,494 54.35,163.6 c 6.728,107.62 4.086,231.82 35.556,295.67 11.205,-84.926 15.707,-168.18 10.562,-249.01 15.225,71.69 35.543,141.68 39.468,217.14 7.395,-55.935 12.667,-111.52 31.798,-169.41 -0.76,65.19 -17.16,124.9 12.677,157.47 14.433,-51.01 28.992,-101.9 31.46,-164.88 21.27,61.862 18.342,135.82 24.948,205.02 8.417,-68.06 15.28,-257.84 46.907,-318.17 -3.11,124.98 -3.862,223.94 27.398,274.23 30.897,-38.673 33.566,-114.44 34.28,-186.34 21.812,61.75 36.457,132.1 37.857,218.34 8.626,-71.955 18.667,-143.91 43.39,-215.86 -5.748,88.29 -1.284,156.95 19.525,194.17 13.76,-55.55 25.504,-111.1 29.12,-166.66 18.42,82.78 13,159.59 16.706,238.69 z" fill="#fff" fill-opacity="1" id="path16" style="fill:#000000"/>
  </g>
</svg><svg xmlns:inkscape="http://www.inkscape.org/namespaces/inkscape" xmlns:sodipodi="http://sodipodi.sourceforge.net/DTD/sodipodi-0.dtd" xmlns="http://www.w3.org/2000/svg" xmlns:svg="http://www.w3.org/2000/svg" style="height: 512px; width: 512px;" version="1.1" id="terrain/grassland" sodipodi:docname="grassland.svg" inkscape:version="1.2 (dc2aedaf03, 2022-05-15)" class="icon terrain grassland">
  <defs id="defs24"/>
  <sodipodi:namedview id="namedview22" pagecolor="#ffffff" bordercolor="#000000" borderopacity="0.25" inkscape:showpageshadow="2" inkscape:pageopacity="0.0" inkscape:pagecheckerboard="0" inkscape:deskcolor="#d1d1d1" showgrid="false" inkscape:zoom="1.9570312" inkscape:cx="256.51098" inkscape:cy="256.00001" inkscape:window-width="3440" inkscape:window-height="1377" inkscape:window-x="1912" inkscape:window-y="-8" inkscape:window-maximized="1" inkscape:current-layer="svg20"/>
  <g class="" transform="matrix(1.0716222,0,0,0.35370027,-19.684408,154.73714)" style="fill:#000000" id="g18">
    <path d="M 18,494 54.35,163.6 c 6.728,107.62 4.086,231.82 35.556,295.67 11.205,-84.926 15.707,-168.18 10.562,-249.01 15.225,71.69 35.543,141.68 39.468,217.14 7.395,-55.935 12.667,-111.52 31.798,-169.41 -0.76,65.19 -17.16,124.9 12.677,157.47 14.433,-51.01 28.992,-101.9 31.46,-164.88 21.27,61.862 18.342,135.82 24.948,205.02 8.417,-68.06 15.28,-257.84 46.907,-318.17 -3.11,124.98 -3.862,223.94 27.398,274.23 30.897,-38.673 33.566,-114.44 34.28,-186.34 21.812,61.75 36.457,132.1 37.857,218.34 8.626,-71.955 18.667,-143.91 43.39,-215.86 -5.748,88.29 -1.284,156.95 19.525,194.17 13.76,-55.55 25.504,-111.1 29.12,-166.66 18.42,82.78 13,159.59 16.706,238.69 z" fill="#fff" fill-opacity="1" id="path16" style="fill:#000000"/>
  </g>
</svg><svg xmlns:inkscape="http://www.inkscape.org/namespaces/inkscape" xmlns:sodipodi="http://sodipodi.sourceforge.net/DTD/sodipodi-0.dtd" xmlns="http://www.w3.org/2000/svg" xmlns:svg="http://www.w3.org/2000/svg" style="height: 512px; width: 512px;" version="1.1" id="terrain/grassland" sodipodi:docname="grassland.svg" inkscape:version="1.2 (dc2aedaf03, 2022-05-15)" class="icon terrain grassland">
  <defs id="defs24"/>
  <sodipodi:namedview id="namedview22" pagecolor="#ffffff" bordercolor="#000000" borderopacity="0.25" inkscape:showpageshadow="2" inkscape:pageopacity="0.0" inkscape:pagecheckerboard="0" inkscape:deskcolor="#d1d1d1" showgrid="false" inkscape:zoom="1.9570312" inkscape:cx="256.51098" inkscape:cy="256.00001" inkscape:window-width="3440" inkscape:window-height="1377" inkscape:window-x="1912" inkscape:window-y="-8" inkscape:window-maximized="1" inkscape:current-layer="svg20"/>
  <g class="" transform="matrix(1.0716222,0,0,0.35370027,-19.684408,154.73714)" style="fill:#000000" id="g18">
    <path d="M 18,494 54.35,163.6 c 6.728,107.62 4.086,231.82 35.556,295.67 11.205,-84.926 15.707,-168.18 10.562,-249.01 15.225,71.69 35.543,141.68 39.468,217.14 7.395,-55.935 12.667,-111.52 31.798,-169.41 -0.76,65.19 -17.16,124.9 12.677,157.47 14.433,-51.01 28.992,-101.9 31.46,-164.88 21.27,61.862 18.342,135.82 24.948,205.02 8.417,-68.06 15.28,-257.84 46.907,-318.17 -3.11,124.98 -3.862,223.94 27.398,274.23 30.897,-38.673 33.566,-114.44 34.28,-186.34 21.812,61.75 36.457,132.1 37.857,218.34 8.626,-71.955 18.667,-143.91 43.39,-215.86 -5.748,88.29 -1.284,156.95 19.525,194.17 13.76,-55.55 25.504,-111.1 29.12,-166.66 18.42,82.78 13,159.59 16.706,238.69 z" fill="#fff" fill-opacity="1" id="path16" style="fill:#000000"/>
  </g>
</svg><svg xmlns:inkscape="http://www.inkscape.org/namespaces/inkscape" xmlns:sodipodi="http://sodipodi.sourceforge.net/DTD/sodipodi-0.dtd" xmlns="http://www.w3.org/2000/svg" xmlns:svg="http://www.w3.org/2000/svg" style="height: 512px; width: 512px;" version="1.1" id="terrain/grassland" sodipodi:docname="grassland.svg" inkscape:version="1.2 (dc2aedaf03, 2022-05-15)" class="icon terrain grassland">
  <defs id="defs24"/>
  <sodipodi:namedview id="namedview22" pagecolor="#ffffff" bordercolor="#000000" borderopacity="0.25" inkscape:showpageshadow="2" inkscape:pageopacity="0.0" inkscape:pagecheckerboard="0" inkscape:deskcolor="#d1d1d1" showgrid="false" inkscape:zoom="1.9570312" inkscape:cx="256.51098" inkscape:cy="256.00001" inkscape:window-width="3440" inkscape:window-height="1377" inkscape:window-x="1912" inkscape:window-y="-8" inkscape:window-maximized="1" inkscape:current-layer="svg20"/>
  <g class="" transform="matrix(1.0716222,0,0,0.35370027,-19.684408,154.73714)" style="fill:#000000" id="g18">
    <path d="M 18,494 54.35,163.6 c 6.728,107.62 4.086,231.82 35.556,295.67 11.205,-84.926 15.707,-168.18 10.562,-249.01 15.225,71.69 35.543,141.68 39.468,217.14 7.395,-55.935 12.667,-111.52 31.798,-169.41 -0.76,65.19 -17.16,124.9 12.677,157.47 14.433,-51.01 28.992,-101.9 31.46,-164.88 21.27,61.862 18.342,135.82 24.948,205.02 8.417,-68.06 15.28,-257.84 46.907,-318.17 -3.11,124.98 -3.862,223.94 27.398,274.23 30.897,-38.673 33.566,-114.44 34.28,-186.34 21.812,61.75 36.457,132.1 37.857,218.34 8.626,-71.955 18.667,-143.91 43.39,-215.86 -5.748,88.29 -1.284,156.95 19.525,194.17 13.76,-55.55 25.504,-111.1 29.12,-166.66 18.42,82.78 13,159.59 16.706,238.69 z" fill="#fff" fill-opacity="1" id="path16" style="fill:#000000"/>
  </g>
</svg><svg xmlns:inkscape="http://www.inkscape.org/namespaces/inkscape" xmlns:sodipodi="http://sodipodi.sourceforge.net/DTD/sodipodi-0.dtd" xmlns="http://www.w3.org/2000/svg" xmlns:svg="http://www.w3.org/2000/svg" style="height: 512px; width: 512px;" version="1.1" id="terrain/grassland" sodipodi:docname="grassland.svg" inkscape:version="1.2 (dc2aedaf03, 2022-05-15)" class="icon terrain grassland">
  <defs id="defs24"/>
  <sodipodi:namedview id="namedview22" pagecolor="#ffffff" bordercolor="#000000" borderopacity="0.25" inkscape:showpageshadow="2" inkscape:pageopacity="0.0" inkscape:pagecheckerboard="0" inkscape:deskcolor="#d1d1d1" showgrid="false" inkscape:zoom="1.9570312" inkscape:cx="256.51098" inkscape:cy="256.00001" inkscape:window-width="3440" inkscape:window-height="1377" inkscape:window-x="1912" inkscape:window-y="-8" inkscape:window-maximized="1" inkscape:current-layer="svg20"/>
  <g class="" transform="matrix(1.0716222,0,0,0.35370027,-19.684408,154.73714)" style="fill:#000000" id="g18">
    <path d="M 18,494 54.35,163.6 c 6.728,107.62 4.086,231.82 35.556,295.67 11.205,-84.926 15.707,-168.18 10.562,-249.01 15.225,71.69 35.543,141.68 39.468,217.14 7.395,-55.935 12.667,-111.52 31.798,-169.41 -0.76,65.19 -17.16,124.9 12.677,157.47 14.433,-51.01 28.992,-101.9 31.46,-164.88 21.27,61.862 18.342,135.82 24.948,205.02 8.417,-68.06 15.28,-257.84 46.907,-318.17 -3.11,124.98 -3.862,223.94 27.398,274.23 30.897,-38.673 33.566,-114.44 34.28,-186.34 21.812,61.75 36.457,132.1 37.857,218.34 8.626,-71.955 18.667,-143.91 43.39,-215.86 -5.748,88.29 -1.284,156.95 19.525,194.17 13.76,-55.55 25.504,-111.1 29.12,-166.66 18.42,82.78 13,159.59 16.706,238.69 z" fill="#fff" fill-opacity="1" id="path16" style="fill:#000000"/>
  </g>
</svg><svg xmlns:inkscape="http://www.inkscape.org/namespaces/inkscape" xmlns:sodipodi="http://sodipodi.sourceforge.net/DTD/sodipodi-0.dtd" xmlns="http://www.w3.org/2000/svg" xmlns:svg="http://www.w3.org/2000/svg" style="height: 512px; width: 512px;" version="1.1" id="terrain/grassland" sodipodi:docname="grassland.svg" inkscape:version="1.2 (dc2aedaf03, 2022-05-15)" class="icon terrain grassland">
  <defs id="defs24"/>
  <sodipodi:namedview id="namedview22" pagecolor="#ffffff" bordercolor="#000000" borderopacity="0.25" inkscape:showpageshadow="2" inkscape:pageopacity="0.0" inkscape:pagecheckerboard="0" inkscape:deskcolor="#d1d1d1" showgrid="false" inkscape:zoom="1.9570312" inkscape:cx="256.51098" inkscape:cy="256.00001" inkscape:window-width="3440" inkscape:window-height="1377" inkscape:window-x="1912" inkscape:window-y="-8" inkscape:window-maximized="1" inkscape:current-layer="svg20"/>
  <g class="" transform="matrix(1.0716222,0,0,0.35370027,-19.684408,154.73714)" style="fill:#000000" id="g18">
    <path d="M 18,494 54.35,163.6 c 6.728,107.62 4.086,231.82 35.556,295.67 11.205,-84.926 15.707,-168.18 10.562,-249.01 15.225,71.69 35.543,141.68 39.468,217.14 7.395,-55.935 12.667,-111.52 31.798,-169.41 -0.76,65.19 -17.16,124.9 12.677,157.47 14.433,-51.01 28.992,-101.9 31.46,-164.88 21.27,61.862 18.342,135.82 24.948,205.02 8.417,-68.06 15.28,-257.84 46.907,-318.17 -3.11,124.98 -3.862,223.94 27.398,274.23 30.897,-38.673 33.566,-114.44 34.28,-186.34 21.812,61.75 36.457,132.1 37.857,218.34 8.626,-71.955 18.667,-143.91 43.39,-215.86 -5.748,88.29 -1.284,156.95 19.525,194.17 13.76,-55.55 25.504,-111.1 29.12,-166.66 18.42,82.78 13,159.59 16.706,238.69 z" fill="#fff" fill-opacity="1" id="path16" style="fill:#000000"/>
  </g>
</svg><svg xmlns:inkscape="http://www.inkscape.org/namespaces/inkscape" xmlns:sodipodi="http://sodipodi.sourceforge.net/DTD/sodipodi-0.dtd" xmlns="http://www.w3.org/2000/svg" xmlns:svg="http://www.w3.org/2000/svg" style="height: 512px; width: 512px;" version="1.1" id="terrain/grassland" sodipodi:docname="grassland.svg" inkscape:version="1.2 (dc2aedaf03, 2022-05-15)" class="icon terrain grassland">
  <defs id="defs24"/>
  <sodipodi:namedview id="namedview22" pagecolor="#ffffff" bordercolor="#000000" borderopacity="0.25" inkscape:showpageshadow="2" inkscape:pageopacity="0.0" inkscape:pagecheckerboard="0" inkscape:deskcolor="#d1d1d1" showgrid="false" inkscape:zoom="1.9570312" inkscape:cx="256.51098" inkscape:cy="256.00001" inkscape:window-width="3440" inkscape:window-height="1377" inkscape:window-x="1912" inkscape:window-y="-8" inkscape:window-maximized="1" inkscape:current-layer="svg20"/>
  <g class="" transform="matrix(1.0716222,0,0,0.35370027,-19.684408,154.73714)" style="fill:#000000" id="g18">
    <path d="M 18,494 54.35,163.6 c 6.728,107.62 4.086,231.82 35.556,295.67 11.205,-84.926 15.707,-168.18 10.562,-249.01 15.225,71.69 35.543,141.68 39.468,217.14 7.395,-55.935 12.667,-111.52 31.798,-169.41 -0.76,65.19 -17.16,124.9 12.677,157.47 14.433,-51.01 28.992,-101.9 31.46,-164.88 21.27,61.862 18.342,135.82 24.948,205.02 8.417,-68.06 15.28,-257.84 46.907,-318.17 -3.11,124.98 -3.862,223.94 27.398,274.23 30.897,-38.673 33.566,-114.44 34.28,-186.34 21.812,61.75 36.457,132.1 37.857,218.34 8.626,-71.955 18.667,-143.91 43.39,-215.86 -5.748,88.29 -1.284,156.95 19.525,194.17 13.76,-55.55 25.504,-111.1 29.12,-166.66 18.42,82.78 13,159.59 16.706,238.69 z" fill="#fff" fill-opacity="1" id="path16" style="fill:#000000"/>
  </g>
</svg><svg xmlns:inkscape="http://www.inkscape.org/namespaces/inkscape" xmlns:sodipodi="http://sodipodi.sourceforge.net/DTD/sodipodi-0.dtd" xmlns="http://www.w3.org/2000/svg" xmlns:svg="http://www.w3.org/2000/svg" style="height: 512px; width: 512px;" version="1.1" id="terrain/grassland" sodipodi:docname="grassland.svg" inkscape:version="1.2 (dc2aedaf03, 2022-05-15)" class="icon terrain grassland">
  <defs id="defs24"/>
  <sodipodi:namedview id="namedview22" pagecolor="#ffffff" bordercolor="#000000" borderopacity="0.25" inkscape:showpageshadow="2" inkscape:pageopacity="0.0" inkscape:pagecheckerboard="0" inkscape:deskcolor="#d1d1d1" showgrid="false" inkscape:zoom="1.9570312" inkscape:cx="256.51098" inkscape:cy="256.00001" inkscape:window-width="3440" inkscape:window-height="1377" inkscape:window-x="1912" inkscape:window-y="-8" inkscape:window-maximized="1" inkscape:current-layer="svg20"/>
  <g class="" transform="matrix(1.0716222,0,0,0.35370027,-19.684408,154.73714)" style="fill:#000000" id="g18">
    <path d="M 18,494 54.35,163.6 c 6.728,107.62 4.086,231.82 35.556,295.67 11.205,-84.926 15.707,-168.18 10.562,-249.01 15.225,71.69 35.543,141.68 39.468,217.14 7.395,-55.935 12.667,-111.52 31.798,-169.41 -0.76,65.19 -17.16,124.9 12.677,157.47 14.433,-51.01 28.992,-101.9 31.46,-164.88 21.27,61.862 18.342,135.82 24.948,205.02 8.417,-68.06 15.28,-257.84 46.907,-318.17 -3.11,124.98 -3.862,223.94 27.398,274.23 30.897,-38.673 33.566,-114.44 34.28,-186.34 21.812,61.75 36.457,132.1 37.857,218.34 8.626,-71.955 18.667,-143.91 43.39,-215.86 -5.748,88.29 -1.284,156.95 19.525,194.17 13.76,-55.55 25.504,-111.1 29.12,-166.66 18.42,82.78 13,159.59 16.706,238.69 z" fill="#fff" fill-opacity="1" id="path16" style="fill:#000000"/>
  </g>
</svg><svg xmlns:inkscape="http://www.inkscape.org/namespaces/inkscape" xmlns:sodipodi="http://sodipodi.sourceforge.net/DTD/sodipodi-0.dtd" xmlns="http://www.w3.org/2000/svg" xmlns:svg="http://www.w3.org/2000/svg" style="height: 512px; width: 512px;" version="1.1" id="terrain/grassland" sodipodi:docname="grassland.svg" inkscape:version="1.2 (dc2aedaf03, 2022-05-15)" class="icon terrain grassland">
  <defs id="defs24"/>
  <sodipodi:namedview id="namedview22" pagecolor="#ffffff" bordercolor="#000000" borderopacity="0.25" inkscape:showpageshadow="2" inkscape:pageopacity="0.0" inkscape:pagecheckerboard="0" inkscape:deskcolor="#d1d1d1" showgrid="false" inkscape:zoom="1.9570312" inkscape:cx="256.51098" inkscape:cy="256.00001" inkscape:window-width="3440" inkscape:window-height="1377" inkscape:window-x="1912" inkscape:window-y="-8" inkscape:window-maximized="1" inkscape:current-layer="svg20"/>
  <g class="" transform="matrix(1.0716222,0,0,0.35370027,-19.684408,154.73714)" style="fill:#000000" id="g18">
    <path d="M 18,494 54.35,163.6 c 6.728,107.62 4.086,231.82 35.556,295.67 11.205,-84.926 15.707,-168.18 10.562,-249.01 15.225,71.69 35.543,141.68 39.468,217.14 7.395,-55.935 12.667,-111.52 31.798,-169.41 -0.76,65.19 -17.16,124.9 12.677,157.47 14.433,-51.01 28.992,-101.9 31.46,-164.88 21.27,61.862 18.342,135.82 24.948,205.02 8.417,-68.06 15.28,-257.84 46.907,-318.17 -3.11,124.98 -3.862,223.94 27.398,274.23 30.897,-38.673 33.566,-114.44 34.28,-186.34 21.812,61.75 36.457,132.1 37.857,218.34 8.626,-71.955 18.667,-143.91 43.39,-215.86 -5.748,88.29 -1.284,156.95 19.525,194.17 13.76,-55.55 25.504,-111.1 29.12,-166.66 18.42,82.78 13,159.59 16.706,238.69 z" fill="#fff" fill-opacity="1" id="path16" style="fill:#000000"/>
  </g>
</svg><svg xmlns:inkscape="http://www.inkscape.org/namespaces/inkscape" xmlns:sodipodi="http://sodipodi.sourceforge.net/DTD/sodipodi-0.dtd" xmlns="http://www.w3.org/2000/svg" xmlns:svg="http://www.w3.org/2000/svg" style="height: 512px; width: 512px;" version="1.1" id="terrain/grassland" sodipodi:docname="grassland.svg" inkscape:version="1.2 (dc2aedaf03, 2022-05-15)" class="icon terrain grassland">
  <defs id="defs24"/>
  <sodipodi:namedview id="namedview22" pagecolor="#ffffff" bordercolor="#000000" borderopacity="0.25" inkscape:showpageshadow="2" inkscape:pageopacity="0.0" inkscape:pagecheckerboard="0" inkscape:deskcolor="#d1d1d1" showgrid="false" inkscape:zoom="1.9570312" inkscape:cx="256.51098" inkscape:cy="256.00001" inkscape:window-width="3440" inkscape:window-height="1377" inkscape:window-x="1912" inkscape:window-y="-8" inkscape:window-maximized="1" inkscape:current-layer="svg20"/>
  <g class="" transform="matrix(1.0716222,0,0,0.35370027,-19.684408,154.73714)" style="fill:#000000" id="g18">
    <path d="M 18,494 54.35,163.6 c 6.728,107.62 4.086,231.82 35.556,295.67 11.205,-84.926 15.707,-168.18 10.562,-249.01 15.225,71.69 35.543,141.68 39.468,217.14 7.395,-55.935 12.667,-111.52 31.798,-169.41 -0.76,65.19 -17.16,124.9 12.677,157.47 14.433,-51.01 28.992,-101.9 31.46,-164.88 21.27,61.862 18.342,135.82 24.948,205.02 8.417,-68.06 15.28,-257.84 46.907,-318.17 -3.11,124.98 -3.862,223.94 27.398,274.23 30.897,-38.673 33.566,-114.44 34.28,-186.34 21.812,61.75 36.457,132.1 37.857,218.34 8.626,-71.955 18.667,-143.91 43.39,-215.86 -5.748,88.29 -1.284,156.95 19.525,194.17 13.76,-55.55 25.504,-111.1 29.12,-166.66 18.42,82.78 13,159.59 16.706,238.69 z" fill="#fff" fill-opacity="1" id="path16" style="fill:#000000"/>
  </g>
</svg><svg xmlns:inkscape="http://www.inkscape.org/namespaces/inkscape" xmlns:sodipodi="http://sodipodi.sourceforge.net/DTD/sodipodi-0.dtd" xmlns="http://www.w3.org/2000/svg" xmlns:svg="http://www.w3.org/2000/svg" style="height: 512px; width: 512px;" version="1.1" id="terrain/heavy_woods" sodipodi:docname="heavy_woods.svg" inkscape:version="1.2 (dc2aedaf03, 2022-05-15)" class="icon terrain heavy_woods">
  <defs id="defs12"/>
  <sodipodi:namedview id="namedview10" pagecolor="#ffffff" bordercolor="#000000" borderopacity="0.25" inkscape:showpageshadow="2" inkscape:pageopacity="0.0" inkscape:pagecheckerboard="0" inkscape:deskcolor="#d1d1d1" showgrid="false" inkscape:zoom="1.9570312" inkscape:cx="256" inkscape:cy="256" inkscape:window-width="3440" inkscape:window-height="1377" inkscape:window-x="1912" inkscape:window-y="-8" inkscape:window-maximized="1" inkscape:current-layer="svg8"/>
  <g class="" transform="translate(0,0)" style="fill:#000000" id="g6">
    <path d="M169.92 15.654c-10.512 16.697-22.392 34.058-41.688 50.473.46.447.934.89 1.405 1.336l23.55-.406-3.527 10.7c-.505 1.53-1.065 3.048-1.678 4.552 2.803 1.945 5.745 3.875 8.872 5.788l25.052 15.33-45.99-.793c-1.954 2.474-4.06 4.9-6.305 7.275 8.8 11.517 22.045 22.713 38.675 32.766l-12.404-.365-.015 5.678c8.53 6.358 17.792 12.448 27.162 18.48 18.11-11.568 31.79-24.5 39.51-37.616l-57.353.99 25.052-15.33c8.97-5.488 16.525-11.115 23.082-16.867-5.098-5.475-9-10.962-11.257-16.69l-4.04-10.246 29.742-1.823C205.14 54.41 182.44 38.31 169.92 15.654zm234.605 13.223c-6.537 12.962-13.88 29.016-23.638 44.63 10.927 18.367 24.428 35.997 46.773 52.382l20.42 14.97-52.51-1.085c6.956 12.136 19.936 26.858 34.58 40.047 19.157 17.254 40.928 32.572 53.907 39.914l11.34 6.418c.005-4.163.005-7.382.015-13.972-17.176-11.938-29.767-25.795-36.322-42.2l-4.115-10.298 43.605-2.58c-9.91-4.358-19.747-8.263-28.723-12.06-8.498-3.594-16.23-7.107-22.724-11.23-6.495-4.122-12.102-8.954-14.858-15.943l-3.93-9.962 36.077-3.178c-24.245-20.226-47.223-48.756-59.897-75.853zM84.027 34.62c-12.52 22.656-35.22 38.757-57.843 53.234l29.738 1.822-4.037 10.244c-4.78 12.125-16.815 24.123-33.182 36.873-.295 11.21-.392 17.66-.385 17.732.005.044.19 1.1.29 3.127.038.742.04 3.177.066 4.358l13.828.797-.004.55-3.906 9.778c-1.18 2.955-2.498 6.07-4.16 9.232l11.525-7.05c37.376-22.87 50.42-48.163 67.395-74.833l-.233 6.366 4.474-1.875c-1.277-2.702-2.382-5.452-3.305-8.25l-3.528-10.7 26.582.46C107.068 69.66 94.836 51.787 84.027 34.618zM263.06 61.036c-10.808 17.168-23.04 35.04-43.314 51.86l26.582-.458-3.527 10.7c-6.657 20.188-22.772 37.89-44.874 52.91l17.916 11.573 18.273.688-4.127 10.5c-2.305 5.863-5.355 11.4-9.01 16.65l8.737-6.19c17.913-12.69 36.773-27.495 51.8-41.534 10.026-9.365 17.978-18.52 23.083-25.914l-50.537-3.715 16.5-12.773c10.37-8.027 20.973-15.94 30.924-24.178-15.49-11.246-29.53-24.024-38.423-40.12zm93.07.68c-12.76 26.805-36.227 46.04-59.107 63.506l31.39 2.306-3.194 9.726c-4.503 13.7-16.983 27.412-32.783 42.172-10.794 10.083-23.245 20.29-35.896 29.926l49.278 3.494-3.26 9.78c-11.273 33.806-46.845 56.924-75.816 75.597 13.487 8.056 27.67 15.44 39.813 22.318 68.34 18.82 147.594 6.972 200.924-16-13.19-7.554-23.844-14.547-32.748-23.006-11.805-11.216-20.072-24.96-26.377-44.183l-3.017-9.208 51.97-6.61c-11.874-8.21-25.17-18.39-37.867-29.825-20.11-18.113-38.394-38.003-43.915-58.067L372.68 123.3l27.867.577c-21.174-20.07-33.542-41.485-44.416-62.16zM108.78 121.84c-10.807 17.168-23.038 35.04-43.313 51.86l26.582-.456-3.53 10.697c-8.24 24.998-30.974 46.186-61.625 63.185l52.94 1.99-4.126 10.496c-11.05 28.11-29.76 52.974-61.038 71.585 73.885 22.566 156.574 31.568 231.582-3.572-12.908-7.055-26.9-14.653-40.33-23.56-18.07-11.983-34.525-25.736-41.71-43.713l-4.116-10.3 48.4-2.864c-11.828-7.625-23.415-15.48-33.557-23.383-16.245-12.663-29.06-24.086-34.02-36.664l-4.04-10.247 29.74-1.823c-22.62-14.476-45.318-30.576-57.84-53.23zM68.26 189.656l-49.016.844c-.168.218-.32.44-.492.656-.276 21.495-.448 33.384-.502 42.38 23.342-13.057 40.863-28.338 50.01-43.88zm105.674 12.403c3.27 2.968 6.883 6.035 10.845 9.124 3.52 2.743 7.266 5.524 11.14 8.308 5.44-5.177 10.084-10.545 13.692-16.092l-35.678-1.34zm41.658 20.428c-1.87 2.225-3.865 4.388-5.947 6.504 9.277 6.192 18.952 12.242 28.38 17.815l17.645 10.427c11.34-9.42 21.135-19.423 27.215-29.972l-67.293-4.774zm279.803 10.334l-68.383 8.698c4.666 11.45 10.047 19.75 17.28 26.992l-.21-9.6c17.455-.996 34.705-3.352 51.4-7.363-.065-7.174-.084-12.42-.087-18.728zm-243.96 27.852l-66.394 3.928c3.903 5.187 9.085 10.326 15.097 15.314 6.417 1.284 12.905 2.463 19.455 3.504 10.638-7.12 21.72-14.713 31.842-22.746zm-219.744 2.64l-.29 35.618c10.746-10.37 18.692-21.97 24.83-34.694l-24.54-.924zm413.947 66.534c-14.262 4.577-29.517 8.396-45.38 11.222l5.55 132.18h42.978l-3.148-143.402zm-181.83 7.002c-2.663 1.404-5.337 2.75-8.018 4.046l-.927 114.274h52.682l-2.426-110.496c-13.946-1.552-27.788-4.123-41.313-7.824zm120.54 6.693c-15.085 1.992-30.582 3.05-46.18 2.994l-.386 139.742h52.56l-5.994-142.737zm-353.38 9.146l-.924 114.04H74.31l1.975-104.398c-15.362-2.464-30.51-5.75-45.318-9.643zm174.72 6.27c-11.576 2.87-23.226 4.935-34.898 6.284l3.915 66.195h33.065l-2.084-72.48zm-113.443 5.628l-2.508 132.56 72.692-2.287-7.584-128.21c-20.97 1.29-41.936.424-62.6-2.062z" fill="#fff" fill-opacity="1" id="path4" style="fill:#000000"/>
  </g>
</svg><svg xmlns:inkscape="http://www.inkscape.org/namespaces/inkscape" xmlns:sodipodi="http://sodipodi.sourceforge.net/DTD/sodipodi-0.dtd" xmlns="http://www.w3.org/2000/svg" xmlns:svg="http://www.w3.org/2000/svg" style="height: 512px; width: 512px;" version="1.1" id="terrain/hills" sodipodi:docname="hills.svg" inkscape:version="1.2 (dc2aedaf03, 2022-05-15)" class="icon terrain hills">
  <defs id="defs199"/>
  <sodipodi:namedview id="namedview197" pagecolor="#ffffff" bordercolor="#000000" borderopacity="0.25" inkscape:showpageshadow="2" inkscape:pageopacity="0.0" inkscape:pagecheckerboard="0" inkscape:deskcolor="#d1d1d1" showgrid="false" inkscape:zoom="1.9570312" inkscape:cx="256" inkscape:cy="256" inkscape:window-width="3440" inkscape:window-height="1377" inkscape:window-x="1912" inkscape:window-y="-8" inkscape:window-maximized="1" inkscape:current-layer="svg195"/>
  <g class="" transform="translate(0,0)" style="fill:#000000" id="g193">
    <path d="m 128,137 c -42.657,0 -79.727,10.965 -110,25.322 v 128.002 c 30.184,-5.45 59.138,-8.394 86.82,-9.08 50.9,-1.26 97.525,5.05 139.744,17.12 42.768,-27.11 86.74,-52.815 134.387,-73.048 C 304.435,169.018 211.563,137 128,137 Z m 366,71.98 c -85.695,15.81 -157.66,53.443 -226.953,96.485 22.08,7.666 42.85,16.937 62.283,27.537 73.712,40.21 128.137,99.163 162.81,160.998 H 494 Z m -373.03,90.008 c -5.196,-0.034 -10.44,0.016 -15.738,0.15 -27.682,0.703 -56.767,3.78 -87.232,9.5 V 494 H 471.242 C 437.996,438.22 387.655,385.322 320.712,348.805 265.455,318.663 198.895,299.495 120.969,298.988 Z" fill="#fff" fill-opacity="1" id="path191" style="fill:#000000" sodipodi:nodetypes="scccccscccccccccccccc"/>
  </g>
</svg><svg xmlns:inkscape="http://www.inkscape.org/namespaces/inkscape" xmlns:sodipodi="http://sodipodi.sourceforge.net/DTD/sodipodi-0.dtd" xmlns="http://www.w3.org/2000/svg" xmlns:svg="http://www.w3.org/2000/svg" style="height: 512px; width: 512px;" version="1.1" id="terrain/hills" sodipodi:docname="hills.svg" inkscape:version="1.2 (dc2aedaf03, 2022-05-15)" class="icon terrain hills">
  <defs id="defs199"/>
  <sodipodi:namedview id="namedview197" pagecolor="#ffffff" bordercolor="#000000" borderopacity="0.25" inkscape:showpageshadow="2" inkscape:pageopacity="0.0" inkscape:pagecheckerboard="0" inkscape:deskcolor="#d1d1d1" showgrid="false" inkscape:zoom="1.9570312" inkscape:cx="256" inkscape:cy="256" inkscape:window-width="3440" inkscape:window-height="1377" inkscape:window-x="1912" inkscape:window-y="-8" inkscape:window-maximized="1" inkscape:current-layer="svg195"/>
  <g class="" transform="translate(0,0)" style="fill:#000000" id="g193">
    <path d="m 128,137 c -42.657,0 -79.727,10.965 -110,25.322 v 128.002 c 30.184,-5.45 59.138,-8.394 86.82,-9.08 50.9,-1.26 97.525,5.05 139.744,17.12 42.768,-27.11 86.74,-52.815 134.387,-73.048 C 304.435,169.018 211.563,137 128,137 Z m 366,71.98 c -85.695,15.81 -157.66,53.443 -226.953,96.485 22.08,7.666 42.85,16.937 62.283,27.537 73.712,40.21 128.137,99.163 162.81,160.998 H 494 Z m -373.03,90.008 c -5.196,-0.034 -10.44,0.016 -15.738,0.15 -27.682,0.703 -56.767,3.78 -87.232,9.5 V 494 H 471.242 C 437.996,438.22 387.655,385.322 320.712,348.805 265.455,318.663 198.895,299.495 120.969,298.988 Z" fill="#fff" fill-opacity="1" id="path191" style="fill:#000000" sodipodi:nodetypes="scccccscccccccccccccc"/>
  </g>
</svg><svg xmlns:inkscape="http://www.inkscape.org/namespaces/inkscape" xmlns:sodipodi="http://sodipodi.sourceforge.net/DTD/sodipodi-0.dtd" xmlns="http://www.w3.org/2000/svg" xmlns:svg="http://www.w3.org/2000/svg" style="height: 512px; width: 512px;" version="1.1" id="terrain/hills" sodipodi:docname="hills.svg" inkscape:version="1.2 (dc2aedaf03, 2022-05-15)" class="icon terrain hills">
  <defs id="defs199"/>
  <sodipodi:namedview id="namedview197" pagecolor="#ffffff" bordercolor="#000000" borderopacity="0.25" inkscape:showpageshadow="2" inkscape:pageopacity="0.0" inkscape:pagecheckerboard="0" inkscape:deskcolor="#d1d1d1" showgrid="false" inkscape:zoom="1.9570312" inkscape:cx="256" inkscape:cy="256" inkscape:window-width="3440" inkscape:window-height="1377" inkscape:window-x="1912" inkscape:window-y="-8" inkscape:window-maximized="1" inkscape:current-layer="svg195"/>
  <g class="" transform="translate(0,0)" style="fill:#000000" id="g193">
    <path d="m 128,137 c -42.657,0 -79.727,10.965 -110,25.322 v 128.002 c 30.184,-5.45 59.138,-8.394 86.82,-9.08 50.9,-1.26 97.525,5.05 139.744,17.12 42.768,-27.11 86.74,-52.815 134.387,-73.048 C 304.435,169.018 211.563,137 128,137 Z m 366,71.98 c -85.695,15.81 -157.66,53.443 -226.953,96.485 22.08,7.666 42.85,16.937 62.283,27.537 73.712,40.21 128.137,99.163 162.81,160.998 H 494 Z m -373.03,90.008 c -5.196,-0.034 -10.44,0.016 -15.738,0.15 -27.682,0.703 -56.767,3.78 -87.232,9.5 V 494 H 471.242 C 437.996,438.22 387.655,385.322 320.712,348.805 265.455,318.663 198.895,299.495 120.969,298.988 Z" fill="#fff" fill-opacity="1" id="path191" style="fill:#000000" sodipodi:nodetypes="scccccscccccccccccccc"/>
  </g>
</svg><svg xmlns:inkscape="http://www.inkscape.org/namespaces/inkscape" xmlns:sodipodi="http://sodipodi.sourceforge.net/DTD/sodipodi-0.dtd" xmlns="http://www.w3.org/2000/svg" xmlns:svg="http://www.w3.org/2000/svg" style="height: 512px; width: 512px;" version="1.1" id="terrain/lake" sodipodi:docname="lake.svg" inkscape:version="1.2 (dc2aedaf03, 2022-05-15)" class="icon terrain lake">
  <defs id="defs312"/>
  <sodipodi:namedview id="namedview310" pagecolor="#ffffff" bordercolor="#000000" borderopacity="0.25" inkscape:showpageshadow="2" inkscape:pageopacity="0.0" inkscape:pagecheckerboard="0" inkscape:deskcolor="#d1d1d1" showgrid="false" inkscape:zoom="1.9570312" inkscape:cx="256" inkscape:cy="391.92016" inkscape:window-width="3440" inkscape:window-height="1377" inkscape:window-x="1912" inkscape:window-y="-8" inkscape:window-maximized="1" inkscape:current-layer="svg308"/>
  <path d="m 16.656,253.968 c -11.104,-169.312 -5.552,-84.656 0,0 z m 461.25,13.469 c -30.945,8.15 -68.07,-14.224 -85.406,-43.844 -47.56,66.05 -89.736,73.192 -129.156,-1.563 -36.942,67.55 -104.172,73.156 -137.125,20.064 -33.724,45.983 -56.65,52.056 -91.064,28.562 -0.408,-5.506 -0.625,-11.076 -0.625,-16.687 38.03662,373.58112 469.85943,205.08493 443.376,13.468 z m -82.968,9.877 c 20.212,40.226 58.603,27.536 81.968,1.56 -4.73,42.46 -21.395,81.254 -46.594,113 -33.743,18.582 -58.868,7.2 -89.562,-45.624 -41.883,74.754 -109.812,67.614 -160.344,1.563 -17.546,28.218 -62.92,49.844 -97.28,44.78 -21.883,-27.33 -37.445,-59.944 -44.44,-95.656 23.49,22.105 63.89,29.177 84.408,-3.625 32.368,48.656 100.402,51.536 140.25,-5.062 23.826,34.047 85.965,64.59 131.594,-10.938 z M 177.813,401.5 c 48.48,75.528 137.623,45.016 162.937,10.97 17.197,19.63 37.55,20.796 57.688,12.06 -88.42516,66.34524 -206.20792,64.14304 -285.375,-1.155 24.17,8.208 50.552,4.72 64.75,-21.875 z" fill="#fff" fill-opacity="1" id="path304" style="fill:#000000" sodipodi:nodetypes="ccccccccccccccccccccccccc"/>
</svg><svg xmlns:inkscape="http://www.inkscape.org/namespaces/inkscape" xmlns:sodipodi="http://sodipodi.sourceforge.net/DTD/sodipodi-0.dtd" xmlns="http://www.w3.org/2000/svg" xmlns:svg="http://www.w3.org/2000/svg" style="height: 512px; width: 512px;" version="1.1" id="terrain/lake" sodipodi:docname="lake.svg" inkscape:version="1.2 (dc2aedaf03, 2022-05-15)" class="icon terrain lake">
  <defs id="defs312"/>
  <sodipodi:namedview id="namedview310" pagecolor="#ffffff" bordercolor="#000000" borderopacity="0.25" inkscape:showpageshadow="2" inkscape:pageopacity="0.0" inkscape:pagecheckerboard="0" inkscape:deskcolor="#d1d1d1" showgrid="false" inkscape:zoom="1.9570312" inkscape:cx="256" inkscape:cy="391.92016" inkscape:window-width="3440" inkscape:window-height="1377" inkscape:window-x="1912" inkscape:window-y="-8" inkscape:window-maximized="1" inkscape:current-layer="svg308"/>
  <path d="m 16.656,253.968 c -11.104,-169.312 -5.552,-84.656 0,0 z m 461.25,13.469 c -30.945,8.15 -68.07,-14.224 -85.406,-43.844 -47.56,66.05 -89.736,73.192 -129.156,-1.563 -36.942,67.55 -104.172,73.156 -137.125,20.064 -33.724,45.983 -56.65,52.056 -91.064,28.562 -0.408,-5.506 -0.625,-11.076 -0.625,-16.687 38.03662,373.58112 469.85943,205.08493 443.376,13.468 z m -82.968,9.877 c 20.212,40.226 58.603,27.536 81.968,1.56 -4.73,42.46 -21.395,81.254 -46.594,113 -33.743,18.582 -58.868,7.2 -89.562,-45.624 -41.883,74.754 -109.812,67.614 -160.344,1.563 -17.546,28.218 -62.92,49.844 -97.28,44.78 -21.883,-27.33 -37.445,-59.944 -44.44,-95.656 23.49,22.105 63.89,29.177 84.408,-3.625 32.368,48.656 100.402,51.536 140.25,-5.062 23.826,34.047 85.965,64.59 131.594,-10.938 z M 177.813,401.5 c 48.48,75.528 137.623,45.016 162.937,10.97 17.197,19.63 37.55,20.796 57.688,12.06 -88.42516,66.34524 -206.20792,64.14304 -285.375,-1.155 24.17,8.208 50.552,4.72 64.75,-21.875 z" fill="#fff" fill-opacity="1" id="path304" style="fill:#000000" sodipodi:nodetypes="ccccccccccccccccccccccccc"/>
</svg><svg xmlns:inkscape="http://www.inkscape.org/namespaces/inkscape" xmlns:sodipodi="http://sodipodi.sourceforge.net/DTD/sodipodi-0.dtd" xmlns="http://www.w3.org/2000/svg" xmlns:svg="http://www.w3.org/2000/svg" style="height: 512px; width: 512px;" version="1.1" id="terrain/light_wood" sodipodi:docname="light_woods.svg" inkscape:version="1.2 (dc2aedaf03, 2022-05-15)" class="icon terrain light_wood">
  <defs id="defs329"/>
  <sodipodi:namedview id="namedview327" pagecolor="#ffffff" bordercolor="#000000" borderopacity="0.25" inkscape:showpageshadow="2" inkscape:pageopacity="0.0" inkscape:pagecheckerboard="0" inkscape:deskcolor="#d1d1d1" showgrid="false" inkscape:zoom="1.9570312" inkscape:cx="256" inkscape:cy="256" inkscape:window-width="3440" inkscape:window-height="1377" inkscape:window-x="1912" inkscape:window-y="-8" inkscape:window-maximized="1" inkscape:current-layer="svg325"/>
  <g class="" transform="translate(0,0)" style="fill:#000000" id="g323">
    <path d="M249.28 19.188v.25c-18.114 38.634-45.065 72.36-77.686 102.937l37.72-3.938-51.345 65.032 24.81-7.907-33.624 54.875 16.53 9.843-65.25 92.157 36.095.188-51.686 83.594 63.562-8.126 12 32.094 66.438-25.282L215.5 493.28h52.938l-6.532-68.217 38.188 16.406 10.187-24.783 44.283 20.97 56.406-20.75-37.064-64.094-12.437-2.282 6.78 17.19 7.844 19.905-19.938-7.78-50.906-19.908V395.688l-14.156-8.594-69.375-42-21.595 21.25-18.03 17.75 2.155-25.22 2.125-24.655 18.188 1.56 9.218-9.092 5.19-5.094 6.218 3.75 61.375 37.156v-29.906l12.75 4.97 43.718 17.092-5.092-12.906-6.157-15.656 16.533 3.03 45.468 8.345-34.53-38.94-23.625 14.033-6.688 3.968-5.125-5.874-14.28-16.437.218 1.217-18.406 3.22-5.97-34.313-5.75-33.063 22 25.345 31.188 35.875 43.907-26.03c-24.67-19.543-39.507-33.87-49.658-48.814l.813 12.656 1.97 31-18.75-24.75-34.47-45.437-22.25 46.813-13.844 29.125-3.843-32.032-3.5-28.843 16.532-1.968 16.624-34.97 6.594-13.875 9.28 12.22 25 32.936-.75-11.53-.906-14.28 13.47 4.936L341.81 188l-26.125-35.156-55.843-28.875-8.938 20.218-9.656 21.937-7.72-22.688-7.468-21.875 16.97-5.78 3.718-8.438 4-9.125 8.844 4.593 49.375 25.53 16.467-5.562c-43.42-34.31-64.63-68.886-76.156-103.593z" fill="#fff" fill-opacity="1" id="path321" style="fill:#000000"/>
  </g>
</svg><svg xmlns:inkscape="http://www.inkscape.org/namespaces/inkscape" xmlns:sodipodi="http://sodipodi.sourceforge.net/DTD/sodipodi-0.dtd" xmlns="http://www.w3.org/2000/svg" xmlns:svg="http://www.w3.org/2000/svg" style="height: 512px; width: 512px;" version="1.1" id="terrain/marsh" sodipodi:docname="marsh.svg" inkscape:version="1.2 (dc2aedaf03, 2022-05-15)" class="icon terrain marsh">
  <defs id="defs346"/>
  <sodipodi:namedview id="namedview344" pagecolor="#ffffff" bordercolor="#000000" borderopacity="0.25" inkscape:showpageshadow="2" inkscape:pageopacity="0.0" inkscape:pagecheckerboard="0" inkscape:deskcolor="#d1d1d1" showgrid="false" inkscape:zoom="1.9570312" inkscape:cx="256" inkscape:cy="256" inkscape:window-width="3440" inkscape:window-height="1377" inkscape:window-x="1912" inkscape:window-y="-8" inkscape:window-maximized="1" inkscape:current-layer="svg342"/>
  <g class="" transform="translate(0,0)" style="fill:#000000" id="g340">
    <path d="M350.8 22.28c-2.3 13.74-4.6 27.67-6.8 41.68h.6c1.3-.1 2.7 0 4.1.1 4.5.4 8.9 1.78 12.9 3.97 2.3-14.37 4.6-28.66 7-42.75zm-171.6.32l-17.8 2.52c1.2 8.41 2.4 16.86 3.6 25.34 3.9-1.63 8-2.62 12.2-2.89 1.8-.12 3.7-.1 5.5.1-1.2-8.37-2.3-16.73-3.5-25.03zm.4 42.89h-1.2c-12.7.8-26.1 11.9-23.7 40.61l10.2 127.7c2.3 28.6 17.7 38.2 30.4 37.4 12.7-.8 26.1-12 23.8-40.5l-10.3-127.8c-2.2-27.65-16.8-37.55-29.2-37.41zm165.6 16.4c-4.5.13-9.2 2.17-13.6 7.1-5.1 5.65-9.6 15.31-10.9 29.71l-11.3 127.5c-1.3 14.5 1.4 24.8 5.4 31.2 4 6.5 9 9.3 14 9.7 4.9.5 10.4-1.4 15.4-7 5.1-5.7 9.6-15.3 10.9-29.8l11.4-127.5c1.3-14.4-1.4-24.71-5.4-31.17-4-6.46-9-9.23-14-9.68-.6-.1-1.3-.1-1.9-.1zM25.99 223.3C78.79 299.9 126.7 397.8 125 489.7h35.3c3.1-20.8 7.5-39.3 13-56.2-10.9-35.5-28.2-73.7-49.5-108.1-28.14-45.5-63.44-83.9-97.81-102.1zM419.3 270c-1.3 0-3.7.7-6.8 3.1-3.6 2.7-7.8 7.3-11.9 13-3.3 4.7-6.6 10.2-9.6 16 5-2.1 10-3.7 15-4.4 13.3-2 26.3 1 37.8 8.1 16.5 10.2 30.1 28.1 42.2 52.2-.3-15.6-3.4-31.3-9.5-45-10.4-23.3-28.3-40.3-56.7-43zm-210.9 16.3c-3.8 1.6-7.9 2.5-12 2.8-2 .1-4 .1-5.9-.1 1.8 33.1 2.7 65.9 2.3 97.9 5.5-10.6 11.5-21 18.1-31.4-.3-22.9-1.2-46-2.5-69.2zm104.5 14.1c-5.5 56.5-9.3 112.6-10.6 166.7 5.9-20.8 12.7-41.5 20.6-62.1 1.8-32.8 4.5-66.2 7.7-99.8-1.2 0-2.3 0-3.4-.1-5-.5-9.9-2.1-14.3-4.7zm88.3 16.9c-7 2.3-14.7 6.4-23 12.9-30.1 52.2-49 105.1-63.4 159.5h80.5c-12.6-57.3-5-115 5.9-172.4zm-146.7 5.6c-38.5 54.6-64.6 95.2-75.8 166H237c-13-31.1-12.1-62.8-4.3-96.6 5-21.6 12.9-44.6 21.8-69.4z" fill="#fff" fill-opacity="1" id="path338" style="fill:#000000"/>
  </g>
</svg><svg xmlns:inkscape="http://www.inkscape.org/namespaces/inkscape" xmlns:sodipodi="http://sodipodi.sourceforge.net/DTD/sodipodi-0.dtd" xmlns="http://www.w3.org/2000/svg" xmlns:svg="http://www.w3.org/2000/svg" style="height: 512px; width: 512px;" version="1.1" id="terrain/mountains" sodipodi:docname="mountains.svg" inkscape:version="1.2 (dc2aedaf03, 2022-05-15)" class="icon terrain mountains">
  <defs id="defs363"/>
  <sodipodi:namedview id="namedview361" pagecolor="#ffffff" bordercolor="#000000" borderopacity="0.25" inkscape:showpageshadow="2" inkscape:pageopacity="0.0" inkscape:pagecheckerboard="0" inkscape:deskcolor="#d1d1d1" showgrid="false" inkscape:zoom="1.9570312" inkscape:cx="256" inkscape:cy="256" inkscape:window-width="3440" inkscape:window-height="1377" inkscape:window-x="1912" inkscape:window-y="-8" inkscape:window-maximized="1" inkscape:current-layer="svg359"/>
  <g class="" transform="translate(0,0)" style="fill:#000000" id="g357">
    <path d="M245.795 19.12l-52.363 153.513 26.67 61.937 38.884-52.37 53.217 67.493 11.682-40.486-78.09-190.086zM101.172 193.69l-29.06 80.222 24.54-12.715 24.803 14.33 11.64-48.013-31.923-33.825zm83.267 5.308l-20.776 60.904-15.27-16.177-14.662 60.48-37.568-21.707-33.44 17.324L19.04 420.42l84.884 30.937 73.418-22.437 73.935 19.47 71.66-21.536 91.973 25.226 77.28-31.66-48.44-89.006-39.045 26.664-38.892-27.576-27.153 42.79-15.78-10.013 39.032-61.51-26.6-64.752-15.246 52.83-60.634-76.9-43.664 58.81-31.33-72.76zm223.06 65.81L375.84 314.7l29.066 20.61 29.865-20.394-27.27-50.11z" fill="#fff" fill-opacity="1" id="path355" style="fill:#000000"/>
  </g>
</svg><svg xmlns:inkscape="http://www.inkscape.org/namespaces/inkscape" xmlns:sodipodi="http://sodipodi.sourceforge.net/DTD/sodipodi-0.dtd" xmlns="http://www.w3.org/2000/svg" xmlns:svg="http://www.w3.org/2000/svg" style="height: 512px; width: 512px;" version="1.1" id="terrain/sea" sodipodi:docname="sea.svg" inkscape:version="1.2 (dc2aedaf03, 2022-05-15)" class="icon terrain sea">
  <defs id="defs380"/>
  <sodipodi:namedview id="namedview378" pagecolor="#ffffff" bordercolor="#000000" borderopacity="0.25" inkscape:showpageshadow="2" inkscape:pageopacity="0.0" inkscape:pagecheckerboard="0" inkscape:deskcolor="#d1d1d1" showgrid="false" inkscape:zoom="1.9570312" inkscape:cx="256" inkscape:cy="256" inkscape:window-width="3440" inkscape:window-height="1377" inkscape:window-x="1912" inkscape:window-y="-8" inkscape:window-maximized="1" inkscape:current-layer="svg376"/>
  <g class="" transform="translate(0,0)" style="fill:#000000" id="g374">
    <path d="M319.406 75.156c-50.542.49-104.39 20.876-150.094 72.844-10.232 9.65-19.88 19.59-29.187 29.313-20.516 21.433-39.694 41.877-60.22 56.468-18.484 13.142-37.73 21.617-61 22.75v89.876c53.93-32.793 59.934-67.832 115.595-136.312 6.38-6.524 12.727-13.19 19.125-19.875 9.96-10.407 20.016-20.803 30.563-30.657 46.422-36.83 92.022-27.93 107.218 2.5 4.6-49.27 57.958-30.564 66.813 18.875 6.91-33.696 20.327-44.354 34.03-31.625-28.136 49.585-26.61 110.87-8.406 164.937 20.51 60.915 61.743 114.13 110.344 133.75v-20.563c-38.34-19.194-74.662-65.71-92.657-119.156-15.937-47.336-17.777-99.07 2.75-141.655 8.492 16.92 16.342 43.406 21.94 79.53 17.992-84.587 54.762-72.463 56.624-10.593 42.998-66.287-52.197-161.48-163.438-160.406zm-35.656 95.78C194.225 181.69 66.158 359.648 43.625 494.97h91.25c1.02-133.954 71.114-282.045 148.875-324.033zm32.406 13.69c-76.76 49.056-114.574 208.732-109.812 310.343h78.437c-41.213-80.74-23.207-252.666 31.376-310.345zm21.875 26.218c-34.686 82.23-25.705 191.077 25.158 284.125h78c-75.605-53.774-120.09-190.455-103.157-284.126z" fill="#fff" fill-opacity="1" id="path372" style="fill:#000000"/>
  </g>
</svg><svg xmlns:inkscape="http://www.inkscape.org/namespaces/inkscape" xmlns:sodipodi="http://sodipodi.sourceforge.net/DTD/sodipodi-0.dtd" xmlns="http://www.w3.org/2000/svg" xmlns:svg="http://www.w3.org/2000/svg" style="height: 512px; width: 512px;" version="1.1" id="terrain/sea" sodipodi:docname="sea.svg" inkscape:version="1.2 (dc2aedaf03, 2022-05-15)" class="icon terrain sea">
  <defs id="defs380"/>
  <sodipodi:namedview id="namedview378" pagecolor="#ffffff" bordercolor="#000000" borderopacity="0.25" inkscape:showpageshadow="2" inkscape:pageopacity="0.0" inkscape:pagecheckerboard="0" inkscape:deskcolor="#d1d1d1" showgrid="false" inkscape:zoom="1.9570312" inkscape:cx="256" inkscape:cy="256" inkscape:window-width="3440" inkscape:window-height="1377" inkscape:window-x="1912" inkscape:window-y="-8" inkscape:window-maximized="1" inkscape:current-layer="svg376"/>
  <g class="" transform="translate(0,0)" style="fill:#000000" id="g374">
    <path d="M319.406 75.156c-50.542.49-104.39 20.876-150.094 72.844-10.232 9.65-19.88 19.59-29.187 29.313-20.516 21.433-39.694 41.877-60.22 56.468-18.484 13.142-37.73 21.617-61 22.75v89.876c53.93-32.793 59.934-67.832 115.595-136.312 6.38-6.524 12.727-13.19 19.125-19.875 9.96-10.407 20.016-20.803 30.563-30.657 46.422-36.83 92.022-27.93 107.218 2.5 4.6-49.27 57.958-30.564 66.813 18.875 6.91-33.696 20.327-44.354 34.03-31.625-28.136 49.585-26.61 110.87-8.406 164.937 20.51 60.915 61.743 114.13 110.344 133.75v-20.563c-38.34-19.194-74.662-65.71-92.657-119.156-15.937-47.336-17.777-99.07 2.75-141.655 8.492 16.92 16.342 43.406 21.94 79.53 17.992-84.587 54.762-72.463 56.624-10.593 42.998-66.287-52.197-161.48-163.438-160.406zm-35.656 95.78C194.225 181.69 66.158 359.648 43.625 494.97h91.25c1.02-133.954 71.114-282.045 148.875-324.033zm32.406 13.69c-76.76 49.056-114.574 208.732-109.812 310.343h78.437c-41.213-80.74-23.207-252.666 31.376-310.345zm21.875 26.218c-34.686 82.23-25.705 191.077 25.158 284.125h78c-75.605-53.774-120.09-190.455-103.157-284.126z" fill="#fff" fill-opacity="1" id="path372" style="fill:#000000"/>
  </g>
</svg><svg xmlns:inkscape="http://www.inkscape.org/namespaces/inkscape" xmlns:sodipodi="http://sodipodi.sourceforge.net/DTD/sodipodi-0.dtd" xmlns="http://www.w3.org/2000/svg" xmlns:svg="http://www.w3.org/2000/svg" style="height: 512px; width: 512px;" version="1.1" id="terrain/sea" sodipodi:docname="sea.svg" inkscape:version="1.2 (dc2aedaf03, 2022-05-15)" class="icon terrain sea">
  <defs id="defs380"/>
  <sodipodi:namedview id="namedview378" pagecolor="#ffffff" bordercolor="#000000" borderopacity="0.25" inkscape:showpageshadow="2" inkscape:pageopacity="0.0" inkscape:pagecheckerboard="0" inkscape:deskcolor="#d1d1d1" showgrid="false" inkscape:zoom="1.9570312" inkscape:cx="256" inkscape:cy="256" inkscape:window-width="3440" inkscape:window-height="1377" inkscape:window-x="1912" inkscape:window-y="-8" inkscape:window-maximized="1" inkscape:current-layer="svg376"/>
  <g class="" transform="translate(0,0)" style="fill:#000000" id="g374">
    <path d="M319.406 75.156c-50.542.49-104.39 20.876-150.094 72.844-10.232 9.65-19.88 19.59-29.187 29.313-20.516 21.433-39.694 41.877-60.22 56.468-18.484 13.142-37.73 21.617-61 22.75v89.876c53.93-32.793 59.934-67.832 115.595-136.312 6.38-6.524 12.727-13.19 19.125-19.875 9.96-10.407 20.016-20.803 30.563-30.657 46.422-36.83 92.022-27.93 107.218 2.5 4.6-49.27 57.958-30.564 66.813 18.875 6.91-33.696 20.327-44.354 34.03-31.625-28.136 49.585-26.61 110.87-8.406 164.937 20.51 60.915 61.743 114.13 110.344 133.75v-20.563c-38.34-19.194-74.662-65.71-92.657-119.156-15.937-47.336-17.777-99.07 2.75-141.655 8.492 16.92 16.342 43.406 21.94 79.53 17.992-84.587 54.762-72.463 56.624-10.593 42.998-66.287-52.197-161.48-163.438-160.406zm-35.656 95.78C194.225 181.69 66.158 359.648 43.625 494.97h91.25c1.02-133.954 71.114-282.045 148.875-324.033zm32.406 13.69c-76.76 49.056-114.574 208.732-109.812 310.343h78.437c-41.213-80.74-23.207-252.666 31.376-310.345zm21.875 26.218c-34.686 82.23-25.705 191.077 25.158 284.125h78c-75.605-53.774-120.09-190.455-103.157-284.126z" fill="#fff" fill-opacity="1" id="path372" style="fill:#000000"/>
  </g>
</svg><svg xmlns="http://www.w3.org/2000/svg" id="building/capitale" class="icon building capitale">
    <!--! Font Awesome Free 6.1.1 by @fontawesome - https://fontawesome.com License - https://fontawesome.com/license/free (Icons: CC BY 4.0, Fonts: SIL OFL 1.1, Code: MIT License) Copyright 2022 Fonticons, Inc. -->
    <path d="M264 0C277.3 0 288 10.75 288 24V34.65C368.4 48.14 431.9 111.6 445.3 192H448C465.7 192 480 206.3 480 224C480 241.7 465.7 256 448 256H63.1C46.33 256 31.1 241.7 31.1 224C31.1 206.3 46.33 192 63.1 192H66.65C80.14 111.6 143.6 48.14 223.1 34.65V24C223.1 10.75 234.7 0 247.1 0L264 0zM63.1 288H127.1V416H167.1V288H231.1V416H280V288H344V416H384V288H448V420.3C448.6 420.6 449.2 420.1 449.8 421.4L497.8 453.4C509.5 461.2 514.7 475.8 510.6 489.3C506.5 502.8 494.1 512 480 512H31.1C17.9 512 5.458 502.8 1.372 489.3C-2.715 475.8 2.515 461.2 14.25 453.4L62.25 421.4C62.82 420.1 63.41 420.6 63.1 420.3V288z"/>
</svg><svg xmlns="http://www.w3.org/2000/svg" id="building/cavaliers" class="icon building cavaliers"><!--! Font Awesome Free 6.1.1 by @fontawesome - https://fontawesome.com License - https://fontawesome.com/license/free (Icons: CC BY 4.0, Fonts: SIL OFL 1.1, Code: MIT License) Copyright 2022 Fonticons, Inc. --><path d="M396.6 6.546C408.1-2.182 423.9-2.182 435.4 6.546L603.4 134.5C610 139.6 614.4 147 615.6 155.3L639.6 315.3C641 324.5 638.3 333.8 632.2 340.9C626.2 347.9 617.3 352 608 352H461.5L455.3 310.5C452.8 294 444 279.2 430.8 269.1L262.8 141.1C254.6 134.9 245.4 130.9 235.8 129.1L396.6 6.546zM411.4 294.5C418 299.6 422.4 307 423.6 315.3L447.6 475.3C449 484.5 446.3 493.8 440.2 500.9C434.2 507.9 425.3 512 416 512H319.1L223.1 352V512H32C22.68 512 13.83 507.9 7.753 500.9C1.674 493.8-1.028 484.5 .3542 475.3L24.35 315.3C25.59 307 29.98 299.6 36.61 294.5L204.6 166.5C216.1 157.8 231.9 157.8 243.4 166.5L411.4 294.5z"/></svg><svg xmlns="http://www.w3.org/2000/svg" id="building/fortin" class="icon building fortin"><!--! Font Awesome Free 6.1.1 by @fontawesome - https://fontawesome.com License - https://fontawesome.com/license/free (Icons: CC BY 4.0, Fonts: SIL OFL 1.1, Code: MIT License) Copyright 2022 Fonticons, Inc. --><path d="M489.2 287.9h-27.4c-2.6 0-4.6 2-4.6 4.6v32h-36.6V146.2c0-2.6-2-4.6-4.6-4.6h-27.4c-2.6 0-4.6 2-4.6 4.6v32h-36.6v-32c0-2.6-2-4.6-4.6-4.6h-27.4c-2.6 0-4.6 2-4.6 4.6v32h-36.6v-32c0-6-8-4.6-11.7-4.6v-38c8.3-2 17.1-3.4 25.7-3.4 10.9 0 20.9 4.3 31.4 4.3 4.6 0 27.7-1.1 27.7-8v-60c0-2.6-2-4.6-4.6-4.6-5.1 0-15.1 4.3-24 4.3-9.7 0-20.9-4.3-32.6-4.3-8 0-16 1.1-23.7 2.9v-4.9c5.4-2.6 9.1-8.3 9.1-14.3 0-20.7-31.4-20.8-31.4 0 0 6 3.7 11.7 9.1 14.3v111.7c-3.7 0-11.7-1.4-11.7 4.6v32h-36.6v-32c0-2.6-2-4.6-4.6-4.6h-27.4c-2.6 0-4.6 2-4.6 4.6v32H128v-32c0-2.6-2-4.6-4.6-4.6H96c-2.6 0-4.6 2-4.6 4.6v178.3H54.8v-32c0-2.6-2-4.6-4.6-4.6H22.8c-2.6 0-4.6 2-4.6 4.6V512h182.9v-96c0-72.6 109.7-72.6 109.7 0v96h182.9V292.5c.1-2.6-1.9-4.6-4.5-4.6zm-288.1-4.5c0 2.6-2 4.6-4.6 4.6h-27.4c-2.6 0-4.6-2-4.6-4.6v-64c0-2.6 2-4.6 4.6-4.6h27.4c2.6 0 4.6 2 4.6 4.6v64zm146.4 0c0 2.6-2 4.6-4.6 4.6h-27.4c-2.6 0-4.6-2-4.6-4.6v-64c0-2.6 2-4.6 4.6-4.6h27.4c2.6 0 4.6 2 4.6 4.6v64z"/></svg><svg xmlns="http://www.w3.org/2000/svg" id="building/observatoire" class="icon building observatoire"><!--! Font Awesome Free 6.1.1 by @fontawesome - https://fontawesome.com License - https://fontawesome.com/license/free (Icons: CC BY 4.0, Fonts: SIL OFL 1.1, Code: MIT License) Copyright 2022 Fonticons, Inc. --><path d="M243.4 2.587C251.4-.8625 260.6-.8625 268.6 2.587L492.6 98.59C506.6 104.6 514.4 119.6 511.3 134.4C508.3 149.3 495.2 159.1 479.1 160V168C479.1 181.3 469.3 192 455.1 192H55.1C42.74 192 31.1 181.3 31.1 168V160C16.81 159.1 3.708 149.3 .6528 134.4C-2.402 119.6 5.429 104.6 19.39 98.59L243.4 2.587zM256 128C273.7 128 288 113.7 288 96C288 78.33 273.7 64 256 64C238.3 64 224 78.33 224 96C224 113.7 238.3 128 256 128zM127.1 416H167.1V224H231.1V416H280V224H344V416H384V224H448V420.3C448.6 420.6 449.2 420.1 449.8 421.4L497.8 453.4C509.5 461.2 514.7 475.8 510.6 489.3C506.5 502.8 494.1 512 480 512H31.1C17.9 512 5.458 502.8 1.372 489.3C-2.715 475.8 2.515 461.2 14.25 453.4L62.25 421.4C62.82 420.1 63.41 420.6 63.1 420.3V224H127.1V416z"/></svg><svg xmlns="http://www.w3.org/2000/svg" id="building/ruines" class="icon building ruines"><!--! Font Awesome Free 6.1.1 by @fontawesome - https://fontawesome.com License - https://fontawesome.com/license/free (Icons: CC BY 4.0, Fonts: SIL OFL 1.1, Code: MIT License) Copyright 2022 Fonticons, Inc. --><path d="M336.6 156.5C327.3 148.1 322.6 136.5 327.1 125.3L357.6 49.18C362.7 36.27 377.8 30.36 389.7 37.63C410.9 50.63 430 66.62 446.5 85.02C455.7 95.21 452.9 110.9 441.5 118.5L373.9 163.5C363.6 170.4 349.8 168.1 340.5 159.9C339.2 158.7 337.9 157.6 336.6 156.5H336.6zM297.7 112.6C293.2 123.1 280.9 129.8 268.7 128.6C264.6 128.2 260.3 128 256 128C251.7 128 247.4 128.2 243.3 128.6C231.1 129.8 218.8 123.1 214.3 112.6L183.1 36.82C178.8 24.02 185.5 9.433 198.1 6.374C217.3 2.203 236.4 0 256 0C275.6 0 294.7 2.203 313 6.374C326.5 9.433 333.2 24.02 328 36.82L297.7 112.6zM122.3 37.63C134.2 30.36 149.3 36.27 154.4 49.18L184.9 125.3C189.4 136.5 184.7 148.1 175.4 156.5C174.1 157.6 172.8 158.7 171.5 159.9C162.2 168.1 148.4 170.4 138.1 163.5L70.52 118.5C59.13 110.9 56.32 95.21 65.46 85.02C81.99 66.62 101.1 50.63 122.3 37.63H122.3zM379.5 222.1C376.3 210.7 379.7 198.1 389.5 191.6L458.1 145.8C469.7 138.1 485.6 141.9 491.2 154.7C501.6 178.8 508.4 204.8 510.9 232C512.1 245.2 501.3 255.1 488 255.1H408C394.7 255.1 384.2 245.2 381.8 232.1C381.1 228.7 380.4 225.4 379.5 222.1V222.1zM122.5 191.6C132.3 198.1 135.7 210.7 132.5 222.1C131.6 225.4 130.9 228.7 130.2 232.1C127.8 245.2 117.3 256 104 256H24C10.75 256-.1184 245.2 1.107 232C3.636 204.8 10.43 178.8 20.82 154.7C26.36 141.9 42.26 138.1 53.91 145.8L122.5 191.6zM104 288C117.3 288 128 298.7 128 312V360C128 373.3 117.3 384 104 384H24C10.75 384 0 373.3 0 360V312C0 298.7 10.75 288 24 288H104zM488 288C501.3 288 512 298.7 512 312V360C512 373.3 501.3 384 488 384H408C394.7 384 384 373.3 384 360V312C384 298.7 394.7 288 408 288H488zM104 416C117.3 416 128 426.7 128 440V488C128 501.3 117.3 512 104 512H24C10.75 512 0 501.3 0 488V440C0 426.7 10.75 416 24 416H104zM488 416C501.3 416 512 426.7 512 440V488C512 501.3 501.3 512 488 512H408C394.7 512 384 501.3 384 488V440C384 426.7 394.7 416 408 416H488zM272 464C272 472.8 264.8 480 256 480C247.2 480 240 472.8 240 464V192C240 183.2 247.2 176 256 176C264.8 176 272 183.2 272 192V464zM208 464C208 472.8 200.8 480 192 480C183.2 480 176 472.8 176 464V224C176 215.2 183.2 208 192 208C200.8 208 208 215.2 208 224V464zM336 464C336 472.8 328.8 480 320 480C311.2 480 304 472.8 304 464V224C304 215.2 311.2 208 320 208C328.8 208 336 215.2 336 224V464z"/></svg>
    </defs>
    <path d="M -200.0,-173.2 L -250.0,-259.8 L -350.0,-259.8 L -400.0,-173.2 L -350.0,-86.6 L -250.0,-86.6 L -200.0,-173.2 z" class="terrain "/><path d="M -200.0,-346.4 L -250.0,-433.0 L -350.0,-433.0 L -400.0,-346.4 L -350.0,-259.8 L -250.0,-259.8 L -200.0,-346.4 z" class="terrain "/><path d="M -200.0,0.0 L -250.0,-86.6 L -350.0,-86.6 L -400.0,0.0 L -350.0,86.6 L -250.0,86.6 L -200.0,0.0 z" class="terrain "/><path d="M -200.0,173.2 L -250.0,86.6 L -350.0,86.6 L -400.0,173.2 L -350.0,259.8 L -250.0,259.8 L -200.0,173.2 z" class="terrain "/><path d="M -50.0,-259.8 L -100.0,-346.4 L -200.0,-346.4 L -250.0,-259.8 L -200.0,-173.2 L -100.0,-173.2 L -50.0,-259.8 z" class="terrain grassland"/><path d="M -210.0,-259.8 L -180.0,-311.8 L -200.0,-346.4 L -250.0,-259.8 L -210.0,-259.8 z" class="terrain sea"/><path d="M -210.0,-259.8 L -180.0,-207.8 L -200.0,-173.2 L -250.0,-259.8 L -210.0,-259.8 z" class="terrain sea"/><path d="M -90.0,-259.8 L -120.0,-311.8 L -100.0,-346.4 L -50.0,-259.8 L -90.0,-259.8 z" class="terrain sea"/><path d="M-150.0 -259.8 Q -150.0 -259.8 -75.0 -216.5" class="path roads" /><use xlink:href="#building/cavaliers" transform="translate(-189.4 -291.3) scale(0.12301497212847137 0.12301497212847137)" /><path d="M -50.0,-433.0 L -100.0,-519.6 L -200.0,-519.6 L -250.0,-433.0 L -200.0,-346.4 L -100.0,-346.4 L -50.0,-433.0 z" class="terrain "/><path d="M -50.0,-86.6 L -100.0,-173.2 L -200.0,-173.2 L -250.0,-86.6 L -200.0,0.0 L -100.0,0.0 L -50.0,-86.6 z" class="terrain sea"/><path d="M -90.0,-86.6 L -120.0,-138.6 L -180.0,-138.6 L -210.0,-86.6 L -180.0,-34.6 L -120.0,-34.6 L -90.0,-86.6 z" class="terrain grassland"/><use xlink:href="#terrain/grassland" transform="translate(-189.4 -126.0) scale(0.15376871516058924 0.15376871516058924)" /><path d="M -50.0,1125.8 L -100.0,1039.2 L -200.0,1039.2 L -250.0,1125.8 L -200.0,1212.4 L -100.0,1212.4 L -50.0,1125.8 z" class="terrain "/><path d="M -50.0,1299.0 L -100.0,1212.4 L -200.0,1212.4 L -250.0,1299.0 L -200.0,1385.6 L -100.0,1385.6 L -50.0,1299.0 z" class="terrain "/><path d="M -50.0,1472.2 L -100.0,1385.6 L -200.0,1385.6 L -250.0,1472.2 L -200.0,1558.8 L -100.0,1558.8 L -50.0,1472.2 z" class="terrain "/><path d="M -50.0,259.8 L -100.0,173.2 L -200.0,173.2 L -250.0,259.8 L -200.0,346.4 L -100.0,346.4 L -50.0,259.8 z" class="terrain "/><path d="M -50.0,86.6 L -100.0,-0.0 L -200.0,-0.0 L -250.0,86.6 L -200.0,173.2 L -100.0,173.2 L -50.0,86.6 z" class="terrain grassland"/><path d="M -120.0,34.6 L -180.0,34.6 L -200.0,-0.0 L -100.0,-0.0 L -120.0,34.6 z" class="terrain sea"/><path d="M -90.0,86.6 L -120.0,34.6 L -100.0,-0.0 L -50.0,86.6 L -90.0,86.6 z" class="terrain sea"/><path d="M -90.0,86.6 L -120.0,138.6 L -100.0,173.2 L -50.0,86.6 L -90.0,86.6 z" class="terrain sea"/><path d="M-225.0 43.3 Q -150.0 86.6 -75.0 43.3" class="path roads" /><path d="M-150.0 -0.0 Q -150.0 86.6 -150.0 173.2" class="path rivers" /><use xlink:href="#terrain/grassland" transform="translate(-189.4 47.199999999999996) scale(0.15376871516058924 0.15376871516058924)" /><path d="M 100.0,-173.2 L 50.0,-259.8 L -50.0,-259.8 L -100.0,-173.2 L -50.0,-86.6 L 50.0,-86.6 L 100.0,-173.2 z" class="terrain "/><path d="M 100.0,-346.4 L 50.0,-433.0 L -50.0,-433.0 L -100.0,-346.4 L -50.0,-259.8 L 50.0,-259.8 L 100.0,-346.4 z" class="terrain "/><path d="M 100.0,0.0 L 50.0,-86.6 L -50.0,-86.6 L -100.0,0.0 L -50.0,86.6 L 50.0,86.6 L 100.0,0.0 z" class="terrain "/><path d="M 100.0,1039.2 L 50.0,952.6 L -50.0,952.6 L -100.0,1039.2 L -50.0,1125.8 L 50.0,1125.8 L 100.0,1039.2 z" class="terrain "/><path d="M 100.0,1212.4 L 50.0,1125.8 L -50.0,1125.8 L -100.0,1212.4 L -50.0,1299.0 L 50.0,1299.0 L 100.0,1212.4 z" class="terrain hills"/><path d="M -60.0,1212.4 L -30.0,1264.4 L -50.0,1299.0 L -100.0,1212.4 L -60.0,1212.4 z" class="terrain sea"/><path d="M -60.0,1212.4 L -30.0,1160.4 L -50.0,1125.8 L -100.0,1212.4 L -60.0,1212.4 z" class="terrain sea"/><path d="M 30.0,1160.4 L -30.0,1160.4 L -50.0,1125.8 L 50.0,1125.8 L 30.0,1160.4 z" class="terrain sea"/><path d="M0.0 1299.0 Q 0.0 1212.4 75.0 1169.1" class="path roads" /><use xlink:href="#terrain/hills" transform="translate(-39.4 1173.0) scale(0.15376871516058924 0.15376871516058924)" /><path d="M 100.0,1385.6 L 50.0,1299.0 L -50.0,1299.0 L -100.0,1385.6 L -50.0,1472.2 L 50.0,1472.2 L 100.0,1385.6 z" class="terrain grassland"/><path d="M -60.0,1385.6 L -30.0,1437.6 L -50.0,1472.2 L -100.0,1385.6 L -60.0,1385.6 z" class="terrain sea"/><path d="M -60.0,1385.6 L -30.0,1333.6 L -50.0,1299.0 L -100.0,1385.6 L -60.0,1385.6 z" class="terrain sea"/><path d="M 30.0,1437.6 L -30.0,1437.6 L -50.0,1472.2 L 50.0,1472.2 L 30.0,1437.6 z" class="terrain sea"/><path d="M75.0 1428.9 Q 0.0 1385.6 0.0 1299.0" class="path roads" /><use xlink:href="#terrain/grassland" transform="translate(-39.4 1346.1999999999998) scale(0.15376871516058924 0.15376871516058924)" /><path d="M 100.0,1558.8 L 50.0,1472.2 L -50.0,1472.2 L -100.0,1558.8 L -50.0,1645.4 L 50.0,1645.4 L 100.0,1558.8 z" class="terrain "/><path d="M 100.0,173.2 L 50.0,86.6 L -50.0,86.6 L -100.0,173.2 L -50.0,259.8 L 50.0,259.8 L 100.0,173.2 z" class="terrain "/><path d="M 100.0,346.4 L 50.0,259.8 L -50.0,259.8 L -100.0,346.4 L -50.0,433.0 L 50.0,433.0 L 100.0,346.4 z" class="terrain "/><path d="M 1000.0,1039.2 L 950.0,952.6 L 850.0,952.6 L 800.0,1039.2 L 850.0,1125.8 L 950.0,1125.8 L 1000.0,1039.2 z" class="terrain grassland"/><path d="M 960.0,1039.2 L 930.0,987.2 L 870.0,987.2 L 840.0,1039.2 L 870.0,1091.2 L 930.0,1091.2 L 960.0,1039.2 z" class="terrain lake"/><path d="M 840.0,1039.2 L 870.0,1091.2 L 850.0,1125.8 L 800.0,1039.2 L 840.0,1039.2 z" class="terrain marsh"/><path d="M900.0 952.6 Q 900.0 1039.2 825.0 1082.5" class="path rivers" /><use xlink:href="#terrain/lake" transform="translate(860.6 999.8000000000001) scale(0.15376871516058924 0.15376871516058924)" /><path d="M 1000.0,1212.4 L 950.0,1125.8 L 850.0,1125.8 L 800.0,1212.4 L 850.0,1299.0 L 950.0,1299.0 L 1000.0,1212.4 z" class="terrain grassland"/><path d="M 840.0,1212.4 L 870.0,1264.4 L 850.0,1299.0 L 800.0,1212.4 L 840.0,1212.4 z" class="terrain sea"/><path d="M 930.0,1264.4 L 870.0,1264.4 L 850.0,1299.0 L 950.0,1299.0 L 930.0,1264.4 z" class="terrain sea"/><path d="M 960.0,1212.4 L 930.0,1264.4 L 950.0,1299.0 L 1000.0,1212.4 L 960.0,1212.4 z" class="terrain sea"/><path d="M 960.0,1212.4 L 930.0,1160.4 L 870.0,1160.4 L 840.0,1212.4 L 870.0,1264.4 L 930.0,1264.4 L 960.0,1212.4 z" class="terrain sea"/><path d="M 960.0,1212.4 L 930.0,1160.4 L 950.0,1125.8 L 1000.0,1212.4 L 960.0,1212.4 z" class="terrain sea"/><use xlink:href="#terrain/sea" transform="translate(860.6 1173.0) scale(0.15376871516058924 0.15376871516058924)" /><path d="M 1000.0,1385.6 L 950.0,1299.0 L 850.0,1299.0 L 800.0,1385.6 L 850.0,1472.2 L 950.0,1472.2 L 1000.0,1385.6 z" class="terrain "/><path d="M 1000.0,173.2 L 950.0,86.6 L 850.0,86.6 L 800.0,173.2 L 850.0,259.8 L 950.0,259.8 L 1000.0,173.2 z" class="terrain "/><path d="M 1000.0,346.4 L 950.0,259.8 L 850.0,259.8 L 800.0,346.4 L 850.0,433.0 L 950.0,433.0 L 1000.0,346.4 z" class="terrain light_wood"/><use xlink:href="#terrain/light_wood" transform="translate(860.6 307.0) scale(0.15376871516058924 0.15376871516058924)" /><path d="M 1000.0,519.6 L 950.0,433.0 L 850.0,433.0 L 800.0,519.6 L 850.0,606.2 L 950.0,606.2 L 1000.0,519.6 z" class="terrain grassland"/><use xlink:href="#terrain/grassland" transform="translate(860.6 480.20000000000005) scale(0.15376871516058924 0.15376871516058924)" /><path d="M 1000.0,692.8 L 950.0,606.2 L 850.0,606.2 L 800.0,692.8 L 850.0,779.4 L 950.0,779.4 L 1000.0,692.8 z" class="terrain "/><path d="M 1000.0,866.0 L 950.0,779.4 L 850.0,779.4 L 800.0,866.0 L 850.0,952.6 L 950.0,952.6 L 1000.0,866.0 z" class="terrain grassland"/><path d="M 960.0,866.0 L 930.0,814.0 L 950.0,779.4 L 1000.0,866.0 L 960.0,866.0 z" class="terrain sea"/><path d="M825.0 909.3 Q 900.0 866.0 975.0 909.3" class="path roads" /><path d="M900.0 779.4 Q 900.0 866.0 900.0 952.6" class="path rivers" /><path d="M825.0 822.7 Q 900.0 866.0 900.0 952.6" class="path rivers" /><path d="M975.0 822.7 Q 900.0 866.0 900.0 952.6" class="path rivers" /><use xlink:href="#terrain/grassland" transform="translate(860.6 826.6) scale(0.15376871516058924 0.15376871516058924)" /><path d="M 1150.0,1125.8 L 1100.0,1039.2 L 1000.0,1039.2 L 950.0,1125.8 L 1000.0,1212.4 L 1100.0,1212.4 L 1150.0,1125.8 z" class="terrain grassland"/><path d="M 990.0,1125.8 L 1020.0,1177.8 L 1000.0,1212.4 L 950.0,1125.8 L 990.0,1125.8 z" class="terrain sea"/><path d="M1050.0 1039.2 Q 1050.0 1125.8 1050.0 1125.8" class="path roads" /><use xlink:href="#building/ruines" transform="translate(1010.6 1086.3999999999999) scale(0.15376871516058924 0.15376871516058924)" /><path d="M 1150.0,1299.0 L 1100.0,1212.4 L 1000.0,1212.4 L 950.0,1299.0 L 1000.0,1385.6 L 1100.0,1385.6 L 1150.0,1299.0 z" class="terrain "/><path d="M 1150.0,259.8 L 1100.0,173.2 L 1000.0,173.2 L 950.0,259.8 L 1000.0,346.4 L 1100.0,346.4 L 1150.0,259.8 z" class="terrain "/><path d="M 1150.0,433.0 L 1100.0,346.4 L 1000.0,346.4 L 950.0,433.0 L 1000.0,519.6 L 1100.0,519.6 L 1150.0,433.0 z" class="terrain unknown"/><path d="M 1150.0,606.2 L 1100.0,519.6 L 1000.0,519.6 L 950.0,606.2 L 1000.0,692.8 L 1100.0,692.8 L 1150.0,606.2 z" class="terrain marsh"/><use xlink:href="#terrain/marsh" transform="translate(1010.6 566.8000000000001) scale(0.15376871516058924 0.15376871516058924)" /><path d="M 1150.0,779.4 L 1100.0,692.8 L 1000.0,692.8 L 950.0,779.4 L 1000.0,866.0 L 1100.0,866.0 L 1150.0,779.4 z" class="terrain "/><path d="M 1150.0,952.6 L 1100.0,866.0 L 1000.0,866.0 L 950.0,952.6 L 1000.0,1039.2 L 1100.0,1039.2 L 1150.0,952.6 z" class="terrain grassland"/><path d="M 1110.0,952.6 L 1080.0,900.6 L 1100.0,866.0 L 1150.0,952.6 L 1110.0,952.6 z" class="terrain sea"/><path d="M 1080.0,900.6 L 1020.0,900.6 L 1000.0,866.0 L 1100.0,866.0 L 1080.0,900.6 z" class="terrain sea"/><path d="M 1110.0,952.6 L 1080.0,1004.6 L 1100.0,1039.2 L 1150.0,952.6 L 1110.0,952.6 z" class="terrain sea"/><path d="M975.0 909.3 Q 1050.0 952.6 1050.0 1039.2" class="path roads" /><path d="M975.0 995.9 Q 1050.0 952.6 1050.0 1039.2" class="path roads" /><use xlink:href="#terrain/grassland" transform="translate(1010.6 913.2) scale(0.15376871516058924 0.15376871516058924)" /><path d="M 1300.0,1039.2 L 1250.0,952.6 L 1150.0,952.6 L 1100.0,1039.2 L 1150.0,1125.8 L 1250.0,1125.8 L 1300.0,1039.2 z" class="terrain "/><path d="M 1300.0,1212.4 L 1250.0,1125.8 L 1150.0,1125.8 L 1100.0,1212.4 L 1150.0,1299.0 L 1250.0,1299.0 L 1300.0,1212.4 z" class="terrain "/><path d="M 1300.0,346.4 L 1250.0,259.8 L 1150.0,259.8 L 1100.0,346.4 L 1150.0,433.0 L 1250.0,433.0 L 1300.0,346.4 z" class="terrain "/><path d="M 1300.0,519.6 L 1250.0,433.0 L 1150.0,433.0 L 1100.0,519.6 L 1150.0,606.2 L 1250.0,606.2 L 1300.0,519.6 z" class="terrain lake"/><use xlink:href="#terrain/lake" transform="translate(1160.6 480.20000000000005) scale(0.15376871516058924 0.15376871516058924)" /><path d="M 1300.0,692.8 L 1250.0,606.2 L 1150.0,606.2 L 1100.0,692.8 L 1150.0,779.4 L 1250.0,779.4 L 1300.0,692.8 z" class="terrain hills"/><use xlink:href="#terrain/hills" transform="translate(1160.6 653.4) scale(0.15376871516058924 0.15376871516058924)" /><path d="M 1300.0,866.0 L 1250.0,779.4 L 1150.0,779.4 L 1100.0,866.0 L 1150.0,952.6 L 1250.0,952.6 L 1300.0,866.0 z" class="terrain "/><path d="M 1450.0,433.0 L 1400.0,346.4 L 1300.0,346.4 L 1250.0,433.0 L 1300.0,519.6 L 1400.0,519.6 L 1450.0,433.0 z" class="terrain "/><path d="M 1450.0,606.2 L 1400.0,519.6 L 1300.0,519.6 L 1250.0,606.2 L 1300.0,692.8 L 1400.0,692.8 L 1450.0,606.2 z" class="terrain "/><path d="M 1450.0,779.4 L 1400.0,692.8 L 1300.0,692.8 L 1250.0,779.4 L 1300.0,866.0 L 1400.0,866.0 L 1450.0,779.4 z" class="terrain "/><path d="M 250.0,1125.8 L 200.0,1039.2 L 100.0,1039.2 L 50.0,1125.8 L 100.0,1212.4 L 200.0,1212.4 L 250.0,1125.8 z" class="terrain hills"/><path d="M 210.0,1125.8 L 180.0,1073.8 L 200.0,1039.2 L 250.0,1125.8 L 210.0,1125.8 z" class="terrain sea"/><path d="M 90.0,1125.8 L 120.0,1073.8 L 100.0,1039.2 L 50.0,1125.8 L 90.0,1125.8 z" class="terrain sea"/><path d="M 180.0,1073.8 L 120.0,1073.8 L 100.0,1039.2 L 200.0,1039.2 L 180.0,1073.8 z" class="terrain sea"/><path d="M75.0 1169.1 Q 150.0 1125.8 225.0 1169.1" class="path roads" /><use xlink:href="#terrain/hills" transform="translate(110.6 1086.3999999999999) scale(0.15376871516058924 0.15376871516058924)" /><path d="M 250.0,1299.0 L 200.0,1212.4 L 100.0,1212.4 L 50.0,1299.0 L 100.0,1385.6 L 200.0,1385.6 L 250.0,1299.0 z" class="terrain grassland"/><path d="M 90.0,1299.0 L 120.0,1247.0 L 100.0,1212.4 L 50.0,1299.0 L 90.0,1299.0 z" class="terrain hills"/><path d="M 180.0,1247.0 L 120.0,1247.0 L 100.0,1212.4 L 200.0,1212.4 L 180.0,1247.0 z" class="terrain hills"/><path d="M150.0 1299.0 Q 150.0 1299.0 225.0 1255.7" class="path roads" /><use xlink:href="#building/observatoire" transform="translate(110.6 1259.6) scale(0.15376871516058924 0.15376871516058924)" /><path d="M 250.0,1472.2 L 200.0,1385.6 L 100.0,1385.6 L 50.0,1472.2 L 100.0,1558.8 L 200.0,1558.8 L 250.0,1472.2 z" class="terrain grassland"/><path d="M 90.0,1472.2 L 120.0,1524.2 L 100.0,1558.8 L 50.0,1472.2 L 90.0,1472.2 z" class="terrain sea"/><path d="M 210.0,1472.2 L 180.0,1524.2 L 200.0,1558.8 L 250.0,1472.2 L 210.0,1472.2 z" class="terrain sea"/><path d="M 180.0,1524.2 L 120.0,1524.2 L 100.0,1558.8 L 200.0,1558.8 L 180.0,1524.2 z" class="terrain sea"/><path d="M225.0 1428.9 Q 150.0 1472.2 75.0 1428.9" class="path roads" /><use xlink:href="#terrain/grassland" transform="translate(110.6 1432.8) scale(0.15376871516058924 0.15376871516058924)" /><path d="M 250.0,1645.4 L 200.0,1558.8 L 100.0,1558.8 L 50.0,1645.4 L 100.0,1732.0 L 200.0,1732.0 L 250.0,1645.4 z" class="terrain "/><path d="M 250.0,259.8 L 200.0,173.2 L 100.0,173.2 L 50.0,259.8 L 100.0,346.4 L 200.0,346.4 L 250.0,259.8 z" class="terrain grassland"/><path d="M 90.0,259.8 L 120.0,207.8 L 100.0,173.2 L 50.0,259.8 L 90.0,259.8 z" class="terrain sea"/><path d="M 90.0,259.8 L 120.0,311.8 L 100.0,346.4 L 50.0,259.8 L 90.0,259.8 z" class="terrain sea"/><path d="M 210.0,259.8 L 180.0,207.8 L 200.0,173.2 L 250.0,259.8 L 210.0,259.8 z" class="terrain sea"/><path d="M150.0 259.8 Q 150.0 259.8 225.0 303.1" class="path roads" /><use xlink:href="#building/capitale" transform="translate(125.2 220.4) scale(0.09691782785665369 0.09691782785665369)" /><path d="M 250.0,433.0 L 200.0,346.4 L 100.0,346.4 L 50.0,433.0 L 100.0,519.6 L 200.0,519.6 L 250.0,433.0 z" class="terrain "/><path d="M 250.0,606.2 L 200.0,519.6 L 100.0,519.6 L 50.0,606.2 L 100.0,692.8 L 200.0,692.8 L 250.0,606.2 z" class="terrain "/><path d="M 250.0,86.6 L 200.0,-0.0 L 100.0,-0.0 L 50.0,86.6 L 100.0,173.2 L 200.0,173.2 L 250.0,86.6 z" class="terrain "/><path d="M 250.0,952.6 L 200.0,866.0 L 100.0,866.0 L 50.0,952.6 L 100.0,1039.2 L 200.0,1039.2 L 250.0,952.6 z" class="terrain "/><path d="M 400.0,1039.2 L 350.0,952.6 L 250.0,952.6 L 200.0,1039.2 L 250.0,1125.8 L 350.0,1125.8 L 400.0,1039.2 z" class="terrain "/><path d="M 400.0,1212.4 L 350.0,1125.8 L 250.0,1125.8 L 200.0,1212.4 L 250.0,1299.0 L 350.0,1299.0 L 400.0,1212.4 z" class="terrain grassland"/><path d="M 360.0,1212.4 L 330.0,1160.4 L 350.0,1125.8 L 400.0,1212.4 L 360.0,1212.4 z" class="terrain sea"/><path d="M 360.0,1212.4 L 330.0,1264.4 L 350.0,1299.0 L 400.0,1212.4 L 360.0,1212.4 z" class="terrain sea"/><path d="M 330.0,1160.4 L 270.0,1160.4 L 250.0,1125.8 L 350.0,1125.8 L 330.0,1160.4 z" class="terrain sea"/><path d="M225.0 1255.7 Q 300.0 1212.4 300.0 1299.0" class="path roads" /><path d="M225.0 1255.7 Q 300.0 1212.4 225.0 1169.1" class="path roads" /><use xlink:href="#terrain/grassland" transform="translate(260.6 1173.0) scale(0.15376871516058924 0.15376871516058924)" /><path d="M 400.0,1385.6 L 350.0,1299.0 L 250.0,1299.0 L 200.0,1385.6 L 250.0,1472.2 L 350.0,1472.2 L 400.0,1385.6 z" class="terrain grassland"/><path d="M 360.0,1385.6 L 330.0,1333.6 L 350.0,1299.0 L 400.0,1385.6 L 360.0,1385.6 z" class="terrain sea"/><path d="M 360.0,1385.6 L 330.0,1437.6 L 350.0,1472.2 L 400.0,1385.6 L 360.0,1385.6 z" class="terrain sea"/><path d="M 330.0,1437.6 L 270.0,1437.6 L 250.0,1472.2 L 350.0,1472.2 L 330.0,1437.6 z" class="terrain sea"/><path d="M300.0 1299.0 Q 300.0 1385.6 225.0 1428.9" class="path roads" /><use xlink:href="#terrain/grassland" transform="translate(260.6 1346.1999999999998) scale(0.15376871516058924 0.15376871516058924)" /><path d="M 400.0,1558.8 L 350.0,1472.2 L 250.0,1472.2 L 200.0,1558.8 L 250.0,1645.4 L 350.0,1645.4 L 400.0,1558.8 z" class="terrain "/><path d="M 400.0,173.2 L 350.0,86.6 L 250.0,86.6 L 200.0,173.2 L 250.0,259.8 L 350.0,259.8 L 400.0,173.2 z" class="terrain "/><path d="M 400.0,346.4 L 350.0,259.8 L 250.0,259.8 L 200.0,346.4 L 250.0,433.0 L 350.0,433.0 L 400.0,346.4 z" class="terrain grassland"/><path d="M 330.0,294.4 L 270.0,294.4 L 250.0,259.8 L 350.0,259.8 L 330.0,294.4 z" class="terrain sea"/><path d="M 360.0,346.4 L 330.0,294.4 L 350.0,259.8 L 400.0,346.4 L 360.0,346.4 z" class="terrain sea"/><path d="M 360.0,346.4 L 330.0,398.4 L 350.0,433.0 L 400.0,346.4 L 360.0,346.4 z" class="terrain sea"/><path d="M225.0 303.1 Q 300.0 346.4 300.0 433.0" class="path roads" /><path d="M300.0 259.8 Q 300.0 346.4 375.0 389.7" class="path rivers" /><use xlink:href="#terrain/grassland" transform="translate(260.6 307.0) scale(0.15376871516058924 0.15376871516058924)" /><path d="M 400.0,519.6 L 350.0,433.0 L 250.0,433.0 L 200.0,519.6 L 250.0,606.2 L 350.0,606.2 L 400.0,519.6 z" class="terrain grassland"/><path d="M 330.0,467.6 L 270.0,467.6 L 250.0,433.0 L 350.0,433.0 L 330.0,467.6 z" class="terrain sea"/><path d="M 360.0,519.6 L 330.0,467.6 L 350.0,433.0 L 400.0,519.6 L 360.0,519.6 z" class="terrain sea"/><path d="M 360.0,519.6 L 330.0,571.6 L 350.0,606.2 L 400.0,519.6 L 360.0,519.6 z" class="terrain sea"/><path d="M225.0 476.3 Q 300.0 519.6 300.0 606.2" class="path roads" /><path d="M300.0 433.0 Q 300.0 519.6 375.0 562.9" class="path rivers" /><use xlink:href="#terrain/grassland" transform="translate(260.6 480.20000000000005) scale(0.15376871516058924 0.15376871516058924)" /><path d="M 400.0,692.8 L 350.0,606.2 L 250.0,606.2 L 200.0,692.8 L 250.0,779.4 L 350.0,779.4 L 400.0,692.8 z" class="terrain "/><path d="M 550.0,1125.8 L 500.0,1039.2 L 400.0,1039.2 L 350.0,1125.8 L 400.0,1212.4 L 500.0,1212.4 L 550.0,1125.8 z" class="terrain "/><path d="M 550.0,1299.0 L 500.0,1212.4 L 400.0,1212.4 L 350.0,1299.0 L 400.0,1385.6 L 500.0,1385.6 L 550.0,1299.0 z" class="terrain "/><path d="M 550.0,1472.2 L 500.0,1385.6 L 400.0,1385.6 L 350.0,1472.2 L 400.0,1558.8 L 500.0,1558.8 L 550.0,1472.2 z" class="terrain "/><path d="M 550.0,259.8 L 500.0,173.2 L 400.0,173.2 L 350.0,259.8 L 400.0,346.4 L 500.0,346.4 L 550.0,259.8 z" class="terrain "/><path d="M 550.0,433.0 L 500.0,346.4 L 400.0,346.4 L 350.0,433.0 L 400.0,519.6 L 500.0,519.6 L 550.0,433.0 z" class="terrain "/><path d="M 550.0,606.2 L 500.0,519.6 L 400.0,519.6 L 350.0,606.2 L 400.0,692.8 L 500.0,692.8 L 550.0,606.2 z" class="terrain "/><path d="M 550.0,779.4 L 500.0,692.8 L 400.0,692.8 L 350.0,779.4 L 400.0,866.0 L 500.0,866.0 L 550.0,779.4 z" class="terrain "/><path d="M 700.0,1039.2 L 650.0,952.6 L 550.0,952.6 L 500.0,1039.2 L 550.0,1125.8 L 650.0,1125.8 L 700.0,1039.2 z" class="terrain "/><path d="M 700.0,1212.4 L 650.0,1125.8 L 550.0,1125.8 L 500.0,1212.4 L 550.0,1299.0 L 650.0,1299.0 L 700.0,1212.4 z" class="terrain "/><path d="M 700.0,346.4 L 650.0,259.8 L 550.0,259.8 L 500.0,346.4 L 550.0,433.0 L 650.0,433.0 L 700.0,346.4 z" class="terrain "/><path d="M 700.0,519.6 L 650.0,433.0 L 550.0,433.0 L 500.0,519.6 L 550.0,606.2 L 650.0,606.2 L 700.0,519.6 z" class="terrain sea"/><use xlink:href="#terrain/sea" transform="translate(560.6 480.20000000000005) scale(0.15376871516058924 0.15376871516058924)" /><path d="M 700.0,692.8 L 650.0,606.2 L 550.0,606.2 L 500.0,692.8 L 550.0,779.4 L 650.0,779.4 L 700.0,692.8 z" class="terrain heavy_woods"/><use xlink:href="#terrain/heavy_woods" transform="translate(560.6 653.4) scale(0.15376871516058924 0.15376871516058924)" /><path d="M 700.0,866.0 L 650.0,779.4 L 550.0,779.4 L 500.0,866.0 L 550.0,952.6 L 650.0,952.6 L 700.0,866.0 z" class="terrain "/><path d="M 850.0,1125.8 L 800.0,1039.2 L 700.0,1039.2 L 650.0,1125.8 L 700.0,1212.4 L 800.0,1212.4 L 850.0,1125.8 z" class="terrain marsh"/><path d="M 690.0,1125.8 L 720.0,1177.8 L 700.0,1212.4 L 650.0,1125.8 L 690.0,1125.8 z" class="terrain sea"/><path d="M 810.0,1125.8 L 780.0,1073.8 L 720.0,1073.8 L 690.0,1125.8 L 720.0,1177.8 L 780.0,1177.8 L 810.0,1125.8 z" class="terrain sea"/><path d="M750.0 1125.8 Q 750.0 1125.8 825.0 1082.5" class="path rivers" /><use xlink:href="#terrain/sea" transform="translate(710.6 1086.3999999999999) scale(0.15376871516058924 0.15376871516058924)" /><path d="M 850.0,1299.0 L 800.0,1212.4 L 700.0,1212.4 L 650.0,1299.0 L 700.0,1385.6 L 800.0,1385.6 L 850.0,1299.0 z" class="terrain "/><path d="M 850.0,259.8 L 800.0,173.2 L 700.0,173.2 L 650.0,259.8 L 700.0,346.4 L 800.0,346.4 L 850.0,259.8 z" class="terrain "/><path d="M 850.0,433.0 L 800.0,346.4 L 700.0,346.4 L 650.0,433.0 L 700.0,519.6 L 800.0,519.6 L 850.0,433.0 z" class="terrain plains"/><path d="M 850.0,606.2 L 800.0,519.6 L 700.0,519.6 L 650.0,606.2 L 700.0,692.8 L 800.0,692.8 L 850.0,606.2 z" class="terrain mountains"/><use xlink:href="#terrain/mountains" transform="translate(710.6 566.8000000000001) scale(0.15376871516058924 0.15376871516058924)" /><path d="M 850.0,779.4 L 800.0,692.8 L 700.0,692.8 L 650.0,779.4 L 700.0,866.0 L 800.0,866.0 L 850.0,779.4 z" class="terrain "/><path d="M 850.0,952.6 L 800.0,866.0 L 700.0,866.0 L 650.0,952.6 L 700.0,1039.2 L 800.0,1039.2 L 850.0,952.6 z" class="terrain grassland"/><path d="M 690.0,952.6 L 720.0,900.6 L 700.0,866.0 L 650.0,952.6 L 690.0,952.6 z" class="terrain sea"/><path d="M 780.0,900.6 L 720.0,900.6 L 700.0,866.0 L 800.0,866.0 L 780.0,900.6 z" class="terrain sea"/><path d="M750.0 952.6 Q 750.0 952.6 825.0 909.3" class="path roads" /><use xlink:href="#building/fortin" transform="translate(710.6 913.2) scale(0.15376871516058924 0.15376871516058924)" />
<path d="M -200.0,-173.2 L -250.0,-259.8 L -350.0,-259.8 L -400.0,-173.2 L -350.0,-86.6 L -250.0,-86.6 L -200.0,-173.2 z" class="grid"/><path d="M -200.0,-346.4 L -250.0,-433.0 L -350.0,-433.0 L -400.0,-346.4 L -350.0,-259.8 L -250.0,-259.8 L -200.0,-346.4 z" class="grid"/><path d="M -200.0,0.0 L -250.0,-86.6 L -350.0,-86.6 L -400.0,0.0 L -350.0,86.6 L -250.0,86.6 L -200.0,0.0 z" class="grid"/><path d="M -200.0,173.2 L -250.0,86.6 L -350.0,86.6 L -400.0,173.2 L -350.0,259.8 L -250.0,259.8 L -200.0,173.2 z" class="grid"/><path d="M -50.0,-259.8 L -100.0,-346.4 L -200.0,-346.4 L -250.0,-259.8 L -200.0,-173.2 L -100.0,-173.2 L -50.0,-259.8 z" class="grid"/><path d="M -50.0,-433.0 L -100.0,-519.6 L -200.0,-519.6 L -250.0,-433.0 L -200.0,-346.4 L -100.0,-346.4 L -50.0,-433.0 z" class="grid"/><path d="M -50.0,-86.6 L -100.0,-173.2 L -200.0,-173.2 L -250.0,-86.6 L -200.0,0.0 L -100.0,0.0 L -50.0,-86.6 z" class="grid"/><path d="M -50.0,1125.8 L -100.0,1039.2 L -200.0,1039.2 L -250.0,1125.8 L -200.0,1212.4 L -100.0,1212.4 L -50.0,1125.8 z" class="grid"/><path d="M -50.0,1299.0 L -100.0,1212.4 L -200.0,1212.4 L -250.0,1299.0 L -200.0,1385.6 L -100.0,1385.6 L -50.0,1299.0 z" class="grid"/><path d="M -50.0,1472.2 L -100.0,1385.6 L -200.0,1385.6 L -250.0,1472.2 L -200.0,1558.8 L -100.0,1558.8 L -50.0,1472.2 z" class="grid"/><path d="M -50.0,259.8 L -100.0,173.2 L -200.0,173.2 L -250.0,259.8 L -200.0,346.4 L -100.0,346.4 L -50.0,259.8 z" class="grid"/><path d="M -50.0,86.6 L -100.0,-0.0 L -200.0,-0.0 L -250.0,86.6 L -200.0,173.2 L -100.0,173.2 L -50.0,86.6 z" class="grid"/><path d="M 100.0,-173.2 L 50.0,-259.8 L -50.0,-259.8 L -100.0,-173.2 L -50.0,-86.6 L 50.0,-86.6 L 100.0,-173.2 z" class="grid"/><path d="M 100.0,-346.4 L 50.0,-433.0 L -50.0,-433.0 L -100.0,-346.4 L -50.0,-259.8 L 50.0,-259.8 L 100.0,-346.4 z" class="grid"/><path d="M 100.0,0.0 L 50.0,-86.6 L -50.0,-86.6 L -100.0,0.0 L -50.0,86.6 L 50.0,86.6 L 100.0,0.0 z" class="grid"/><path d="M 100.0,1039.2 L 50.0,952.6 L -50.0,952.6 L -100.0,1039.2 L -50.0,1125.8 L 50.0,1125.8 L 100.0,1039.2 z" class="grid"/><path d="M 100.0,1212.4 L 50.0,1125.8 L -50.0,1125.8 L -100.0,1212.4 L -50.0,1299.0 L 50.0,1299.0 L 100.0,1212.4 z" class="grid"/><path d="M 100.0,1385.6 L 50.0,1299.0 L -50.0,1299.0 L -100.0,1385.6 L -50.0,1472.2 L 50.0,1472.2 L 100.0,1385.6 z" class="grid"/><path d="M 100.0,1558.8 L 50.0,1472.2 L -50.0,1472.2 L -100.0,1558.8 L -50.0,1645.4 L 50.0,1645.4 L 100.0,1558.8 z" class="grid"/><path d="M 100.0,173.2 L 50.0,86.6 L -50.0,86.6 L -100.0,173.2 L -50.0,259.8 L 50.0,259.8 L 100.0,173.2 z" class="grid"/><path d="M 100.0,346.4 L 50.0,259.8 L -50.0,259.8 L -100.0,346.4 L -50.0,433.0 L 50.0,433.0 L 100.0,346.4 z" class="grid"/><path d="M 1000.0,1039.2 L 950.0,952.6 L 850.0,952.6 L 800.0,1039.2 L 850.0,1125.8 L 950.0,1125.8 L 1000.0,1039.2 z" class="grid"/><path d="M 1000.0,1212.4 L 950.0,1125.8 L 850.0,1125.8 L 800.0,1212.4 L 850.0,1299.0 L 950.0,1299.0 L 1000.0,1212.4 z" class="grid"/><path d="M 1000.0,1385.6 L 950.0,1299.0 L 850.0,1299.0 L 800.0,1385.6 L 850.0,1472.2 L 950.0,1472.2 L 1000.0,1385.6 z" class="grid"/><path d="M 1000.0,173.2 L 950.0,86.6 L 850.0,86.6 L 800.0,173.2 L 850.0,259.8 L 950.0,259.8 L 1000.0,173.2 z" class="grid"/><path d="M 1000.0,346.4 L 950.0,259.8 L 850.0,259.8 L 800.0,346.4 L 850.0,433.0 L 950.0,433.0 L 1000.0,346.4 z" class="grid"/><path d="M 1000.0,519.6 L 950.0,433.0 L 850.0,433.0 L 800.0,519.6 L 850.0,606.2 L 950.0,606.2 L 1000.0,519.6 z" class="grid"/><path d="M 1000.0,692.8 L 950.0,606.2 L 850.0,606.2 L 800.0,692.8 L 850.0,779.4 L 950.0,779.4 L 1000.0,692.8 z" class="grid"/><path d="M 1000.0,866.0 L 950.0,779.4 L 850.0,779.4 L 800.0,866.0 L 850.0,952.6 L 950.0,952.6 L 1000.0,866.0 z" class="grid"/><path d="M 1150.0,1125.8 L 1100.0,1039.2 L 1000.0,1039.2 L 950.0,1125.8 L 1000.0,1212.4 L 1100.0,1212.4 L 1150.0,1125.8 z" class="grid"/><path d="M 1150.0,1299.0 L 1100.0,1212.4 L 1000.0,1212.4 L 950.0,1299.0 L 1000.0,1385.6 L 1100.0,1385.6 L 1150.0,1299.0 z" class="grid"/><path d="M 1150.0,259.8 L 1100.0,173.2 L 1000.0,173.2 L 950.0,259.8 L 1000.0,346.4 L 1100.0,346.4 L 1150.0,259.8 z" class="grid"/><path d="M 1150.0,433.0 L 1100.0,346.4 L 1000.0,346.4 L 950.0,433.0 L 1000.0,519.6 L 1100.0,519.6 L 1150.0,433.0 z" class="grid"/><path d="M 1150.0,606.2 L 1100.0,519.6 L 1000.0,519.6 L 950.0,606.2 L 1000.0,692.8 L 1100.0,692.8 L 1150.0,606.2 z" class="grid"/><path d="M 1150.0,779.4 L 1100.0,692.8 L 1000.0,692.8 L 950.0,779.4 L 1000.0,866.0 L 1100.0,866.0 L 1150.0,779.4 z" class="grid"/><path d="M 1150.0,952.6 L 1100.0,866.0 L 1000.0,866.0 L 950.0,952.6 L 1000.0,1039.2 L 1100.0,1039.2 L 1150.0,952.6 z" class="grid"/><path d="M 1300.0,1039.2 L 1250.0,952.6 L 1150.0,952.6 L 1100.0,1039.2 L 1150.0,1125.8 L 1250.0,1125.8 L 1300.0,1039.2 z" class="grid"/><path d="M 1300.0,1212.4 L 1250.0,1125.8 L 1150.0,1125.8 L 1100.0,1212.4 L 1150.0,1299.0 L 1250.0,1299.0 L 1300.0,1212.4 z" class="grid"/><path d="M 1300.0,346.4 L 1250.0,259.8 L 1150.0,259.8 L 1100.0,346.4 L 1150.0,433.0 L 1250.0,433.0 L 1300.0,346.4 z" class="grid"/><path d="M 1300.0,519.6 L 1250.0,433.0 L 1150.0,433.0 L 1100.0,519.6 L 1150.0,606.2 L 1250.0,606.2 L 1300.0,519.6 z" class="grid"/><path d="M 1300.0,692.8 L 1250.0,606.2 L 1150.0,606.2 L 1100.0,692.8 L 1150.0,779.4 L 1250.0,779.4 L 1300.0,692.8 z" class="grid"/><path d="M 1300.0,866.0 L 1250.0,779.4 L 1150.0,779.4 L 1100.0,866.0 L 1150.0,952.6 L 1250.0,952.6 L 1300.0,866.0 z" class="grid"/><path d="M 1450.0,433.0 L 1400.0,346.4 L 1300.0,346.4 L 1250.0,433.0 L 1300.0,519.6 L 1400.0,519.6 L 1450.0,433.0 z" class="grid"/><path d="M 1450.0,606.2 L 1400.0,519.6 L 1300.0,519.6 L 1250.0,606.2 L 1300.0,692.8 L 1400.0,692.8 L 1450.0,606.2 z" class="grid"/><path d="M 1450.0,779.4 L 1400.0,692.8 L 1300.0,692.8 L 1250.0,779.4 L 1300.0,866.0 L 1400.0,866.0 L 1450.0,779.4 z" class="grid"/><path d="M 250.0,1125.8 L 200.0,1039.2 L 100.0,1039.2 L 50.0,1125.8 L 100.0,1212.4 L 200.0,1212.4 L 250.0,1125.8 z" class="grid"/><path d="M 250.0,1299.0 L 200.0,1212.4 L 100.0,1212.4 L 50.0,1299.0 L 100.0,1385.6 L 200.0,1385.6 L 250.0,1299.0 z" class="grid"/><path d="M 250.0,1472.2 L 200.0,1385.6 L 100.0,1385.6 L 50.0,1472.2 L 100.0,1558.8 L 200.0,1558.8 L 250.0,1472.2 z" class="grid"/><path d="M 250.0,1645.4 L 200.0,1558.8 L 100.0,1558.8 L 50.0,1645.4 L 100.0,1732.0 L 200.0,1732.0 L 250.0,1645.4 z" class="grid"/><path d="M 250.0,259.8 L 200.0,173.2 L 100.0,173.2 L 50.0,259.8 L 100.0,346.4 L 200.0,346.4 L 250.0,259.8 z" class="grid"/><path d="M 250.0,433.0 L 200.0,346.4 L 100.0,346.4 L 50.0,433.0 L 100.0,519.6 L 200.0,519.6 L 250.0,433.0 z" class="grid"/><path d="M 250.0,606.2 L 200.0,519.6 L 100.0,519.6 L 50.0,606.2 L 100.0,692.8 L 200.0,692.8 L 250.0,606.2 z" class="grid"/><path d="M 250.0,86.6 L 200.0,-0.0 L 100.0,-0.0 L 50.0,86.6 L 100.0,173.2 L 200.0,173.2 L 250.0,86.6 z" class="grid"/><path d="M 250.0,952.6 L 200.0,866.0 L 100.0,866.0 L 50.0,952.6 L 100.0,1039.2 L 200.0,1039.2 L 250.0,952.6 z" class="grid"/><path d="M 400.0,1039.2 L 350.0,952.6 L 250.0,952.6 L 200.0,1039.2 L 250.0,1125.8 L 350.0,1125.8 L 400.0,1039.2 z" class="grid"/><path d="M 400.0,1212.4 L 350.0,1125.8 L 250.0,1125.8 L 200.0,1212.4 L 250.0,1299.0 L 350.0,1299.0 L 400.0,1212.4 z" class="grid"/><path d="M 400.0,1385.6 L 350.0,1299.0 L 250.0,1299.0 L 200.0,1385.6 L 250.0,1472.2 L 350.0,1472.2 L 400.0,1385.6 z" class="grid"/><path d="M 400.0,1558.8 L 350.0,1472.2 L 250.0,1472.2 L 200.0,1558.8 L 250.0,1645.4 L 350.0,1645.4 L 400.0,1558.8 z" class="grid"/><path d="M 400.0,173.2 L 350.0,86.6 L 250.0,86.6 L 200.0,173.2 L 250.0,259.8 L 350.0,259.8 L 400.0,173.2 z" class="grid"/><path d="M 400.0,346.4 L 350.0,259.8 L 250.0,259.8 L 200.0,346.4 L 250.0,433.0 L 350.0,433.0 L 400.0,346.4 z" class="grid"/><path d="M 400.0,519.6 L 350.0,433.0 L 250.0,433.0 L 200.0,519.6 L 250.0,606.2 L 350.0,606.2 L 400.0,519.6 z" class="grid"/><path d="M 400.0,692.8 L 350.0,606.2 L 250.0,606.2 L 200.0,692.8 L 250.0,779.4 L 350.0,779.4 L 400.0,692.8 z" class="grid"/><path d="M 550.0,1125.8 L 500.0,1039.2 L 400.0,1039.2 L 350.0,1125.8 L 400.0,1212.4 L 500.0,1212.4 L 550.0,1125.8 z" class="grid"/><path d="M 550.0,1299.0 L 500.0,1212.4 L 400.0,1212.4 L 350.0,1299.0 L 400.0,1385.6 L 500.0,1385.6 L 550.0,1299.0 z" class="grid"/><path d="M 550.0,1472.2 L 500.0,1385.6 L 400.0,1385.6 L 350.0,1472.2 L 400.0,1558.8 L 500.0,1558.8 L 550.0,1472.2 z" class="grid"/><path d="M 550.0,259.8 L 500.0,173.2 L 400.0,173.2 L 350.0,259.8 L 400.0,346.4 L 500.0,346.4 L 550.0,259.8 z" class="grid"/><path d="M 550.0,433.0 L 500.0,346.4 L 400.0,346.4 L 350.0,433.0 L 400.0,519.6 L 500.0,519.6 L 550.0,433.0 z" class="grid"/><path d="M 550.0,606.2 L 500.0,519.6 L 400.0,519.6 L 350.0,606.2 L 400.0,692.8 L 500.0,692.8 L 550.0,606.2 z" class="grid"/><path d="M 550.0,779.4 L 500.0,692.8 L 400.0,692.8 L 350.0,779.4 L 400.0,866.0 L 500.0,866.0 L 550.0,779.4 z" class="grid"/><path d="M 700.0,1039.2 L 650.0,952.6 L 550.0,952.6 L 500.0,1039.2 L 550.0,1125.8 L 650.0,1125.8 L 700.0,1039.2 z" class="grid"/><path d="M 700.0,1212.4 L 650.0,1125.8 L 550.0,1125.8 L 500.0,1212.4 L 550.0,1299.0 L 650.0,1299.0 L 700.0,1212.4 z" class="grid"/><path d="M 700.0,346.4 L 650.0,259.8 L 550.0,259.8 L 500.0,346.4 L 550.0,433.0 L 650.0,433.0 L 700.0,346.4 z" class="grid"/><path d="M 700.0,519.6 L 650.0,433.0 L 550.0,433.0 L 500.0,519.6 L 550.0,606.2 L 650.0,606.2 L 700.0,519.6 z" class="grid"/><path d="M 700.0,692.8 L 650.0,606.2 L 550.0,606.2 L 500.0,692.8 L 550.0,779.4 L 650.0,779.4 L 700.0,692.8 z" class="grid"/><path d="M 700.0,866.0 L 650.0,779.4 L 550.0,779.4 L 500.0,866.0 L 550.0,952.6 L 650.0,952.6 L 700.0,866.0 z" class="grid"/><path d="M 850.0,1125.8 L 800.0,1039.2 L 700.0,1039.2 L 650.0,1125.8 L 700.0,1212.4 L 800.0,1212.4 L 850.0,1125.8 z" class="grid"/><path d="M 850.0,1299.0 L 800.0,1212.4 L 700.0,1212.4 L 650.0,1299.0 L 700.0,1385.6 L 800.0,1385.6 L 850.0,1299.0 z" class="grid"/><path d="M 850.0,259.8 L 800.0,173.2 L 700.0,173.2 L 650.0,259.8 L 700.0,346.4 L 800.0,346.4 L 850.0,259.8 z" class="grid"/><path d="M 850.0,433.0 L 800.0,346.4 L 700.0,346.4 L 650.0,433.0 L 700.0,519.6 L 800.0,519.6 L 850.0,433.0 z" class="grid"/><path d="M 850.0,606.2 L 800.0,519.6 L 700.0,519.6 L 650.0,606.2 L 700.0,692.8 L 800.0,692.8 L 850.0,606.2 z" class="grid"/><path d="M 850.0,779.4 L 800.0,692.8 L 700.0,692.8 L 650.0,779.4 L 700.0,866.0 L 800.0,866.0 L 850.0,779.4 z" class="grid"/><path d="M 850.0,952.6 L 800.0,866.0 L 700.0,866.0 L 650.0,952.6 L 700.0,1039.2 L 800.0,1039.2 L 850.0,952.6 z" class="grid"/>
<text transform="translate(-180.0 -138.6)" class="number">-1.-1</text><text transform="translate(-180.0 -311.8)" class="number">-2.-1</text><text transform="translate(-180.0 -485.0)" class="number">-3.-1</text><text transform="translate(-180.0 1073.8)" class="number">6.-1</text><text transform="translate(-180.0 1247.0)" class="number">7.-1</text><text transform="translate(-180.0 1420.2)" class="number">8.-1</text><text transform="translate(-180.0 207.8)" class="number">1.-1</text><text transform="translate(-180.0 34.6)" class="number">0.-1</text><text transform="translate(-30.0 -225.2)" class="number">-1.0</text><text transform="translate(-30.0 -398.4)" class="number">-2.0</text><text transform="translate(-30.0 -52.0)" class="number">0.0</text><text transform="translate(-30.0 1160.4)" class="number">7.0</text><text transform="translate(-30.0 121.2)" class="number">1.0</text><text transform="translate(-30.0 1333.6)" class="number">8.0</text><text transform="translate(-30.0 1506.8)" class="number">9.0</text><text transform="translate(-30.0 294.4)" class="number">2.0</text><text transform="translate(-30.0 987.2)" class="number">6.0</text><text transform="translate(-330.0 -225.2)" class="number">-1.-2</text><text transform="translate(-330.0 -398.4)" class="number">-2.-2</text><text transform="translate(-330.0 -52.0)" class="number">0.-2</text><text transform="translate(-330.0 121.2)" class="number">1.-2</text><text transform="translate(1020.0 1073.8)" class="number">6.7</text><text transform="translate(1020.0 1247.0)" class="number">7.7</text><text transform="translate(1020.0 207.8)" class="number">1.7</text><text transform="translate(1020.0 381.0)" class="number">2.7</text><text transform="translate(1020.0 554.2)" class="number">3.7</text><text transform="translate(1020.0 727.4)" class="number">4.7</text><text transform="translate(1020.0 900.6)" class="number">5.7</text><text transform="translate(1170.0 1160.4)" class="number">7.8</text><text transform="translate(1170.0 294.4)" class="number">2.8</text><text transform="translate(1170.0 467.6)" class="number">3.8</text><text transform="translate(1170.0 640.8)" class="number">4.8</text><text transform="translate(1170.0 814.0)" class="number">5.8</text><text transform="translate(1170.0 987.2)" class="number">6.8</text><text transform="translate(120.0 1073.8)" class="number">6.1</text><text transform="translate(120.0 1247.0)" class="number">7.1</text><text transform="translate(120.0 1420.2)" class="number">8.1</text><text transform="translate(120.0 1593.4)" class="number">9.1</text><text transform="translate(120.0 207.8)" class="number">1.1</text><text transform="translate(120.0 34.6)" class="number">0.1</text><text transform="translate(120.0 381.0)" class="number">2.1</text><text transform="translate(120.0 554.2)" class="number">3.1</text><text transform="translate(120.0 900.6)" class="number">5.1</text><text transform="translate(1320.0 381.0)" class="number">2.9</text><text transform="translate(1320.0 554.2)" class="number">3.9</text><text transform="translate(1320.0 727.4)" class="number">4.9</text><text transform="translate(270.0 1160.4)" class="number">7.2</text><text transform="translate(270.0 121.2)" class="number">1.2</text><text transform="translate(270.0 1333.6)" class="number">8.2</text><text transform="translate(270.0 1506.8)" class="number">9.2</text><text transform="translate(270.0 294.4)" class="number">2.2</text><text transform="translate(270.0 467.6)" class="number">3.2</text><text transform="translate(270.0 640.8)" class="number">4.2</text><text transform="translate(270.0 987.2)" class="number">6.2</text><text transform="translate(420.0 1073.8)" class="number">6.3</text><text transform="translate(420.0 1247.0)" class="number">7.3</text><text transform="translate(420.0 1420.2)" class="number">8.3</text><text transform="translate(420.0 207.8)" class="number">1.3</text><text transform="translate(420.0 381.0)" class="number">2.3</text><text transform="translate(420.0 554.2)" class="number">3.3</text><text transform="translate(420.0 727.4)" class="number">4.3</text><text transform="translate(570.0 1160.4)" class="number">7.4</text><text transform="translate(570.0 294.4)" class="number">2.4</text><text transform="translate(570.0 467.6)" class="number">3.4</text><text transform="translate(570.0 640.8)" class="number">4.4</text><text transform="translate(570.0 814.0)" class="number">5.4</text><text transform="translate(570.0 987.2)" class="number">6.4</text><text transform="translate(720.0 1073.8)" class="number">6.5</text><text transform="translate(720.0 1247.0)" class="number">7.5</text><text transform="translate(720.0 207.8)" class="number">1.5</text><text transform="translate(720.0 381.0)" class="number">2.5</text><text transform="translate(720.0 554.2)" class="number">3.5</text><text transform="translate(720.0 727.4)" class="number">4.5</text><text transform="translate(720.0 900.6)" class="number">5.5</text><text transform="translate(870.0 1160.4)" class="number">7.6</text><text transform="translate(870.0 121.2)" class="number">1.6</text><text transform="translate(870.0 1333.6)" class="number">8.6</text><text transform="translate(870.0 294.4)" class="number">2.6</text><text transform="translate(870.0 467.6)" class="number">3.6</text><text transform="translate(870.0 640.8)" class="number">4.6</text><text transform="translate(870.0 814.0)" class="number">5.6</text><text transform="translate(870.0 987.2)" class="number">6.6</text>
<path d="M 1100.0,1039.2 L 1000.0,1039.2 L 950.0,1125.8 L 1000.0,1212.4 L 1100.0,1212.4 L 1150.0,1125.8 L 1100.0,1039.2 z" class="zone dangerous"/><path d="M 50.0,1125.8 L -50.0,1125.8 L -100.0,1212.4 L -50.0,1299.0 L -100.0,1385.6 L -50.0,1472.2 L 50.0,1472.2 L 100.0,1558.8 L 200.0,1558.8 L 250.0,1472.2 L 350.0,1472.2 L 400.0,1385.6 L 350.0,1299.0 L 400.0,1212.4 L 350.0,1125.8 L 250.0,1125.8 L 200.0,1039.2 L 100.0,1039.2 L 50.0,1125.8 z M 100.0,1212.4 L 200.0,1212.4 L 250.0,1299.0 L 200.0,1385.6 L 100.0,1385.6 L 50.0,1299.0 L 100.0,1212.4 z" class="zone secured"/><path d="M 650.0,1125.8 L 700.0,1212.4 L 800.0,1212.4 L 850.0,1299.0 L 950.0,1299.0 L 1000.0,1212.4 L 1100.0,1212.4 L 1150.0,1125.8 L 1100.0,1039.2 L 1000.0,1039.2 L 950.0,1125.8 L 850.0,1125.8 L 800.0,1039.2 L 700.0,1039.2 L 650.0,1125.8 z" class="zone secured"/><path d="M 950.0,779.4 L 850.0,779.4 L 800.0,866.0 L 850.0,952.6 L 950.0,952.6 L 1000.0,866.0 L 950.0,779.4 z" class="zone dangerous"/>
</svg>