<svg width="1300" height="1386" data-name="Layer 1" id="Layer_1" xmlns="http://www.w3.org/2000/svg"
    xmlns:xlink="http://www.w3.org/1999/xlink">
    <style type="text/css">
        polygon {
            fill: none;
            stroke-width: 6.666666666666666666666666667;
        }

        text {
            font-size: 250.0%;
            font-family: PTSans-NarrowBold, PT Sans Narrow;
            font-weight: 600;
            paint-order: stroke;
            stroke: black;
            fill: white;
            stroke-width: 4.444444444444444444444444445;
        }

        .path {
            fill: transparent;
            stroke-width: 8.000000000000000000000000000;
        }


        .roads {
            stroke: saddlebrown;
        }

        .rivers {
            stroke: blue;
        }

        .grid {
            stroke: #8E8E8E;
            stroke-miterlimit: 10;
        }

        .number {}

        .alt_text {}

        .icon {
            paint-order: stroke;
            stroke: black;
            fill: darkslategrey;
            stroke-width: 2;
        }


        .plains {
            fill: lightgreen;
        }

        .light_wood {
            fill: green;
        }

        .heavy_woods {
            fill: darkgreen;
        }

        .grassland {
            fill: chartreuse;
        }

        .mountains {
            fill: maroon;
        }

        .hills {
            fill: bisque;
        }

        .sea {
            fill: blue;
        }


        .lake {
            fill: lightskyblue;
        }


        .marsh {
            fill: yellowgreen;
        }


        .desert {
            fill: lightyellow;
        }

        .unknown {
            fill: gray;
        }

        .zone {
            stroke-dasharray: 15;
            stroke-linejoin: round;
            stroke-linecap: round;
        }
        
        .zone.secured {
          stroke: green;
        }
        
        
    </style>
    <defs>
        <svg xmlns="http://www.w3.org/2000/svg" id="fortin" class="icon fortin"><!--! Font Awesome Free 6.1.1 by @fontawesome - https://fontawesome.com License - https://fontawesome.com/license/free (Icons: CC BY 4.0, Fonts: SIL OFL 1.1, Code: MIT License) Copyright 2022 Fonticons, Inc. --><path d="M489.2 287.9h-27.4c-2.6 0-4.6 2-4.6 4.6v32h-36.6V146.2c0-2.6-2-4.6-4.6-4.6h-27.4c-2.6 0-4.6 2-4.6 4.6v32h-36.6v-32c0-2.6-2-4.6-4.6-4.6h-27.4c-2.6 0-4.6 2-4.6 4.6v32h-36.6v-32c0-6-8-4.6-11.7-4.6v-38c8.3-2 17.1-3.4 25.7-3.4 10.9 0 20.9 4.3 31.4 4.3 4.6 0 27.7-1.1 27.7-8v-60c0-2.6-2-4.6-4.6-4.6-5.1 0-15.1 4.3-24 4.3-9.7 0-20.9-4.3-32.6-4.3-8 0-16 1.1-23.7 2.9v-4.9c5.4-2.6 9.1-8.3 9.1-14.3 0-20.7-31.4-20.8-31.4 0 0 6 3.7 11.7 9.1 14.3v111.7c-3.7 0-11.7-1.4-11.7 4.6v32h-36.6v-32c0-2.6-2-4.6-4.6-4.6h-27.4c-2.6 0-4.6 2-4.6 4.6v32H128v-32c0-2.6-2-4.6-4.6-4.6H96c-2.6 0-4.6 2-4.6 4.6v178.3H54.8v-32c0-2.6-2-4.6-4.6-4.6H22.8c-2.6 0-4.6 2-4.6 4.6V512h182.9v-96c0-72.6 109.7-72.6 109.7 0v96h182.9V292.5c.1-2.6-1.9-4.6-4.5-4.6zm-288.1-4.5c0 2.6-2 4.6-4.6 4.6h-27.4c-2.6 0-4.6-2-4.6-4.6v-64c0-2.6 2-4.6 4.6-4.6h27.4c2.6 0 4.6 2 4.6 4.6v64zm146.4 0c0 2.6-2 4.6-4.6 4.6h-27.4c-2.6 0-4.6-2-4.6-4.6v-64c0-2.6 2-4.6 4.6-4.6h27.4c2.6 0 4.6 2 4.6 4.6v64z"/></svg><svg xmlns="http://www.w3.org/2000/svg" id="ruines" class="icon ruines"><!--! Font Awesome Free 6.1.1 by @fontawesome - https://fontawesome.com License - https://fontawesome.com/license/free (Icons: CC BY 4.0, Fonts: SIL OFL 1.1, Code: MIT License) Copyright 2022 Fonticons, Inc. --><path d="M336.6 156.5C327.3 148.1 322.6 136.5 327.1 125.3L357.6 49.18C362.7 36.27 377.8 30.36 389.7 37.63C410.9 50.63 430 66.62 446.5 85.02C455.7 95.21 452.9 110.9 441.5 118.5L373.9 163.5C363.6 170.4 349.8 168.1 340.5 159.9C339.2 158.7 337.9 157.6 336.6 156.5H336.6zM297.7 112.6C293.2 123.1 280.9 129.8 268.7 128.6C264.6 128.2 260.3 128 256 128C251.7 128 247.4 128.2 243.3 128.6C231.1 129.8 218.8 123.1 214.3 112.6L183.1 36.82C178.8 24.02 185.5 9.433 198.1 6.374C217.3 2.203 236.4 0 256 0C275.6 0 294.7 2.203 313 6.374C326.5 9.433 333.2 24.02 328 36.82L297.7 112.6zM122.3 37.63C134.2 30.36 149.3 36.27 154.4 49.18L184.9 125.3C189.4 136.5 184.7 148.1 175.4 156.5C174.1 157.6 172.8 158.7 171.5 159.9C162.2 168.1 148.4 170.4 138.1 163.5L70.52 118.5C59.13 110.9 56.32 95.21 65.46 85.02C81.99 66.62 101.1 50.63 122.3 37.63H122.3zM379.5 222.1C376.3 210.7 379.7 198.1 389.5 191.6L458.1 145.8C469.7 138.1 485.6 141.9 491.2 154.7C501.6 178.8 508.4 204.8 510.9 232C512.1 245.2 501.3 255.1 488 255.1H408C394.7 255.1 384.2 245.2 381.8 232.1C381.1 228.7 380.4 225.4 379.5 222.1V222.1zM122.5 191.6C132.3 198.1 135.7 210.7 132.5 222.1C131.6 225.4 130.9 228.7 130.2 232.1C127.8 245.2 117.3 256 104 256H24C10.75 256-.1184 245.2 1.107 232C3.636 204.8 10.43 178.8 20.82 154.7C26.36 141.9 42.26 138.1 53.91 145.8L122.5 191.6zM104 288C117.3 288 128 298.7 128 312V360C128 373.3 117.3 384 104 384H24C10.75 384 0 373.3 0 360V312C0 298.7 10.75 288 24 288H104zM488 288C501.3 288 512 298.7 512 312V360C512 373.3 501.3 384 488 384H408C394.7 384 384 373.3 384 360V312C384 298.7 394.7 288 408 288H488zM104 416C117.3 416 128 426.7 128 440V488C128 501.3 117.3 512 104 512H24C10.75 512 0 501.3 0 488V440C0 426.7 10.75 416 24 416H104zM488 416C501.3 416 512 426.7 512 440V488C512 501.3 501.3 512 488 512H408C394.7 512 384 501.3 384 488V440C384 426.7 394.7 416 408 416H488zM272 464C272 472.8 264.8 480 256 480C247.2 480 240 472.8 240 464V192C240 183.2 247.2 176 256 176C264.8 176 272 183.2 272 192V464zM208 464C208 472.8 200.8 480 192 480C183.2 480 176 472.8 176 464V224C176 215.2 183.2 208 192 208C200.8 208 208 215.2 208 224V464zM336 464C336 472.8 328.8 480 320 480C311.2 480 304 472.8 304 464V224C304 215.2 311.2 208 320 208C328.8 208 336 215.2 336 224V464z"/></svg>
    </defs>
    <polygon class="" points="200.0,86.60254037844386467637231704 150.0,-4E-26 50.0,-4E-26 0.0,86.60254037844386467637231704 50.0,173.20508075688772935274463412 150.0,173.20508075688772935274463412" />
<polygon class="" points="350.0,-4E-26 300.0,-86.60254037844386467637231712 200.0,-86.60254037844386467637231712 150.0,-4E-26 200.0,86.60254037844386467637231704 300.0,86.60254037844386467637231704" />
<polygon class="" points="500.0,86.60254037844386467637231704 450.0,-4E-26 350.0,-4E-26 300.0,86.60254037844386467637231704 350.0,173.20508075688772935274463412 450.0,173.20508075688772935274463412" />
<polygon class="" points="650.0,-4E-26 600.0,-86.60254037844386467637231712 500.0,-86.60254037844386467637231712 450.0,-4E-26 500.0,86.60254037844386467637231704 600.0,86.60254037844386467637231704" />
<polygon class="" points="800.0,86.60254037844386467637231704 750.0,-4E-26 650.0,-4E-26 600.0,86.60254037844386467637231704 650.0,173.20508075688772935274463412 750.0,173.20508075688772935274463412" />
<polygon class="" points="950.0,-4E-26 900.0,-86.60254037844386467637231712 800.0,-86.60254037844386467637231712 750.0,-4E-26 800.0,86.60254037844386467637231704 900.0,86.60254037844386467637231704" />
<polygon class="" points="1100.0,86.60254037844386467637231704 1050.0,-4E-26 950.0,-4E-26 900.0,86.60254037844386467637231704 950.0,173.20508075688772935274463412 1050.0,173.20508075688772935274463412" />
<polygon class="" points="200.0,259.80762113533159402911695120 150.0,173.20508075688772935274463412 50.0,173.20508075688772935274463412 0.0,259.80762113533159402911695120 50.0,346.41016151377545870548926828 150.0,346.41016151377545870548926828" />
<polygon class="" points="350.0,173.20508075688772935274463412 300.0,86.60254037844386467637231704 200.0,86.60254037844386467637231704 150.0,173.20508075688772935274463412 200.0,259.80762113533159402911695120 300.0,259.80762113533159402911695120" />
<polygon class="plains" points="500.0,259.80762113533159402911695120 450.0,173.20508075688772935274463412 350.0,173.20508075688772935274463412 300.0,259.80762113533159402911695120 350.0,346.41016151377545870548926828 450.0,346.41016151377545870548926828" />
<polygon class="light_wood" points="650.0,173.20508075688772935274463412 600.0,86.60254037844386467637231704 500.0,86.60254037844386467637231704 450.0,173.20508075688772935274463412 500.0,259.80762113533159402911695120 600.0,259.80762113533159402911695120" />
<polygon class="unknown" points="800.0,259.80762113533159402911695120 750.0,173.20508075688772935274463412 650.0,173.20508075688772935274463412 600.0,259.80762113533159402911695120 650.0,346.41016151377545870548926828 750.0,346.41016151377545870548926828" />
<polygon class="" points="950.0,173.20508075688772935274463412 900.0,86.60254037844386467637231704 800.0,86.60254037844386467637231704 750.0,173.20508075688772935274463412 800.0,259.80762113533159402911695120 900.0,259.80762113533159402911695120" />
<polygon class="" points="1100.0,259.80762113533159402911695120 1050.0,173.20508075688772935274463412 950.0,173.20508075688772935274463412 900.0,259.80762113533159402911695120 950.0,346.41016151377545870548926828 1050.0,346.41016151377545870548926828" />
<polygon class="" points="200.0,433.01270189221932338186158536 150.0,346.41016151377545870548926828 50.0,346.41016151377545870548926828 0.0,433.01270189221932338186158536 50.0,519.61524227066318805823390244 150.0,519.61524227066318805823390244" />
<polygon class="sea" points="350.0,346.41016151377545870548926828 300.0,259.80762113533159402911695120 200.0,259.80762113533159402911695120 150.0,346.41016151377545870548926828 200.0,433.01270189221932338186158536 300.0,433.01270189221932338186158536" />
<polygon class="mountains" points="500.0,433.01270189221932338186158536 450.0,346.41016151377545870548926828 350.0,346.41016151377545870548926828 300.0,433.01270189221932338186158536 350.0,519.61524227066318805823390244 450.0,519.61524227066318805823390244" />
<polygon class="grassland" points="650.0,346.41016151377545870548926828 600.0,259.80762113533159402911695120 500.0,259.80762113533159402911695120 450.0,346.41016151377545870548926828 500.0,433.01270189221932338186158536 600.0,433.01270189221932338186158536" />
<polygon class="marsh" points="800.0,433.01270189221932338186158536 750.0,346.41016151377545870548926828 650.0,346.41016151377545870548926828 600.0,433.01270189221932338186158536 650.0,519.61524227066318805823390244 750.0,519.61524227066318805823390244" />
<polygon class="lake" points="950.0,346.41016151377545870548926828 900.0,259.80762113533159402911695120 800.0,259.80762113533159402911695120 750.0,346.41016151377545870548926828 800.0,433.01270189221932338186158536 900.0,433.01270189221932338186158536" />
<polygon class="" points="1100.0,433.01270189221932338186158536 1050.0,346.41016151377545870548926828 950.0,346.41016151377545870548926828 900.0,433.01270189221932338186158536 950.0,519.61524227066318805823390244 1050.0,519.61524227066318805823390244" />
<polygon class="" points="200.0,606.21778264910705273460621952 150.0,519.61524227066318805823390244 50.0,519.61524227066318805823390244 0.0,606.21778264910705273460621952 50.0,692.82032302755091741097853660 150.0,692.82032302755091741097853660" />
<polygon class="heavy_woods" points="350.0,519.61524227066318805823390244 300.0,433.01270189221932338186158536 200.0,433.01270189221932338186158536 150.0,519.61524227066318805823390244 200.0,606.21778264910705273460621952 300.0,606.21778264910705273460621952" />
<polygon class="" points="500.0,606.21778264910705273460621952 450.0,519.61524227066318805823390244 350.0,519.61524227066318805823390244 300.0,606.21778264910705273460621952 350.0,692.82032302755091741097853660 450.0,692.82032302755091741097853660" />
<polygon class="" points="650.0,519.61524227066318805823390244 600.0,433.01270189221932338186158536 500.0,433.01270189221932338186158536 450.0,519.61524227066318805823390244 500.0,606.21778264910705273460621952 600.0,606.21778264910705273460621952" />
<polygon class="" points="800.0,606.21778264910705273460621952 750.0,519.61524227066318805823390244 650.0,519.61524227066318805823390244 600.0,606.21778264910705273460621952 650.0,692.82032302755091741097853660 750.0,692.82032302755091741097853660" />
<polygon class="hills" points="950.0,519.61524227066318805823390244 900.0,433.01270189221932338186158536 800.0,433.01270189221932338186158536 750.0,519.61524227066318805823390244 800.0,606.21778264910705273460621952 900.0,606.21778264910705273460621952" />
<polygon class="" points="1100.0,606.21778264910705273460621952 1050.0,519.61524227066318805823390244 950.0,519.61524227066318805823390244 900.0,606.21778264910705273460621952 950.0,692.82032302755091741097853660 1050.0,692.82032302755091741097853660" />
<polygon class="" points="200.0,779.42286340599478208735085368 150.0,692.82032302755091741097853660 50.0,692.82032302755091741097853660 0.0,779.42286340599478208735085368 50.0,866.02540378443864676372317076 150.0,866.02540378443864676372317076" />
<polygon class="" points="350.0,692.82032302755091741097853660 300.0,606.21778264910705273460621952 200.0,606.21778264910705273460621952 150.0,692.82032302755091741097853660 200.0,779.42286340599478208735085368 300.0,779.42286340599478208735085368" />
<polygon class="grassland" points="500.0,779.42286340599478208735085368 450.0,692.82032302755091741097853660 350.0,692.82032302755091741097853660 300.0,779.42286340599478208735085368 350.0,866.02540378443864676372317076 450.0,866.02540378443864676372317076" /><polygon class="sea" points="340.0,779.42286340599478208735085368 370.0,727.461339178928463281527463432 350.0,692.82032302755091741097853660 300.0,779.42286340599478208735085368" /><polygon class="sea" points="430.0,727.461339178928463281527463432 370.0,727.461339178928463281527463432 350.0,692.82032302755091741097853660 450.0,692.82032302755091741097853660" /><path d="M400.0 779.42286340599478208735085368 Q 400.0 779.42286340599478208735085368 474.997799967732386809738426591280 736.12159321677284974916469514" class="path roads" /><use xlink:href="#fortin" transform="translate(360.6352089188891555982814863 740.0580723248839376856323399) scale(0.1537687151605892359442129443 0.1537687151605892359442129443)" />
<polygon class="grassland" points="650.0,692.82032302755091741097853660 600.0,606.21778264910705273460621952 500.0,606.21778264910705273460621952 450.0,692.82032302755091741097853660 500.0,779.42286340599478208735085368 600.0,779.42286340599478208735085368" /><polygon class="sea" points="610.0,692.82032302755091741097853660 580.0,640.858798800484598605155146352 600.0,606.21778264910705273460621952 650.0,692.82032302755091741097853660" /><path d="M475.002200032267613190261573408720 736.12159321677284974916469514 Q 550.0 692.82032302755091741097853660 624.997799967732386809738426591280 736.12159321677284974916469514" class="path roads" /><path d="M550.0 606.21778264910705273460621952 Q 550.0 692.82032302755091741097853660 550.0 779.42286340599478208735085368" class="path rivers" /><path d="M475.002200032267613190261573408720 649.51905283832898507279237806 Q 550.0 692.82032302755091741097853660 550.0 779.42286340599478208735085368" class="path rivers" /><path d="M624.997799967732386809738426591280 649.51905283832898507279237806 Q 550.0 692.82032302755091741097853660 550.0 779.42286340599478208735085368" class="path rivers" />
<polygon class="grassland" points="800.0,779.42286340599478208735085368 750.0,692.82032302755091741097853660 650.0,692.82032302755091741097853660 600.0,779.42286340599478208735085368 650.0,866.02540378443864676372317076 750.0,866.02540378443864676372317076" /><polygon class="sea" points="760.0,779.42286340599478208735085368 730.0,727.461339178928463281527463432 750.0,692.82032302755091741097853660 800.0,779.42286340599478208735085368" /><polygon class="sea" points="730.0,727.461339178928463281527463432 670.0,727.461339178928463281527463432 650.0,692.82032302755091741097853660 750.0,692.82032302755091741097853660" /><polygon class="sea" points="760.0,779.42286340599478208735085368 730.0,831.384387633061100893174243928 750.0,866.02540378443864676372317076 800.0,779.42286340599478208735085368" /><path d="M625.002200032267613190261573408720 736.12159321677284974916469514 Q 700.0 779.42286340599478208735085368 700.0 866.02540378443864676372317076" class="path roads" /><path d="M625.002200032267613190261573408720 822.72413359521671442553701222 Q 700.0 779.42286340599478208735085368 700.0 866.02540378443864676372317076" class="path roads" />
<polygon class="" points="950.0,692.82032302755091741097853660 900.0,606.21778264910705273460621952 800.0,606.21778264910705273460621952 750.0,692.82032302755091741097853660 800.0,779.42286340599478208735085368 900.0,779.42286340599478208735085368" />
<polygon class="" points="1100.0,779.42286340599478208735085368 1050.0,692.82032302755091741097853660 950.0,692.82032302755091741097853660 900.0,779.42286340599478208735085368 950.0,866.02540378443864676372317076 1050.0,866.02540378443864676372317076" />
<polygon class="" points="200.0,952.62794416288251144009548784 150.0,866.02540378443864676372317076 50.0,866.02540378443864676372317076 0.0,952.62794416288251144009548784 50.0,1039.23048454132637611646780492 150.0,1039.23048454132637611646780492" />
<polygon class="" points="350.0,866.02540378443864676372317076 300.0,779.42286340599478208735085368 200.0,779.42286340599478208735085368 150.0,866.02540378443864676372317076 200.0,952.62794416288251144009548784 300.0,952.62794416288251144009548784" />
<polygon class="marsh" points="500.0,952.62794416288251144009548784 450.0,866.02540378443864676372317076 350.0,866.02540378443864676372317076 300.0,952.62794416288251144009548784 350.0,1039.23048454132637611646780492 450.0,1039.23048454132637611646780492" /><polygon class="sea" points="340.0,952.62794416288251144009548784 370.0,1004.589468389948830245918878088 350.0,1039.23048454132637611646780492 300.0,952.62794416288251144009548784" /><polygon class="sea" points="460.0,952.62794416288251144009548784 430.0,900.666419935816192634272097592 370.0,900.666419935816192634272097592 340.0,952.62794416288251144009548784 370.0,1004.589468389948830245918878088 430.0,1004.589468389948830245918878088" /><path d="M400.0 952.62794416288251144009548784 Q 400.0 952.62794416288251144009548784 474.997799967732386809738426591280 909.32667397366057910190932930" class="path rivers" />
<polygon class="grassland" points="650.0,866.02540378443864676372317076 600.0,779.42286340599478208735085368 500.0,779.42286340599478208735085368 450.0,866.02540378443864676372317076 500.0,952.62794416288251144009548784 600.0,952.62794416288251144009548784" /><polygon class="lake" points="610.0,866.02540378443864676372317076 580.0,814.063879557372327957899780512 520.0,814.063879557372327957899780512 490.0,866.02540378443864676372317076 520.0,917.986928011504965569546561008 580.0,917.986928011504965569546561008" /><polygon class="marsh" points="490.0,866.02540378443864676372317076 520.0,917.986928011504965569546561008 500.0,952.62794416288251144009548784 450.0,866.02540378443864676372317076" /><path d="M550.0 779.42286340599478208735085368 Q 550.0 866.02540378443864676372317076 475.002200032267613190261573408720 909.32667397366057910190932930" class="path rivers" />
<polygon class="grassland" points="800.0,952.62794416288251144009548784 750.0,866.02540378443864676372317076 650.0,866.02540378443864676372317076 600.0,952.62794416288251144009548784 650.0,1039.23048454132637611646780492 750.0,1039.23048454132637611646780492" /><polygon class="sea" points="640.0,952.62794416288251144009548784 670.0,1004.589468389948830245918878088 650.0,1039.23048454132637611646780492 600.0,952.62794416288251144009548784" /><path d="M700.0 866.02540378443864676372317076 Q 700.0 952.62794416288251144009548784 700.0 952.62794416288251144009548784" class="path roads" /><use xlink:href="#ruines" transform="translate(660.6352089188891555982814863 913.2631530817716670383769741) scale(0.1537687151605892359442129443 0.1537687151605892359442129443)" />
<polygon class="" points="950.0,866.02540378443864676372317076 900.0,779.42286340599478208735085368 800.0,779.42286340599478208735085368 750.0,866.02540378443864676372317076 800.0,952.62794416288251144009548784 900.0,952.62794416288251144009548784" />
<polygon class="" points="1100.0,952.62794416288251144009548784 1050.0,866.02540378443864676372317076 950.0,866.02540378443864676372317076 900.0,952.62794416288251144009548784 950.0,1039.23048454132637611646780492 1050.0,1039.23048454132637611646780492" />
<polygon class="" points="200.0,1125.83302491977024079284012200 150.0,1039.23048454132637611646780492 50.0,1039.23048454132637611646780492 0.0,1125.83302491977024079284012200 50.0,1212.43556529821410546921243908 150.0,1212.43556529821410546921243908" />
<polygon class="" points="350.0,1039.23048454132637611646780492 300.0,952.62794416288251144009548784 200.0,952.62794416288251144009548784 150.0,1039.23048454132637611646780492 200.0,1125.83302491977024079284012200 300.0,1125.83302491977024079284012200" />
<polygon class="" points="500.0,1125.83302491977024079284012200 450.0,1039.23048454132637611646780492 350.0,1039.23048454132637611646780492 300.0,1125.83302491977024079284012200 350.0,1212.43556529821410546921243908 450.0,1212.43556529821410546921243908" />
<polygon class="grassland" points="650.0,1039.23048454132637611646780492 600.0,952.62794416288251144009548784 500.0,952.62794416288251144009548784 450.0,1039.23048454132637611646780492 500.0,1125.83302491977024079284012200 600.0,1125.83302491977024079284012200" /><polygon class="sea" points="490.0,1039.23048454132637611646780492 520.0,1091.192008768392694922291195168 500.0,1125.83302491977024079284012200 450.0,1039.23048454132637611646780492" /><polygon class="sea" points="580.0,1091.192008768392694922291195168 520.0,1091.192008768392694922291195168 500.0,1125.83302491977024079284012200 600.0,1125.83302491977024079284012200" /><polygon class="sea" points="610.0,1039.23048454132637611646780492 580.0,1091.192008768392694922291195168 600.0,1125.83302491977024079284012200 650.0,1039.23048454132637611646780492" /><polygon class="sea" points="610.0,1039.23048454132637611646780492 580.0,987.268960314260057310644414672 520.0,987.268960314260057310644414672 490.0,1039.23048454132637611646780492 520.0,1091.192008768392694922291195168 580.0,1091.192008768392694922291195168" /><polygon class="sea" points="610.0,1039.23048454132637611646780492 580.0,987.268960314260057310644414672 600.0,952.62794416288251144009548784 650.0,1039.23048454132637611646780492" /><text transform="translate(550.0 1039.23048454132637611646780492)" text-anchor="middle" class="alt_text">Baie</text>
<polygon class="" points="800.0,1125.83302491977024079284012200 750.0,1039.23048454132637611646780492 650.0,1039.23048454132637611646780492 600.0,1125.83302491977024079284012200 650.0,1212.43556529821410546921243908 750.0,1212.43556529821410546921243908" />
<polygon class="" points="950.0,1039.23048454132637611646780492 900.0,952.62794416288251144009548784 800.0,952.62794416288251144009548784 750.0,1039.23048454132637611646780492 800.0,1125.83302491977024079284012200 900.0,1125.83302491977024079284012200" />
<polygon class="" points="1100.0,1125.83302491977024079284012200 1050.0,1039.23048454132637611646780492 950.0,1039.23048454132637611646780492 900.0,1125.83302491977024079284012200 950.0,1212.43556529821410546921243908 1050.0,1212.43556529821410546921243908" />
<polygon class="" points="200.0,1299.03810567665797014558475616 150.0,1212.43556529821410546921243908 50.0,1212.43556529821410546921243908 0.0,1299.03810567665797014558475616 50.0,1385.64064605510183482195707324 150.0,1385.64064605510183482195707324" />
<polygon class="" points="350.0,1212.43556529821410546921243908 300.0,1125.83302491977024079284012200 200.0,1125.83302491977024079284012200 150.0,1212.43556529821410546921243908 200.0,1299.03810567665797014558475616 300.0,1299.03810567665797014558475616" />
<polygon class="" points="500.0,1299.03810567665797014558475616 450.0,1212.43556529821410546921243908 350.0,1212.43556529821410546921243908 300.0,1299.03810567665797014558475616 350.0,1385.64064605510183482195707324 450.0,1385.64064605510183482195707324" />
<polygon class="" points="650.0,1212.43556529821410546921243908 600.0,1125.83302491977024079284012200 500.0,1125.83302491977024079284012200 450.0,1212.43556529821410546921243908 500.0,1299.03810567665797014558475616 600.0,1299.03810567665797014558475616" />
<polygon class="" points="800.0,1299.03810567665797014558475616 750.0,1212.43556529821410546921243908 650.0,1212.43556529821410546921243908 600.0,1299.03810567665797014558475616 650.0,1385.64064605510183482195707324 750.0,1385.64064605510183482195707324" />
<polygon class="" points="950.0,1212.43556529821410546921243908 900.0,1125.83302491977024079284012200 800.0,1125.83302491977024079284012200 750.0,1212.43556529821410546921243908 800.0,1299.03810567665797014558475616 900.0,1299.03810567665797014558475616" />
<polygon class="" points="1100.0,1299.03810567665797014558475616 1050.0,1212.43556529821410546921243908 950.0,1212.43556529821410546921243908 900.0,1299.03810567665797014558475616 950.0,1385.64064605510183482195707324 1050.0,1385.64064605510183482195707324" />
<text transform="translate(50.0 36.60254037844386467637231704)" class="number">1.3</text><polygon class="grid" points="200.0,86.60254037844386467637231704 150.0,-4E-26 50.0,-4E-26 0.0,86.60254037844386467637231704 50.0,173.20508075688772935274463412 150.0,173.20508075688772935274463412" />
<text transform="translate(200.0 -50.00000000000000000000000004)" class="number">1.4</text><polygon class="grid" points="350.0,-4E-26 300.0,-86.60254037844386467637231712 200.0,-86.60254037844386467637231712 150.0,-4E-26 200.0,86.60254037844386467637231704 300.0,86.60254037844386467637231704" />
<text transform="translate(350.0 36.60254037844386467637231704)" class="number">1.5</text><polygon class="grid" points="500.0,86.60254037844386467637231704 450.0,-4E-26 350.0,-4E-26 300.0,86.60254037844386467637231704 350.0,173.20508075688772935274463412 450.0,173.20508075688772935274463412" />
<text transform="translate(500.0 -50.00000000000000000000000004)" class="number">1.6</text><polygon class="grid" points="650.0,-4E-26 600.0,-86.60254037844386467637231712 500.0,-86.60254037844386467637231712 450.0,-4E-26 500.0,86.60254037844386467637231704 600.0,86.60254037844386467637231704" />
<text transform="translate(650.0 36.60254037844386467637231704)" class="number">1.7</text><polygon class="grid" points="800.0,86.60254037844386467637231704 750.0,-4E-26 650.0,-4E-26 600.0,86.60254037844386467637231704 650.0,173.20508075688772935274463412 750.0,173.20508075688772935274463412" />
<text transform="translate(800.0 -50.00000000000000000000000004)" class="number">1.8</text><polygon class="grid" points="950.0,-4E-26 900.0,-86.60254037844386467637231712 800.0,-86.60254037844386467637231712 750.0,-4E-26 800.0,86.60254037844386467637231704 900.0,86.60254037844386467637231704" />
<text transform="translate(950.0 36.60254037844386467637231704)" class="number">1.9</text><polygon class="grid" points="1100.0,86.60254037844386467637231704 1050.0,-4E-26 950.0,-4E-26 900.0,86.60254037844386467637231704 950.0,173.20508075688772935274463412 1050.0,173.20508075688772935274463412" />
<text transform="translate(50.0 209.8076211353315940291169512)" class="number">2.3</text><polygon class="grid" points="200.0,259.80762113533159402911695120 150.0,173.20508075688772935274463412 50.0,173.20508075688772935274463412 0.0,259.80762113533159402911695120 50.0,346.41016151377545870548926828 150.0,346.41016151377545870548926828" />
<text transform="translate(200.0 123.2050807568877293527446341)" class="number">2.4</text><polygon class="grid" points="350.0,173.20508075688772935274463412 300.0,86.60254037844386467637231704 200.0,86.60254037844386467637231704 150.0,173.20508075688772935274463412 200.0,259.80762113533159402911695120 300.0,259.80762113533159402911695120" />
<text transform="translate(350.0 209.8076211353315940291169512)" class="number">2.5</text><polygon class="grid" points="500.0,259.80762113533159402911695120 450.0,173.20508075688772935274463412 350.0,173.20508075688772935274463412 300.0,259.80762113533159402911695120 350.0,346.41016151377545870548926828 450.0,346.41016151377545870548926828" />
<text transform="translate(500.0 123.2050807568877293527446341)" class="number">2.6</text><polygon class="grid" points="650.0,173.20508075688772935274463412 600.0,86.60254037844386467637231704 500.0,86.60254037844386467637231704 450.0,173.20508075688772935274463412 500.0,259.80762113533159402911695120 600.0,259.80762113533159402911695120" />
<text transform="translate(650.0 209.8076211353315940291169512)" class="number">2.7</text><polygon class="grid" points="800.0,259.80762113533159402911695120 750.0,173.20508075688772935274463412 650.0,173.20508075688772935274463412 600.0,259.80762113533159402911695120 650.0,346.41016151377545870548926828 750.0,346.41016151377545870548926828" />
<text transform="translate(800.0 123.2050807568877293527446341)" class="number">2.8</text><polygon class="grid" points="950.0,173.20508075688772935274463412 900.0,86.60254037844386467637231704 800.0,86.60254037844386467637231704 750.0,173.20508075688772935274463412 800.0,259.80762113533159402911695120 900.0,259.80762113533159402911695120" />
<text transform="translate(950.0 209.8076211353315940291169512)" class="number">2.9</text><polygon class="grid" points="1100.0,259.80762113533159402911695120 1050.0,173.20508075688772935274463412 950.0,173.20508075688772935274463412 900.0,259.80762113533159402911695120 950.0,346.41016151377545870548926828 1050.0,346.41016151377545870548926828" />
<text transform="translate(50.0 383.0127018922193233818615854)" class="number">3.3</text><polygon class="grid" points="200.0,433.01270189221932338186158536 150.0,346.41016151377545870548926828 50.0,346.41016151377545870548926828 0.0,433.01270189221932338186158536 50.0,519.61524227066318805823390244 150.0,519.61524227066318805823390244" />
<text transform="translate(200.0 296.4101615137754587054892683)" class="number">3.4</text><polygon class="grid" points="350.0,346.41016151377545870548926828 300.0,259.80762113533159402911695120 200.0,259.80762113533159402911695120 150.0,346.41016151377545870548926828 200.0,433.01270189221932338186158536 300.0,433.01270189221932338186158536" />
<text transform="translate(350.0 383.0127018922193233818615854)" class="number">3.5</text><polygon class="grid" points="500.0,433.01270189221932338186158536 450.0,346.41016151377545870548926828 350.0,346.41016151377545870548926828 300.0,433.01270189221932338186158536 350.0,519.61524227066318805823390244 450.0,519.61524227066318805823390244" />
<text transform="translate(500.0 296.4101615137754587054892683)" class="number">3.6</text><polygon class="grid" points="650.0,346.41016151377545870548926828 600.0,259.80762113533159402911695120 500.0,259.80762113533159402911695120 450.0,346.41016151377545870548926828 500.0,433.01270189221932338186158536 600.0,433.01270189221932338186158536" />
<text transform="translate(650.0 383.0127018922193233818615854)" class="number">3.7</text><polygon class="grid" points="800.0,433.01270189221932338186158536 750.0,346.41016151377545870548926828 650.0,346.41016151377545870548926828 600.0,433.01270189221932338186158536 650.0,519.61524227066318805823390244 750.0,519.61524227066318805823390244" />
<text transform="translate(800.0 296.4101615137754587054892683)" class="number">3.8</text><polygon class="grid" points="950.0,346.41016151377545870548926828 900.0,259.80762113533159402911695120 800.0,259.80762113533159402911695120 750.0,346.41016151377545870548926828 800.0,433.01270189221932338186158536 900.0,433.01270189221932338186158536" />
<text transform="translate(950.0 383.0127018922193233818615854)" class="number">3.9</text><polygon class="grid" points="1100.0,433.01270189221932338186158536 1050.0,346.41016151377545870548926828 950.0,346.41016151377545870548926828 900.0,433.01270189221932338186158536 950.0,519.61524227066318805823390244 1050.0,519.61524227066318805823390244" />
<text transform="translate(50.0 556.2177826491070527346062195)" class="number">4.3</text><polygon class="grid" points="200.0,606.21778264910705273460621952 150.0,519.61524227066318805823390244 50.0,519.61524227066318805823390244 0.0,606.21778264910705273460621952 50.0,692.82032302755091741097853660 150.0,692.82032302755091741097853660" />
<text transform="translate(200.0 469.6152422706631880582339024)" class="number">4.4</text><polygon class="grid" points="350.0,519.61524227066318805823390244 300.0,433.01270189221932338186158536 200.0,433.01270189221932338186158536 150.0,519.61524227066318805823390244 200.0,606.21778264910705273460621952 300.0,606.21778264910705273460621952" />
<text transform="translate(350.0 556.2177826491070527346062195)" class="number">4.5</text><polygon class="grid" points="500.0,606.21778264910705273460621952 450.0,519.61524227066318805823390244 350.0,519.61524227066318805823390244 300.0,606.21778264910705273460621952 350.0,692.82032302755091741097853660 450.0,692.82032302755091741097853660" />
<text transform="translate(500.0 469.6152422706631880582339024)" class="number">4.6</text><polygon class="grid" points="650.0,519.61524227066318805823390244 600.0,433.01270189221932338186158536 500.0,433.01270189221932338186158536 450.0,519.61524227066318805823390244 500.0,606.21778264910705273460621952 600.0,606.21778264910705273460621952" />
<text transform="translate(650.0 556.2177826491070527346062195)" class="number">4.7</text><polygon class="grid" points="800.0,606.21778264910705273460621952 750.0,519.61524227066318805823390244 650.0,519.61524227066318805823390244 600.0,606.21778264910705273460621952 650.0,692.82032302755091741097853660 750.0,692.82032302755091741097853660" />
<text transform="translate(800.0 469.6152422706631880582339024)" class="number">4.8</text><polygon class="grid" points="950.0,519.61524227066318805823390244 900.0,433.01270189221932338186158536 800.0,433.01270189221932338186158536 750.0,519.61524227066318805823390244 800.0,606.21778264910705273460621952 900.0,606.21778264910705273460621952" />
<text transform="translate(950.0 556.2177826491070527346062195)" class="number">4.9</text><polygon class="grid" points="1100.0,606.21778264910705273460621952 1050.0,519.61524227066318805823390244 950.0,519.61524227066318805823390244 900.0,606.21778264910705273460621952 950.0,692.82032302755091741097853660 1050.0,692.82032302755091741097853660" />
<text transform="translate(50.0 729.4228634059947820873508537)" class="number">5.3</text><polygon class="grid" points="200.0,779.42286340599478208735085368 150.0,692.82032302755091741097853660 50.0,692.82032302755091741097853660 0.0,779.42286340599478208735085368 50.0,866.02540378443864676372317076 150.0,866.02540378443864676372317076" />
<text transform="translate(200.0 642.8203230275509174109785366)" class="number">5.4</text><polygon class="grid" points="350.0,692.82032302755091741097853660 300.0,606.21778264910705273460621952 200.0,606.21778264910705273460621952 150.0,692.82032302755091741097853660 200.0,779.42286340599478208735085368 300.0,779.42286340599478208735085368" />
<text transform="translate(350.0 729.4228634059947820873508537)" class="number">5.5</text><polygon class="grid" points="500.0,779.42286340599478208735085368 450.0,692.82032302755091741097853660 350.0,692.82032302755091741097853660 300.0,779.42286340599478208735085368 350.0,866.02540378443864676372317076 450.0,866.02540378443864676372317076" />
<text transform="translate(500.0 642.8203230275509174109785366)" class="number">5.6</text><polygon class="grid" points="650.0,692.82032302755091741097853660 600.0,606.21778264910705273460621952 500.0,606.21778264910705273460621952 450.0,692.82032302755091741097853660 500.0,779.42286340599478208735085368 600.0,779.42286340599478208735085368" />
<text transform="translate(650.0 729.4228634059947820873508537)" class="number">5.7</text><polygon class="grid" points="800.0,779.42286340599478208735085368 750.0,692.82032302755091741097853660 650.0,692.82032302755091741097853660 600.0,779.42286340599478208735085368 650.0,866.02540378443864676372317076 750.0,866.02540378443864676372317076" />
<text transform="translate(800.0 642.8203230275509174109785366)" class="number">5.8</text><polygon class="grid" points="950.0,692.82032302755091741097853660 900.0,606.21778264910705273460621952 800.0,606.21778264910705273460621952 750.0,692.82032302755091741097853660 800.0,779.42286340599478208735085368 900.0,779.42286340599478208735085368" />
<text transform="translate(950.0 729.4228634059947820873508537)" class="number">5.9</text><polygon class="grid" points="1100.0,779.42286340599478208735085368 1050.0,692.82032302755091741097853660 950.0,692.82032302755091741097853660 900.0,779.42286340599478208735085368 950.0,866.02540378443864676372317076 1050.0,866.02540378443864676372317076" />
<text transform="translate(50.0 902.6279441628825114400954878)" class="number">6.3</text><polygon class="grid" points="200.0,952.62794416288251144009548784 150.0,866.02540378443864676372317076 50.0,866.02540378443864676372317076 0.0,952.62794416288251144009548784 50.0,1039.23048454132637611646780492 150.0,1039.23048454132637611646780492" />
<text transform="translate(200.0 816.0254037844386467637231708)" class="number">6.4</text><polygon class="grid" points="350.0,866.02540378443864676372317076 300.0,779.42286340599478208735085368 200.0,779.42286340599478208735085368 150.0,866.02540378443864676372317076 200.0,952.62794416288251144009548784 300.0,952.62794416288251144009548784" />
<text transform="translate(350.0 902.6279441628825114400954878)" class="number">6.5</text><polygon class="grid" points="500.0,952.62794416288251144009548784 450.0,866.02540378443864676372317076 350.0,866.02540378443864676372317076 300.0,952.62794416288251144009548784 350.0,1039.23048454132637611646780492 450.0,1039.23048454132637611646780492" />
<text transform="translate(500.0 816.0254037844386467637231708)" class="number">6.6</text><polygon class="grid" points="650.0,866.02540378443864676372317076 600.0,779.42286340599478208735085368 500.0,779.42286340599478208735085368 450.0,866.02540378443864676372317076 500.0,952.62794416288251144009548784 600.0,952.62794416288251144009548784" />
<text transform="translate(650.0 902.6279441628825114400954878)" class="number">6.7</text><polygon class="grid" points="800.0,952.62794416288251144009548784 750.0,866.02540378443864676372317076 650.0,866.02540378443864676372317076 600.0,952.62794416288251144009548784 650.0,1039.23048454132637611646780492 750.0,1039.23048454132637611646780492" />
<text transform="translate(800.0 816.0254037844386467637231708)" class="number">6.8</text><polygon class="grid" points="950.0,866.02540378443864676372317076 900.0,779.42286340599478208735085368 800.0,779.42286340599478208735085368 750.0,866.02540378443864676372317076 800.0,952.62794416288251144009548784 900.0,952.62794416288251144009548784" />
<text transform="translate(950.0 902.6279441628825114400954878)" class="number">6.9</text><polygon class="grid" points="1100.0,952.62794416288251144009548784 1050.0,866.02540378443864676372317076 950.0,866.02540378443864676372317076 900.0,952.62794416288251144009548784 950.0,1039.23048454132637611646780492 1050.0,1039.23048454132637611646780492" />
<text transform="translate(50.0 1075.833024919770240792840122)" class="number">7.3</text><polygon class="grid" points="200.0,1125.83302491977024079284012200 150.0,1039.23048454132637611646780492 50.0,1039.23048454132637611646780492 0.0,1125.83302491977024079284012200 50.0,1212.43556529821410546921243908 150.0,1212.43556529821410546921243908" />
<text transform="translate(200.0 989.2304845413263761164678049)" class="number">7.4</text><polygon class="grid" points="350.0,1039.23048454132637611646780492 300.0,952.62794416288251144009548784 200.0,952.62794416288251144009548784 150.0,1039.23048454132637611646780492 200.0,1125.83302491977024079284012200 300.0,1125.83302491977024079284012200" />
<text transform="translate(350.0 1075.833024919770240792840122)" class="number">7.5</text><polygon class="grid" points="500.0,1125.83302491977024079284012200 450.0,1039.23048454132637611646780492 350.0,1039.23048454132637611646780492 300.0,1125.83302491977024079284012200 350.0,1212.43556529821410546921243908 450.0,1212.43556529821410546921243908" />
<text transform="translate(500.0 989.2304845413263761164678049)" class="number">7.6</text><polygon class="grid" points="650.0,1039.23048454132637611646780492 600.0,952.62794416288251144009548784 500.0,952.62794416288251144009548784 450.0,1039.23048454132637611646780492 500.0,1125.83302491977024079284012200 600.0,1125.83302491977024079284012200" />
<text transform="translate(650.0 1075.833024919770240792840122)" class="number">7.7</text><polygon class="grid" points="800.0,1125.83302491977024079284012200 750.0,1039.23048454132637611646780492 650.0,1039.23048454132637611646780492 600.0,1125.83302491977024079284012200 650.0,1212.43556529821410546921243908 750.0,1212.43556529821410546921243908" />
<text transform="translate(800.0 989.2304845413263761164678049)" class="number">7.8</text><polygon class="grid" points="950.0,1039.23048454132637611646780492 900.0,952.62794416288251144009548784 800.0,952.62794416288251144009548784 750.0,1039.23048454132637611646780492 800.0,1125.83302491977024079284012200 900.0,1125.83302491977024079284012200" />
<text transform="translate(950.0 1075.833024919770240792840122)" class="number">7.9</text><polygon class="grid" points="1100.0,1125.83302491977024079284012200 1050.0,1039.23048454132637611646780492 950.0,1039.23048454132637611646780492 900.0,1125.83302491977024079284012200 950.0,1212.43556529821410546921243908 1050.0,1212.43556529821410546921243908" />
<text transform="translate(50.0 1249.038105676657970145584756)" class="number">8.3</text><polygon class="grid" points="200.0,1299.03810567665797014558475616 150.0,1212.43556529821410546921243908 50.0,1212.43556529821410546921243908 0.0,1299.03810567665797014558475616 50.0,1385.64064605510183482195707324 150.0,1385.64064605510183482195707324" />
<text transform="translate(200.0 1162.435565298214105469212439)" class="number">8.4</text><polygon class="grid" points="350.0,1212.43556529821410546921243908 300.0,1125.83302491977024079284012200 200.0,1125.83302491977024079284012200 150.0,1212.43556529821410546921243908 200.0,1299.03810567665797014558475616 300.0,1299.03810567665797014558475616" />
<text transform="translate(350.0 1249.038105676657970145584756)" class="number">8.5</text><polygon class="grid" points="500.0,1299.03810567665797014558475616 450.0,1212.43556529821410546921243908 350.0,1212.43556529821410546921243908 300.0,1299.03810567665797014558475616 350.0,1385.64064605510183482195707324 450.0,1385.64064605510183482195707324" />
<text transform="translate(500.0 1162.435565298214105469212439)" class="number">8.6</text><polygon class="grid" points="650.0,1212.43556529821410546921243908 600.0,1125.83302491977024079284012200 500.0,1125.83302491977024079284012200 450.0,1212.43556529821410546921243908 500.0,1299.03810567665797014558475616 600.0,1299.03810567665797014558475616" />
<text transform="translate(650.0 1249.038105676657970145584756)" class="number">8.7</text><polygon class="grid" points="800.0,1299.03810567665797014558475616 750.0,1212.43556529821410546921243908 650.0,1212.43556529821410546921243908 600.0,1299.03810567665797014558475616 650.0,1385.64064605510183482195707324 750.0,1385.64064605510183482195707324" />
<text transform="translate(800.0 1162.435565298214105469212439)" class="number">8.8</text><polygon class="grid" points="950.0,1212.43556529821410546921243908 900.0,1125.83302491977024079284012200 800.0,1125.83302491977024079284012200 750.0,1212.43556529821410546921243908 800.0,1299.03810567665797014558475616 900.0,1299.03810567665797014558475616" />
<text transform="translate(950.0 1249.038105676657970145584756)" class="number">8.9</text><polygon class="grid" points="1100.0,1299.03810567665797014558475616 1050.0,1212.43556529821410546921243908 950.0,1212.43556529821410546921243908 900.0,1299.03810567665797014558475616 950.0,1385.64064605510183482195707324 1050.0,1385.64064605510183482195707324" />
<polygon class="zone secured" points="650.0,1039.23048454132637611646780492 600.0,1125.83302491977024079284012200 500.0,1125.83302491977024079284012200 450.0,1039.23048454132637611646780492 350.0,1039.23048454132637611646780492 300.0,952.62794416288251144009548784 350.0,866.02540378443864676372317076 450.0,866.02540378443864676372317076 500.0,952.62794416288251144009548784 600.0,952.62794416288251144009548784" />
</svg>