<svg viewBox="343.3333333333333333333333333 166.5384140902210626860779675 1113.333333333333333333333333 1225.768898631547438802545772" data-name="Layer 1" id="Layer_1" xmlns="http://www.w3.org/2000/svg"
    xmlns:xlink="http://www.w3.org/1999/xlink">
    <style type="text/css">
        polygon {
            fill: none;
            stroke-width: 6.666666666666666666666666667;
        }

        text {
            font-size: 250.0%;
            font-family: PTSans-NarrowBold, PT Sans Narrow;
            font-weight: 600;
            paint-order: stroke;
            stroke: black;
            fill: white;
            stroke-width: 4.444444444444444444444444445;
        }

        .path {
            fill: transparent;
            stroke-width: 8.000000000000000000000000000;
        }


        .roads {
            stroke: saddlebrown;
        }

        .rivers {
            stroke: blue;
        }

        .grid {
            stroke: #8E8E8E;
            stroke-miterlimit: 10;
        }

        .number {}

        .alt_text {}

        .icon {
            paint-order: stroke;
            stroke: black;
            fill: darkslategrey;
            stroke-width: 2;
        }


        .plains {
            fill: lightgreen;
        }

        .light_wood {
            fill: green;
        }

        .heavy_woods {
            fill: darkgreen;
        }

        .grassland {
            fill: chartreuse;
        }

        .mountains {
            fill: maroon;
        }

        .hills {
            fill: bisque;
        }

        .sea {
            fill: blue;
        }


        .lake {
            fill: lightskyblue;
        }


        .marsh {
            fill: yellowgreen;
        }


        .desert {
            fill: lightyellow;
        }

        .unknown {
            fill: gray;
        }

        .zone {
            stroke-dasharray: 15;
            stroke-linejoin: round;
            stroke-linecap: round;
        }

        .zone.secured {
            stroke: green;
        }

        
    </style>
    <defs>
        
    </defs>
    <polygon class="grid" points="1150.0,606.21778264910705273460621956 1100.0,519.61524227066318805823390248 1000.0,519.61524227066318805823390248 950.0,606.21778264910705273460621956 1000.0,692.82032302755091741097853664 1100.0,692.82032302755091741097853664" /><polygon class="grid" points="1150.0,779.42286340599478208735085372 1100.0,692.82032302755091741097853664 1000.0,692.82032302755091741097853664 950.0,779.42286340599478208735085372 1000.0,866.02540378443864676372317080 1100.0,866.02540378443864676372317080" /><polygon class="grid" points="1450.0,606.21778264910705273460621956 1400.0,519.61524227066318805823390248 1300.0,519.61524227066318805823390248 1250.0,606.21778264910705273460621956 1300.0,692.82032302755091741097853664 1400.0,692.82032302755091741097853664" /><polygon class="grid" points="1450.0,779.42286340599478208735085372 1400.0,692.82032302755091741097853664 1300.0,692.82032302755091741097853664 1250.0,779.42286340599478208735085372 1300.0,866.02540378443864676372317080 1400.0,866.02540378443864676372317080" /><polygon class="grid" points="550.0,433.01270189221932338186158540 500.0,346.41016151377545870548926832 400.0,346.41016151377545870548926832 350.0,433.01270189221932338186158540 400.0,519.61524227066318805823390248 500.0,519.61524227066318805823390248" /><polygon class="grid" points="550.0,606.21778264910705273460621956 500.0,519.61524227066318805823390248 400.0,519.61524227066318805823390248 350.0,606.21778264910705273460621956 400.0,692.82032302755091741097853664 500.0,692.82032302755091741097853664" /><polygon class="grid" points="850.0,433.01270189221932338186158540 800.0,346.41016151377545870548926832 700.0,346.41016151377545870548926832 650.0,433.01270189221932338186158540 700.0,519.61524227066318805823390248 800.0,519.61524227066318805823390248" /><polygon class="grid" points="850.0,606.21778264910705273460621956 800.0,519.61524227066318805823390248 700.0,519.61524227066318805823390248 650.0,606.21778264910705273460621956 700.0,692.82032302755091741097853664 800.0,692.82032302755091741097853664" /><polygon class="grid" points="850.0,1125.83302491977024079284012204 800.0,1039.23048454132637611646780496 700.0,1039.23048454132637611646780496 650.0,1125.83302491977024079284012204 700.0,1212.43556529821410546921243912 800.0,1212.43556529821410546921243912" /><polygon class="grid" points="850.0,1299.03810567665797014558475620 800.0,1212.43556529821410546921243912 700.0,1212.43556529821410546921243912 650.0,1299.03810567665797014558475620 700.0,1385.64064605510183482195707328 800.0,1385.64064605510183482195707328" /><polygon class="grid" points="1150.0,1125.83302491977024079284012204 1100.0,1039.23048454132637611646780496 1000.0,1039.23048454132637611646780496 950.0,1125.83302491977024079284012204 1000.0,1212.43556529821410546921243912 1100.0,1212.43556529821410546921243912" /><polygon class="grid" points="1150.0,1299.03810567665797014558475620 1100.0,1212.43556529821410546921243912 1000.0,1212.43556529821410546921243912 950.0,1299.03810567665797014558475620 1000.0,1385.64064605510183482195707328 1100.0,1385.64064605510183482195707328" /><polygon class="grid" points="1150.0,433.01270189221932338186158540 1100.0,346.41016151377545870548926832 1000.0,346.41016151377545870548926832 950.0,433.01270189221932338186158540 1000.0,519.61524227066318805823390248 1100.0,519.61524227066318805823390248" /><polygon class="grid" points="1450.0,433.01270189221932338186158540 1400.0,346.41016151377545870548926832 1300.0,346.41016151377545870548926832 1250.0,433.01270189221932338186158540 1300.0,519.61524227066318805823390248 1400.0,519.61524227066318805823390248" /><polygon class="grid" points="850.0,259.80762113533159402911695124 800.0,173.20508075688772935274463416 700.0,173.20508075688772935274463416 650.0,259.80762113533159402911695124 700.0,346.41016151377545870548926832 800.0,346.41016151377545870548926832" /><polygon class="grid" points="1150.0,259.80762113533159402911695124 1100.0,173.20508075688772935274463416 1000.0,173.20508075688772935274463416 950.0,259.80762113533159402911695124 1000.0,346.41016151377545870548926832 1100.0,346.41016151377545870548926832" /><polygon class="grid" points="850.0,779.42286340599478208735085372 800.0,692.82032302755091741097853664 700.0,692.82032302755091741097853664 650.0,779.42286340599478208735085372 700.0,866.02540378443864676372317080 800.0,866.02540378443864676372317080" /><polygon class="grid" points="850.0,952.62794416288251144009548788 800.0,866.02540378443864676372317080 700.0,866.02540378443864676372317080 650.0,952.62794416288251144009548788 700.0,1039.23048454132637611646780496 800.0,1039.23048454132637611646780496" /><polygon class="grid" points="1150.0,952.62794416288251144009548788 1100.0,866.02540378443864676372317080 1000.0,866.02540378443864676372317080 950.0,952.62794416288251144009548788 1000.0,1039.23048454132637611646780496 1100.0,1039.23048454132637611646780496" /><polygon class="grid" points="550.0,779.42286340599478208735085372 500.0,692.82032302755091741097853664 400.0,692.82032302755091741097853664 350.0,779.42286340599478208735085372 400.0,866.02540378443864676372317080 500.0,866.02540378443864676372317080" /><polygon class="grid" points="1000.0,1212.43556529821410546921243912 950.0,1125.83302491977024079284012204 850.0,1125.83302491977024079284012204 800.0,1212.43556529821410546921243912 850.0,1299.03810567665797014558475620 950.0,1299.03810567665797014558475620" /><polygon class="grid" points="1000.0,1039.23048454132637611646780496 950.0,952.62794416288251144009548788 850.0,952.62794416288251144009548788 800.0,1039.23048454132637611646780496 850.0,1125.83302491977024079284012204 950.0,1125.83302491977024079284012204" /><polygon class="grid" points="1300.0,1212.43556529821410546921243912 1250.0,1125.83302491977024079284012204 1150.0,1125.83302491977024079284012204 1100.0,1212.43556529821410546921243912 1150.0,1299.03810567665797014558475620 1250.0,1299.03810567665797014558475620" /><polygon class="grid" points="1300.0,1039.23048454132637611646780496 1250.0,952.62794416288251144009548788 1150.0,952.62794416288251144009548788 1100.0,1039.23048454132637611646780496 1150.0,1125.83302491977024079284012204 1250.0,1125.83302491977024079284012204" /><polygon class="grid" points="700.0,1212.43556529821410546921243912 650.0,1125.83302491977024079284012204 550.0,1125.83302491977024079284012204 500.0,1212.43556529821410546921243912 550.0,1299.03810567665797014558475620 650.0,1299.03810567665797014558475620" /><polygon class="grid" points="700.0,1039.23048454132637611646780496 650.0,952.62794416288251144009548788 550.0,952.62794416288251144009548788 500.0,1039.23048454132637611646780496 550.0,1125.83302491977024079284012204 650.0,1125.83302491977024079284012204" /><polygon class="grid" points="700.0,692.82032302755091741097853664 650.0,606.21778264910705273460621956 550.0,606.21778264910705273460621956 500.0,692.82032302755091741097853664 550.0,779.42286340599478208735085372 650.0,779.42286340599478208735085372" /><polygon class="grid" points="700.0,519.61524227066318805823390248 650.0,433.01270189221932338186158540 550.0,433.01270189221932338186158540 500.0,519.61524227066318805823390248 550.0,606.21778264910705273460621956 650.0,606.21778264910705273460621956" /><polygon class="grid" points="1000.0,692.82032302755091741097853664 950.0,606.21778264910705273460621956 850.0,606.21778264910705273460621956 800.0,692.82032302755091741097853664 850.0,779.42286340599478208735085372 950.0,779.42286340599478208735085372" /><polygon class="grid" points="1000.0,519.61524227066318805823390248 950.0,433.01270189221932338186158540 850.0,433.01270189221932338186158540 800.0,519.61524227066318805823390248 850.0,606.21778264910705273460621956 950.0,606.21778264910705273460621956" /><polygon class="grid" points="700.0,866.02540378443864676372317080 650.0,779.42286340599478208735085372 550.0,779.42286340599478208735085372 500.0,866.02540378443864676372317080 550.0,952.62794416288251144009548788 650.0,952.62794416288251144009548788" /><polygon class="grid" points="1000.0,866.02540378443864676372317080 950.0,779.42286340599478208735085372 850.0,779.42286340599478208735085372 800.0,866.02540378443864676372317080 850.0,952.62794416288251144009548788 950.0,952.62794416288251144009548788" /><polygon class="grid" points="1300.0,866.02540378443864676372317080 1250.0,779.42286340599478208735085372 1150.0,779.42286340599478208735085372 1100.0,866.02540378443864676372317080 1150.0,952.62794416288251144009548788 1250.0,952.62794416288251144009548788" /><polygon class="grid" points="700.0,346.41016151377545870548926832 650.0,259.80762113533159402911695124 550.0,259.80762113533159402911695124 500.0,346.41016151377545870548926832 550.0,433.01270189221932338186158540 650.0,433.01270189221932338186158540" /><polygon class="grid" points="1000.0,346.41016151377545870548926832 950.0,259.80762113533159402911695124 850.0,259.80762113533159402911695124 800.0,346.41016151377545870548926832 850.0,433.01270189221932338186158540 950.0,433.01270189221932338186158540" /><polygon class="grid" points="1300.0,519.61524227066318805823390248 1250.0,433.01270189221932338186158540 1150.0,433.01270189221932338186158540 1100.0,519.61524227066318805823390248 1150.0,606.21778264910705273460621956 1250.0,606.21778264910705273460621956" /><polygon class="grid" points="1300.0,346.41016151377545870548926832 1250.0,259.80762113533159402911695124 1150.0,259.80762113533159402911695124 1100.0,346.41016151377545870548926832 1150.0,433.01270189221932338186158540 1250.0,433.01270189221932338186158540" /><polygon class="grid" points="1300.0,692.82032302755091741097853664 1250.0,606.21778264910705273460621956 1150.0,606.21778264910705273460621956 1100.0,692.82032302755091741097853664 1150.0,779.42286340599478208735085372 1250.0,779.42286340599478208735085372" /><text transform="translate(1020.0 554.256258422040733928782829312)" class="number">3.7</text><text transform="translate(1020.0 727.461339178928463281527463472)" class="number">4.7</text><text transform="translate(1320.0 554.256258422040733928782829312)" class="number">3.9</text><text transform="translate(1320.0 727.461339178928463281527463472)" class="number">4.9</text><text transform="translate(420.0 381.051177665153004576038195152)" class="number">2.3</text><text transform="translate(420.0 554.256258422040733928782829312)" class="number">3.3</text><text transform="translate(720.0 381.051177665153004576038195152)" class="number">2.5</text><text transform="translate(720.0 554.256258422040733928782829312)" class="number">3.5</text><text transform="translate(720.0 1073.871500692703921987016731792)" class="number">6.5</text><text transform="translate(720.0 1247.076581449591651339761365952)" class="number">7.5</text><text transform="translate(1020.0 1073.871500692703921987016731792)" class="number">6.7</text><text transform="translate(1020.0 1247.076581449591651339761365952)" class="number">7.7</text><text transform="translate(1020.0 381.051177665153004576038195152)" class="number">2.7</text><text transform="translate(1320.0 381.051177665153004576038195152)" class="number">2.9</text><text transform="translate(720.0 207.846096908265275223293560992)" class="number">1.5</text><text transform="translate(1020.0 207.846096908265275223293560992)" class="number">1.7</text><text transform="translate(720.0 727.461339178928463281527463472)" class="number">4.5</text><text transform="translate(720.0 900.666419935816192634272097632)" class="number">5.5</text><text transform="translate(1020.0 900.666419935816192634272097632)" class="number">5.7</text><text transform="translate(420.0 727.461339178928463281527463472)" class="number">4.3</text><text transform="translate(870.0 1160.474041071147786663389048872)" class="number">7.6</text><text transform="translate(870.0 987.268960314260057310644414712)" class="number">6.6</text><text transform="translate(1170.0 1160.474041071147786663389048872)" class="number">7.8</text><text transform="translate(1170.0 987.268960314260057310644414712)" class="number">6.8</text><text transform="translate(570.0 1160.474041071147786663389048872)" class="number">7.4</text><text transform="translate(570.0 987.268960314260057310644414712)" class="number">6.4</text><text transform="translate(570.0 640.858798800484598605155146392)" class="number">4.4</text><text transform="translate(570.0 467.653718043596869252410512232)" class="number">3.4</text><text transform="translate(870.0 640.858798800484598605155146392)" class="number">4.6</text><text transform="translate(870.0 467.653718043596869252410512232)" class="number">3.6</text><text transform="translate(570.0 814.063879557372327957899780552)" class="number">5.4</text><text transform="translate(870.0 814.063879557372327957899780552)" class="number">5.6</text><text transform="translate(1170.0 814.063879557372327957899780552)" class="number">5.8</text><text transform="translate(570.0 294.448637286709139899665878072)" class="number">2.4</text><text transform="translate(870.0 294.448637286709139899665878072)" class="number">2.6</text><text transform="translate(1170.0 467.653718043596869252410512232)" class="number">3.8</text><text transform="translate(1170.0 294.448637286709139899665878072)" class="number">2.8</text><text transform="translate(1170.0 640.858798800484598605155146392)" class="number">4.8</text>
</svg>