<svg width="270mm" height="312mm" data-name="Layer 1" id="Layer_1" xmlns="http://www.w3.org/2000/svg"
    xmlns:xlink="http://www.w3.org/1999/xlink">
    <style type="text/css">
        polygon {
            fill: none;
            stroke-width: 2.0;
        }

        text {
            font-size: 6.0mm;
            font-family: PTSans-NarrowBold, PT Sans Narrow;
            font-weight: 600;
            paint-order: stroke;
            stroke: black;
            fill: white;
            stroke-width: 0.7mm;
        }

        .path {
            fill: transparent;
            stroke-width: 1mm;
        }


        .roads {
            stroke: saddlebrown;
        }

        .rivers {
            stroke: blue;
        }

        .grid {
            stroke: #8E8E8E;
            stroke-miterlimit: 10;
        }

        .number {}

        .alt_text {}

        .icon {
            paint-order: stroke;
            stroke: black;
            fill: darkslategrey;
            stroke-width: 2mm;
        }


        .plains {
            fill: lightgreen;
        }

        .light_wood {
            fill: green;
        }

        .heavy_woods {
            fill: darkgreen;
        }

        .grassland {
            fill: chartreuse;
        }

        .mountains {
            fill: maroon;
        }

        .hills {
            fill: bisque;
        }

        .sea {
            fill: blue;
        }


        .lake {
            fill: lightskyblue;
        }


        .marsh {
            fill: yellowgreen;
        }


        .desert {
            fill: lightyellow;
        }

        .unknown {
            fill: gray;
        }

        
    </style>
    <defs>
        <svg xmlns="http://www.w3.org/2000/svg" viewBox="0 0 512 512" id="fortin" class="icon fortin"><!--! Font Awesome Free 6.1.1 by @fontawesome - https://fontawesome.com License - https://fontawesome.com/license/free (Icons: CC BY 4.0, Fonts: SIL OFL 1.1, Code: MIT License) Copyright 2022 Fonticons, Inc. --><path d="M489.2 287.9h-27.4c-2.6 0-4.6 2-4.6 4.6v32h-36.6V146.2c0-2.6-2-4.6-4.6-4.6h-27.4c-2.6 0-4.6 2-4.6 4.6v32h-36.6v-32c0-2.6-2-4.6-4.6-4.6h-27.4c-2.6 0-4.6 2-4.6 4.6v32h-36.6v-32c0-6-8-4.6-11.7-4.6v-38c8.3-2 17.1-3.4 25.7-3.4 10.9 0 20.9 4.3 31.4 4.3 4.6 0 27.7-1.1 27.7-8v-60c0-2.6-2-4.6-4.6-4.6-5.1 0-15.1 4.3-24 4.3-9.7 0-20.9-4.3-32.6-4.3-8 0-16 1.1-23.7 2.9v-4.9c5.4-2.6 9.1-8.3 9.1-14.3 0-20.7-31.4-20.8-31.4 0 0 6 3.7 11.7 9.1 14.3v111.7c-3.7 0-11.7-1.4-11.7 4.6v32h-36.6v-32c0-2.6-2-4.6-4.6-4.6h-27.4c-2.6 0-4.6 2-4.6 4.6v32H128v-32c0-2.6-2-4.6-4.6-4.6H96c-2.6 0-4.6 2-4.6 4.6v178.3H54.8v-32c0-2.6-2-4.6-4.6-4.6H22.8c-2.6 0-4.6 2-4.6 4.6V512h182.9v-96c0-72.6 109.7-72.6 109.7 0v96h182.9V292.5c.1-2.6-1.9-4.6-4.5-4.6zm-288.1-4.5c0 2.6-2 4.6-4.6 4.6h-27.4c-2.6 0-4.6-2-4.6-4.6v-64c0-2.6 2-4.6 4.6-4.6h27.4c2.6 0 4.6 2 4.6 4.6v64zm146.4 0c0 2.6-2 4.6-4.6 4.6h-27.4c-2.6 0-4.6-2-4.6-4.6v-64c0-2.6 2-4.6 4.6-4.6h27.4c2.6 0 4.6 2 4.6 4.6v64z"/></svg><svg xmlns="http://www.w3.org/2000/svg" viewBox="0 0 512 512" id="ruines" class="icon ruines"><!--! Font Awesome Free 6.1.1 by @fontawesome - https://fontawesome.com License - https://fontawesome.com/license/free (Icons: CC BY 4.0, Fonts: SIL OFL 1.1, Code: MIT License) Copyright 2022 Fonticons, Inc. --><path d="M336.6 156.5C327.3 148.1 322.6 136.5 327.1 125.3L357.6 49.18C362.7 36.27 377.8 30.36 389.7 37.63C410.9 50.63 430 66.62 446.5 85.02C455.7 95.21 452.9 110.9 441.5 118.5L373.9 163.5C363.6 170.4 349.8 168.1 340.5 159.9C339.2 158.7 337.9 157.6 336.6 156.5H336.6zM297.7 112.6C293.2 123.1 280.9 129.8 268.7 128.6C264.6 128.2 260.3 128 256 128C251.7 128 247.4 128.2 243.3 128.6C231.1 129.8 218.8 123.1 214.3 112.6L183.1 36.82C178.8 24.02 185.5 9.433 198.1 6.374C217.3 2.203 236.4 0 256 0C275.6 0 294.7 2.203 313 6.374C326.5 9.433 333.2 24.02 328 36.82L297.7 112.6zM122.3 37.63C134.2 30.36 149.3 36.27 154.4 49.18L184.9 125.3C189.4 136.5 184.7 148.1 175.4 156.5C174.1 157.6 172.8 158.7 171.5 159.9C162.2 168.1 148.4 170.4 138.1 163.5L70.52 118.5C59.13 110.9 56.32 95.21 65.46 85.02C81.99 66.62 101.1 50.63 122.3 37.63H122.3zM379.5 222.1C376.3 210.7 379.7 198.1 389.5 191.6L458.1 145.8C469.7 138.1 485.6 141.9 491.2 154.7C501.6 178.8 508.4 204.8 510.9 232C512.1 245.2 501.3 255.1 488 255.1H408C394.7 255.1 384.2 245.2 381.8 232.1C381.1 228.7 380.4 225.4 379.5 222.1V222.1zM122.5 191.6C132.3 198.1 135.7 210.7 132.5 222.1C131.6 225.4 130.9 228.7 130.2 232.1C127.8 245.2 117.3 256 104 256H24C10.75 256-.1184 245.2 1.107 232C3.636 204.8 10.43 178.8 20.82 154.7C26.36 141.9 42.26 138.1 53.91 145.8L122.5 191.6zM104 288C117.3 288 128 298.7 128 312V360C128 373.3 117.3 384 104 384H24C10.75 384 0 373.3 0 360V312C0 298.7 10.75 288 24 288H104zM488 288C501.3 288 512 298.7 512 312V360C512 373.3 501.3 384 488 384H408C394.7 384 384 373.3 384 360V312C384 298.7 394.7 288 408 288H488zM104 416C117.3 416 128 426.7 128 440V488C128 501.3 117.3 512 104 512H24C10.75 512 0 501.3 0 488V440C0 426.7 10.75 416 24 416H104zM488 416C501.3 416 512 426.7 512 440V488C512 501.3 501.3 512 488 512H408C394.7 512 384 501.3 384 488V440C384 426.7 394.7 416 408 416H488zM272 464C272 472.8 264.8 480 256 480C247.2 480 240 472.8 240 464V192C240 183.2 247.2 176 256 176C264.8 176 272 183.2 272 192V464zM208 464C208 472.8 200.8 480 192 480C183.2 480 176 472.8 176 464V224C176 215.2 183.2 208 192 208C200.8 208 208 215.2 208 224V464zM336 464C336 472.8 328.8 480 320 480C311.2 480 304 472.8 304 464V224C304 215.2 311.2 208 320 208C328.8 208 336 215.2 336 224V464z"/></svg>
    </defs>
    <polygon class="" points="60.0,0.0 30.0,-51.96152422706632 -30.0,-51.96152422706632 -60.0,0.0 -30.0,51.96152422706632 30.0,51.96152422706632" /><polygon class="" points="150.0,51.96152422706632 120.0,0.0 60.0,0.0 30.0,51.96152422706632 60.0,103.92304845413264 120.0,103.92304845413264" /><polygon class="" points="240.0,0.0 210.0,-51.96152422706632 150.0,-51.96152422706632 120.0,0.0 150.0,51.96152422706632 210.0,51.96152422706632" /><polygon class="" points="330.0,51.96152422706632 300.0,0.0 240.0,0.0 210.0,51.96152422706632 240.0,103.92304845413264 300.0,103.92304845413264" /><polygon class="" points="420.0,0.0 390.0,-51.96152422706632 330.0,-51.96152422706632 300.0,0.0 330.0,51.96152422706632 390.0,51.96152422706632" /><polygon class="" points="510.0,51.96152422706632 480.0,0.0 420.0,0.0 390.0,51.96152422706632 420.0,103.92304845413264 480.0,103.92304845413264" /><polygon class="" points="600.0,0.0 570.0,-51.96152422706632 510.0,-51.96152422706632 480.0,0.0 510.0,51.96152422706632 570.0,51.96152422706632" /><polygon class="" points="690.0,51.96152422706632 660.0,0.0 600.0,0.0 570.0,51.96152422706632 600.0,103.92304845413264 660.0,103.92304845413264" /><polygon class="" points="780.0,0.0 750.0,-51.96152422706632 690.0,-51.96152422706632 660.0,0.0 690.0,51.96152422706632 750.0,51.96152422706632" /><polygon class="" points="60.0,103.92304845413264 30.0,51.96152422706632 -30.0,51.96152422706632 -60.0,103.92304845413264 -30.0,155.88457268119896 30.0,155.88457268119896" /><polygon class="heavy_woods" points="150.0,155.88457268119896 120.0,103.92304845413263 60.0,103.92304845413263 30.0,155.88457268119896 60.0,207.84609690826528 120.0,207.84609690826528" /><polygon class="mountains" points="240.0,103.92304845413264 210.0,51.96152422706632 150.0,51.96152422706632 120.0,103.92304845413264 150.0,155.88457268119896 210.0,155.88457268119896" /><polygon class="grassland" points="330.0,155.88457268119896 300.0,103.92304845413263 240.0,103.92304845413263 210.0,155.88457268119896 240.0,207.84609690826528 300.0,207.84609690826528" /><polygon class="" points="420.0,103.92304845413264 390.0,51.96152422706632 330.0,51.96152422706632 300.0,103.92304845413264 330.0,155.88457268119896 390.0,155.88457268119896" /><polygon class="" points="510.0,155.88457268119896 480.0,103.92304845413263 420.0,103.92304845413263 390.0,155.88457268119896 420.0,207.84609690826528 480.0,207.84609690826528" /><polygon class="" points="600.0,103.92304845413264 570.0,51.96152422706632 510.0,51.96152422706632 480.0,103.92304845413264 510.0,155.88457268119896 570.0,155.88457268119896" /><polygon class="" points="690.0,155.88457268119896 660.0,103.92304845413263 600.0,103.92304845413263 570.0,155.88457268119896 600.0,207.84609690826528 660.0,207.84609690826528" /><polygon class="" points="780.0,103.92304845413264 750.0,51.96152422706632 690.0,51.96152422706632 660.0,103.92304845413264 690.0,155.88457268119896 750.0,155.88457268119896" /><polygon class="" points="60.0,207.84609690826528 30.0,155.88457268119896 -30.0,155.88457268119896 -60.0,207.84609690826528 -30.0,259.8076211353316 30.0,259.8076211353316" /><polygon class="marsh" points="150.0,259.8076211353316 120.0,207.84609690826528 60.0,207.84609690826528 30.0,259.8076211353316 60.0,311.769145362398 120.0,311.769145362398" /><polygon class="hills" points="240.0,207.84609690826528 210.0,155.88457268119896 150.0,155.88457268119896 120.0,207.84609690826528 150.0,259.8076211353316 210.0,259.8076211353316" /><polygon class="sea" points="330.0,259.8076211353316 300.0,207.84609690826528 240.0,207.84609690826528 210.0,259.8076211353316 240.0,311.769145362398 300.0,311.769145362398" /><polygon class="plains" points="420.0,207.84609690826528 390.0,155.88457268119896 330.0,155.88457268119896 300.0,207.84609690826528 330.0,259.8076211353316 390.0,259.8076211353316" /><polygon class="" points="510.0,259.8076211353316 480.0,207.84609690826528 420.0,207.84609690826528 390.0,259.8076211353316 420.0,311.769145362398 480.0,311.769145362398" /><polygon class="" points="600.0,207.84609690826528 570.0,155.88457268119896 510.0,155.88457268119896 480.0,207.84609690826528 510.0,259.8076211353316 570.0,259.8076211353316" /><polygon class="" points="690.0,259.8076211353316 660.0,207.84609690826528 600.0,207.84609690826528 570.0,259.8076211353316 600.0,311.769145362398 660.0,311.769145362398" /><polygon class="" points="780.0,207.84609690826528 750.0,155.88457268119896 690.0,155.88457268119896 660.0,207.84609690826528 690.0,259.8076211353316 750.0,259.8076211353316" /><polygon class="" points="60.0,311.7691453623979 30.0,259.8076211353316 -30.0,259.8076211353316 -60.0,311.7691453623979 -30.0,363.73066958946424 30.0,363.73066958946424" /><polygon class="light_woods" points="150.0,363.73066958946424 120.0,311.7691453623979 60.0,311.7691453623979 30.0,363.73066958946424 60.0,415.69219381653056 120.0,415.69219381653056" /><polygon class="unknown" points="240.0,311.7691453623979 210.0,259.8076211353316 150.0,259.8076211353316 120.0,311.7691453623979 150.0,363.73066958946424 210.0,363.73066958946424" /><polygon class="lake" points="330.0,363.73066958946424 300.0,311.7691453623979 240.0,311.7691453623979 210.0,363.73066958946424 240.0,415.69219381653056 300.0,415.69219381653056" /><polygon class="" points="420.0,311.7691453623979 390.0,259.8076211353316 330.0,259.8076211353316 300.0,311.7691453623979 330.0,363.73066958946424 390.0,363.73066958946424" /><polygon class="" points="510.0,363.73066958946424 480.0,311.7691453623979 420.0,311.7691453623979 390.0,363.73066958946424 420.0,415.69219381653056 480.0,415.69219381653056" /><polygon class="" points="600.0,311.7691453623979 570.0,259.8076211353316 510.0,259.8076211353316 480.0,311.7691453623979 510.0,363.73066958946424 570.0,363.73066958946424" /><polygon class="" points="690.0,363.73066958946424 660.0,311.7691453623979 600.0,311.7691453623979 570.0,363.73066958946424 600.0,415.69219381653056 660.0,415.69219381653056" /><polygon class="" points="780.0,311.7691453623979 750.0,259.8076211353316 690.0,259.8076211353316 660.0,311.7691453623979 690.0,363.73066958946424 750.0,363.73066958946424" /><polygon class="" points="60.0,415.69219381653056 30.0,363.73066958946424 -30.0,363.73066958946424 -60.0,415.69219381653056 -30.0,467.6537180435969 30.0,467.6537180435969" /><polygon class="" points="150.0,467.6537180435969 120.0,415.69219381653056 60.0,415.69219381653056 30.0,467.6537180435969 60.0,519.6152422706632 120.0,519.6152422706632" /><polygon class="" points="240.0,415.69219381653056 210.0,363.73066958946424 150.0,363.73066958946424 120.0,415.69219381653056 150.0,467.6537180435969 210.0,467.6537180435969" /><polygon class="" points="330.0,467.6537180435969 300.0,415.69219381653056 240.0,415.69219381653056 210.0,467.6537180435969 240.0,519.6152422706632 300.0,519.6152422706632" /><polygon class="" points="420.0,415.69219381653056 390.0,363.73066958946424 330.0,363.73066958946424 300.0,415.69219381653056 330.0,467.6537180435969 390.0,467.6537180435969" /><polygon class="" points="510.0,467.6537180435969 480.0,415.69219381653056 420.0,415.69219381653056 390.0,467.6537180435969 420.0,519.6152422706632 480.0,519.6152422706632" /><polygon class="" points="600.0,415.69219381653056 570.0,363.73066958946424 510.0,363.73066958946424 480.0,415.69219381653056 510.0,467.6537180435969 570.0,467.6537180435969" /><polygon class="" points="690.0,467.6537180435969 660.0,415.69219381653056 600.0,415.69219381653056 570.0,467.6537180435969 600.0,519.6152422706632 660.0,519.6152422706632" /><polygon class="" points="780.0,415.69219381653056 750.0,363.73066958946424 690.0,363.73066958946424 660.0,415.69219381653056 690.0,467.6537180435969 750.0,467.6537180435969" /><polygon class="" points="60.0,519.6152422706632 30.0,467.653718043597 -30.0,467.653718043597 -60.0,519.6152422706632 -30.0,571.5767664977295 30.0,571.5767664977295" /><polygon class="" points="150.0,571.5767664977295 120.0,519.6152422706632 60.0,519.6152422706632 30.0,571.5767664977295 60.0,623.5382907247958 120.0,623.5382907247958" /><polygon class="" points="240.0,519.6152422706632 210.0,467.653718043597 150.0,467.653718043597 120.0,519.6152422706632 150.0,571.5767664977295 210.0,571.5767664977295" /><polygon class="" points="330.0,571.5767664977295 300.0,519.6152422706632 240.0,519.6152422706632 210.0,571.5767664977295 240.0,623.5382907247958 300.0,623.5382907247958" /><polygon class="" points="420.0,519.6152422706632 390.0,467.653718043597 330.0,467.653718043597 300.0,519.6152422706632 330.0,571.5767664977295 390.0,571.5767664977295" /><polygon class="grassland" points="510.0,571.5767664977295 480.0,519.6152422706632 420.0,519.6152422706632 390.0,571.5767664977295 420.0,623.5382907247958 480.0,623.5382907247958" /><polygon class="sea" points="414.0,571.5767664977295 432.0,540.3998519614897 420.0,519.6152422706632 390.0,571.5767664977295" /><polygon class="sea" points="468.0,540.3998519614897 432.0,540.3998519614897 420.0,519.6152422706632 480.0,519.6152422706632" /><path d="M450.0 571.5767664977295 Q 450.0 571.5767664977295 495.0 545.5960043841964" class="path roads" /><use xlink:href="#fortin" transform="translate(430.0 554.2562584220408) scale(0.03382911733532964 0.03382911733532964)" /><polygon class="grassland" points="600.0,519.6152422706632 570.0,467.653718043597 510.0,467.653718043597 480.0,519.6152422706632 510.0,571.5767664977295 570.0,571.5767664977295" /><polygon class="sea" points="576.0,519.6152422706632 558.0,488.43832773442347 570.0,467.653718043597 600.0,519.6152422706632" /><path d="M495.0 545.5960043841965 Q 540.0 519.6152422706632 585.0 545.5960043841965" class="path roads" /><path d="M540.0 467.653718043597 Q 540.0 519.6152422706632 540.0 571.5767664977295" class="path rivers" /><path d="M495.0 493.63448015713004 Q 540.0 519.6152422706632 540.0 571.5767664977295" class="path rivers" /><path d="M585.0 493.63448015713004 Q 540.0 519.6152422706632 540.0 571.5767664977295" class="path rivers" /><polygon class="grassland" points="690.0,571.5767664977295 660.0,519.6152422706632 600.0,519.6152422706632 570.0,571.5767664977295 600.0,623.5382907247958 660.0,623.5382907247958" /><polygon class="sea" points="666.0,571.5767664977295 648.0,540.3998519614897 660.0,519.6152422706632 690.0,571.5767664977295" /><polygon class="sea" points="648.0,540.3998519614897 612.0,540.3998519614897 600.0,519.6152422706632 660.0,519.6152422706632" /><polygon class="sea" points="666.0,571.5767664977295 648.0,602.7536810339693 660.0,623.5382907247958 690.0,571.5767664977295" /><path d="M585.0 545.5960043841964 Q 630.0 571.5767664977295 630.0 623.5382907247958" class="path roads" /><path d="M585.0 597.5575286112628 Q 630.0 571.5767664977295 630.0 623.5382907247958" class="path roads" /><polygon class="" points="780.0,519.6152422706632 750.0,467.653718043597 690.0,467.653718043597 660.0,519.6152422706632 690.0,571.5767664977295 750.0,571.5767664977295" /><polygon class="" points="60.0,623.5382907247958 30.0,571.5767664977295 -30.0,571.5767664977295 -60.0,623.5382907247958 -30.0,675.4998149518622 30.0,675.4998149518622" /><polygon class="" points="150.0,675.4998149518622 120.0,623.5382907247958 60.0,623.5382907247958 30.0,675.4998149518622 60.0,727.4613391789285 120.0,727.4613391789285" /><polygon class="" points="240.0,623.5382907247958 210.0,571.5767664977295 150.0,571.5767664977295 120.0,623.5382907247958 150.0,675.4998149518622 210.0,675.4998149518622" /><polygon class="" points="330.0,675.4998149518622 300.0,623.5382907247958 240.0,623.5382907247958 210.0,675.4998149518622 240.0,727.4613391789285 300.0,727.4613391789285" /><polygon class="" points="420.0,623.5382907247958 390.0,571.5767664977295 330.0,571.5767664977295 300.0,623.5382907247958 330.0,675.4998149518622 390.0,675.4998149518622" /><polygon class="marsh" points="510.0,675.4998149518622 480.0,623.5382907247958 420.0,623.5382907247958 390.0,675.4998149518622 420.0,727.4613391789285 480.0,727.4613391789285" /><polygon class="sea" points="414.0,675.4998149518622 432.0,706.676729488102 420.0,727.4613391789285 390.0,675.4998149518622" /><polygon class="sea" points="486.0,675.4998149518622 468.0,644.3229004156224 432.0,644.3229004156224 414.0,675.4998149518622 432.0,706.676729488102 468.0,706.676729488102" /><path d="M450.0 675.4998149518622 Q 450.0 675.4998149518622 495.0 649.5190528383289" class="path rivers" /><polygon class="grassland" points="600.0,623.5382907247958 570.0,571.5767664977295 510.0,571.5767664977295 480.0,623.5382907247958 510.0,675.4998149518622 570.0,675.4998149518622" /><polygon class="lake" points="576.0,623.5382907247958 558.0,592.361376188556 522.0,592.361376188556 504.0,623.5382907247958 522.0,654.7152052610356 558.0,654.7152052610356" /><polygon class="marsh" points="504.0,623.5382907247958 522.0,654.7152052610356 510.0,675.4998149518622 480.0,623.5382907247958" /><path d="M540.0 571.5767664977295 Q 540.0 623.5382907247958 495.0 649.519052838329" class="path rivers" /><polygon class="grassland" points="690.0,675.4998149518622 660.0,623.5382907247958 600.0,623.5382907247958 570.0,675.4998149518622 600.0,727.4613391789285 660.0,727.4613391789285" /><polygon class="sea" points="594.0,675.4998149518622 612.0,706.676729488102 600.0,727.4613391789285 570.0,675.4998149518622" /><path d="M630.0 623.5382907247958 Q 630.0 675.4998149518622 630.0 675.4998149518622" class="path roads" /><use xlink:href="#ruines" transform="translate(610.0 658.1793068761734) scale(0.03382911733532964 0.03382911733532964)" /><polygon class="" points="780.0,623.5382907247958 750.0,571.5767664977295 690.0,571.5767664977295 660.0,623.5382907247958 690.0,675.4998149518622 750.0,675.4998149518622" /><polygon class="" points="60.0,727.4613391789285 30.0,675.4998149518622 -30.0,675.4998149518622 -60.0,727.4613391789285 -30.0,779.4228634059948 30.0,779.4228634059948" /><polygon class="" points="150.0,779.4228634059948 120.0,727.4613391789285 60.0,727.4613391789285 30.0,779.4228634059948 60.0,831.3843876330611 120.0,831.3843876330611" /><polygon class="" points="240.0,727.4613391789285 210.0,675.4998149518622 150.0,675.4998149518622 120.0,727.4613391789285 150.0,779.4228634059948 210.0,779.4228634059948" /><polygon class="" points="330.0,779.4228634059948 300.0,727.4613391789285 240.0,727.4613391789285 210.0,779.4228634059948 240.0,831.3843876330611 300.0,831.3843876330611" /><polygon class="" points="420.0,727.4613391789285 390.0,675.4998149518622 330.0,675.4998149518622 300.0,727.4613391789285 330.0,779.4228634059948 390.0,779.4228634059948" /><polygon class="" points="510.0,779.4228634059948 480.0,727.4613391789285 420.0,727.4613391789285 390.0,779.4228634059948 420.0,831.3843876330611 480.0,831.3843876330611" /><polygon class="grassland" points="600.0,727.4613391789285 570.0,675.4998149518622 510.0,675.4998149518622 480.0,727.4613391789285 510.0,779.4228634059948 570.0,779.4228634059948" /><polygon class="sea" points="504.0,727.4613391789285 522.0,758.6382537151683 510.0,779.4228634059948 480.0,727.4613391789285" /><polygon class="sea" points="558.0,758.6382537151683 522.0,758.6382537151683 510.0,779.4228634059948 570.0,779.4228634059948" /><polygon class="sea" points="576.0,727.4613391789285 558.0,758.6382537151683 570.0,779.4228634059948 600.0,727.4613391789285" /><polygon class="sea" points="576.0,727.4613391789285 558.0,696.2844246426887 522.0,696.2844246426887 504.0,727.4613391789285 522.0,758.6382537151683 558.0,758.6382537151683" /><polygon class="sea" points="576.0,727.4613391789285 558.0,696.2844246426887 570.0,675.4998149518622 600.0,727.4613391789285" /><text transform="translate(540.0 727.4613391789285)" text-anchor="middle" class="alt_text">Baie</text><polygon class="" points="690.0,779.4228634059948 660.0,727.4613391789285 600.0,727.4613391789285 570.0,779.4228634059948 600.0,831.3843876330611 660.0,831.3843876330611" /><polygon class="" points="780.0,727.4613391789285 750.0,675.4998149518622 690.0,675.4998149518622 660.0,727.4613391789285 690.0,779.4228634059948 750.0,779.4228634059948" /><polygon class="" points="60.0,831.3843876330611 30.0,779.4228634059948 -30.0,779.4228634059948 -60.0,831.3843876330611 -30.0,883.3459118601276 30.0,883.3459118601276" /><polygon class="" points="150.0,883.3459118601276 120.0,831.3843876330611 60.0,831.3843876330611 30.0,883.3459118601276 60.0,935.307436087194 120.0,935.307436087194" /><polygon class="" points="240.0,831.3843876330611 210.0,779.4228634059948 150.0,779.4228634059948 120.0,831.3843876330611 150.0,883.3459118601276 210.0,883.3459118601276" /><polygon class="" points="330.0,883.3459118601276 300.0,831.3843876330611 240.0,831.3843876330611 210.0,883.3459118601276 240.0,935.307436087194 300.0,935.307436087194" /><polygon class="" points="420.0,831.3843876330611 390.0,779.4228634059948 330.0,779.4228634059948 300.0,831.3843876330611 330.0,883.3459118601276 390.0,883.3459118601276" /><polygon class="" points="510.0,883.3459118601276 480.0,831.3843876330611 420.0,831.3843876330611 390.0,883.3459118601276 420.0,935.307436087194 480.0,935.307436087194" /><polygon class="" points="600.0,831.3843876330611 570.0,779.4228634059948 510.0,779.4228634059948 480.0,831.3843876330611 510.0,883.3459118601276 570.0,883.3459118601276" /><polygon class="" points="690.0,883.3459118601276 660.0,831.3843876330611 600.0,831.3843876330611 570.0,883.3459118601276 600.0,935.307436087194 660.0,935.307436087194" /><polygon class="" points="780.0,831.3843876330611 750.0,779.4228634059948 690.0,779.4228634059948 660.0,831.3843876330611 690.0,883.3459118601276 750.0,883.3459118601276" /><text transform="translate(-30.0 -30.0)" class="number">0.0</text><polygon class="grid" points="60.0,0.0 30.0,-51.96152422706632 -30.0,-51.96152422706632 -60.0,0.0 -30.0,51.96152422706632 30.0,51.96152422706632" /><text transform="translate(60.0 21.961524227066324)" class="number">0.1</text><polygon class="grid" points="150.0,51.96152422706632 120.0,0.0 60.0,0.0 30.0,51.96152422706632 60.0,103.92304845413264 120.0,103.92304845413264" /><text transform="translate(150.0 -30.0)" class="number">0.2</text><polygon class="grid" points="240.0,0.0 210.0,-51.96152422706632 150.0,-51.96152422706632 120.0,0.0 150.0,51.96152422706632 210.0,51.96152422706632" /><text transform="translate(240.0 21.961524227066324)" class="number">0.3</text><polygon class="grid" points="330.0,51.96152422706632 300.0,0.0 240.0,0.0 210.0,51.96152422706632 240.0,103.92304845413264 300.0,103.92304845413264" /><text transform="translate(330.0 -30.0)" class="number">0.4</text><polygon class="grid" points="420.0,0.0 390.0,-51.96152422706632 330.0,-51.96152422706632 300.0,0.0 330.0,51.96152422706632 390.0,51.96152422706632" /><text transform="translate(420.0 21.961524227066324)" class="number">0.5</text><polygon class="grid" points="510.0,51.96152422706632 480.0,0.0 420.0,0.0 390.0,51.96152422706632 420.0,103.92304845413264 480.0,103.92304845413264" /><text transform="translate(510.0 -30.0)" class="number">0.6</text><polygon class="grid" points="600.0,0.0 570.0,-51.96152422706632 510.0,-51.96152422706632 480.0,0.0 510.0,51.96152422706632 570.0,51.96152422706632" /><text transform="translate(600.0 21.961524227066324)" class="number">0.7</text><polygon class="grid" points="690.0,51.96152422706632 660.0,0.0 600.0,0.0 570.0,51.96152422706632 600.0,103.92304845413264 660.0,103.92304845413264" /><text transform="translate(690.0 -30.0)" class="number">0.8</text><polygon class="grid" points="780.0,0.0 750.0,-51.96152422706632 690.0,-51.96152422706632 660.0,0.0 690.0,51.96152422706632 750.0,51.96152422706632" /><text transform="translate(-30.0 73.92304845413264)" class="number">1.0</text><polygon class="grid" points="60.0,103.92304845413264 30.0,51.96152422706632 -30.0,51.96152422706632 -60.0,103.92304845413264 -30.0,155.88457268119896 30.0,155.88457268119896" /><text transform="translate(60.0 125.88457268119896)" class="number">1.1</text><polygon class="grid" points="150.0,155.88457268119896 120.0,103.92304845413263 60.0,103.92304845413263 30.0,155.88457268119896 60.0,207.84609690826528 120.0,207.84609690826528" /><text transform="translate(150.0 73.92304845413264)" class="number">1.2</text><polygon class="grid" points="240.0,103.92304845413264 210.0,51.96152422706632 150.0,51.96152422706632 120.0,103.92304845413264 150.0,155.88457268119896 210.0,155.88457268119896" /><text transform="translate(240.0 125.88457268119896)" class="number">1.3</text><polygon class="grid" points="330.0,155.88457268119896 300.0,103.92304845413263 240.0,103.92304845413263 210.0,155.88457268119896 240.0,207.84609690826528 300.0,207.84609690826528" /><text transform="translate(330.0 73.92304845413264)" class="number">1.4</text><polygon class="grid" points="420.0,103.92304845413264 390.0,51.96152422706632 330.0,51.96152422706632 300.0,103.92304845413264 330.0,155.88457268119896 390.0,155.88457268119896" /><text transform="translate(420.0 125.88457268119896)" class="number">1.5</text><polygon class="grid" points="510.0,155.88457268119896 480.0,103.92304845413263 420.0,103.92304845413263 390.0,155.88457268119896 420.0,207.84609690826528 480.0,207.84609690826528" /><text transform="translate(510.0 73.92304845413264)" class="number">1.6</text><polygon class="grid" points="600.0,103.92304845413264 570.0,51.96152422706632 510.0,51.96152422706632 480.0,103.92304845413264 510.0,155.88457268119896 570.0,155.88457268119896" /><text transform="translate(600.0 125.88457268119896)" class="number">1.7</text><polygon class="grid" points="690.0,155.88457268119896 660.0,103.92304845413263 600.0,103.92304845413263 570.0,155.88457268119896 600.0,207.84609690826528 660.0,207.84609690826528" /><text transform="translate(690.0 73.92304845413264)" class="number">1.8</text><polygon class="grid" points="780.0,103.92304845413264 750.0,51.96152422706632 690.0,51.96152422706632 660.0,103.92304845413264 690.0,155.88457268119896 750.0,155.88457268119896" /><text transform="translate(-30.0 177.84609690826528)" class="number">2.0</text><polygon class="grid" points="60.0,207.84609690826528 30.0,155.88457268119896 -30.0,155.88457268119896 -60.0,207.84609690826528 -30.0,259.8076211353316 30.0,259.8076211353316" /><text transform="translate(60.0 229.80762113533163)" class="number">2.1</text><polygon class="grid" points="150.0,259.8076211353316 120.0,207.84609690826528 60.0,207.84609690826528 30.0,259.8076211353316 60.0,311.769145362398 120.0,311.769145362398" /><text transform="translate(150.0 177.84609690826528)" class="number">2.2</text><polygon class="grid" points="240.0,207.84609690826528 210.0,155.88457268119896 150.0,155.88457268119896 120.0,207.84609690826528 150.0,259.8076211353316 210.0,259.8076211353316" /><text transform="translate(240.0 229.80762113533163)" class="number">2.3</text><polygon class="grid" points="330.0,259.8076211353316 300.0,207.84609690826528 240.0,207.84609690826528 210.0,259.8076211353316 240.0,311.769145362398 300.0,311.769145362398" /><text transform="translate(330.0 177.84609690826528)" class="number">2.4</text><polygon class="grid" points="420.0,207.84609690826528 390.0,155.88457268119896 330.0,155.88457268119896 300.0,207.84609690826528 330.0,259.8076211353316 390.0,259.8076211353316" /><text transform="translate(420.0 229.80762113533163)" class="number">2.5</text><polygon class="grid" points="510.0,259.8076211353316 480.0,207.84609690826528 420.0,207.84609690826528 390.0,259.8076211353316 420.0,311.769145362398 480.0,311.769145362398" /><text transform="translate(510.0 177.84609690826528)" class="number">2.6</text><polygon class="grid" points="600.0,207.84609690826528 570.0,155.88457268119896 510.0,155.88457268119896 480.0,207.84609690826528 510.0,259.8076211353316 570.0,259.8076211353316" /><text transform="translate(600.0 229.80762113533163)" class="number">2.7</text><polygon class="grid" points="690.0,259.8076211353316 660.0,207.84609690826528 600.0,207.84609690826528 570.0,259.8076211353316 600.0,311.769145362398 660.0,311.769145362398" /><text transform="translate(690.0 177.84609690826528)" class="number">2.8</text><polygon class="grid" points="780.0,207.84609690826528 750.0,155.88457268119896 690.0,155.88457268119896 660.0,207.84609690826528 690.0,259.8076211353316 750.0,259.8076211353316" /><text transform="translate(-30.0 281.7691453623979)" class="number">3.0</text><polygon class="grid" points="60.0,311.7691453623979 30.0,259.8076211353316 -30.0,259.8076211353316 -60.0,311.7691453623979 -30.0,363.73066958946424 30.0,363.73066958946424" /><text transform="translate(60.0 333.73066958946424)" class="number">3.1</text><polygon class="grid" points="150.0,363.73066958946424 120.0,311.7691453623979 60.0,311.7691453623979 30.0,363.73066958946424 60.0,415.69219381653056 120.0,415.69219381653056" /><text transform="translate(150.0 281.7691453623979)" class="number">3.2</text><polygon class="grid" points="240.0,311.7691453623979 210.0,259.8076211353316 150.0,259.8076211353316 120.0,311.7691453623979 150.0,363.73066958946424 210.0,363.73066958946424" /><text transform="translate(240.0 333.73066958946424)" class="number">3.3</text><polygon class="grid" points="330.0,363.73066958946424 300.0,311.7691453623979 240.0,311.7691453623979 210.0,363.73066958946424 240.0,415.69219381653056 300.0,415.69219381653056" /><text transform="translate(330.0 281.7691453623979)" class="number">3.4</text><polygon class="grid" points="420.0,311.7691453623979 390.0,259.8076211353316 330.0,259.8076211353316 300.0,311.7691453623979 330.0,363.73066958946424 390.0,363.73066958946424" /><text transform="translate(420.0 333.73066958946424)" class="number">3.5</text><polygon class="grid" points="510.0,363.73066958946424 480.0,311.7691453623979 420.0,311.7691453623979 390.0,363.73066958946424 420.0,415.69219381653056 480.0,415.69219381653056" /><text transform="translate(510.0 281.7691453623979)" class="number">3.6</text><polygon class="grid" points="600.0,311.7691453623979 570.0,259.8076211353316 510.0,259.8076211353316 480.0,311.7691453623979 510.0,363.73066958946424 570.0,363.73066958946424" /><text transform="translate(600.0 333.73066958946424)" class="number">3.7</text><polygon class="grid" points="690.0,363.73066958946424 660.0,311.7691453623979 600.0,311.7691453623979 570.0,363.73066958946424 600.0,415.69219381653056 660.0,415.69219381653056" /><text transform="translate(690.0 281.7691453623979)" class="number">3.8</text><polygon class="grid" points="780.0,311.7691453623979 750.0,259.8076211353316 690.0,259.8076211353316 660.0,311.7691453623979 690.0,363.73066958946424 750.0,363.73066958946424" /><text transform="translate(-30.0 385.69219381653056)" class="number">4.0</text><polygon class="grid" points="60.0,415.69219381653056 30.0,363.73066958946424 -30.0,363.73066958946424 -60.0,415.69219381653056 -30.0,467.6537180435969 30.0,467.6537180435969" /><text transform="translate(60.0 437.6537180435969)" class="number">4.1</text><polygon class="grid" points="150.0,467.6537180435969 120.0,415.69219381653056 60.0,415.69219381653056 30.0,467.6537180435969 60.0,519.6152422706632 120.0,519.6152422706632" /><text transform="translate(150.0 385.69219381653056)" class="number">4.2</text><polygon class="grid" points="240.0,415.69219381653056 210.0,363.73066958946424 150.0,363.73066958946424 120.0,415.69219381653056 150.0,467.6537180435969 210.0,467.6537180435969" /><text transform="translate(240.0 437.6537180435969)" class="number">4.3</text><polygon class="grid" points="330.0,467.6537180435969 300.0,415.69219381653056 240.0,415.69219381653056 210.0,467.6537180435969 240.0,519.6152422706632 300.0,519.6152422706632" /><text transform="translate(330.0 385.69219381653056)" class="number">4.4</text><polygon class="grid" points="420.0,415.69219381653056 390.0,363.73066958946424 330.0,363.73066958946424 300.0,415.69219381653056 330.0,467.6537180435969 390.0,467.6537180435969" /><text transform="translate(420.0 437.6537180435969)" class="number">4.5</text><polygon class="grid" points="510.0,467.6537180435969 480.0,415.69219381653056 420.0,415.69219381653056 390.0,467.6537180435969 420.0,519.6152422706632 480.0,519.6152422706632" /><text transform="translate(510.0 385.69219381653056)" class="number">4.6</text><polygon class="grid" points="600.0,415.69219381653056 570.0,363.73066958946424 510.0,363.73066958946424 480.0,415.69219381653056 510.0,467.6537180435969 570.0,467.6537180435969" /><text transform="translate(600.0 437.6537180435969)" class="number">4.7</text><polygon class="grid" points="690.0,467.6537180435969 660.0,415.69219381653056 600.0,415.69219381653056 570.0,467.6537180435969 600.0,519.6152422706632 660.0,519.6152422706632" /><text transform="translate(690.0 385.69219381653056)" class="number">4.8</text><polygon class="grid" points="780.0,415.69219381653056 750.0,363.73066958946424 690.0,363.73066958946424 660.0,415.69219381653056 690.0,467.6537180435969 750.0,467.6537180435969" /><text transform="translate(-30.0 489.61524227066326)" class="number">5.0</text><polygon class="grid" points="60.0,519.6152422706632 30.0,467.653718043597 -30.0,467.653718043597 -60.0,519.6152422706632 -30.0,571.5767664977295 30.0,571.5767664977295" /><text transform="translate(60.0 541.5767664977295)" class="number">5.1</text><polygon class="grid" points="150.0,571.5767664977295 120.0,519.6152422706632 60.0,519.6152422706632 30.0,571.5767664977295 60.0,623.5382907247958 120.0,623.5382907247958" /><text transform="translate(150.0 489.61524227066326)" class="number">5.2</text><polygon class="grid" points="240.0,519.6152422706632 210.0,467.653718043597 150.0,467.653718043597 120.0,519.6152422706632 150.0,571.5767664977295 210.0,571.5767664977295" /><text transform="translate(240.0 541.5767664977295)" class="number">5.3</text><polygon class="grid" points="330.0,571.5767664977295 300.0,519.6152422706632 240.0,519.6152422706632 210.0,571.5767664977295 240.0,623.5382907247958 300.0,623.5382907247958" /><text transform="translate(330.0 489.61524227066326)" class="number">5.4</text><polygon class="grid" points="420.0,519.6152422706632 390.0,467.653718043597 330.0,467.653718043597 300.0,519.6152422706632 330.0,571.5767664977295 390.0,571.5767664977295" /><text transform="translate(420.0 541.5767664977295)" class="number">5.5</text><polygon class="grid" points="510.0,571.5767664977295 480.0,519.6152422706632 420.0,519.6152422706632 390.0,571.5767664977295 420.0,623.5382907247958 480.0,623.5382907247958" /><text transform="translate(510.0 489.61524227066326)" class="number">5.6</text><polygon class="grid" points="600.0,519.6152422706632 570.0,467.653718043597 510.0,467.653718043597 480.0,519.6152422706632 510.0,571.5767664977295 570.0,571.5767664977295" /><text transform="translate(600.0 541.5767664977295)" class="number">5.7</text><polygon class="grid" points="690.0,571.5767664977295 660.0,519.6152422706632 600.0,519.6152422706632 570.0,571.5767664977295 600.0,623.5382907247958 660.0,623.5382907247958" /><text transform="translate(690.0 489.61524227066326)" class="number">5.8</text><polygon class="grid" points="780.0,519.6152422706632 750.0,467.653718043597 690.0,467.653718043597 660.0,519.6152422706632 690.0,571.5767664977295 750.0,571.5767664977295" /><text transform="translate(-30.0 593.5382907247958)" class="number">6.0</text><polygon class="grid" points="60.0,623.5382907247958 30.0,571.5767664977295 -30.0,571.5767664977295 -60.0,623.5382907247958 -30.0,675.4998149518622 30.0,675.4998149518622" /><text transform="translate(60.0 645.4998149518622)" class="number">6.1</text><polygon class="grid" points="150.0,675.4998149518622 120.0,623.5382907247958 60.0,623.5382907247958 30.0,675.4998149518622 60.0,727.4613391789285 120.0,727.4613391789285" /><text transform="translate(150.0 593.5382907247958)" class="number">6.2</text><polygon class="grid" points="240.0,623.5382907247958 210.0,571.5767664977295 150.0,571.5767664977295 120.0,623.5382907247958 150.0,675.4998149518622 210.0,675.4998149518622" /><text transform="translate(240.0 645.4998149518622)" class="number">6.3</text><polygon class="grid" points="330.0,675.4998149518622 300.0,623.5382907247958 240.0,623.5382907247958 210.0,675.4998149518622 240.0,727.4613391789285 300.0,727.4613391789285" /><text transform="translate(330.0 593.5382907247958)" class="number">6.4</text><polygon class="grid" points="420.0,623.5382907247958 390.0,571.5767664977295 330.0,571.5767664977295 300.0,623.5382907247958 330.0,675.4998149518622 390.0,675.4998149518622" /><text transform="translate(420.0 645.4998149518622)" class="number">6.5</text><polygon class="grid" points="510.0,675.4998149518622 480.0,623.5382907247958 420.0,623.5382907247958 390.0,675.4998149518622 420.0,727.4613391789285 480.0,727.4613391789285" /><text transform="translate(510.0 593.5382907247958)" class="number">6.6</text><polygon class="grid" points="600.0,623.5382907247958 570.0,571.5767664977295 510.0,571.5767664977295 480.0,623.5382907247958 510.0,675.4998149518622 570.0,675.4998149518622" /><text transform="translate(600.0 645.4998149518622)" class="number">6.7</text><polygon class="grid" points="690.0,675.4998149518622 660.0,623.5382907247958 600.0,623.5382907247958 570.0,675.4998149518622 600.0,727.4613391789285 660.0,727.4613391789285" /><text transform="translate(690.0 593.5382907247958)" class="number">6.8</text><polygon class="grid" points="780.0,623.5382907247958 750.0,571.5767664977295 690.0,571.5767664977295 660.0,623.5382907247958 690.0,675.4998149518622 750.0,675.4998149518622" /><text transform="translate(-30.0 697.4613391789285)" class="number">7.0</text><polygon class="grid" points="60.0,727.4613391789285 30.0,675.4998149518622 -30.0,675.4998149518622 -60.0,727.4613391789285 -30.0,779.4228634059948 30.0,779.4228634059948" /><text transform="translate(60.0 749.4228634059948)" class="number">7.1</text><polygon class="grid" points="150.0,779.4228634059948 120.0,727.4613391789285 60.0,727.4613391789285 30.0,779.4228634059948 60.0,831.3843876330611 120.0,831.3843876330611" /><text transform="translate(150.0 697.4613391789285)" class="number">7.2</text><polygon class="grid" points="240.0,727.4613391789285 210.0,675.4998149518622 150.0,675.4998149518622 120.0,727.4613391789285 150.0,779.4228634059948 210.0,779.4228634059948" /><text transform="translate(240.0 749.4228634059948)" class="number">7.3</text><polygon class="grid" points="330.0,779.4228634059948 300.0,727.4613391789285 240.0,727.4613391789285 210.0,779.4228634059948 240.0,831.3843876330611 300.0,831.3843876330611" /><text transform="translate(330.0 697.4613391789285)" class="number">7.4</text><polygon class="grid" points="420.0,727.4613391789285 390.0,675.4998149518622 330.0,675.4998149518622 300.0,727.4613391789285 330.0,779.4228634059948 390.0,779.4228634059948" /><text transform="translate(420.0 749.4228634059948)" class="number">7.5</text><polygon class="grid" points="510.0,779.4228634059948 480.0,727.4613391789285 420.0,727.4613391789285 390.0,779.4228634059948 420.0,831.3843876330611 480.0,831.3843876330611" /><text transform="translate(510.0 697.4613391789285)" class="number">7.6</text><polygon class="grid" points="600.0,727.4613391789285 570.0,675.4998149518622 510.0,675.4998149518622 480.0,727.4613391789285 510.0,779.4228634059948 570.0,779.4228634059948" /><text transform="translate(600.0 749.4228634059948)" class="number">7.7</text><polygon class="grid" points="690.0,779.4228634059948 660.0,727.4613391789285 600.0,727.4613391789285 570.0,779.4228634059948 600.0,831.3843876330611 660.0,831.3843876330611" /><text transform="translate(690.0 697.4613391789285)" class="number">7.8</text><polygon class="grid" points="780.0,727.4613391789285 750.0,675.4998149518622 690.0,675.4998149518622 660.0,727.4613391789285 690.0,779.4228634059948 750.0,779.4228634059948" /><text transform="translate(-30.0 801.3843876330611)" class="number">8.0</text><polygon class="grid" points="60.0,831.3843876330611 30.0,779.4228634059948 -30.0,779.4228634059948 -60.0,831.3843876330611 -30.0,883.3459118601276 30.0,883.3459118601276" /><text transform="translate(60.0 853.3459118601276)" class="number">8.1</text><polygon class="grid" points="150.0,883.3459118601276 120.0,831.3843876330611 60.0,831.3843876330611 30.0,883.3459118601276 60.0,935.307436087194 120.0,935.307436087194" /><text transform="translate(150.0 801.3843876330611)" class="number">8.2</text><polygon class="grid" points="240.0,831.3843876330611 210.0,779.4228634059948 150.0,779.4228634059948 120.0,831.3843876330611 150.0,883.3459118601276 210.0,883.3459118601276" /><text transform="translate(240.0 853.3459118601276)" class="number">8.3</text><polygon class="grid" points="330.0,883.3459118601276 300.0,831.3843876330611 240.0,831.3843876330611 210.0,883.3459118601276 240.0,935.307436087194 300.0,935.307436087194" /><text transform="translate(330.0 801.3843876330611)" class="number">8.4</text><polygon class="grid" points="420.0,831.3843876330611 390.0,779.4228634059948 330.0,779.4228634059948 300.0,831.3843876330611 330.0,883.3459118601276 390.0,883.3459118601276" /><text transform="translate(420.0 853.3459118601276)" class="number">8.5</text><polygon class="grid" points="510.0,883.3459118601276 480.0,831.3843876330611 420.0,831.3843876330611 390.0,883.3459118601276 420.0,935.307436087194 480.0,935.307436087194" /><text transform="translate(510.0 801.3843876330611)" class="number">8.6</text><polygon class="grid" points="600.0,831.3843876330611 570.0,779.4228634059948 510.0,779.4228634059948 480.0,831.3843876330611 510.0,883.3459118601276 570.0,883.3459118601276" /><text transform="translate(600.0 853.3459118601276)" class="number">8.7</text><polygon class="grid" points="690.0,883.3459118601276 660.0,831.3843876330611 600.0,831.3843876330611 570.0,883.3459118601276 600.0,935.307436087194 660.0,935.307436087194" /><text transform="translate(690.0 801.3843876330611)" class="number">8.8</text><polygon class="grid" points="780.0,831.3843876330611 750.0,779.4228634059948 690.0,779.4228634059948 660.0,831.3843876330611 690.0,883.3459118601276 750.0,883.3459118601276" />
</svg>