<svg viewBox="343.3333333333333 79.93587371177719 1113.3333333333333 1398.973979388435" data-name="Layer 1" id="Layer_1" xmlns="http://www.w3.org/2000/svg"
    xmlns:xlink="http://www.w3.org/1999/xlink">
    <style type="text/css">
        polygon {
            fill: none;
            stroke-width: 6.666666666666667;
        }

        text {
            font-size: 250.0%;
            font-family: PTSans-NarrowBold, PT Sans Narrow;
            font-weight: 600;
            paint-order: stroke;
            stroke: black;
            fill: white;
            stroke-width: 4.444444444444445;
        }

        .path {
            fill: transparent;
            stroke-width: 8.0;
        }


        .roads {
            stroke: saddlebrown;
        }

        .rivers {
            stroke: blue;
        }

        .grid {
            stroke: #8E8E8E;
            stroke-miterlimit: 10;
        }

        .number {}

        .alt_text {}

        .icon {
            paint-order: stroke;
            stroke: black;
            fill: darkslategrey;
            stroke-width: 2;
        }


        .plains {
            fill: lightgreen;
        }

        .light_wood {
            fill: green;
        }

        .heavy_woods {
            fill: darkgreen;
        }

        .grassland {
            fill: chartreuse;
        }

        .mountains {
            fill: maroon;
        }

        .hills {
            fill: bisque;
        }

        .sea {
            fill: blue;
        }


        .lake {
            fill: lightskyblue;
        }


        .marsh {
            fill: yellowgreen;
        }


        .desert {
            fill: lightyellow;
        }

        .unknown {
            fill: gray;
        }

        .zone {
            stroke-dasharray: 15;
            stroke-linejoin: round;
            stroke-linecap: round;
        }

        .zone.secured {
            stroke: green;
        }

        
    </style>
    <defs>
        <svg xmlns="http://www.w3.org/2000/svg" id="ruines" class="icon ruines"><!--! Font Awesome Free 6.1.1 by @fontawesome - https://fontawesome.com License - https://fontawesome.com/license/free (Icons: CC BY 4.0, Fonts: SIL OFL 1.1, Code: MIT License) Copyright 2022 Fonticons, Inc. --><path d="M336.6 156.5C327.3 148.1 322.6 136.5 327.1 125.3L357.6 49.18C362.7 36.27 377.8 30.36 389.7 37.63C410.9 50.63 430 66.62 446.5 85.02C455.7 95.21 452.9 110.9 441.5 118.5L373.9 163.5C363.6 170.4 349.8 168.1 340.5 159.9C339.2 158.7 337.9 157.6 336.6 156.5H336.6zM297.7 112.6C293.2 123.1 280.9 129.8 268.7 128.6C264.6 128.2 260.3 128 256 128C251.7 128 247.4 128.2 243.3 128.6C231.1 129.8 218.8 123.1 214.3 112.6L183.1 36.82C178.8 24.02 185.5 9.433 198.1 6.374C217.3 2.203 236.4 0 256 0C275.6 0 294.7 2.203 313 6.374C326.5 9.433 333.2 24.02 328 36.82L297.7 112.6zM122.3 37.63C134.2 30.36 149.3 36.27 154.4 49.18L184.9 125.3C189.4 136.5 184.7 148.1 175.4 156.5C174.1 157.6 172.8 158.7 171.5 159.9C162.2 168.1 148.4 170.4 138.1 163.5L70.52 118.5C59.13 110.9 56.32 95.21 65.46 85.02C81.99 66.62 101.1 50.63 122.3 37.63H122.3zM379.5 222.1C376.3 210.7 379.7 198.1 389.5 191.6L458.1 145.8C469.7 138.1 485.6 141.9 491.2 154.7C501.6 178.8 508.4 204.8 510.9 232C512.1 245.2 501.3 255.1 488 255.1H408C394.7 255.1 384.2 245.2 381.8 232.1C381.1 228.7 380.4 225.4 379.5 222.1V222.1zM122.5 191.6C132.3 198.1 135.7 210.7 132.5 222.1C131.6 225.4 130.9 228.7 130.2 232.1C127.8 245.2 117.3 256 104 256H24C10.75 256-.1184 245.2 1.107 232C3.636 204.8 10.43 178.8 20.82 154.7C26.36 141.9 42.26 138.1 53.91 145.8L122.5 191.6zM104 288C117.3 288 128 298.7 128 312V360C128 373.3 117.3 384 104 384H24C10.75 384 0 373.3 0 360V312C0 298.7 10.75 288 24 288H104zM488 288C501.3 288 512 298.7 512 312V360C512 373.3 501.3 384 488 384H408C394.7 384 384 373.3 384 360V312C384 298.7 394.7 288 408 288H488zM104 416C117.3 416 128 426.7 128 440V488C128 501.3 117.3 512 104 512H24C10.75 512 0 501.3 0 488V440C0 426.7 10.75 416 24 416H104zM488 416C501.3 416 512 426.7 512 440V488C512 501.3 501.3 512 488 512H408C394.7 512 384 501.3 384 488V440C384 426.7 394.7 416 408 416H488zM272 464C272 472.8 264.8 480 256 480C247.2 480 240 472.8 240 464V192C240 183.2 247.2 176 256 176C264.8 176 272 183.2 272 192V464zM208 464C208 472.8 200.8 480 192 480C183.2 480 176 472.8 176 464V224C176 215.2 183.2 208 192 208C200.8 208 208 215.2 208 224V464zM336 464C336 472.8 328.8 480 320 480C311.2 480 304 472.8 304 464V224C304 215.2 311.2 208 320 208C328.8 208 336 215.2 336 224V464z"/></svg><svg xmlns="http://www.w3.org/2000/svg" id="fortin" class="icon fortin"><!--! Font Awesome Free 6.1.1 by @fontawesome - https://fontawesome.com License - https://fontawesome.com/license/free (Icons: CC BY 4.0, Fonts: SIL OFL 1.1, Code: MIT License) Copyright 2022 Fonticons, Inc. --><path d="M489.2 287.9h-27.4c-2.6 0-4.6 2-4.6 4.6v32h-36.6V146.2c0-2.6-2-4.6-4.6-4.6h-27.4c-2.6 0-4.6 2-4.6 4.6v32h-36.6v-32c0-2.6-2-4.6-4.6-4.6h-27.4c-2.6 0-4.6 2-4.6 4.6v32h-36.6v-32c0-6-8-4.6-11.7-4.6v-38c8.3-2 17.1-3.4 25.7-3.4 10.9 0 20.9 4.3 31.4 4.3 4.6 0 27.7-1.1 27.7-8v-60c0-2.6-2-4.6-4.6-4.6-5.1 0-15.1 4.3-24 4.3-9.7 0-20.9-4.3-32.6-4.3-8 0-16 1.1-23.7 2.9v-4.9c5.4-2.6 9.1-8.3 9.1-14.3 0-20.7-31.4-20.8-31.4 0 0 6 3.7 11.7 9.1 14.3v111.7c-3.7 0-11.7-1.4-11.7 4.6v32h-36.6v-32c0-2.6-2-4.6-4.6-4.6h-27.4c-2.6 0-4.6 2-4.6 4.6v32H128v-32c0-2.6-2-4.6-4.6-4.6H96c-2.6 0-4.6 2-4.6 4.6v178.3H54.8v-32c0-2.6-2-4.6-4.6-4.6H22.8c-2.6 0-4.6 2-4.6 4.6V512h182.9v-96c0-72.6 109.7-72.6 109.7 0v96h182.9V292.5c.1-2.6-1.9-4.6-4.5-4.6zm-288.1-4.5c0 2.6-2 4.6-4.6 4.6h-27.4c-2.6 0-4.6-2-4.6-4.6v-64c0-2.6 2-4.6 4.6-4.6h27.4c2.6 0 4.6 2 4.6 4.6v64zm146.4 0c0 2.6-2 4.6-4.6 4.6h-27.4c-2.6 0-4.6-2-4.6-4.6v-64c0-2.6 2-4.6 4.6-4.6h27.4c2.6 0 4.6 2 4.6 4.6v64z"/></svg>
    </defs>
    <polygon class="marsh" points="1150.0,606.2177826491071 1100.0,519.6152422706632 1000.0,519.6152422706632 950.0,606.2177826491071 1000.0,692.820323027551 1100.0,692.820323027551 1150.0,606.2177826491071" /><polygon class="" points="1150.0,779.4228634059948 1100.0,692.8203230275509 1000.0,692.8203230275509 950.0,779.4228634059948 1000.0,866.0254037844387 1100.0,866.0254037844387 1150.0,779.4228634059948" /><polygon class="" points="1450.0,606.2177826491071 1400.0,519.6152422706632 1300.0,519.6152422706632 1250.0,606.2177826491071 1300.0,692.820323027551 1400.0,692.820323027551 1450.0,606.2177826491071" /><polygon class="" points="1450.0,779.4228634059948 1400.0,692.8203230275509 1300.0,692.8203230275509 1250.0,779.4228634059948 1300.0,866.0254037844387 1400.0,866.0254037844387 1450.0,779.4228634059948" /><polygon class="" points="550.0,433.0127018922193 500.0,346.41016151377545 400.0,346.41016151377545 350.0,433.0127018922193 400.0,519.6152422706632 500.0,519.6152422706632 550.0,433.0127018922193" /><polygon class="" points="550.0,606.2177826491071 500.0,519.6152422706632 400.0,519.6152422706632 350.0,606.2177826491071 400.0,692.820323027551 500.0,692.820323027551 550.0,606.2177826491071" /><polygon class="plains" points="850.0,433.0127018922193 800.0,346.41016151377545 700.0,346.41016151377545 650.0,433.0127018922193 700.0,519.6152422706632 800.0,519.6152422706632 850.0,433.0127018922193" /><polygon class="mountains" points="850.0,606.2177826491071 800.0,519.6152422706632 700.0,519.6152422706632 650.0,606.2177826491071 700.0,692.820323027551 800.0,692.820323027551 850.0,606.2177826491071" /><polygon class="marsh" points="850.0,1125.8330249197702 800.0,1039.2304845413264 700.0,1039.2304845413264 650.0,1125.8330249197702 700.0,1212.435565298214 800.0,1212.435565298214 850.0,1125.8330249197702" /><polygon class="sea" points="690.0,1125.8330249197702 720.0,1177.7945491468365 700.0,1212.435565298214 650.0,1125.8330249197702 690.0,1125.8330249197702" /><polygon class="sea" points="810.0,1125.8330249197702 780.0,1073.8715006927039 720.0,1073.8715006927039 690.0,1125.8330249197702 720.0,1177.7945491468365 780.0,1177.7945491468365 810.0,1125.8330249197702" /><path d="M750.0 1125.8330249197702 Q 750.0 1125.8330249197702 824.9977999677324 1082.5317547305483" class="path rivers" /><polygon class="" points="850.0,1299.0381056766578 800.0,1212.435565298214 700.0,1212.435565298214 650.0,1299.0381056766578 700.0,1385.6406460551016 800.0,1385.6406460551016 850.0,1299.0381056766578" /><polygon class="grassland" points="1150.0,1125.8330249197702 1100.0,1039.2304845413264 1000.0,1039.2304845413264 950.0,1125.8330249197702 1000.0,1212.435565298214 1100.0,1212.435565298214 1150.0,1125.8330249197702" /><polygon class="sea" points="990.0,1125.8330249197702 1020.0,1177.7945491468365 1000.0,1212.435565298214 950.0,1125.8330249197702 990.0,1125.8330249197702" /><path d="M1050.0 1039.2304845413264 Q 1050.0 1125.8330249197702 1050.0 1125.8330249197702" class="path roads" /><use xlink:href="#ruines" transform="translate(1010.6352089188891 1086.4682338386594) scale(0.15376871516058924 0.15376871516058924)" /><polygon class="" points="1150.0,1299.0381056766578 1100.0,1212.435565298214 1000.0,1212.435565298214 950.0,1299.0381056766578 1000.0,1385.6406460551016 1100.0,1385.6406460551016 1150.0,1299.0381056766578" /><polygon class="" points="1150.0,433.0127018922193 1100.0,346.41016151377545 1000.0,346.41016151377545 950.0,433.0127018922193 1000.0,519.6152422706632 1100.0,519.6152422706632 1150.0,433.0127018922193" /><polygon class="" points="1450.0,433.0127018922193 1400.0,346.41016151377545 1300.0,346.41016151377545 1250.0,433.0127018922193 1300.0,519.6152422706632 1400.0,519.6152422706632 1450.0,433.0127018922193" /><polygon class="" points="850.0,259.8076211353316 800.0,173.20508075688775 700.0,173.20508075688775 650.0,259.8076211353316 700.0,346.41016151377545 800.0,346.41016151377545 850.0,259.8076211353316" /><polygon class="" points="1150.0,259.8076211353316 1100.0,173.20508075688775 1000.0,173.20508075688775 950.0,259.8076211353316 1000.0,346.41016151377545 1100.0,346.41016151377545 1150.0,259.8076211353316" /><polygon class="" points="850.0,779.4228634059948 800.0,692.8203230275509 700.0,692.8203230275509 650.0,779.4228634059948 700.0,866.0254037844387 800.0,866.0254037844387 850.0,779.4228634059948" /><polygon class="grassland" points="850.0,952.6279441628825 800.0,866.0254037844386 700.0,866.0254037844386 650.0,952.6279441628825 700.0,1039.2304845413264 800.0,1039.2304845413264 850.0,952.6279441628825" /><polygon class="sea" points="690.0,952.6279441628825 720.0,900.6664199358162 700.0,866.0254037844386 650.0,952.6279441628825 690.0,952.6279441628825" /><polygon class="sea" points="780.0,900.6664199358162 720.0,900.6664199358162 700.0,866.0254037844386 800.0,866.0254037844386 780.0,900.6664199358162" /><path d="M750.0 952.6279441628825 Q 750.0 952.6279441628825 824.9977999677324 909.3266739736606" class="path roads" /><use xlink:href="#fortin" transform="translate(710.6352089188891 913.2631530817716) scale(0.15376871516058924 0.15376871516058924)" /><polygon class="grassland" points="1150.0,952.6279441628825 1100.0,866.0254037844386 1000.0,866.0254037844386 950.0,952.6279441628825 1000.0,1039.2304845413264 1100.0,1039.2304845413264 1150.0,952.6279441628825" /><polygon class="sea" points="1110.0,952.6279441628825 1080.0,900.6664199358162 1100.0,866.0254037844386 1150.0,952.6279441628825 1110.0,952.6279441628825" /><polygon class="sea" points="1080.0,900.6664199358162 1020.0,900.6664199358162 1000.0,866.0254037844386 1100.0,866.0254037844386 1080.0,900.6664199358162" /><polygon class="sea" points="1110.0,952.6279441628825 1080.0,1004.5894683899488 1100.0,1039.2304845413264 1150.0,952.6279441628825 1110.0,952.6279441628825" /><path d="M975.0022000322676 909.3266739736606 Q 1050.0 952.6279441628825 1050.0 1039.2304845413264" class="path roads" /><path d="M975.0022000322676 995.9292143521044 Q 1050.0 952.6279441628825 1050.0 1039.2304845413264" class="path roads" /><polygon class="" points="550.0,779.4228634059948 500.0,692.8203230275509 400.0,692.8203230275509 350.0,779.4228634059948 400.0,866.0254037844387 500.0,866.0254037844387 550.0,779.4228634059948" /><polygon class="grassland" points="1000.0,1212.435565298214 950.0,1125.8330249197702 850.0,1125.8330249197702 800.0,1212.435565298214 850.0,1299.0381056766578 950.0,1299.0381056766578 1000.0,1212.435565298214" /><polygon class="sea" points="840.0,1212.435565298214 870.0,1264.3970895252803 850.0,1299.0381056766578 800.0,1212.435565298214 840.0,1212.435565298214" /><polygon class="sea" points="930.0,1264.3970895252803 870.0,1264.3970895252803 850.0,1299.0381056766578 950.0,1299.0381056766578 930.0,1264.3970895252803" /><polygon class="sea" points="960.0,1212.435565298214 930.0,1264.3970895252803 950.0,1299.0381056766578 1000.0,1212.435565298214 960.0,1212.435565298214" /><polygon class="sea" points="960.0,1212.435565298214 930.0,1160.4740410711477 870.0,1160.4740410711477 840.0,1212.435565298214 870.0,1264.3970895252803 930.0,1264.3970895252803 960.0,1212.435565298214" /><polygon class="sea" points="960.0,1212.435565298214 930.0,1160.4740410711477 950.0,1125.8330249197702 1000.0,1212.435565298214 960.0,1212.435565298214" /><text transform="translate(900.0 1212.435565298214)" text-anchor="middle" class="alt_text">Baie</text><polygon class="grassland" points="1000.0,1039.2304845413264 950.0,952.6279441628825 850.0,952.6279441628825 800.0,1039.2304845413264 850.0,1125.8330249197702 950.0,1125.8330249197702 1000.0,1039.2304845413264" /><polygon class="lake" points="960.0,1039.2304845413264 930.0,987.2689603142601 870.0,987.2689603142601 840.0,1039.2304845413264 870.0,1091.1920087683927 930.0,1091.1920087683927 960.0,1039.2304845413264" /><polygon class="marsh" points="840.0,1039.2304845413264 870.0,1091.1920087683927 850.0,1125.8330249197702 800.0,1039.2304845413264 840.0,1039.2304845413264" /><path d="M900.0 952.6279441628825 Q 900.0 1039.2304845413264 825.0022000322676 1082.5317547305483" class="path rivers" /><polygon class="" points="1300.0,1212.435565298214 1250.0,1125.8330249197702 1150.0,1125.8330249197702 1100.0,1212.435565298214 1150.0,1299.0381056766578 1250.0,1299.0381056766578 1300.0,1212.435565298214" /><polygon class="" points="1300.0,1039.2304845413264 1250.0,952.6279441628825 1150.0,952.6279441628825 1100.0,1039.2304845413264 1150.0,1125.8330249197702 1250.0,1125.8330249197702 1300.0,1039.2304845413264" /><polygon class="" points="700.0,1212.435565298214 650.0,1125.8330249197702 550.0,1125.8330249197702 500.0,1212.435565298214 550.0,1299.0381056766578 650.0,1299.0381056766578 700.0,1212.435565298214" /><polygon class="" points="700.0,1039.2304845413264 650.0,952.6279441628825 550.0,952.6279441628825 500.0,1039.2304845413264 550.0,1125.8330249197702 650.0,1125.8330249197702 700.0,1039.2304845413264" /><polygon class="heavy_woods" points="700.0,692.8203230275509 650.0,606.217782649107 550.0,606.217782649107 500.0,692.8203230275509 550.0,779.4228634059948 650.0,779.4228634059948 700.0,692.8203230275509" /><polygon class="sea" points="700.0,519.6152422706632 650.0,433.01270189221935 550.0,433.01270189221935 500.0,519.6152422706632 550.0,606.2177826491071 650.0,606.2177826491071 700.0,519.6152422706632" /><polygon class="" points="1000.0,692.8203230275509 950.0,606.217782649107 850.0,606.217782649107 800.0,692.8203230275509 850.0,779.4228634059948 950.0,779.4228634059948 1000.0,692.8203230275509" /><polygon class="grassland" points="1000.0,519.6152422706632 950.0,433.01270189221935 850.0,433.01270189221935 800.0,519.6152422706632 850.0,606.2177826491071 950.0,606.2177826491071 1000.0,519.6152422706632" /><polygon class="" points="700.0,866.0254037844386 650.0,779.4228634059947 550.0,779.4228634059947 500.0,866.0254037844386 550.0,952.6279441628825 650.0,952.6279441628825 700.0,866.0254037844386" /><polygon class="grassland" points="1000.0,866.0254037844386 950.0,779.4228634059947 850.0,779.4228634059947 800.0,866.0254037844386 850.0,952.6279441628825 950.0,952.6279441628825 1000.0,866.0254037844386" /><polygon class="sea" points="960.0,866.0254037844386 930.0,814.0638795573723 950.0,779.4228634059947 1000.0,866.0254037844386 960.0,866.0254037844386" /><path d="M825.0022000322676 909.3266739736605 Q 900.0 866.0254037844386 974.9977999677324 909.3266739736605" class="path roads" /><path d="M900.0 779.4228634059947 Q 900.0 866.0254037844386 900.0 952.6279441628825" class="path rivers" /><path d="M825.0022000322676 822.7241335952167 Q 900.0 866.0254037844386 900.0 952.6279441628825" class="path rivers" /><path d="M974.9977999677324 822.7241335952167 Q 900.0 866.0254037844386 900.0 952.6279441628825" class="path rivers" /><polygon class="" points="1300.0,866.0254037844386 1250.0,779.4228634059947 1150.0,779.4228634059947 1100.0,866.0254037844386 1150.0,952.6279441628825 1250.0,952.6279441628825 1300.0,866.0254037844386" /><polygon class="" points="700.0,346.41016151377545 650.0,259.8076211353316 550.0,259.8076211353316 500.0,346.41016151377545 550.0,433.0127018922193 650.0,433.0127018922193 700.0,346.41016151377545" /><polygon class="light_wood" points="1000.0,346.41016151377545 950.0,259.8076211353316 850.0,259.8076211353316 800.0,346.41016151377545 850.0,433.0127018922193 950.0,433.0127018922193 1000.0,346.41016151377545" /><polygon class="lake" points="1300.0,519.6152422706632 1250.0,433.01270189221935 1150.0,433.01270189221935 1100.0,519.6152422706632 1150.0,606.2177826491071 1250.0,606.2177826491071 1300.0,519.6152422706632" /><polygon class="" points="1300.0,346.41016151377545 1250.0,259.8076211353316 1150.0,259.8076211353316 1100.0,346.41016151377545 1150.0,433.0127018922193 1250.0,433.0127018922193 1300.0,346.41016151377545" /><polygon class="hills" points="1300.0,692.8203230275509 1250.0,606.217782649107 1150.0,606.217782649107 1100.0,692.8203230275509 1150.0,779.4228634059948 1250.0,779.4228634059948 1300.0,692.8203230275509" /><polygon class="" points="1000.0,1385.6406460551018 950.0,1299.038105676658 850.0,1299.038105676658 800.0,1385.6406460551018 850.0,1472.2431864335456 950.0,1472.2431864335456 1000.0,1385.6406460551018" /><polygon class="" points="1000.0,173.20508075688772 950.0,86.60254037844386 850.0,86.60254037844386 800.0,173.20508075688772 850.0,259.8076211353316 950.0,259.8076211353316 1000.0,173.20508075688772" /><polygon class="grid" points="1150.0,606.2177826491071 1100.0,519.6152422706632 1000.0,519.6152422706632 950.0,606.2177826491071 1000.0,692.820323027551 1100.0,692.820323027551 1150.0,606.2177826491071" /><polygon class="grid" points="1150.0,779.4228634059948 1100.0,692.8203230275509 1000.0,692.8203230275509 950.0,779.4228634059948 1000.0,866.0254037844387 1100.0,866.0254037844387 1150.0,779.4228634059948" /><polygon class="grid" points="1450.0,606.2177826491071 1400.0,519.6152422706632 1300.0,519.6152422706632 1250.0,606.2177826491071 1300.0,692.820323027551 1400.0,692.820323027551 1450.0,606.2177826491071" /><polygon class="grid" points="1450.0,779.4228634059948 1400.0,692.8203230275509 1300.0,692.8203230275509 1250.0,779.4228634059948 1300.0,866.0254037844387 1400.0,866.0254037844387 1450.0,779.4228634059948" /><polygon class="grid" points="550.0,433.0127018922193 500.0,346.41016151377545 400.0,346.41016151377545 350.0,433.0127018922193 400.0,519.6152422706632 500.0,519.6152422706632 550.0,433.0127018922193" /><polygon class="grid" points="550.0,606.2177826491071 500.0,519.6152422706632 400.0,519.6152422706632 350.0,606.2177826491071 400.0,692.820323027551 500.0,692.820323027551 550.0,606.2177826491071" /><polygon class="grid" points="850.0,433.0127018922193 800.0,346.41016151377545 700.0,346.41016151377545 650.0,433.0127018922193 700.0,519.6152422706632 800.0,519.6152422706632 850.0,433.0127018922193" /><polygon class="grid" points="850.0,606.2177826491071 800.0,519.6152422706632 700.0,519.6152422706632 650.0,606.2177826491071 700.0,692.820323027551 800.0,692.820323027551 850.0,606.2177826491071" /><polygon class="grid" points="850.0,1125.8330249197702 800.0,1039.2304845413264 700.0,1039.2304845413264 650.0,1125.8330249197702 700.0,1212.435565298214 800.0,1212.435565298214 850.0,1125.8330249197702" /><polygon class="grid" points="850.0,1299.0381056766578 800.0,1212.435565298214 700.0,1212.435565298214 650.0,1299.0381056766578 700.0,1385.6406460551016 800.0,1385.6406460551016 850.0,1299.0381056766578" /><polygon class="grid" points="1150.0,1125.8330249197702 1100.0,1039.2304845413264 1000.0,1039.2304845413264 950.0,1125.8330249197702 1000.0,1212.435565298214 1100.0,1212.435565298214 1150.0,1125.8330249197702" /><polygon class="grid" points="1150.0,1299.0381056766578 1100.0,1212.435565298214 1000.0,1212.435565298214 950.0,1299.0381056766578 1000.0,1385.6406460551016 1100.0,1385.6406460551016 1150.0,1299.0381056766578" /><polygon class="grid" points="1150.0,433.0127018922193 1100.0,346.41016151377545 1000.0,346.41016151377545 950.0,433.0127018922193 1000.0,519.6152422706632 1100.0,519.6152422706632 1150.0,433.0127018922193" /><polygon class="grid" points="1450.0,433.0127018922193 1400.0,346.41016151377545 1300.0,346.41016151377545 1250.0,433.0127018922193 1300.0,519.6152422706632 1400.0,519.6152422706632 1450.0,433.0127018922193" /><polygon class="grid" points="850.0,259.8076211353316 800.0,173.20508075688775 700.0,173.20508075688775 650.0,259.8076211353316 700.0,346.41016151377545 800.0,346.41016151377545 850.0,259.8076211353316" /><polygon class="grid" points="1150.0,259.8076211353316 1100.0,173.20508075688775 1000.0,173.20508075688775 950.0,259.8076211353316 1000.0,346.41016151377545 1100.0,346.41016151377545 1150.0,259.8076211353316" /><polygon class="grid" points="850.0,779.4228634059948 800.0,692.8203230275509 700.0,692.8203230275509 650.0,779.4228634059948 700.0,866.0254037844387 800.0,866.0254037844387 850.0,779.4228634059948" /><polygon class="grid" points="850.0,952.6279441628825 800.0,866.0254037844386 700.0,866.0254037844386 650.0,952.6279441628825 700.0,1039.2304845413264 800.0,1039.2304845413264 850.0,952.6279441628825" /><polygon class="grid" points="1150.0,952.6279441628825 1100.0,866.0254037844386 1000.0,866.0254037844386 950.0,952.6279441628825 1000.0,1039.2304845413264 1100.0,1039.2304845413264 1150.0,952.6279441628825" /><polygon class="grid" points="550.0,779.4228634059948 500.0,692.8203230275509 400.0,692.8203230275509 350.0,779.4228634059948 400.0,866.0254037844387 500.0,866.0254037844387 550.0,779.4228634059948" /><polygon class="grid" points="1000.0,1212.435565298214 950.0,1125.8330249197702 850.0,1125.8330249197702 800.0,1212.435565298214 850.0,1299.0381056766578 950.0,1299.0381056766578 1000.0,1212.435565298214" /><polygon class="grid" points="1000.0,1039.2304845413264 950.0,952.6279441628825 850.0,952.6279441628825 800.0,1039.2304845413264 850.0,1125.8330249197702 950.0,1125.8330249197702 1000.0,1039.2304845413264" /><polygon class="grid" points="1300.0,1212.435565298214 1250.0,1125.8330249197702 1150.0,1125.8330249197702 1100.0,1212.435565298214 1150.0,1299.0381056766578 1250.0,1299.0381056766578 1300.0,1212.435565298214" /><polygon class="grid" points="1300.0,1039.2304845413264 1250.0,952.6279441628825 1150.0,952.6279441628825 1100.0,1039.2304845413264 1150.0,1125.8330249197702 1250.0,1125.8330249197702 1300.0,1039.2304845413264" /><polygon class="grid" points="700.0,1212.435565298214 650.0,1125.8330249197702 550.0,1125.8330249197702 500.0,1212.435565298214 550.0,1299.0381056766578 650.0,1299.0381056766578 700.0,1212.435565298214" /><polygon class="grid" points="700.0,1039.2304845413264 650.0,952.6279441628825 550.0,952.6279441628825 500.0,1039.2304845413264 550.0,1125.8330249197702 650.0,1125.8330249197702 700.0,1039.2304845413264" /><polygon class="grid" points="700.0,692.8203230275509 650.0,606.217782649107 550.0,606.217782649107 500.0,692.8203230275509 550.0,779.4228634059948 650.0,779.4228634059948 700.0,692.8203230275509" /><polygon class="grid" points="700.0,519.6152422706632 650.0,433.01270189221935 550.0,433.01270189221935 500.0,519.6152422706632 550.0,606.2177826491071 650.0,606.2177826491071 700.0,519.6152422706632" /><polygon class="grid" points="1000.0,692.8203230275509 950.0,606.217782649107 850.0,606.217782649107 800.0,692.8203230275509 850.0,779.4228634059948 950.0,779.4228634059948 1000.0,692.8203230275509" /><polygon class="grid" points="1000.0,519.6152422706632 950.0,433.01270189221935 850.0,433.01270189221935 800.0,519.6152422706632 850.0,606.2177826491071 950.0,606.2177826491071 1000.0,519.6152422706632" /><polygon class="grid" points="700.0,866.0254037844386 650.0,779.4228634059947 550.0,779.4228634059947 500.0,866.0254037844386 550.0,952.6279441628825 650.0,952.6279441628825 700.0,866.0254037844386" /><polygon class="grid" points="1000.0,866.0254037844386 950.0,779.4228634059947 850.0,779.4228634059947 800.0,866.0254037844386 850.0,952.6279441628825 950.0,952.6279441628825 1000.0,866.0254037844386" /><polygon class="grid" points="1300.0,866.0254037844386 1250.0,779.4228634059947 1150.0,779.4228634059947 1100.0,866.0254037844386 1150.0,952.6279441628825 1250.0,952.6279441628825 1300.0,866.0254037844386" /><polygon class="grid" points="700.0,346.41016151377545 650.0,259.8076211353316 550.0,259.8076211353316 500.0,346.41016151377545 550.0,433.0127018922193 650.0,433.0127018922193 700.0,346.41016151377545" /><polygon class="grid" points="1000.0,346.41016151377545 950.0,259.8076211353316 850.0,259.8076211353316 800.0,346.41016151377545 850.0,433.0127018922193 950.0,433.0127018922193 1000.0,346.41016151377545" /><polygon class="grid" points="1300.0,519.6152422706632 1250.0,433.01270189221935 1150.0,433.01270189221935 1100.0,519.6152422706632 1150.0,606.2177826491071 1250.0,606.2177826491071 1300.0,519.6152422706632" /><polygon class="grid" points="1300.0,346.41016151377545 1250.0,259.8076211353316 1150.0,259.8076211353316 1100.0,346.41016151377545 1150.0,433.0127018922193 1250.0,433.0127018922193 1300.0,346.41016151377545" /><polygon class="grid" points="1300.0,692.8203230275509 1250.0,606.217782649107 1150.0,606.217782649107 1100.0,692.8203230275509 1150.0,779.4228634059948 1250.0,779.4228634059948 1300.0,692.8203230275509" /><polygon class="grid" points="1000.0,1385.6406460551018 950.0,1299.038105676658 850.0,1299.038105676658 800.0,1385.6406460551018 850.0,1472.2431864335456 950.0,1472.2431864335456 1000.0,1385.6406460551018" /><polygon class="grid" points="1000.0,173.20508075688772 950.0,86.60254037844386 850.0,86.60254037844386 800.0,173.20508075688772 850.0,259.8076211353316 950.0,259.8076211353316 1000.0,173.20508075688772" /><text transform="translate(1020.0 554.2562584220408)" class="number">3.7</text><text transform="translate(1020.0 727.4613391789285)" class="number">4.7</text><text transform="translate(1320.0 554.2562584220408)" class="number">3.9</text><text transform="translate(1320.0 727.4613391789285)" class="number">4.9</text><text transform="translate(420.0 381.051177665153)" class="number">2.3</text><text transform="translate(420.0 554.2562584220408)" class="number">3.3</text><text transform="translate(720.0 381.051177665153)" class="number">2.5</text><text transform="translate(720.0 554.2562584220408)" class="number">3.5</text><text transform="translate(720.0 1073.8715006927039)" class="number">6.5</text><text transform="translate(720.0 1247.0765814495915)" class="number">7.5</text><text transform="translate(1020.0 1073.8715006927039)" class="number">6.7</text><text transform="translate(1020.0 1247.0765814495915)" class="number">7.7</text><text transform="translate(1020.0 381.051177665153)" class="number">2.7</text><text transform="translate(1320.0 381.051177665153)" class="number">2.9</text><text transform="translate(720.0 207.84609690826528)" class="number">1.5</text><text transform="translate(1020.0 207.84609690826528)" class="number">1.7</text><text transform="translate(720.0 727.4613391789285)" class="number">4.5</text><text transform="translate(720.0 900.6664199358162)" class="number">5.5</text><text transform="translate(1020.0 900.6664199358162)" class="number">5.7</text><text transform="translate(420.0 727.4613391789285)" class="number">4.3</text><text transform="translate(870.0 1160.4740410711477)" class="number">7.6</text><text transform="translate(870.0 987.2689603142601)" class="number">6.6</text><text transform="translate(1170.0 1160.4740410711477)" class="number">7.8</text><text transform="translate(1170.0 987.2689603142601)" class="number">6.8</text><text transform="translate(570.0 1160.4740410711477)" class="number">7.4</text><text transform="translate(570.0 987.2689603142601)" class="number">6.4</text><text transform="translate(570.0 640.8587988004846)" class="number">4.4</text><text transform="translate(570.0 467.6537180435969)" class="number">3.4</text><text transform="translate(870.0 640.8587988004846)" class="number">4.6</text><text transform="translate(870.0 467.6537180435969)" class="number">3.6</text><text transform="translate(570.0 814.0638795573723)" class="number">5.4</text><text transform="translate(870.0 814.0638795573723)" class="number">5.6</text><text transform="translate(1170.0 814.0638795573723)" class="number">5.8</text><text transform="translate(570.0 294.44863728670913)" class="number">2.4</text><text transform="translate(870.0 294.44863728670913)" class="number">2.6</text><text transform="translate(1170.0 467.6537180435969)" class="number">3.8</text><text transform="translate(1170.0 294.44863728670913)" class="number">2.8</text><text transform="translate(1170.0 640.8587988004846)" class="number">4.8</text><text transform="translate(870.0 1333.6791218280355)" class="number">8.6</text><text transform="translate(870.0 121.2435565298214)" class="number">1.6</text>
</svg>