<svg width="1150" height="1386" data-name="Layer 1" id="Layer_1" xmlns="http://www.w3.org/2000/svg"
    xmlns:xlink="http://www.w3.org/1999/xlink">
    <style type="text/css">
        polygon {
            fill: none;
            stroke-width: 6.666666666666667;
        }

        text {
            font-size: 250.0%;
            font-family: PTSans-NarrowBold, PT Sans Narrow;
            font-weight: 600;
            paint-order: stroke;
            stroke: black;
            fill: white;
            stroke-width: 4.444444444444445;
        }

        .path {
            fill: transparent;
            stroke-width: 8.0;
        }


        .roads {
            stroke: saddlebrown;
        }

        .rivers {
            stroke: blue;
        }

        .grid {
            stroke: #8E8E8E;
            stroke-miterlimit: 10;
        }

        .number {}

        .alt_text {}

        .icon {
            paint-order: stroke;
            stroke: black;
            fill: darkslategrey;
            stroke-width: 2;
        }


        .plains {
            fill: lightgreen;
        }

        .light_wood {
            fill: green;
        }

        .heavy_woods {
            fill: darkgreen;
        }

        .grassland {
            fill: chartreuse;
        }

        .mountains {
            fill: maroon;
        }

        .hills {
            fill: bisque;
        }

        .sea {
            fill: blue;
        }


        .lake {
            fill: lightskyblue;
        }


        .marsh {
            fill: yellowgreen;
        }


        .desert {
            fill: lightyellow;
        }

        .unknown {
            fill: gray;
        }

        
    </style>
    <defs>
        <svg xmlns="http://www.w3.org/2000/svg" id="fortin" class="icon fortin"><!--! Font Awesome Free 6.1.1 by @fontawesome - https://fontawesome.com License - https://fontawesome.com/license/free (Icons: CC BY 4.0, Fonts: SIL OFL 1.1, Code: MIT License) Copyright 2022 Fonticons, Inc. --><path d="M489.2 287.9h-27.4c-2.6 0-4.6 2-4.6 4.6v32h-36.6V146.2c0-2.6-2-4.6-4.6-4.6h-27.4c-2.6 0-4.6 2-4.6 4.6v32h-36.6v-32c0-2.6-2-4.6-4.6-4.6h-27.4c-2.6 0-4.6 2-4.6 4.6v32h-36.6v-32c0-6-8-4.6-11.7-4.6v-38c8.3-2 17.1-3.4 25.7-3.4 10.9 0 20.9 4.3 31.4 4.3 4.6 0 27.7-1.1 27.7-8v-60c0-2.6-2-4.6-4.6-4.6-5.1 0-15.1 4.3-24 4.3-9.7 0-20.9-4.3-32.6-4.3-8 0-16 1.1-23.7 2.9v-4.9c5.4-2.6 9.1-8.3 9.1-14.3 0-20.7-31.4-20.8-31.4 0 0 6 3.7 11.7 9.1 14.3v111.7c-3.7 0-11.7-1.4-11.7 4.6v32h-36.6v-32c0-2.6-2-4.6-4.6-4.6h-27.4c-2.6 0-4.6 2-4.6 4.6v32H128v-32c0-2.6-2-4.6-4.6-4.6H96c-2.6 0-4.6 2-4.6 4.6v178.3H54.8v-32c0-2.6-2-4.6-4.6-4.6H22.8c-2.6 0-4.6 2-4.6 4.6V512h182.9v-96c0-72.6 109.7-72.6 109.7 0v96h182.9V292.5c.1-2.6-1.9-4.6-4.5-4.6zm-288.1-4.5c0 2.6-2 4.6-4.6 4.6h-27.4c-2.6 0-4.6-2-4.6-4.6v-64c0-2.6 2-4.6 4.6-4.6h27.4c2.6 0 4.6 2 4.6 4.6v64zm146.4 0c0 2.6-2 4.6-4.6 4.6h-27.4c-2.6 0-4.6-2-4.6-4.6v-64c0-2.6 2-4.6 4.6-4.6h27.4c2.6 0 4.6 2 4.6 4.6v64z"/></svg><svg xmlns="http://www.w3.org/2000/svg" id="ruines" class="icon ruines"><!--! Font Awesome Free 6.1.1 by @fontawesome - https://fontawesome.com License - https://fontawesome.com/license/free (Icons: CC BY 4.0, Fonts: SIL OFL 1.1, Code: MIT License) Copyright 2022 Fonticons, Inc. --><path d="M336.6 156.5C327.3 148.1 322.6 136.5 327.1 125.3L357.6 49.18C362.7 36.27 377.8 30.36 389.7 37.63C410.9 50.63 430 66.62 446.5 85.02C455.7 95.21 452.9 110.9 441.5 118.5L373.9 163.5C363.6 170.4 349.8 168.1 340.5 159.9C339.2 158.7 337.9 157.6 336.6 156.5H336.6zM297.7 112.6C293.2 123.1 280.9 129.8 268.7 128.6C264.6 128.2 260.3 128 256 128C251.7 128 247.4 128.2 243.3 128.6C231.1 129.8 218.8 123.1 214.3 112.6L183.1 36.82C178.8 24.02 185.5 9.433 198.1 6.374C217.3 2.203 236.4 0 256 0C275.6 0 294.7 2.203 313 6.374C326.5 9.433 333.2 24.02 328 36.82L297.7 112.6zM122.3 37.63C134.2 30.36 149.3 36.27 154.4 49.18L184.9 125.3C189.4 136.5 184.7 148.1 175.4 156.5C174.1 157.6 172.8 158.7 171.5 159.9C162.2 168.1 148.4 170.4 138.1 163.5L70.52 118.5C59.13 110.9 56.32 95.21 65.46 85.02C81.99 66.62 101.1 50.63 122.3 37.63H122.3zM379.5 222.1C376.3 210.7 379.7 198.1 389.5 191.6L458.1 145.8C469.7 138.1 485.6 141.9 491.2 154.7C501.6 178.8 508.4 204.8 510.9 232C512.1 245.2 501.3 255.1 488 255.1H408C394.7 255.1 384.2 245.2 381.8 232.1C381.1 228.7 380.4 225.4 379.5 222.1V222.1zM122.5 191.6C132.3 198.1 135.7 210.7 132.5 222.1C131.6 225.4 130.9 228.7 130.2 232.1C127.8 245.2 117.3 256 104 256H24C10.75 256-.1184 245.2 1.107 232C3.636 204.8 10.43 178.8 20.82 154.7C26.36 141.9 42.26 138.1 53.91 145.8L122.5 191.6zM104 288C117.3 288 128 298.7 128 312V360C128 373.3 117.3 384 104 384H24C10.75 384 0 373.3 0 360V312C0 298.7 10.75 288 24 288H104zM488 288C501.3 288 512 298.7 512 312V360C512 373.3 501.3 384 488 384H408C394.7 384 384 373.3 384 360V312C384 298.7 394.7 288 408 288H488zM104 416C117.3 416 128 426.7 128 440V488C128 501.3 117.3 512 104 512H24C10.75 512 0 501.3 0 488V440C0 426.7 10.75 416 24 416H104zM488 416C501.3 416 512 426.7 512 440V488C512 501.3 501.3 512 488 512H408C394.7 512 384 501.3 384 488V440C384 426.7 394.7 416 408 416H488zM272 464C272 472.8 264.8 480 256 480C247.2 480 240 472.8 240 464V192C240 183.2 247.2 176 256 176C264.8 176 272 183.2 272 192V464zM208 464C208 472.8 200.8 480 192 480C183.2 480 176 472.8 176 464V224C176 215.2 183.2 208 192 208C200.8 208 208 215.2 208 224V464zM336 464C336 472.8 328.8 480 320 480C311.2 480 304 472.8 304 464V224C304 215.2 311.2 208 320 208C328.8 208 336 215.2 336 224V464z"/></svg>
    </defs>
    <polygon class="" points="250.0,86.60254037844385 200.0,-1.4210854715202004e-14 100.0,-1.4210854715202004e-14 50.0,86.60254037844385 100.0,173.2050807568877 200.0,173.2050807568877" /><polygon class="" points="400.0,-2.842170943040401e-14 350.0,-86.60254037844389 250.0,-86.60254037844389 200.0,-2.842170943040401e-14 250.0,86.60254037844383 350.0,86.60254037844383" /><polygon class="" points="550.0,86.60254037844385 500.0,-1.4210854715202004e-14 400.0,-1.4210854715202004e-14 350.0,86.60254037844385 400.0,173.2050807568877 500.0,173.2050807568877" /><polygon class="" points="700.0,-2.842170943040401e-14 650.0,-86.60254037844389 550.0,-86.60254037844389 500.0,-2.842170943040401e-14 550.0,86.60254037844383 650.0,86.60254037844383" /><polygon class="" points="850.0,86.60254037844385 800.0,-1.4210854715202004e-14 700.0,-1.4210854715202004e-14 650.0,86.60254037844385 700.0,173.2050807568877 800.0,173.2050807568877" /><polygon class="" points="1000.0,-2.842170943040401e-14 950.0,-86.60254037844389 850.0,-86.60254037844389 800.0,-2.842170943040401e-14 850.0,86.60254037844383 950.0,86.60254037844383" /><polygon class="" points="1150.0,86.60254037844385 1100.0,-1.4210854715202004e-14 1000.0,-1.4210854715202004e-14 950.0,86.60254037844385 1000.0,173.2050807568877 1100.0,173.2050807568877" /><polygon class="" points="250.0,259.80762113533154 200.0,173.2050807568877 100.0,173.2050807568877 50.0,259.80762113533154 100.0,346.4101615137754 200.0,346.4101615137754" /><polygon class="" points="400.0,173.2050807568877 350.0,86.60254037844383 250.0,86.60254037844383 200.0,173.2050807568877 250.0,259.80762113533154 350.0,259.80762113533154" /><polygon class="plains" points="550.0,259.80762113533154 500.0,173.2050807568877 400.0,173.2050807568877 350.0,259.80762113533154 400.0,346.4101615137754 500.0,346.4101615137754" /><polygon class="light_wood" points="700.0,173.2050807568877 650.0,86.60254037844383 550.0,86.60254037844383 500.0,173.2050807568877 550.0,259.80762113533154 650.0,259.80762113533154" /><polygon class="unknown" points="850.0,259.80762113533154 800.0,173.2050807568877 700.0,173.2050807568877 650.0,259.80762113533154 700.0,346.4101615137754 800.0,346.4101615137754" /><polygon class="" points="1000.0,173.2050807568877 950.0,86.60254037844383 850.0,86.60254037844383 800.0,173.2050807568877 850.0,259.80762113533154 950.0,259.80762113533154" /><polygon class="" points="1150.0,259.80762113533154 1100.0,173.2050807568877 1000.0,173.2050807568877 950.0,259.80762113533154 1000.0,346.4101615137754 1100.0,346.4101615137754" /><polygon class="" points="250.0,433.01270189221935 200.0,346.4101615137755 100.0,346.4101615137755 50.0,433.01270189221935 100.0,519.6152422706632 200.0,519.6152422706632" /><polygon class="sea" points="400.0,346.41016151377545 350.0,259.8076211353316 250.0,259.8076211353316 200.0,346.41016151377545 250.0,433.0127018922193 350.0,433.0127018922193" /><polygon class="mountains" points="550.0,433.01270189221935 500.0,346.4101615137755 400.0,346.4101615137755 350.0,433.01270189221935 400.0,519.6152422706632 500.0,519.6152422706632" /><polygon class="grassland" points="700.0,346.41016151377545 650.0,259.8076211353316 550.0,259.8076211353316 500.0,346.41016151377545 550.0,433.0127018922193 650.0,433.0127018922193" /><polygon class="marsh" points="850.0,433.01270189221935 800.0,346.4101615137755 700.0,346.4101615137755 650.0,433.01270189221935 700.0,519.6152422706632 800.0,519.6152422706632" /><polygon class="lake" points="1000.0,346.41016151377545 950.0,259.8076211353316 850.0,259.8076211353316 800.0,346.41016151377545 850.0,433.0127018922193 950.0,433.0127018922193" /><polygon class="" points="1150.0,433.01270189221935 1100.0,346.4101615137755 1000.0,346.4101615137755 950.0,433.01270189221935 1000.0,519.6152422706632 1100.0,519.6152422706632" /><polygon class="" points="250.0,606.217782649107 200.0,519.6152422706631 100.0,519.6152422706631 50.0,606.217782649107 100.0,692.8203230275509 200.0,692.8203230275509" /><polygon class="heavy_woods" points="400.0,519.6152422706632 350.0,433.01270189221935 250.0,433.01270189221935 200.0,519.6152422706632 250.0,606.2177826491071 350.0,606.2177826491071" /><polygon class="" points="550.0,606.217782649107 500.0,519.6152422706631 400.0,519.6152422706631 350.0,606.217782649107 400.0,692.8203230275509 500.0,692.8203230275509" /><polygon class="" points="700.0,519.6152422706632 650.0,433.01270189221935 550.0,433.01270189221935 500.0,519.6152422706632 550.0,606.2177826491071 650.0,606.2177826491071" /><polygon class="" points="850.0,606.217782649107 800.0,519.6152422706631 700.0,519.6152422706631 650.0,606.217782649107 700.0,692.8203230275509 800.0,692.8203230275509" /><polygon class="hills" points="1000.0,519.6152422706632 950.0,433.01270189221935 850.0,433.01270189221935 800.0,519.6152422706632 850.0,606.2177826491071 950.0,606.2177826491071" /><polygon class="" points="1150.0,606.217782649107 1100.0,519.6152422706631 1000.0,519.6152422706631 950.0,606.217782649107 1000.0,692.8203230275509 1100.0,692.8203230275509" /><polygon class="" points="250.0,779.4228634059948 200.0,692.8203230275509 100.0,692.8203230275509 50.0,779.4228634059948 100.0,866.0254037844387 200.0,866.0254037844387" /><polygon class="" points="400.0,692.8203230275508 350.0,606.2177826491069 250.0,606.2177826491069 200.0,692.8203230275508 250.0,779.4228634059947 350.0,779.4228634059947" /><polygon class="grassland" points="550.0,779.4228634059948 500.0,692.8203230275509 400.0,692.8203230275509 350.0,779.4228634059948 400.0,866.0254037844387 500.0,866.0254037844387" /><polygon class="sea" points="390.0,779.4228634059948 420.0,727.4613391789285 400.0,692.8203230275509 350.0,779.4228634059948" /><polygon class="sea" points="480.0,727.4613391789285 420.0,727.4613391789285 400.0,692.8203230275509 500.0,692.8203230275509" /><path d="M450.0 779.4228634059948 Q 450.0 779.4228634059948 525.0 736.1215932167729" class="path roads" /><use xlink:href="#fortin" transform="translate(410.63520891888913 740.0580723248839) scale(0.15376871516058924 0.15376871516058924)" /><polygon class="grassland" points="700.0,692.8203230275508 650.0,606.2177826491069 550.0,606.2177826491069 500.0,692.8203230275508 550.0,779.4228634059947 650.0,779.4228634059947" /><polygon class="sea" points="660.0,692.8203230275508 630.0,640.8587988004845 650.0,606.2177826491069 700.0,692.8203230275508" /><path d="M525.0 736.1215932167727 Q 600.0 692.8203230275508 675.0 736.1215932167727" class="path roads" /><path d="M600.0 606.2177826491069 Q 600.0 692.8203230275508 600.0 779.4228634059947" class="path rivers" /><path d="M525.0 649.5190528383289 Q 600.0 692.8203230275508 600.0 779.4228634059947" class="path rivers" /><path d="M675.0 649.5190528383289 Q 600.0 692.8203230275508 600.0 779.4228634059947" class="path rivers" /><polygon class="grassland" points="850.0,779.4228634059948 800.0,692.8203230275509 700.0,692.8203230275509 650.0,779.4228634059948 700.0,866.0254037844387 800.0,866.0254037844387" /><polygon class="sea" points="810.0,779.4228634059948 780.0,727.4613391789285 800.0,692.8203230275509 850.0,779.4228634059948" /><polygon class="sea" points="780.0,727.4613391789285 720.0,727.4613391789285 700.0,692.8203230275509 800.0,692.8203230275509" /><polygon class="sea" points="810.0,779.4228634059948 780.0,831.3843876330611 800.0,866.0254037844387 850.0,779.4228634059948" /><path d="M675.0 736.1215932167729 Q 750.0 779.4228634059948 750.0 866.0254037844387" class="path roads" /><path d="M675.0 822.7241335952167 Q 750.0 779.4228634059948 750.0 866.0254037844387" class="path roads" /><polygon class="" points="1000.0,692.8203230275508 950.0,606.2177826491069 850.0,606.2177826491069 800.0,692.8203230275508 850.0,779.4228634059947 950.0,779.4228634059947" /><polygon class="" points="1150.0,779.4228634059948 1100.0,692.8203230275509 1000.0,692.8203230275509 950.0,779.4228634059948 1000.0,866.0254037844387 1100.0,866.0254037844387" /><polygon class="" points="250.0,952.6279441628824 200.0,866.0254037844385 100.0,866.0254037844385 50.0,952.6279441628824 100.0,1039.2304845413262 200.0,1039.2304845413262" /><polygon class="" points="400.0,866.0254037844386 350.0,779.4228634059947 250.0,779.4228634059947 200.0,866.0254037844386 250.0,952.6279441628825 350.0,952.6279441628825" /><polygon class="marsh" points="550.0,952.6279441628824 500.0,866.0254037844385 400.0,866.0254037844385 350.0,952.6279441628824 400.0,1039.2304845413262 500.0,1039.2304845413262" /><polygon class="sea" points="390.0,952.6279441628824 420.0,1004.5894683899487 400.0,1039.2304845413262 350.0,952.6279441628824" /><polygon class="sea" points="510.0,952.6279441628824 480.0,900.6664199358161 420.0,900.6664199358161 390.0,952.6279441628824 420.0,1004.5894683899487 480.0,1004.5894683899487" /><path d="M450.0 952.6279441628824 Q 450.0 952.6279441628824 525.0 909.3266739736605" class="path rivers" /><polygon class="grassland" points="700.0,866.0254037844386 650.0,779.4228634059947 550.0,779.4228634059947 500.0,866.0254037844386 550.0,952.6279441628825 650.0,952.6279441628825" /><polygon class="lake" points="660.0,866.0254037844386 630.0,814.0638795573723 570.0,814.0638795573723 540.0,866.0254037844386 570.0,917.9869280115049 630.0,917.9869280115049" /><polygon class="marsh" points="540.0,866.0254037844386 570.0,917.9869280115049 550.0,952.6279441628825 500.0,866.0254037844386" /><path d="M600.0 779.4228634059947 Q 600.0 866.0254037844386 525.0 909.3266739736605" class="path rivers" /><polygon class="grassland" points="850.0,952.6279441628824 800.0,866.0254037844385 700.0,866.0254037844385 650.0,952.6279441628824 700.0,1039.2304845413262 800.0,1039.2304845413262" /><polygon class="sea" points="690.0,952.6279441628824 720.0,1004.5894683899487 700.0,1039.2304845413262 650.0,952.6279441628824" /><path d="M750.0 866.0254037844385 Q 750.0 952.6279441628824 750.0 952.6279441628824" class="path roads" /><use xlink:href="#ruines" transform="translate(710.6352089188891 913.2631530817715) scale(0.15376871516058924 0.15376871516058924)" /><polygon class="" points="1000.0,866.0254037844386 950.0,779.4228634059947 850.0,779.4228634059947 800.0,866.0254037844386 850.0,952.6279441628825 950.0,952.6279441628825" /><polygon class="" points="1150.0,952.6279441628824 1100.0,866.0254037844385 1000.0,866.0254037844385 950.0,952.6279441628824 1000.0,1039.2304845413262 1100.0,1039.2304845413262" /><polygon class="" points="250.0,1125.83302491977 200.0,1039.2304845413262 100.0,1039.2304845413262 50.0,1125.83302491977 100.0,1212.4355652982138 200.0,1212.4355652982138" /><polygon class="" points="400.0,1039.2304845413262 350.0,952.6279441628823 250.0,952.6279441628823 200.0,1039.2304845413262 250.0,1125.83302491977 350.0,1125.83302491977" /><polygon class="" points="550.0,1125.83302491977 500.0,1039.2304845413262 400.0,1039.2304845413262 350.0,1125.83302491977 400.0,1212.4355652982138 500.0,1212.4355652982138" /><polygon class="grassland" points="700.0,1039.2304845413262 650.0,952.6279441628823 550.0,952.6279441628823 500.0,1039.2304845413262 550.0,1125.83302491977 650.0,1125.83302491977" /><polygon class="sea" points="540.0,1039.2304845413262 570.0,1091.1920087683925 550.0,1125.83302491977 500.0,1039.2304845413262" /><polygon class="sea" points="630.0,1091.1920087683925 570.0,1091.1920087683925 550.0,1125.83302491977 650.0,1125.83302491977" /><polygon class="sea" points="660.0,1039.2304845413262 630.0,1091.1920087683925 650.0,1125.83302491977 700.0,1039.2304845413262" /><polygon class="sea" points="660.0,1039.2304845413262 630.0,987.2689603142599 570.0,987.2689603142599 540.0,1039.2304845413262 570.0,1091.1920087683925 630.0,1091.1920087683925" /><polygon class="sea" points="660.0,1039.2304845413262 630.0,987.2689603142599 650.0,952.6279441628823 700.0,1039.2304845413262" /><text transform="translate(600.0 1039.2304845413262)" text-anchor="middle" class="alt_text">Baie</text><polygon class="" points="850.0,1125.83302491977 800.0,1039.2304845413262 700.0,1039.2304845413262 650.0,1125.83302491977 700.0,1212.4355652982138 800.0,1212.4355652982138" /><polygon class="" points="1000.0,1039.2304845413262 950.0,952.6279441628823 850.0,952.6279441628823 800.0,1039.2304845413262 850.0,1125.83302491977 950.0,1125.83302491977" /><polygon class="" points="1150.0,1125.83302491977 1100.0,1039.2304845413262 1000.0,1039.2304845413262 950.0,1125.83302491977 1000.0,1212.4355652982138 1100.0,1212.4355652982138" /><polygon class="" points="250.0,1299.0381056766578 200.0,1212.435565298214 100.0,1212.435565298214 50.0,1299.0381056766578 100.0,1385.6406460551016 200.0,1385.6406460551016" /><polygon class="" points="400.0,1212.435565298214 350.0,1125.8330249197702 250.0,1125.8330249197702 200.0,1212.435565298214 250.0,1299.0381056766578 350.0,1299.0381056766578" /><polygon class="" points="550.0,1299.0381056766578 500.0,1212.435565298214 400.0,1212.435565298214 350.0,1299.0381056766578 400.0,1385.6406460551016 500.0,1385.6406460551016" /><polygon class="" points="700.0,1212.435565298214 650.0,1125.8330249197702 550.0,1125.8330249197702 500.0,1212.435565298214 550.0,1299.0381056766578 650.0,1299.0381056766578" /><polygon class="" points="850.0,1299.0381056766578 800.0,1212.435565298214 700.0,1212.435565298214 650.0,1299.0381056766578 700.0,1385.6406460551016 800.0,1385.6406460551016" /><polygon class="" points="1000.0,1212.435565298214 950.0,1125.8330249197702 850.0,1125.8330249197702 800.0,1212.435565298214 850.0,1299.0381056766578 950.0,1299.0381056766578" /><polygon class="" points="1150.0,1299.0381056766578 1100.0,1212.435565298214 1000.0,1212.435565298214 950.0,1299.0381056766578 1000.0,1385.6406460551016 1100.0,1385.6406460551016" /><text transform="translate(100.0 36.60254037844385)" class="number">1.3</text><polygon class="grid" points="250.0,86.60254037844385 200.0,-1.4210854715202004e-14 100.0,-1.4210854715202004e-14 50.0,86.60254037844385 100.0,173.2050807568877 200.0,173.2050807568877" /><text transform="translate(250.0 -50.00000000000003)" class="number">1.4</text><polygon class="grid" points="400.0,-2.842170943040401e-14 350.0,-86.60254037844389 250.0,-86.60254037844389 200.0,-2.842170943040401e-14 250.0,86.60254037844383 350.0,86.60254037844383" /><text transform="translate(400.0 36.60254037844385)" class="number">1.5</text><polygon class="grid" points="550.0,86.60254037844385 500.0,-1.4210854715202004e-14 400.0,-1.4210854715202004e-14 350.0,86.60254037844385 400.0,173.2050807568877 500.0,173.2050807568877" /><text transform="translate(550.0 -50.00000000000003)" class="number">1.6</text><polygon class="grid" points="700.0,-2.842170943040401e-14 650.0,-86.60254037844389 550.0,-86.60254037844389 500.0,-2.842170943040401e-14 550.0,86.60254037844383 650.0,86.60254037844383" /><text transform="translate(700.0 36.60254037844385)" class="number">1.7</text><polygon class="grid" points="850.0,86.60254037844385 800.0,-1.4210854715202004e-14 700.0,-1.4210854715202004e-14 650.0,86.60254037844385 700.0,173.2050807568877 800.0,173.2050807568877" /><text transform="translate(850.0 -50.00000000000003)" class="number">1.8</text><polygon class="grid" points="1000.0,-2.842170943040401e-14 950.0,-86.60254037844389 850.0,-86.60254037844389 800.0,-2.842170943040401e-14 850.0,86.60254037844383 950.0,86.60254037844383" /><text transform="translate(1000.0 36.60254037844385)" class="number">1.9</text><polygon class="grid" points="1150.0,86.60254037844385 1100.0,-1.4210854715202004e-14 1000.0,-1.4210854715202004e-14 950.0,86.60254037844385 1000.0,173.2050807568877 1100.0,173.2050807568877" /><text transform="translate(100.0 209.80762113533154)" class="number">2.3</text><polygon class="grid" points="250.0,259.80762113533154 200.0,173.2050807568877 100.0,173.2050807568877 50.0,259.80762113533154 100.0,346.4101615137754 200.0,346.4101615137754" /><text transform="translate(250.0 123.2050807568877)" class="number">2.4</text><polygon class="grid" points="400.0,173.2050807568877 350.0,86.60254037844383 250.0,86.60254037844383 200.0,173.2050807568877 250.0,259.80762113533154 350.0,259.80762113533154" /><text transform="translate(400.0 209.80762113533154)" class="number">2.5</text><polygon class="grid" points="550.0,259.80762113533154 500.0,173.2050807568877 400.0,173.2050807568877 350.0,259.80762113533154 400.0,346.4101615137754 500.0,346.4101615137754" /><text transform="translate(550.0 123.2050807568877)" class="number">2.6</text><polygon class="grid" points="700.0,173.2050807568877 650.0,86.60254037844383 550.0,86.60254037844383 500.0,173.2050807568877 550.0,259.80762113533154 650.0,259.80762113533154" /><text transform="translate(700.0 209.80762113533154)" class="number">2.7</text><polygon class="grid" points="850.0,259.80762113533154 800.0,173.2050807568877 700.0,173.2050807568877 650.0,259.80762113533154 700.0,346.4101615137754 800.0,346.4101615137754" /><text transform="translate(850.0 123.2050807568877)" class="number">2.8</text><polygon class="grid" points="1000.0,173.2050807568877 950.0,86.60254037844383 850.0,86.60254037844383 800.0,173.2050807568877 850.0,259.80762113533154 950.0,259.80762113533154" /><text transform="translate(1000.0 209.80762113533154)" class="number">2.9</text><polygon class="grid" points="1150.0,259.80762113533154 1100.0,173.2050807568877 1000.0,173.2050807568877 950.0,259.80762113533154 1000.0,346.4101615137754 1100.0,346.4101615137754" /><text transform="translate(100.0 383.01270189221935)" class="number">3.3</text><polygon class="grid" points="250.0,433.01270189221935 200.0,346.4101615137755 100.0,346.4101615137755 50.0,433.01270189221935 100.0,519.6152422706632 200.0,519.6152422706632" /><text transform="translate(250.0 296.41016151377545)" class="number">3.4</text><polygon class="grid" points="400.0,346.41016151377545 350.0,259.8076211353316 250.0,259.8076211353316 200.0,346.41016151377545 250.0,433.0127018922193 350.0,433.0127018922193" /><text transform="translate(400.0 383.01270189221935)" class="number">3.5</text><polygon class="grid" points="550.0,433.01270189221935 500.0,346.4101615137755 400.0,346.4101615137755 350.0,433.01270189221935 400.0,519.6152422706632 500.0,519.6152422706632" /><text transform="translate(550.0 296.41016151377545)" class="number">3.6</text><polygon class="grid" points="700.0,346.41016151377545 650.0,259.8076211353316 550.0,259.8076211353316 500.0,346.41016151377545 550.0,433.0127018922193 650.0,433.0127018922193" /><text transform="translate(700.0 383.01270189221935)" class="number">3.7</text><polygon class="grid" points="850.0,433.01270189221935 800.0,346.4101615137755 700.0,346.4101615137755 650.0,433.01270189221935 700.0,519.6152422706632 800.0,519.6152422706632" /><text transform="translate(850.0 296.41016151377545)" class="number">3.8</text><polygon class="grid" points="1000.0,346.41016151377545 950.0,259.8076211353316 850.0,259.8076211353316 800.0,346.41016151377545 850.0,433.0127018922193 950.0,433.0127018922193" /><text transform="translate(1000.0 383.01270189221935)" class="number">3.9</text><polygon class="grid" points="1150.0,433.01270189221935 1100.0,346.4101615137755 1000.0,346.4101615137755 950.0,433.01270189221935 1000.0,519.6152422706632 1100.0,519.6152422706632" /><text transform="translate(100.0 556.217782649107)" class="number">4.3</text><polygon class="grid" points="250.0,606.217782649107 200.0,519.6152422706631 100.0,519.6152422706631 50.0,606.217782649107 100.0,692.8203230275509 200.0,692.8203230275509" /><text transform="translate(250.0 469.6152422706632)" class="number">4.4</text><polygon class="grid" points="400.0,519.6152422706632 350.0,433.01270189221935 250.0,433.01270189221935 200.0,519.6152422706632 250.0,606.2177826491071 350.0,606.2177826491071" /><text transform="translate(400.0 556.217782649107)" class="number">4.5</text><polygon class="grid" points="550.0,606.217782649107 500.0,519.6152422706631 400.0,519.6152422706631 350.0,606.217782649107 400.0,692.8203230275509 500.0,692.8203230275509" /><text transform="translate(550.0 469.6152422706632)" class="number">4.6</text><polygon class="grid" points="700.0,519.6152422706632 650.0,433.01270189221935 550.0,433.01270189221935 500.0,519.6152422706632 550.0,606.2177826491071 650.0,606.2177826491071" /><text transform="translate(700.0 556.217782649107)" class="number">4.7</text><polygon class="grid" points="850.0,606.217782649107 800.0,519.6152422706631 700.0,519.6152422706631 650.0,606.217782649107 700.0,692.8203230275509 800.0,692.8203230275509" /><text transform="translate(850.0 469.6152422706632)" class="number">4.8</text><polygon class="grid" points="1000.0,519.6152422706632 950.0,433.01270189221935 850.0,433.01270189221935 800.0,519.6152422706632 850.0,606.2177826491071 950.0,606.2177826491071" /><text transform="translate(1000.0 556.217782649107)" class="number">4.9</text><polygon class="grid" points="1150.0,606.217782649107 1100.0,519.6152422706631 1000.0,519.6152422706631 950.0,606.217782649107 1000.0,692.8203230275509 1100.0,692.8203230275509" /><text transform="translate(100.0 729.4228634059948)" class="number">5.3</text><polygon class="grid" points="250.0,779.4228634059948 200.0,692.8203230275509 100.0,692.8203230275509 50.0,779.4228634059948 100.0,866.0254037844387 200.0,866.0254037844387" /><text transform="translate(250.0 642.8203230275508)" class="number">5.4</text><polygon class="grid" points="400.0,692.8203230275508 350.0,606.2177826491069 250.0,606.2177826491069 200.0,692.8203230275508 250.0,779.4228634059947 350.0,779.4228634059947" /><text transform="translate(400.0 729.4228634059948)" class="number">5.5</text><polygon class="grid" points="550.0,779.4228634059948 500.0,692.8203230275509 400.0,692.8203230275509 350.0,779.4228634059948 400.0,866.0254037844387 500.0,866.0254037844387" /><text transform="translate(550.0 642.8203230275508)" class="number">5.6</text><polygon class="grid" points="700.0,692.8203230275508 650.0,606.2177826491069 550.0,606.2177826491069 500.0,692.8203230275508 550.0,779.4228634059947 650.0,779.4228634059947" /><text transform="translate(700.0 729.4228634059948)" class="number">5.7</text><polygon class="grid" points="850.0,779.4228634059948 800.0,692.8203230275509 700.0,692.8203230275509 650.0,779.4228634059948 700.0,866.0254037844387 800.0,866.0254037844387" /><text transform="translate(850.0 642.8203230275508)" class="number">5.8</text><polygon class="grid" points="1000.0,692.8203230275508 950.0,606.2177826491069 850.0,606.2177826491069 800.0,692.8203230275508 850.0,779.4228634059947 950.0,779.4228634059947" /><text transform="translate(1000.0 729.4228634059948)" class="number">5.9</text><polygon class="grid" points="1150.0,779.4228634059948 1100.0,692.8203230275509 1000.0,692.8203230275509 950.0,779.4228634059948 1000.0,866.0254037844387 1100.0,866.0254037844387" /><text transform="translate(100.0 902.6279441628824)" class="number">6.3</text><polygon class="grid" points="250.0,952.6279441628824 200.0,866.0254037844385 100.0,866.0254037844385 50.0,952.6279441628824 100.0,1039.2304845413262 200.0,1039.2304845413262" /><text transform="translate(250.0 816.0254037844386)" class="number">6.4</text><polygon class="grid" points="400.0,866.0254037844386 350.0,779.4228634059947 250.0,779.4228634059947 200.0,866.0254037844386 250.0,952.6279441628825 350.0,952.6279441628825" /><text transform="translate(400.0 902.6279441628824)" class="number">6.5</text><polygon class="grid" points="550.0,952.6279441628824 500.0,866.0254037844385 400.0,866.0254037844385 350.0,952.6279441628824 400.0,1039.2304845413262 500.0,1039.2304845413262" /><text transform="translate(550.0 816.0254037844386)" class="number">6.6</text><polygon class="grid" points="700.0,866.0254037844386 650.0,779.4228634059947 550.0,779.4228634059947 500.0,866.0254037844386 550.0,952.6279441628825 650.0,952.6279441628825" /><text transform="translate(700.0 902.6279441628824)" class="number">6.7</text><polygon class="grid" points="850.0,952.6279441628824 800.0,866.0254037844385 700.0,866.0254037844385 650.0,952.6279441628824 700.0,1039.2304845413262 800.0,1039.2304845413262" /><text transform="translate(850.0 816.0254037844386)" class="number">6.8</text><polygon class="grid" points="1000.0,866.0254037844386 950.0,779.4228634059947 850.0,779.4228634059947 800.0,866.0254037844386 850.0,952.6279441628825 950.0,952.6279441628825" /><text transform="translate(1000.0 902.6279441628824)" class="number">6.9</text><polygon class="grid" points="1150.0,952.6279441628824 1100.0,866.0254037844385 1000.0,866.0254037844385 950.0,952.6279441628824 1000.0,1039.2304845413262 1100.0,1039.2304845413262" /><text transform="translate(100.0 1075.83302491977)" class="number">7.3</text><polygon class="grid" points="250.0,1125.83302491977 200.0,1039.2304845413262 100.0,1039.2304845413262 50.0,1125.83302491977 100.0,1212.4355652982138 200.0,1212.4355652982138" /><text transform="translate(250.0 989.2304845413262)" class="number">7.4</text><polygon class="grid" points="400.0,1039.2304845413262 350.0,952.6279441628823 250.0,952.6279441628823 200.0,1039.2304845413262 250.0,1125.83302491977 350.0,1125.83302491977" /><text transform="translate(400.0 1075.83302491977)" class="number">7.5</text><polygon class="grid" points="550.0,1125.83302491977 500.0,1039.2304845413262 400.0,1039.2304845413262 350.0,1125.83302491977 400.0,1212.4355652982138 500.0,1212.4355652982138" /><text transform="translate(550.0 989.2304845413262)" class="number">7.6</text><polygon class="grid" points="700.0,1039.2304845413262 650.0,952.6279441628823 550.0,952.6279441628823 500.0,1039.2304845413262 550.0,1125.83302491977 650.0,1125.83302491977" /><text transform="translate(700.0 1075.83302491977)" class="number">7.7</text><polygon class="grid" points="850.0,1125.83302491977 800.0,1039.2304845413262 700.0,1039.2304845413262 650.0,1125.83302491977 700.0,1212.4355652982138 800.0,1212.4355652982138" /><text transform="translate(850.0 989.2304845413262)" class="number">7.8</text><polygon class="grid" points="1000.0,1039.2304845413262 950.0,952.6279441628823 850.0,952.6279441628823 800.0,1039.2304845413262 850.0,1125.83302491977 950.0,1125.83302491977" /><text transform="translate(1000.0 1075.83302491977)" class="number">7.9</text><polygon class="grid" points="1150.0,1125.83302491977 1100.0,1039.2304845413262 1000.0,1039.2304845413262 950.0,1125.83302491977 1000.0,1212.4355652982138 1100.0,1212.4355652982138" /><text transform="translate(100.0 1249.0381056766578)" class="number">8.3</text><polygon class="grid" points="250.0,1299.0381056766578 200.0,1212.435565298214 100.0,1212.435565298214 50.0,1299.0381056766578 100.0,1385.6406460551016 200.0,1385.6406460551016" /><text transform="translate(250.0 1162.435565298214)" class="number">8.4</text><polygon class="grid" points="400.0,1212.435565298214 350.0,1125.8330249197702 250.0,1125.8330249197702 200.0,1212.435565298214 250.0,1299.0381056766578 350.0,1299.0381056766578" /><text transform="translate(400.0 1249.0381056766578)" class="number">8.5</text><polygon class="grid" points="550.0,1299.0381056766578 500.0,1212.435565298214 400.0,1212.435565298214 350.0,1299.0381056766578 400.0,1385.6406460551016 500.0,1385.6406460551016" /><text transform="translate(550.0 1162.435565298214)" class="number">8.6</text><polygon class="grid" points="700.0,1212.435565298214 650.0,1125.8330249197702 550.0,1125.8330249197702 500.0,1212.435565298214 550.0,1299.0381056766578 650.0,1299.0381056766578" /><text transform="translate(700.0 1249.0381056766578)" class="number">8.7</text><polygon class="grid" points="850.0,1299.0381056766578 800.0,1212.435565298214 700.0,1212.435565298214 650.0,1299.0381056766578 700.0,1385.6406460551016 800.0,1385.6406460551016" /><text transform="translate(850.0 1162.435565298214)" class="number">8.8</text><polygon class="grid" points="1000.0,1212.435565298214 950.0,1125.8330249197702 850.0,1125.8330249197702 800.0,1212.435565298214 850.0,1299.0381056766578 950.0,1299.0381056766578" /><text transform="translate(1000.0 1249.0381056766578)" class="number">8.9</text><polygon class="grid" points="1150.0,1299.0381056766578 1100.0,1212.435565298214 1000.0,1212.435565298214 950.0,1299.0381056766578 1000.0,1385.6406460551016 1100.0,1385.6406460551016" />
</svg>