<svg viewBox="343.3333333333333333333333333 79.93587371177719800970565041 1113.333333333333333333333333 1398.973979388435168155290406" data-name="Layer 1" id="Layer_1" xmlns="http://www.w3.org/2000/svg"
    xmlns:xlink="http://www.w3.org/1999/xlink">
    <style type="text/css">
        polygon {
            fill: none;
            stroke-width: 6.666666666666666666666666667;
        }

        text {
            font-size: 250.0%;
            font-family: PTSans-NarrowBold, PT Sans Narrow;
            font-weight: 600;
            paint-order: stroke;
            stroke: black;
            fill: white;
            stroke-width: 4.444444444444444444444444445;
        }

        .path {
            fill: transparent;
            stroke-width: 8.000000000000000000000000000;
        }


        .roads {
            stroke: saddlebrown;
        }

        .rivers {
            stroke: blue;
        }

        .grid {
            stroke: #8E8E8E;
            stroke-miterlimit: 10;
        }

        .number {}

        .alt_text {}

        .icon {
            paint-order: stroke;
            stroke: black;
            fill: darkslategrey;
            stroke-width: 2;
        }


        .plains {
            fill: lightgreen;
        }

        .light_wood {
            fill: green;
        }

        .heavy_woods {
            fill: darkgreen;
        }

        .grassland {
            fill: chartreuse;
        }

        .mountains {
            fill: maroon;
        }

        .hills {
            fill: bisque;
        }

        .sea {
            fill: blue;
        }


        .lake {
            fill: lightskyblue;
        }


        .marsh {
            fill: yellowgreen;
        }


        .desert {
            fill: lightyellow;
        }

        .unknown {
            fill: gray;
        }

        .zone {
            stroke-dasharray: 15;
            stroke-linejoin: round;
            stroke-linecap: round;
        }

        .zone.secured {
            stroke: green;
        }

        
    </style>
    <defs>
        <svg xmlns="http://www.w3.org/2000/svg" id="ruines" class="icon ruines"><!--! Font Awesome Free 6.1.1 by @fontawesome - https://fontawesome.com License - https://fontawesome.com/license/free (Icons: CC BY 4.0, Fonts: SIL OFL 1.1, Code: MIT License) Copyright 2022 Fonticons, Inc. --><path d="M336.6 156.5C327.3 148.1 322.6 136.5 327.1 125.3L357.6 49.18C362.7 36.27 377.8 30.36 389.7 37.63C410.9 50.63 430 66.62 446.5 85.02C455.7 95.21 452.9 110.9 441.5 118.5L373.9 163.5C363.6 170.4 349.8 168.1 340.5 159.9C339.2 158.7 337.9 157.6 336.6 156.5H336.6zM297.7 112.6C293.2 123.1 280.9 129.8 268.7 128.6C264.6 128.2 260.3 128 256 128C251.7 128 247.4 128.2 243.3 128.6C231.1 129.8 218.8 123.1 214.3 112.6L183.1 36.82C178.8 24.02 185.5 9.433 198.1 6.374C217.3 2.203 236.4 0 256 0C275.6 0 294.7 2.203 313 6.374C326.5 9.433 333.2 24.02 328 36.82L297.7 112.6zM122.3 37.63C134.2 30.36 149.3 36.27 154.4 49.18L184.9 125.3C189.4 136.5 184.7 148.1 175.4 156.5C174.1 157.6 172.8 158.7 171.5 159.9C162.2 168.1 148.4 170.4 138.1 163.5L70.52 118.5C59.13 110.9 56.32 95.21 65.46 85.02C81.99 66.62 101.1 50.63 122.3 37.63H122.3zM379.5 222.1C376.3 210.7 379.7 198.1 389.5 191.6L458.1 145.8C469.7 138.1 485.6 141.9 491.2 154.7C501.6 178.8 508.4 204.8 510.9 232C512.1 245.2 501.3 255.1 488 255.1H408C394.7 255.1 384.2 245.2 381.8 232.1C381.1 228.7 380.4 225.4 379.5 222.1V222.1zM122.5 191.6C132.3 198.1 135.7 210.7 132.5 222.1C131.6 225.4 130.9 228.7 130.2 232.1C127.8 245.2 117.3 256 104 256H24C10.75 256-.1184 245.2 1.107 232C3.636 204.8 10.43 178.8 20.82 154.7C26.36 141.9 42.26 138.1 53.91 145.8L122.5 191.6zM104 288C117.3 288 128 298.7 128 312V360C128 373.3 117.3 384 104 384H24C10.75 384 0 373.3 0 360V312C0 298.7 10.75 288 24 288H104zM488 288C501.3 288 512 298.7 512 312V360C512 373.3 501.3 384 488 384H408C394.7 384 384 373.3 384 360V312C384 298.7 394.7 288 408 288H488zM104 416C117.3 416 128 426.7 128 440V488C128 501.3 117.3 512 104 512H24C10.75 512 0 501.3 0 488V440C0 426.7 10.75 416 24 416H104zM488 416C501.3 416 512 426.7 512 440V488C512 501.3 501.3 512 488 512H408C394.7 512 384 501.3 384 488V440C384 426.7 394.7 416 408 416H488zM272 464C272 472.8 264.8 480 256 480C247.2 480 240 472.8 240 464V192C240 183.2 247.2 176 256 176C264.8 176 272 183.2 272 192V464zM208 464C208 472.8 200.8 480 192 480C183.2 480 176 472.8 176 464V224C176 215.2 183.2 208 192 208C200.8 208 208 215.2 208 224V464zM336 464C336 472.8 328.8 480 320 480C311.2 480 304 472.8 304 464V224C304 215.2 311.2 208 320 208C328.8 208 336 215.2 336 224V464z"/></svg><svg xmlns="http://www.w3.org/2000/svg" id="fortin" class="icon fortin"><!--! Font Awesome Free 6.1.1 by @fontawesome - https://fontawesome.com License - https://fontawesome.com/license/free (Icons: CC BY 4.0, Fonts: SIL OFL 1.1, Code: MIT License) Copyright 2022 Fonticons, Inc. --><path d="M489.2 287.9h-27.4c-2.6 0-4.6 2-4.6 4.6v32h-36.6V146.2c0-2.6-2-4.6-4.6-4.6h-27.4c-2.6 0-4.6 2-4.6 4.6v32h-36.6v-32c0-2.6-2-4.6-4.6-4.6h-27.4c-2.6 0-4.6 2-4.6 4.6v32h-36.6v-32c0-6-8-4.6-11.7-4.6v-38c8.3-2 17.1-3.4 25.7-3.4 10.9 0 20.9 4.3 31.4 4.3 4.6 0 27.7-1.1 27.7-8v-60c0-2.6-2-4.6-4.6-4.6-5.1 0-15.1 4.3-24 4.3-9.7 0-20.9-4.3-32.6-4.3-8 0-16 1.1-23.7 2.9v-4.9c5.4-2.6 9.1-8.3 9.1-14.3 0-20.7-31.4-20.8-31.4 0 0 6 3.7 11.7 9.1 14.3v111.7c-3.7 0-11.7-1.4-11.7 4.6v32h-36.6v-32c0-2.6-2-4.6-4.6-4.6h-27.4c-2.6 0-4.6 2-4.6 4.6v32H128v-32c0-2.6-2-4.6-4.6-4.6H96c-2.6 0-4.6 2-4.6 4.6v178.3H54.8v-32c0-2.6-2-4.6-4.6-4.6H22.8c-2.6 0-4.6 2-4.6 4.6V512h182.9v-96c0-72.6 109.7-72.6 109.7 0v96h182.9V292.5c.1-2.6-1.9-4.6-4.5-4.6zm-288.1-4.5c0 2.6-2 4.6-4.6 4.6h-27.4c-2.6 0-4.6-2-4.6-4.6v-64c0-2.6 2-4.6 4.6-4.6h27.4c2.6 0 4.6 2 4.6 4.6v64zm146.4 0c0 2.6-2 4.6-4.6 4.6h-27.4c-2.6 0-4.6-2-4.6-4.6v-64c0-2.6 2-4.6 4.6-4.6h27.4c2.6 0 4.6 2 4.6 4.6v64z"/></svg>
    </defs>
    <polygon class="marsh" points="1150.0,606.21778264910705273460621956 1100.0,519.61524227066318805823390248 1000.0,519.61524227066318805823390248 950.0,606.21778264910705273460621956 1000.0,692.82032302755091741097853664 1100.0,692.82032302755091741097853664" /><polygon class="" points="1150.0,779.42286340599478208735085372 1100.0,692.82032302755091741097853664 1000.0,692.82032302755091741097853664 950.0,779.42286340599478208735085372 1000.0,866.02540378443864676372317080 1100.0,866.02540378443864676372317080" /><polygon class="" points="1450.0,606.21778264910705273460621956 1400.0,519.61524227066318805823390248 1300.0,519.61524227066318805823390248 1250.0,606.21778264910705273460621956 1300.0,692.82032302755091741097853664 1400.0,692.82032302755091741097853664" /><polygon class="" points="1450.0,779.42286340599478208735085372 1400.0,692.82032302755091741097853664 1300.0,692.82032302755091741097853664 1250.0,779.42286340599478208735085372 1300.0,866.02540378443864676372317080 1400.0,866.02540378443864676372317080" /><polygon class="" points="550.0,433.01270189221932338186158540 500.0,346.41016151377545870548926832 400.0,346.41016151377545870548926832 350.0,433.01270189221932338186158540 400.0,519.61524227066318805823390248 500.0,519.61524227066318805823390248" /><polygon class="" points="550.0,606.21778264910705273460621956 500.0,519.61524227066318805823390248 400.0,519.61524227066318805823390248 350.0,606.21778264910705273460621956 400.0,692.82032302755091741097853664 500.0,692.82032302755091741097853664" /><polygon class="plains" points="850.0,433.01270189221932338186158540 800.0,346.41016151377545870548926832 700.0,346.41016151377545870548926832 650.0,433.01270189221932338186158540 700.0,519.61524227066318805823390248 800.0,519.61524227066318805823390248" /><polygon class="mountains" points="850.0,606.21778264910705273460621956 800.0,519.61524227066318805823390248 700.0,519.61524227066318805823390248 650.0,606.21778264910705273460621956 700.0,692.82032302755091741097853664 800.0,692.82032302755091741097853664" /><polygon class="marsh" points="850.0,1125.83302491977024079284012204 800.0,1039.23048454132637611646780496 700.0,1039.23048454132637611646780496 650.0,1125.83302491977024079284012204 700.0,1212.43556529821410546921243912 800.0,1212.43556529821410546921243912" /><polygon class="sea" points="690.0,1125.83302491977024079284012204 720.0,1177.794549146836559598663512288 700.0,1212.43556529821410546921243912 650.0,1125.83302491977024079284012204" /><polygon class="sea" points="810.0,1125.83302491977024079284012204 780.0,1073.871500692703921987016731792 720.0,1073.871500692703921987016731792 690.0,1125.83302491977024079284012204 720.0,1177.794549146836559598663512288 780.0,1177.794549146836559598663512288" /><path d="M750.0 1125.83302491977024079284012204 Q 750.0 1125.83302491977024079284012204 824.997799967732386809738426591280 1082.53175473054830845465396350" class="path rivers" /><polygon class="" points="850.0,1299.03810567665797014558475620 800.0,1212.43556529821410546921243912 700.0,1212.43556529821410546921243912 650.0,1299.03810567665797014558475620 700.0,1385.64064605510183482195707328 800.0,1385.64064605510183482195707328" /><polygon class="grassland" points="1150.0,1125.83302491977024079284012204 1100.0,1039.23048454132637611646780496 1000.0,1039.23048454132637611646780496 950.0,1125.83302491977024079284012204 1000.0,1212.43556529821410546921243912 1100.0,1212.43556529821410546921243912" /><polygon class="sea" points="990.0,1125.83302491977024079284012204 1020.0,1177.794549146836559598663512288 1000.0,1212.43556529821410546921243912 950.0,1125.83302491977024079284012204" /><path d="M1050.0 1039.23048454132637611646780496 Q 1050.0 1125.83302491977024079284012204 1050.0 1125.83302491977024079284012204" class="path roads" /><use xlink:href="#ruines" transform="translate(1010.635208918889155598281486 1086.468233838659396391121608) scale(0.1537687151605892359442129443 0.1537687151605892359442129443)" /><polygon class="" points="1150.0,1299.03810567665797014558475620 1100.0,1212.43556529821410546921243912 1000.0,1212.43556529821410546921243912 950.0,1299.03810567665797014558475620 1000.0,1385.64064605510183482195707328 1100.0,1385.64064605510183482195707328" /><polygon class="" points="1150.0,433.01270189221932338186158540 1100.0,346.41016151377545870548926832 1000.0,346.41016151377545870548926832 950.0,433.01270189221932338186158540 1000.0,519.61524227066318805823390248 1100.0,519.61524227066318805823390248" /><polygon class="" points="1450.0,433.01270189221932338186158540 1400.0,346.41016151377545870548926832 1300.0,346.41016151377545870548926832 1250.0,433.01270189221932338186158540 1300.0,519.61524227066318805823390248 1400.0,519.61524227066318805823390248" /><polygon class="" points="850.0,259.80762113533159402911695124 800.0,173.20508075688772935274463416 700.0,173.20508075688772935274463416 650.0,259.80762113533159402911695124 700.0,346.41016151377545870548926832 800.0,346.41016151377545870548926832" /><polygon class="" points="1150.0,259.80762113533159402911695124 1100.0,173.20508075688772935274463416 1000.0,173.20508075688772935274463416 950.0,259.80762113533159402911695124 1000.0,346.41016151377545870548926832 1100.0,346.41016151377545870548926832" /><polygon class="" points="850.0,779.42286340599478208735085372 800.0,692.82032302755091741097853664 700.0,692.82032302755091741097853664 650.0,779.42286340599478208735085372 700.0,866.02540378443864676372317080 800.0,866.02540378443864676372317080" /><polygon class="grassland" points="850.0,952.62794416288251144009548788 800.0,866.02540378443864676372317080 700.0,866.02540378443864676372317080 650.0,952.62794416288251144009548788 700.0,1039.23048454132637611646780496 800.0,1039.23048454132637611646780496" /><polygon class="sea" points="690.0,952.62794416288251144009548788 720.0,900.666419935816192634272097632 700.0,866.02540378443864676372317080 650.0,952.62794416288251144009548788" /><polygon class="sea" points="780.0,900.666419935816192634272097632 720.0,900.666419935816192634272097632 700.0,866.02540378443864676372317080 800.0,866.02540378443864676372317080" /><path d="M750.0 952.62794416288251144009548788 Q 750.0 952.62794416288251144009548788 824.997799967732386809738426591280 909.32667397366057910190932934" class="path roads" /><use xlink:href="#fortin" transform="translate(710.6352089188891555982814863 913.2631530817716670383769741) scale(0.1537687151605892359442129443 0.1537687151605892359442129443)" /><polygon class="grassland" points="1150.0,952.62794416288251144009548788 1100.0,866.02540378443864676372317080 1000.0,866.02540378443864676372317080 950.0,952.62794416288251144009548788 1000.0,1039.23048454132637611646780496 1100.0,1039.23048454132637611646780496" /><polygon class="sea" points="1110.0,952.62794416288251144009548788 1080.0,900.666419935816192634272097632 1100.0,866.02540378443864676372317080 1150.0,952.62794416288251144009548788" /><polygon class="sea" points="1080.0,900.666419935816192634272097632 1020.0,900.666419935816192634272097632 1000.0,866.02540378443864676372317080 1100.0,866.02540378443864676372317080" /><polygon class="sea" points="1110.0,952.62794416288251144009548788 1080.0,1004.589468389948830245918878128 1100.0,1039.23048454132637611646780496 1150.0,952.62794416288251144009548788" /><path d="M975.002200032267613190261573408720 909.32667397366057910190932934 Q 1050.0 952.62794416288251144009548788 1050.0 1039.23048454132637611646780496" class="path roads" /><path d="M975.002200032267613190261573408720 995.92921435210444377828164642 Q 1050.0 952.62794416288251144009548788 1050.0 1039.23048454132637611646780496" class="path roads" /><polygon class="" points="550.0,779.42286340599478208735085372 500.0,692.82032302755091741097853664 400.0,692.82032302755091741097853664 350.0,779.42286340599478208735085372 400.0,866.02540378443864676372317080 500.0,866.02540378443864676372317080" /><polygon class="grassland" points="1000.0,1212.43556529821410546921243912 950.0,1125.83302491977024079284012204 850.0,1125.83302491977024079284012204 800.0,1212.43556529821410546921243912 850.0,1299.03810567665797014558475620 950.0,1299.03810567665797014558475620" /><polygon class="sea" points="840.0,1212.43556529821410546921243912 870.0,1264.397089525280424275035829368 850.0,1299.03810567665797014558475620 800.0,1212.43556529821410546921243912" /><polygon class="sea" points="930.0,1264.397089525280424275035829368 870.0,1264.397089525280424275035829368 850.0,1299.03810567665797014558475620 950.0,1299.03810567665797014558475620" /><polygon class="sea" points="960.0,1212.43556529821410546921243912 930.0,1264.397089525280424275035829368 950.0,1299.03810567665797014558475620 1000.0,1212.43556529821410546921243912" /><polygon class="sea" points="960.0,1212.43556529821410546921243912 930.0,1160.474041071147786663389048872 870.0,1160.474041071147786663389048872 840.0,1212.43556529821410546921243912 870.0,1264.397089525280424275035829368 930.0,1264.397089525280424275035829368" /><polygon class="sea" points="960.0,1212.43556529821410546921243912 930.0,1160.474041071147786663389048872 950.0,1125.83302491977024079284012204 1000.0,1212.43556529821410546921243912" /><text transform="translate(900.0 1212.43556529821410546921243912)" text-anchor="middle" class="alt_text">Baie</text><polygon class="grassland" points="1000.0,1039.23048454132637611646780496 950.0,952.62794416288251144009548788 850.0,952.62794416288251144009548788 800.0,1039.23048454132637611646780496 850.0,1125.83302491977024079284012204 950.0,1125.83302491977024079284012204" /><polygon class="lake" points="960.0,1039.23048454132637611646780496 930.0,987.268960314260057310644414712 870.0,987.268960314260057310644414712 840.0,1039.23048454132637611646780496 870.0,1091.192008768392694922291195208 930.0,1091.192008768392694922291195208" /><polygon class="marsh" points="840.0,1039.23048454132637611646780496 870.0,1091.192008768392694922291195208 850.0,1125.83302491977024079284012204 800.0,1039.23048454132637611646780496" /><path d="M900.0 952.62794416288251144009548788 Q 900.0 1039.23048454132637611646780496 825.002200032267613190261573408720 1082.53175473054830845465396350" class="path rivers" /><polygon class="" points="1300.0,1212.43556529821410546921243912 1250.0,1125.83302491977024079284012204 1150.0,1125.83302491977024079284012204 1100.0,1212.43556529821410546921243912 1150.0,1299.03810567665797014558475620 1250.0,1299.03810567665797014558475620" /><polygon class="" points="1300.0,1039.23048454132637611646780496 1250.0,952.62794416288251144009548788 1150.0,952.62794416288251144009548788 1100.0,1039.23048454132637611646780496 1150.0,1125.83302491977024079284012204 1250.0,1125.83302491977024079284012204" /><polygon class="" points="700.0,1212.43556529821410546921243912 650.0,1125.83302491977024079284012204 550.0,1125.83302491977024079284012204 500.0,1212.43556529821410546921243912 550.0,1299.03810567665797014558475620 650.0,1299.03810567665797014558475620" /><polygon class="" points="700.0,1039.23048454132637611646780496 650.0,952.62794416288251144009548788 550.0,952.62794416288251144009548788 500.0,1039.23048454132637611646780496 550.0,1125.83302491977024079284012204 650.0,1125.83302491977024079284012204" /><polygon class="heavy_woods" points="700.0,692.82032302755091741097853664 650.0,606.21778264910705273460621956 550.0,606.21778264910705273460621956 500.0,692.82032302755091741097853664 550.0,779.42286340599478208735085372 650.0,779.42286340599478208735085372" /><polygon class="sea" points="700.0,519.61524227066318805823390248 650.0,433.01270189221932338186158540 550.0,433.01270189221932338186158540 500.0,519.61524227066318805823390248 550.0,606.21778264910705273460621956 650.0,606.21778264910705273460621956" /><polygon class="" points="1000.0,692.82032302755091741097853664 950.0,606.21778264910705273460621956 850.0,606.21778264910705273460621956 800.0,692.82032302755091741097853664 850.0,779.42286340599478208735085372 950.0,779.42286340599478208735085372" /><polygon class="grassland" points="1000.0,519.61524227066318805823390248 950.0,433.01270189221932338186158540 850.0,433.01270189221932338186158540 800.0,519.61524227066318805823390248 850.0,606.21778264910705273460621956 950.0,606.21778264910705273460621956" /><polygon class="" points="700.0,866.02540378443864676372317080 650.0,779.42286340599478208735085372 550.0,779.42286340599478208735085372 500.0,866.02540378443864676372317080 550.0,952.62794416288251144009548788 650.0,952.62794416288251144009548788" /><polygon class="grassland" points="1000.0,866.02540378443864676372317080 950.0,779.42286340599478208735085372 850.0,779.42286340599478208735085372 800.0,866.02540378443864676372317080 850.0,952.62794416288251144009548788 950.0,952.62794416288251144009548788" /><polygon class="sea" points="960.0,866.02540378443864676372317080 930.0,814.063879557372327957899780552 950.0,779.42286340599478208735085372 1000.0,866.02540378443864676372317080" /><path d="M825.002200032267613190261573408720 909.32667397366057910190932934 Q 900.0 866.02540378443864676372317080 974.997799967732386809738426591280 909.32667397366057910190932934" class="path roads" /><path d="M900.0 779.42286340599478208735085372 Q 900.0 866.02540378443864676372317080 900.0 952.62794416288251144009548788" class="path rivers" /><path d="M825.002200032267613190261573408720 822.72413359521671442553701226 Q 900.0 866.02540378443864676372317080 900.0 952.62794416288251144009548788" class="path rivers" /><path d="M974.997799967732386809738426591280 822.72413359521671442553701226 Q 900.0 866.02540378443864676372317080 900.0 952.62794416288251144009548788" class="path rivers" /><polygon class="" points="1300.0,866.02540378443864676372317080 1250.0,779.42286340599478208735085372 1150.0,779.42286340599478208735085372 1100.0,866.02540378443864676372317080 1150.0,952.62794416288251144009548788 1250.0,952.62794416288251144009548788" /><polygon class="" points="700.0,346.41016151377545870548926832 650.0,259.80762113533159402911695124 550.0,259.80762113533159402911695124 500.0,346.41016151377545870548926832 550.0,433.01270189221932338186158540 650.0,433.01270189221932338186158540" /><polygon class="light_wood" points="1000.0,346.41016151377545870548926832 950.0,259.80762113533159402911695124 850.0,259.80762113533159402911695124 800.0,346.41016151377545870548926832 850.0,433.01270189221932338186158540 950.0,433.01270189221932338186158540" /><polygon class="lake" points="1300.0,519.61524227066318805823390248 1250.0,433.01270189221932338186158540 1150.0,433.01270189221932338186158540 1100.0,519.61524227066318805823390248 1150.0,606.21778264910705273460621956 1250.0,606.21778264910705273460621956" /><polygon class="" points="1300.0,346.41016151377545870548926832 1250.0,259.80762113533159402911695124 1150.0,259.80762113533159402911695124 1100.0,346.41016151377545870548926832 1150.0,433.01270189221932338186158540 1250.0,433.01270189221932338186158540" /><polygon class="hills" points="1300.0,692.82032302755091741097853664 1250.0,606.21778264910705273460621956 1150.0,606.21778264910705273460621956 1100.0,692.82032302755091741097853664 1150.0,779.42286340599478208735085372 1250.0,779.42286340599478208735085372" /><polygon class="" points="1000.0,1385.64064605510183482195707328 950.0,1299.03810567665797014558475620 850.0,1299.03810567665797014558475620 800.0,1385.64064605510183482195707328 850.0,1472.24318643354569949832939036 950.0,1472.24318643354569949832939036" /><polygon class="" points="1000.0,173.20508075688772935274463416 950.0,86.60254037844386467637231708 850.0,86.60254037844386467637231708 800.0,173.20508075688772935274463416 850.0,259.80762113533159402911695124 950.0,259.80762113533159402911695124" /><polygon class="grid" points="1150.0,606.21778264910705273460621956 1100.0,519.61524227066318805823390248 1000.0,519.61524227066318805823390248 950.0,606.21778264910705273460621956 1000.0,692.82032302755091741097853664 1100.0,692.82032302755091741097853664" /><polygon class="grid" points="1150.0,779.42286340599478208735085372 1100.0,692.82032302755091741097853664 1000.0,692.82032302755091741097853664 950.0,779.42286340599478208735085372 1000.0,866.02540378443864676372317080 1100.0,866.02540378443864676372317080" /><polygon class="grid" points="1450.0,606.21778264910705273460621956 1400.0,519.61524227066318805823390248 1300.0,519.61524227066318805823390248 1250.0,606.21778264910705273460621956 1300.0,692.82032302755091741097853664 1400.0,692.82032302755091741097853664" /><polygon class="grid" points="1450.0,779.42286340599478208735085372 1400.0,692.82032302755091741097853664 1300.0,692.82032302755091741097853664 1250.0,779.42286340599478208735085372 1300.0,866.02540378443864676372317080 1400.0,866.02540378443864676372317080" /><polygon class="grid" points="550.0,433.01270189221932338186158540 500.0,346.41016151377545870548926832 400.0,346.41016151377545870548926832 350.0,433.01270189221932338186158540 400.0,519.61524227066318805823390248 500.0,519.61524227066318805823390248" /><polygon class="grid" points="550.0,606.21778264910705273460621956 500.0,519.61524227066318805823390248 400.0,519.61524227066318805823390248 350.0,606.21778264910705273460621956 400.0,692.82032302755091741097853664 500.0,692.82032302755091741097853664" /><polygon class="grid" points="850.0,433.01270189221932338186158540 800.0,346.41016151377545870548926832 700.0,346.41016151377545870548926832 650.0,433.01270189221932338186158540 700.0,519.61524227066318805823390248 800.0,519.61524227066318805823390248" /><polygon class="grid" points="850.0,606.21778264910705273460621956 800.0,519.61524227066318805823390248 700.0,519.61524227066318805823390248 650.0,606.21778264910705273460621956 700.0,692.82032302755091741097853664 800.0,692.82032302755091741097853664" /><polygon class="grid" points="850.0,1125.83302491977024079284012204 800.0,1039.23048454132637611646780496 700.0,1039.23048454132637611646780496 650.0,1125.83302491977024079284012204 700.0,1212.43556529821410546921243912 800.0,1212.43556529821410546921243912" /><polygon class="grid" points="850.0,1299.03810567665797014558475620 800.0,1212.43556529821410546921243912 700.0,1212.43556529821410546921243912 650.0,1299.03810567665797014558475620 700.0,1385.64064605510183482195707328 800.0,1385.64064605510183482195707328" /><polygon class="grid" points="1150.0,1125.83302491977024079284012204 1100.0,1039.23048454132637611646780496 1000.0,1039.23048454132637611646780496 950.0,1125.83302491977024079284012204 1000.0,1212.43556529821410546921243912 1100.0,1212.43556529821410546921243912" /><polygon class="grid" points="1150.0,1299.03810567665797014558475620 1100.0,1212.43556529821410546921243912 1000.0,1212.43556529821410546921243912 950.0,1299.03810567665797014558475620 1000.0,1385.64064605510183482195707328 1100.0,1385.64064605510183482195707328" /><polygon class="grid" points="1150.0,433.01270189221932338186158540 1100.0,346.41016151377545870548926832 1000.0,346.41016151377545870548926832 950.0,433.01270189221932338186158540 1000.0,519.61524227066318805823390248 1100.0,519.61524227066318805823390248" /><polygon class="grid" points="1450.0,433.01270189221932338186158540 1400.0,346.41016151377545870548926832 1300.0,346.41016151377545870548926832 1250.0,433.01270189221932338186158540 1300.0,519.61524227066318805823390248 1400.0,519.61524227066318805823390248" /><polygon class="grid" points="850.0,259.80762113533159402911695124 800.0,173.20508075688772935274463416 700.0,173.20508075688772935274463416 650.0,259.80762113533159402911695124 700.0,346.41016151377545870548926832 800.0,346.41016151377545870548926832" /><polygon class="grid" points="1150.0,259.80762113533159402911695124 1100.0,173.20508075688772935274463416 1000.0,173.20508075688772935274463416 950.0,259.80762113533159402911695124 1000.0,346.41016151377545870548926832 1100.0,346.41016151377545870548926832" /><polygon class="grid" points="850.0,779.42286340599478208735085372 800.0,692.82032302755091741097853664 700.0,692.82032302755091741097853664 650.0,779.42286340599478208735085372 700.0,866.02540378443864676372317080 800.0,866.02540378443864676372317080" /><polygon class="grid" points="850.0,952.62794416288251144009548788 800.0,866.02540378443864676372317080 700.0,866.02540378443864676372317080 650.0,952.62794416288251144009548788 700.0,1039.23048454132637611646780496 800.0,1039.23048454132637611646780496" /><polygon class="grid" points="1150.0,952.62794416288251144009548788 1100.0,866.02540378443864676372317080 1000.0,866.02540378443864676372317080 950.0,952.62794416288251144009548788 1000.0,1039.23048454132637611646780496 1100.0,1039.23048454132637611646780496" /><polygon class="grid" points="550.0,779.42286340599478208735085372 500.0,692.82032302755091741097853664 400.0,692.82032302755091741097853664 350.0,779.42286340599478208735085372 400.0,866.02540378443864676372317080 500.0,866.02540378443864676372317080" /><polygon class="grid" points="1000.0,1212.43556529821410546921243912 950.0,1125.83302491977024079284012204 850.0,1125.83302491977024079284012204 800.0,1212.43556529821410546921243912 850.0,1299.03810567665797014558475620 950.0,1299.03810567665797014558475620" /><polygon class="grid" points="1000.0,1039.23048454132637611646780496 950.0,952.62794416288251144009548788 850.0,952.62794416288251144009548788 800.0,1039.23048454132637611646780496 850.0,1125.83302491977024079284012204 950.0,1125.83302491977024079284012204" /><polygon class="grid" points="1300.0,1212.43556529821410546921243912 1250.0,1125.83302491977024079284012204 1150.0,1125.83302491977024079284012204 1100.0,1212.43556529821410546921243912 1150.0,1299.03810567665797014558475620 1250.0,1299.03810567665797014558475620" /><polygon class="grid" points="1300.0,1039.23048454132637611646780496 1250.0,952.62794416288251144009548788 1150.0,952.62794416288251144009548788 1100.0,1039.23048454132637611646780496 1150.0,1125.83302491977024079284012204 1250.0,1125.83302491977024079284012204" /><polygon class="grid" points="700.0,1212.43556529821410546921243912 650.0,1125.83302491977024079284012204 550.0,1125.83302491977024079284012204 500.0,1212.43556529821410546921243912 550.0,1299.03810567665797014558475620 650.0,1299.03810567665797014558475620" /><polygon class="grid" points="700.0,1039.23048454132637611646780496 650.0,952.62794416288251144009548788 550.0,952.62794416288251144009548788 500.0,1039.23048454132637611646780496 550.0,1125.83302491977024079284012204 650.0,1125.83302491977024079284012204" /><polygon class="grid" points="700.0,692.82032302755091741097853664 650.0,606.21778264910705273460621956 550.0,606.21778264910705273460621956 500.0,692.82032302755091741097853664 550.0,779.42286340599478208735085372 650.0,779.42286340599478208735085372" /><polygon class="grid" points="700.0,519.61524227066318805823390248 650.0,433.01270189221932338186158540 550.0,433.01270189221932338186158540 500.0,519.61524227066318805823390248 550.0,606.21778264910705273460621956 650.0,606.21778264910705273460621956" /><polygon class="grid" points="1000.0,692.82032302755091741097853664 950.0,606.21778264910705273460621956 850.0,606.21778264910705273460621956 800.0,692.82032302755091741097853664 850.0,779.42286340599478208735085372 950.0,779.42286340599478208735085372" /><polygon class="grid" points="1000.0,519.61524227066318805823390248 950.0,433.01270189221932338186158540 850.0,433.01270189221932338186158540 800.0,519.61524227066318805823390248 850.0,606.21778264910705273460621956 950.0,606.21778264910705273460621956" /><polygon class="grid" points="700.0,866.02540378443864676372317080 650.0,779.42286340599478208735085372 550.0,779.42286340599478208735085372 500.0,866.02540378443864676372317080 550.0,952.62794416288251144009548788 650.0,952.62794416288251144009548788" /><polygon class="grid" points="1000.0,866.02540378443864676372317080 950.0,779.42286340599478208735085372 850.0,779.42286340599478208735085372 800.0,866.02540378443864676372317080 850.0,952.62794416288251144009548788 950.0,952.62794416288251144009548788" /><polygon class="grid" points="1300.0,866.02540378443864676372317080 1250.0,779.42286340599478208735085372 1150.0,779.42286340599478208735085372 1100.0,866.02540378443864676372317080 1150.0,952.62794416288251144009548788 1250.0,952.62794416288251144009548788" /><polygon class="grid" points="700.0,346.41016151377545870548926832 650.0,259.80762113533159402911695124 550.0,259.80762113533159402911695124 500.0,346.41016151377545870548926832 550.0,433.01270189221932338186158540 650.0,433.01270189221932338186158540" /><polygon class="grid" points="1000.0,346.41016151377545870548926832 950.0,259.80762113533159402911695124 850.0,259.80762113533159402911695124 800.0,346.41016151377545870548926832 850.0,433.01270189221932338186158540 950.0,433.01270189221932338186158540" /><polygon class="grid" points="1300.0,519.61524227066318805823390248 1250.0,433.01270189221932338186158540 1150.0,433.01270189221932338186158540 1100.0,519.61524227066318805823390248 1150.0,606.21778264910705273460621956 1250.0,606.21778264910705273460621956" /><polygon class="grid" points="1300.0,346.41016151377545870548926832 1250.0,259.80762113533159402911695124 1150.0,259.80762113533159402911695124 1100.0,346.41016151377545870548926832 1150.0,433.01270189221932338186158540 1250.0,433.01270189221932338186158540" /><polygon class="grid" points="1300.0,692.82032302755091741097853664 1250.0,606.21778264910705273460621956 1150.0,606.21778264910705273460621956 1100.0,692.82032302755091741097853664 1150.0,779.42286340599478208735085372 1250.0,779.42286340599478208735085372" /><polygon class="grid" points="1000.0,1385.64064605510183482195707328 950.0,1299.03810567665797014558475620 850.0,1299.03810567665797014558475620 800.0,1385.64064605510183482195707328 850.0,1472.24318643354569949832939036 950.0,1472.24318643354569949832939036" /><polygon class="grid" points="1000.0,173.20508075688772935274463416 950.0,86.60254037844386467637231708 850.0,86.60254037844386467637231708 800.0,173.20508075688772935274463416 850.0,259.80762113533159402911695124 950.0,259.80762113533159402911695124" /><text transform="translate(1020.0 554.256258422040733928782829312)" class="number">3.7</text><text transform="translate(1020.0 727.461339178928463281527463472)" class="number">4.7</text><text transform="translate(1320.0 554.256258422040733928782829312)" class="number">3.9</text><text transform="translate(1320.0 727.461339178928463281527463472)" class="number">4.9</text><text transform="translate(420.0 381.051177665153004576038195152)" class="number">2.3</text><text transform="translate(420.0 554.256258422040733928782829312)" class="number">3.3</text><text transform="translate(720.0 381.051177665153004576038195152)" class="number">2.5</text><text transform="translate(720.0 554.256258422040733928782829312)" class="number">3.5</text><text transform="translate(720.0 1073.871500692703921987016731792)" class="number">6.5</text><text transform="translate(720.0 1247.076581449591651339761365952)" class="number">7.5</text><text transform="translate(1020.0 1073.871500692703921987016731792)" class="number">6.7</text><text transform="translate(1020.0 1247.076581449591651339761365952)" class="number">7.7</text><text transform="translate(1020.0 381.051177665153004576038195152)" class="number">2.7</text><text transform="translate(1320.0 381.051177665153004576038195152)" class="number">2.9</text><text transform="translate(720.0 207.846096908265275223293560992)" class="number">1.5</text><text transform="translate(1020.0 207.846096908265275223293560992)" class="number">1.7</text><text transform="translate(720.0 727.461339178928463281527463472)" class="number">4.5</text><text transform="translate(720.0 900.666419935816192634272097632)" class="number">5.5</text><text transform="translate(1020.0 900.666419935816192634272097632)" class="number">5.7</text><text transform="translate(420.0 727.461339178928463281527463472)" class="number">4.3</text><text transform="translate(870.0 1160.474041071147786663389048872)" class="number">7.6</text><text transform="translate(870.0 987.268960314260057310644414712)" class="number">6.6</text><text transform="translate(1170.0 1160.474041071147786663389048872)" class="number">7.8</text><text transform="translate(1170.0 987.268960314260057310644414712)" class="number">6.8</text><text transform="translate(570.0 1160.474041071147786663389048872)" class="number">7.4</text><text transform="translate(570.0 987.268960314260057310644414712)" class="number">6.4</text><text transform="translate(570.0 640.858798800484598605155146392)" class="number">4.4</text><text transform="translate(570.0 467.653718043596869252410512232)" class="number">3.4</text><text transform="translate(870.0 640.858798800484598605155146392)" class="number">4.6</text><text transform="translate(870.0 467.653718043596869252410512232)" class="number">3.6</text><text transform="translate(570.0 814.063879557372327957899780552)" class="number">5.4</text><text transform="translate(870.0 814.063879557372327957899780552)" class="number">5.6</text><text transform="translate(1170.0 814.063879557372327957899780552)" class="number">5.8</text><text transform="translate(570.0 294.448637286709139899665878072)" class="number">2.4</text><text transform="translate(870.0 294.448637286709139899665878072)" class="number">2.6</text><text transform="translate(1170.0 467.653718043596869252410512232)" class="number">3.8</text><text transform="translate(1170.0 294.448637286709139899665878072)" class="number">2.8</text><text transform="translate(1170.0 640.858798800484598605155146392)" class="number">4.8</text><text transform="translate(870.0 1333.679121828035516016133683032)" class="number">8.6</text><text transform="translate(870.0 121.243556529821410546921243912)" class="number">1.6</text>
</svg>