<svg viewBox="-407 -526 1863 2265" data-name="Layer 1" id="Layer_1" xmlns="http://www.w3.org/2000/svg"
    xmlns:xlink="http://www.w3.org/1999/xlink">
    <style type="text/css">
        text {
            font-size: 250.0%;
            font-family: PTSans-NarrowBold, PT Sans Narrow;
            font-weight: 600;
            paint-order: stroke;
            stroke: black;
            fill: white;
            stroke-width: 4.444444444444445;
        }

        .grid {
            fill: none;
            stroke-width: 6.666666666666667;
            stroke: #8E8E8E;
            stroke-miterlimit: 10;
        }

        .path {
            fill: transparent;
            stroke-width: 8.0;
        }


        .path.roads {
            stroke: saddlebrown;
        }

        .path.rivers {
            stroke: blue;
        }

        .number {}

        .alt_text {}

        .icon {
            paint-order: stroke;
            stroke: black;
            fill: darkslategrey;
            stroke-width: 2;
        }

        .terrain {
            fill: none;
            stroke-width: 6.666666666666667;
        }

        .terrain.plains {
            fill: lightgreen;
        }

        .terrain.light_wood {
            fill: green;
        }

        .terrain.heavy_woods {
            fill: darkgreen;
        }

        .terrain.grassland {
            fill: chartreuse;
        }

        .terrain.mountains {
            fill: maroon;
        }

        .terrain.hills {
            fill: bisque;
        }

        .terrain.sea {
            fill: blue;
        }


        .terrain.lake {
            fill: lightskyblue;
        }


        .terrain.marsh {
            fill: yellowgreen;
        }


        .terrain.desert {
            fill: lightyellow;
        }

        .terrain.unknown {
            fill: gray;
        }

        .zone {
            fill: none;
            stroke-width: 6.666666666666667;
            stroke-dasharray: 15;
            stroke-linejoin: round;
            stroke-linecap: round;
        }

        .zone.secured {
            stroke: green;
        }

        
.fortin {
    fill: green;
}

.zone.dangerous {
    stroke: red;
}

    </style>
    <defs>
        <svg xmlns="http://www.w3.org/2000/svg" id="capitale" class="icon capitale">
    <!--! Font Awesome Free 6.1.1 by @fontawesome - https://fontawesome.com License - https://fontawesome.com/license/free (Icons: CC BY 4.0, Fonts: SIL OFL 1.1, Code: MIT License) Copyright 2022 Fonticons, Inc. -->
    <path d="M264 0C277.3 0 288 10.75 288 24V34.65C368.4 48.14 431.9 111.6 445.3 192H448C465.7 192 480 206.3 480 224C480 241.7 465.7 256 448 256H63.1C46.33 256 31.1 241.7 31.1 224C31.1 206.3 46.33 192 63.1 192H66.65C80.14 111.6 143.6 48.14 223.1 34.65V24C223.1 10.75 234.7 0 247.1 0L264 0zM63.1 288H127.1V416H167.1V288H231.1V416H280V288H344V416H384V288H448V420.3C448.6 420.6 449.2 420.1 449.8 421.4L497.8 453.4C509.5 461.2 514.7 475.8 510.6 489.3C506.5 502.8 494.1 512 480 512H31.1C17.9 512 5.458 502.8 1.372 489.3C-2.715 475.8 2.515 461.2 14.25 453.4L62.25 421.4C62.82 420.1 63.41 420.6 63.1 420.3V288z"/>
</svg><svg xmlns="http://www.w3.org/2000/svg" id="cavaliers" class="icon cavaliers"><!--! Font Awesome Free 6.1.1 by @fontawesome - https://fontawesome.com License - https://fontawesome.com/license/free (Icons: CC BY 4.0, Fonts: SIL OFL 1.1, Code: MIT License) Copyright 2022 Fonticons, Inc. --><path d="M396.6 6.546C408.1-2.182 423.9-2.182 435.4 6.546L603.4 134.5C610 139.6 614.4 147 615.6 155.3L639.6 315.3C641 324.5 638.3 333.8 632.2 340.9C626.2 347.9 617.3 352 608 352H461.5L455.3 310.5C452.8 294 444 279.2 430.8 269.1L262.8 141.1C254.6 134.9 245.4 130.9 235.8 129.1L396.6 6.546zM411.4 294.5C418 299.6 422.4 307 423.6 315.3L447.6 475.3C449 484.5 446.3 493.8 440.2 500.9C434.2 507.9 425.3 512 416 512H319.1L223.1 352V512H32C22.68 512 13.83 507.9 7.753 500.9C1.674 493.8-1.028 484.5 .3542 475.3L24.35 315.3C25.59 307 29.98 299.6 36.61 294.5L204.6 166.5C216.1 157.8 231.9 157.8 243.4 166.5L411.4 294.5z"/></svg><svg xmlns="http://www.w3.org/2000/svg" id="fortin" class="icon fortin"><!--! Font Awesome Free 6.1.1 by @fontawesome - https://fontawesome.com License - https://fontawesome.com/license/free (Icons: CC BY 4.0, Fonts: SIL OFL 1.1, Code: MIT License) Copyright 2022 Fonticons, Inc. --><path d="M489.2 287.9h-27.4c-2.6 0-4.6 2-4.6 4.6v32h-36.6V146.2c0-2.6-2-4.6-4.6-4.6h-27.4c-2.6 0-4.6 2-4.6 4.6v32h-36.6v-32c0-2.6-2-4.6-4.6-4.6h-27.4c-2.6 0-4.6 2-4.6 4.6v32h-36.6v-32c0-6-8-4.6-11.7-4.6v-38c8.3-2 17.1-3.4 25.7-3.4 10.9 0 20.9 4.3 31.4 4.3 4.6 0 27.7-1.1 27.7-8v-60c0-2.6-2-4.6-4.6-4.6-5.1 0-15.1 4.3-24 4.3-9.7 0-20.9-4.3-32.6-4.3-8 0-16 1.1-23.7 2.9v-4.9c5.4-2.6 9.1-8.3 9.1-14.3 0-20.7-31.4-20.8-31.4 0 0 6 3.7 11.7 9.1 14.3v111.7c-3.7 0-11.7-1.4-11.7 4.6v32h-36.6v-32c0-2.6-2-4.6-4.6-4.6h-27.4c-2.6 0-4.6 2-4.6 4.6v32H128v-32c0-2.6-2-4.6-4.6-4.6H96c-2.6 0-4.6 2-4.6 4.6v178.3H54.8v-32c0-2.6-2-4.6-4.6-4.6H22.8c-2.6 0-4.6 2-4.6 4.6V512h182.9v-96c0-72.6 109.7-72.6 109.7 0v96h182.9V292.5c.1-2.6-1.9-4.6-4.5-4.6zm-288.1-4.5c0 2.6-2 4.6-4.6 4.6h-27.4c-2.6 0-4.6-2-4.6-4.6v-64c0-2.6 2-4.6 4.6-4.6h27.4c2.6 0 4.6 2 4.6 4.6v64zm146.4 0c0 2.6-2 4.6-4.6 4.6h-27.4c-2.6 0-4.6-2-4.6-4.6v-64c0-2.6 2-4.6 4.6-4.6h27.4c2.6 0 4.6 2 4.6 4.6v64z"/></svg><svg xmlns="http://www.w3.org/2000/svg" id="observatoire" class="icon observatoire"><!--! Font Awesome Free 6.1.1 by @fontawesome - https://fontawesome.com License - https://fontawesome.com/license/free (Icons: CC BY 4.0, Fonts: SIL OFL 1.1, Code: MIT License) Copyright 2022 Fonticons, Inc. --><path d="M243.4 2.587C251.4-.8625 260.6-.8625 268.6 2.587L492.6 98.59C506.6 104.6 514.4 119.6 511.3 134.4C508.3 149.3 495.2 159.1 479.1 160V168C479.1 181.3 469.3 192 455.1 192H55.1C42.74 192 31.1 181.3 31.1 168V160C16.81 159.1 3.708 149.3 .6528 134.4C-2.402 119.6 5.429 104.6 19.39 98.59L243.4 2.587zM256 128C273.7 128 288 113.7 288 96C288 78.33 273.7 64 256 64C238.3 64 224 78.33 224 96C224 113.7 238.3 128 256 128zM127.1 416H167.1V224H231.1V416H280V224H344V416H384V224H448V420.3C448.6 420.6 449.2 420.1 449.8 421.4L497.8 453.4C509.5 461.2 514.7 475.8 510.6 489.3C506.5 502.8 494.1 512 480 512H31.1C17.9 512 5.458 502.8 1.372 489.3C-2.715 475.8 2.515 461.2 14.25 453.4L62.25 421.4C62.82 420.1 63.41 420.6 63.1 420.3V224H127.1V416z"/></svg><svg xmlns="http://www.w3.org/2000/svg" id="ruines" class="icon ruines"><!--! Font Awesome Free 6.1.1 by @fontawesome - https://fontawesome.com License - https://fontawesome.com/license/free (Icons: CC BY 4.0, Fonts: SIL OFL 1.1, Code: MIT License) Copyright 2022 Fonticons, Inc. --><path d="M336.6 156.5C327.3 148.1 322.6 136.5 327.1 125.3L357.6 49.18C362.7 36.27 377.8 30.36 389.7 37.63C410.9 50.63 430 66.62 446.5 85.02C455.7 95.21 452.9 110.9 441.5 118.5L373.9 163.5C363.6 170.4 349.8 168.1 340.5 159.9C339.2 158.7 337.9 157.6 336.6 156.5H336.6zM297.7 112.6C293.2 123.1 280.9 129.8 268.7 128.6C264.6 128.2 260.3 128 256 128C251.7 128 247.4 128.2 243.3 128.6C231.1 129.8 218.8 123.1 214.3 112.6L183.1 36.82C178.8 24.02 185.5 9.433 198.1 6.374C217.3 2.203 236.4 0 256 0C275.6 0 294.7 2.203 313 6.374C326.5 9.433 333.2 24.02 328 36.82L297.7 112.6zM122.3 37.63C134.2 30.36 149.3 36.27 154.4 49.18L184.9 125.3C189.4 136.5 184.7 148.1 175.4 156.5C174.1 157.6 172.8 158.7 171.5 159.9C162.2 168.1 148.4 170.4 138.1 163.5L70.52 118.5C59.13 110.9 56.32 95.21 65.46 85.02C81.99 66.62 101.1 50.63 122.3 37.63H122.3zM379.5 222.1C376.3 210.7 379.7 198.1 389.5 191.6L458.1 145.8C469.7 138.1 485.6 141.9 491.2 154.7C501.6 178.8 508.4 204.8 510.9 232C512.1 245.2 501.3 255.1 488 255.1H408C394.7 255.1 384.2 245.2 381.8 232.1C381.1 228.7 380.4 225.4 379.5 222.1V222.1zM122.5 191.6C132.3 198.1 135.7 210.7 132.5 222.1C131.6 225.4 130.9 228.7 130.2 232.1C127.8 245.2 117.3 256 104 256H24C10.75 256-.1184 245.2 1.107 232C3.636 204.8 10.43 178.8 20.82 154.7C26.36 141.9 42.26 138.1 53.91 145.8L122.5 191.6zM104 288C117.3 288 128 298.7 128 312V360C128 373.3 117.3 384 104 384H24C10.75 384 0 373.3 0 360V312C0 298.7 10.75 288 24 288H104zM488 288C501.3 288 512 298.7 512 312V360C512 373.3 501.3 384 488 384H408C394.7 384 384 373.3 384 360V312C384 298.7 394.7 288 408 288H488zM104 416C117.3 416 128 426.7 128 440V488C128 501.3 117.3 512 104 512H24C10.75 512 0 501.3 0 488V440C0 426.7 10.75 416 24 416H104zM488 416C501.3 416 512 426.7 512 440V488C512 501.3 501.3 512 488 512H408C394.7 512 384 501.3 384 488V440C384 426.7 394.7 416 408 416H488zM272 464C272 472.8 264.8 480 256 480C247.2 480 240 472.8 240 464V192C240 183.2 247.2 176 256 176C264.8 176 272 183.2 272 192V464zM208 464C208 472.8 200.8 480 192 480C183.2 480 176 472.8 176 464V224C176 215.2 183.2 208 192 208C200.8 208 208 215.2 208 224V464zM336 464C336 472.8 328.8 480 320 480C311.2 480 304 472.8 304 464V224C304 215.2 311.2 208 320 208C328.8 208 336 215.2 336 224V464z"/></svg>
    </defs>
    <path d="M -200.0,-173.2 L -250.0,-259.8 L -350.0,-259.8 L -400.0,-173.2 L -350.0,-86.6 L -250.0,-86.6 L -200.0,-173.2 z" class="terrain "/><path d="M -200.0,-346.4 L -250.0,-433.0 L -350.0,-433.0 L -400.0,-346.4 L -350.0,-259.8 L -250.0,-259.8 L -200.0,-346.4 z" class="terrain "/><path d="M -200.0,0.0 L -250.0,-86.6 L -350.0,-86.6 L -400.0,0.0 L -350.0,86.6 L -250.0,86.6 L -200.0,0.0 z" class="terrain "/><path d="M -200.0,173.2 L -250.0,86.6 L -350.0,86.6 L -400.0,173.2 L -350.0,259.8 L -250.0,259.8 L -200.0,173.2 z" class="terrain "/><path d="M -50.0,-259.8 L -100.0,-346.4 L -200.0,-346.4 L -250.0,-259.8 L -200.0,-173.2 L -100.0,-173.2 L -50.0,-259.8 z" class="terrain grassland"/><path d="M -210.0,-259.8 L -180.0,-311.8 L -200.0,-346.4 L -250.0,-259.8 L -210.0,-259.8 z" class="terrain sea"/><path d="M -210.0,-259.8 L -180.0,-207.8 L -200.0,-173.2 L -250.0,-259.8 L -210.0,-259.8 z" class="terrain sea"/><path d="M -90.0,-259.8 L -120.0,-311.8 L -100.0,-346.4 L -50.0,-259.8 L -90.0,-259.8 z" class="terrain sea"/><path d="M-150.0 -259.8 Q -150.0 -259.8 -75.0 -216.5" class="path roads" /><use xlink:href="#cavaliers" transform="translate(-189.4 -291.3) scale(0.12301497212847137 0.12301497212847137)" /><path d="M -50.0,-433.0 L -100.0,-519.6 L -200.0,-519.6 L -250.0,-433.0 L -200.0,-346.4 L -100.0,-346.4 L -50.0,-433.0 z" class="terrain "/><path d="M -50.0,-86.6 L -100.0,-173.2 L -200.0,-173.2 L -250.0,-86.6 L -200.0,0.0 L -100.0,0.0 L -50.0,-86.6 z" class="terrain sea"/><path d="M -90.0,-86.6 L -120.0,-138.6 L -180.0,-138.6 L -210.0,-86.6 L -180.0,-34.6 L -120.0,-34.6 L -90.0,-86.6 z" class="terrain grassland"/><text transform="translate(-150.0 -86.6)" text-anchor="middle" class="alt_text">isle</text><path d="M -50.0,1125.8 L -100.0,1039.2 L -200.0,1039.2 L -250.0,1125.8 L -200.0,1212.4 L -100.0,1212.4 L -50.0,1125.8 z" class="terrain "/><path d="M -50.0,1299.0 L -100.0,1212.4 L -200.0,1212.4 L -250.0,1299.0 L -200.0,1385.6 L -100.0,1385.6 L -50.0,1299.0 z" class="terrain "/><path d="M -50.0,1472.2 L -100.0,1385.6 L -200.0,1385.6 L -250.0,1472.2 L -200.0,1558.8 L -100.0,1558.8 L -50.0,1472.2 z" class="terrain "/><path d="M -50.0,259.8 L -100.0,173.2 L -200.0,173.2 L -250.0,259.8 L -200.0,346.4 L -100.0,346.4 L -50.0,259.8 z" class="terrain "/><path d="M -50.0,86.6 L -100.0,-0.0 L -200.0,-0.0 L -250.0,86.6 L -200.0,173.2 L -100.0,173.2 L -50.0,86.6 z" class="terrain grassland"/><path d="M -120.0,34.6 L -180.0,34.6 L -200.0,-0.0 L -100.0,-0.0 L -120.0,34.6 z" class="terrain sea"/><path d="M -90.0,86.6 L -120.0,34.6 L -100.0,-0.0 L -50.0,86.6 L -90.0,86.6 z" class="terrain sea"/><path d="M -90.0,86.6 L -120.0,138.6 L -100.0,173.2 L -50.0,86.6 L -90.0,86.6 z" class="terrain sea"/><path d="M-225.0 43.3 Q -150.0 86.6 -75.0 43.3" class="path roads" /><path d="M-150.0 -0.0 Q -150.0 86.6 -150.0 173.2" class="path rivers" /><path d="M 100.0,-173.2 L 50.0,-259.8 L -50.0,-259.8 L -100.0,-173.2 L -50.0,-86.6 L 50.0,-86.6 L 100.0,-173.2 z" class="terrain "/><path d="M 100.0,-346.4 L 50.0,-433.0 L -50.0,-433.0 L -100.0,-346.4 L -50.0,-259.8 L 50.0,-259.8 L 100.0,-346.4 z" class="terrain "/><path d="M 100.0,0.0 L 50.0,-86.6 L -50.0,-86.6 L -100.0,0.0 L -50.0,86.6 L 50.0,86.6 L 100.0,0.0 z" class="terrain "/><path d="M 100.0,1039.2 L 50.0,952.6 L -50.0,952.6 L -100.0,1039.2 L -50.0,1125.8 L 50.0,1125.8 L 100.0,1039.2 z" class="terrain "/><path d="M 100.0,1212.4 L 50.0,1125.8 L -50.0,1125.8 L -100.0,1212.4 L -50.0,1299.0 L 50.0,1299.0 L 100.0,1212.4 z" class="terrain hills"/><path d="M -60.0,1212.4 L -30.0,1264.4 L -50.0,1299.0 L -100.0,1212.4 L -60.0,1212.4 z" class="terrain sea"/><path d="M -60.0,1212.4 L -30.0,1160.4 L -50.0,1125.8 L -100.0,1212.4 L -60.0,1212.4 z" class="terrain sea"/><path d="M 30.0,1160.4 L -30.0,1160.4 L -50.0,1125.8 L 50.0,1125.8 L 30.0,1160.4 z" class="terrain sea"/><path d="M0.0 1299.0 Q 0.0 1212.4 75.0 1169.1" class="path roads" /><path d="M 100.0,1385.6 L 50.0,1299.0 L -50.0,1299.0 L -100.0,1385.6 L -50.0,1472.2 L 50.0,1472.2 L 100.0,1385.6 z" class="terrain grassland"/><path d="M -60.0,1385.6 L -30.0,1437.6 L -50.0,1472.2 L -100.0,1385.6 L -60.0,1385.6 z" class="terrain sea"/><path d="M -60.0,1385.6 L -30.0,1333.6 L -50.0,1299.0 L -100.0,1385.6 L -60.0,1385.6 z" class="terrain sea"/><path d="M 30.0,1437.6 L -30.0,1437.6 L -50.0,1472.2 L 50.0,1472.2 L 30.0,1437.6 z" class="terrain sea"/><path d="M75.0 1428.9 Q 0.0 1385.6 0.0 1299.0" class="path roads" /><path d="M 100.0,1558.8 L 50.0,1472.2 L -50.0,1472.2 L -100.0,1558.8 L -50.0,1645.4 L 50.0,1645.4 L 100.0,1558.8 z" class="terrain "/><path d="M 100.0,173.2 L 50.0,86.6 L -50.0,86.6 L -100.0,173.2 L -50.0,259.8 L 50.0,259.8 L 100.0,173.2 z" class="terrain "/><path d="M 100.0,346.4 L 50.0,259.8 L -50.0,259.8 L -100.0,346.4 L -50.0,433.0 L 50.0,433.0 L 100.0,346.4 z" class="terrain "/><path d="M 1000.0,1039.2 L 950.0,952.6 L 850.0,952.6 L 800.0,1039.2 L 850.0,1125.8 L 950.0,1125.8 L 1000.0,1039.2 z" class="terrain grassland"/><path d="M 960.0,1039.2 L 930.0,987.2 L 870.0,987.2 L 840.0,1039.2 L 870.0,1091.2 L 930.0,1091.2 L 960.0,1039.2 z" class="terrain lake"/><path d="M 840.0,1039.2 L 870.0,1091.2 L 850.0,1125.8 L 800.0,1039.2 L 840.0,1039.2 z" class="terrain marsh"/><path d="M900.0 952.6 Q 900.0 1039.2 825.0 1082.5" class="path rivers" /><path d="M 1000.0,1212.4 L 950.0,1125.8 L 850.0,1125.8 L 800.0,1212.4 L 850.0,1299.0 L 950.0,1299.0 L 1000.0,1212.4 z" class="terrain grassland"/><path d="M 840.0,1212.4 L 870.0,1264.4 L 850.0,1299.0 L 800.0,1212.4 L 840.0,1212.4 z" class="terrain sea"/><path d="M 930.0,1264.4 L 870.0,1264.4 L 850.0,1299.0 L 950.0,1299.0 L 930.0,1264.4 z" class="terrain sea"/><path d="M 960.0,1212.4 L 930.0,1264.4 L 950.0,1299.0 L 1000.0,1212.4 L 960.0,1212.4 z" class="terrain sea"/><path d="M 960.0,1212.4 L 930.0,1160.4 L 870.0,1160.4 L 840.0,1212.4 L 870.0,1264.4 L 930.0,1264.4 L 960.0,1212.4 z" class="terrain sea"/><path d="M 960.0,1212.4 L 930.0,1160.4 L 950.0,1125.8 L 1000.0,1212.4 L 960.0,1212.4 z" class="terrain sea"/><text transform="translate(900.0 1212.4)" text-anchor="middle" class="alt_text">Baie</text><path d="M 1000.0,1385.6 L 950.0,1299.0 L 850.0,1299.0 L 800.0,1385.6 L 850.0,1472.2 L 950.0,1472.2 L 1000.0,1385.6 z" class="terrain "/><path d="M 1000.0,173.2 L 950.0,86.6 L 850.0,86.6 L 800.0,173.2 L 850.0,259.8 L 950.0,259.8 L 1000.0,173.2 z" class="terrain "/><path d="M 1000.0,346.4 L 950.0,259.8 L 850.0,259.8 L 800.0,346.4 L 850.0,433.0 L 950.0,433.0 L 1000.0,346.4 z" class="terrain light_wood"/><path d="M 1000.0,519.6 L 950.0,433.0 L 850.0,433.0 L 800.0,519.6 L 850.0,606.2 L 950.0,606.2 L 1000.0,519.6 z" class="terrain grassland"/><path d="M 1000.0,692.8 L 950.0,606.2 L 850.0,606.2 L 800.0,692.8 L 850.0,779.4 L 950.0,779.4 L 1000.0,692.8 z" class="terrain "/><path d="M 1000.0,866.0 L 950.0,779.4 L 850.0,779.4 L 800.0,866.0 L 850.0,952.6 L 950.0,952.6 L 1000.0,866.0 z" class="terrain grassland"/><path d="M 960.0,866.0 L 930.0,814.0 L 950.0,779.4 L 1000.0,866.0 L 960.0,866.0 z" class="terrain sea"/><path d="M825.0 909.3 Q 900.0 866.0 975.0 909.3" class="path roads" /><path d="M900.0 779.4 Q 900.0 866.0 900.0 952.6" class="path rivers" /><path d="M825.0 822.7 Q 900.0 866.0 900.0 952.6" class="path rivers" /><path d="M975.0 822.7 Q 900.0 866.0 900.0 952.6" class="path rivers" /><path d="M 1150.0,1125.8 L 1100.0,1039.2 L 1000.0,1039.2 L 950.0,1125.8 L 1000.0,1212.4 L 1100.0,1212.4 L 1150.0,1125.8 z" class="terrain grassland"/><path d="M 990.0,1125.8 L 1020.0,1177.8 L 1000.0,1212.4 L 950.0,1125.8 L 990.0,1125.8 z" class="terrain sea"/><path d="M1050.0 1039.2 Q 1050.0 1125.8 1050.0 1125.8" class="path roads" /><use xlink:href="#ruines" transform="translate(1010.6 1086.3999999999999) scale(0.15376871516058924 0.15376871516058924)" /><path d="M 1150.0,1299.0 L 1100.0,1212.4 L 1000.0,1212.4 L 950.0,1299.0 L 1000.0,1385.6 L 1100.0,1385.6 L 1150.0,1299.0 z" class="terrain "/><path d="M 1150.0,259.8 L 1100.0,173.2 L 1000.0,173.2 L 950.0,259.8 L 1000.0,346.4 L 1100.0,346.4 L 1150.0,259.8 z" class="terrain "/><path d="M 1150.0,433.0 L 1100.0,346.4 L 1000.0,346.4 L 950.0,433.0 L 1000.0,519.6 L 1100.0,519.6 L 1150.0,433.0 z" class="terrain unknown"/><path d="M 1150.0,606.2 L 1100.0,519.6 L 1000.0,519.6 L 950.0,606.2 L 1000.0,692.8 L 1100.0,692.8 L 1150.0,606.2 z" class="terrain marsh"/><path d="M 1150.0,779.4 L 1100.0,692.8 L 1000.0,692.8 L 950.0,779.4 L 1000.0,866.0 L 1100.0,866.0 L 1150.0,779.4 z" class="terrain "/><path d="M 1150.0,952.6 L 1100.0,866.0 L 1000.0,866.0 L 950.0,952.6 L 1000.0,1039.2 L 1100.0,1039.2 L 1150.0,952.6 z" class="terrain grassland"/><path d="M 1110.0,952.6 L 1080.0,900.6 L 1100.0,866.0 L 1150.0,952.6 L 1110.0,952.6 z" class="terrain sea"/><path d="M 1080.0,900.6 L 1020.0,900.6 L 1000.0,866.0 L 1100.0,866.0 L 1080.0,900.6 z" class="terrain sea"/><path d="M 1110.0,952.6 L 1080.0,1004.6 L 1100.0,1039.2 L 1150.0,952.6 L 1110.0,952.6 z" class="terrain sea"/><path d="M975.0 909.3 Q 1050.0 952.6 1050.0 1039.2" class="path roads" /><path d="M975.0 995.9 Q 1050.0 952.6 1050.0 1039.2" class="path roads" /><path d="M 1300.0,1039.2 L 1250.0,952.6 L 1150.0,952.6 L 1100.0,1039.2 L 1150.0,1125.8 L 1250.0,1125.8 L 1300.0,1039.2 z" class="terrain "/><path d="M 1300.0,1212.4 L 1250.0,1125.8 L 1150.0,1125.8 L 1100.0,1212.4 L 1150.0,1299.0 L 1250.0,1299.0 L 1300.0,1212.4 z" class="terrain "/><path d="M 1300.0,346.4 L 1250.0,259.8 L 1150.0,259.8 L 1100.0,346.4 L 1150.0,433.0 L 1250.0,433.0 L 1300.0,346.4 z" class="terrain "/><path d="M 1300.0,519.6 L 1250.0,433.0 L 1150.0,433.0 L 1100.0,519.6 L 1150.0,606.2 L 1250.0,606.2 L 1300.0,519.6 z" class="terrain lake"/><path d="M 1300.0,692.8 L 1250.0,606.2 L 1150.0,606.2 L 1100.0,692.8 L 1150.0,779.4 L 1250.0,779.4 L 1300.0,692.8 z" class="terrain hills"/><path d="M 1300.0,866.0 L 1250.0,779.4 L 1150.0,779.4 L 1100.0,866.0 L 1150.0,952.6 L 1250.0,952.6 L 1300.0,866.0 z" class="terrain "/><path d="M 1450.0,433.0 L 1400.0,346.4 L 1300.0,346.4 L 1250.0,433.0 L 1300.0,519.6 L 1400.0,519.6 L 1450.0,433.0 z" class="terrain "/><path d="M 1450.0,606.2 L 1400.0,519.6 L 1300.0,519.6 L 1250.0,606.2 L 1300.0,692.8 L 1400.0,692.8 L 1450.0,606.2 z" class="terrain "/><path d="M 1450.0,779.4 L 1400.0,692.8 L 1300.0,692.8 L 1250.0,779.4 L 1300.0,866.0 L 1400.0,866.0 L 1450.0,779.4 z" class="terrain "/><path d="M 250.0,1125.8 L 200.0,1039.2 L 100.0,1039.2 L 50.0,1125.8 L 100.0,1212.4 L 200.0,1212.4 L 250.0,1125.8 z" class="terrain hills"/><path d="M 210.0,1125.8 L 180.0,1073.8 L 200.0,1039.2 L 250.0,1125.8 L 210.0,1125.8 z" class="terrain sea"/><path d="M 90.0,1125.8 L 120.0,1073.8 L 100.0,1039.2 L 50.0,1125.8 L 90.0,1125.8 z" class="terrain sea"/><path d="M 180.0,1073.8 L 120.0,1073.8 L 100.0,1039.2 L 200.0,1039.2 L 180.0,1073.8 z" class="terrain sea"/><path d="M75.0 1169.1 Q 150.0 1125.8 225.0 1169.1" class="path roads" /><path d="M 250.0,1299.0 L 200.0,1212.4 L 100.0,1212.4 L 50.0,1299.0 L 100.0,1385.6 L 200.0,1385.6 L 250.0,1299.0 z" class="terrain grassland"/><path d="M 90.0,1299.0 L 120.0,1247.0 L 100.0,1212.4 L 50.0,1299.0 L 90.0,1299.0 z" class="terrain hills"/><path d="M 180.0,1247.0 L 120.0,1247.0 L 100.0,1212.4 L 200.0,1212.4 L 180.0,1247.0 z" class="terrain hills"/><path d="M150.0 1299.0 Q 150.0 1299.0 225.0 1255.7" class="path roads" /><use xlink:href="#observatoire" transform="translate(110.6 1259.6) scale(0.15376871516058924 0.15376871516058924)" /><path d="M 250.0,1472.2 L 200.0,1385.6 L 100.0,1385.6 L 50.0,1472.2 L 100.0,1558.8 L 200.0,1558.8 L 250.0,1472.2 z" class="terrain grassland"/><path d="M 90.0,1472.2 L 120.0,1524.2 L 100.0,1558.8 L 50.0,1472.2 L 90.0,1472.2 z" class="terrain sea"/><path d="M 210.0,1472.2 L 180.0,1524.2 L 200.0,1558.8 L 250.0,1472.2 L 210.0,1472.2 z" class="terrain sea"/><path d="M 180.0,1524.2 L 120.0,1524.2 L 100.0,1558.8 L 200.0,1558.8 L 180.0,1524.2 z" class="terrain sea"/><path d="M225.0 1428.9 Q 150.0 1472.2 75.0 1428.9" class="path roads" /><path d="M 250.0,1645.4 L 200.0,1558.8 L 100.0,1558.8 L 50.0,1645.4 L 100.0,1732.0 L 200.0,1732.0 L 250.0,1645.4 z" class="terrain "/><path d="M 250.0,259.8 L 200.0,173.2 L 100.0,173.2 L 50.0,259.8 L 100.0,346.4 L 200.0,346.4 L 250.0,259.8 z" class="terrain grassland"/><path d="M 90.0,259.8 L 120.0,207.8 L 100.0,173.2 L 50.0,259.8 L 90.0,259.8 z" class="terrain sea"/><path d="M 90.0,259.8 L 120.0,311.8 L 100.0,346.4 L 50.0,259.8 L 90.0,259.8 z" class="terrain sea"/><path d="M 210.0,259.8 L 180.0,207.8 L 200.0,173.2 L 250.0,259.8 L 210.0,259.8 z" class="terrain sea"/><path d="M150.0 259.8 Q 150.0 259.8 225.0 303.1" class="path roads" /><use xlink:href="#capitale" transform="translate(125.2 220.4) scale(0.09691782785665369 0.09691782785665369)" /><path d="M 250.0,433.0 L 200.0,346.4 L 100.0,346.4 L 50.0,433.0 L 100.0,519.6 L 200.0,519.6 L 250.0,433.0 z" class="terrain "/><path d="M 250.0,606.2 L 200.0,519.6 L 100.0,519.6 L 50.0,606.2 L 100.0,692.8 L 200.0,692.8 L 250.0,606.2 z" class="terrain "/><path d="M 250.0,86.6 L 200.0,-0.0 L 100.0,-0.0 L 50.0,86.6 L 100.0,173.2 L 200.0,173.2 L 250.0,86.6 z" class="terrain "/><path d="M 250.0,952.6 L 200.0,866.0 L 100.0,866.0 L 50.0,952.6 L 100.0,1039.2 L 200.0,1039.2 L 250.0,952.6 z" class="terrain "/><path d="M 400.0,1039.2 L 350.0,952.6 L 250.0,952.6 L 200.0,1039.2 L 250.0,1125.8 L 350.0,1125.8 L 400.0,1039.2 z" class="terrain "/><path d="M 400.0,1212.4 L 350.0,1125.8 L 250.0,1125.8 L 200.0,1212.4 L 250.0,1299.0 L 350.0,1299.0 L 400.0,1212.4 z" class="terrain grassland"/><path d="M 360.0,1212.4 L 330.0,1160.4 L 350.0,1125.8 L 400.0,1212.4 L 360.0,1212.4 z" class="terrain sea"/><path d="M 360.0,1212.4 L 330.0,1264.4 L 350.0,1299.0 L 400.0,1212.4 L 360.0,1212.4 z" class="terrain sea"/><path d="M 330.0,1160.4 L 270.0,1160.4 L 250.0,1125.8 L 350.0,1125.8 L 330.0,1160.4 z" class="terrain sea"/><path d="M225.0 1255.7 Q 300.0 1212.4 300.0 1299.0" class="path roads" /><path d="M225.0 1255.7 Q 300.0 1212.4 225.0 1169.1" class="path roads" /><path d="M 400.0,1385.6 L 350.0,1299.0 L 250.0,1299.0 L 200.0,1385.6 L 250.0,1472.2 L 350.0,1472.2 L 400.0,1385.6 z" class="terrain grassland"/><path d="M 360.0,1385.6 L 330.0,1333.6 L 350.0,1299.0 L 400.0,1385.6 L 360.0,1385.6 z" class="terrain sea"/><path d="M 360.0,1385.6 L 330.0,1437.6 L 350.0,1472.2 L 400.0,1385.6 L 360.0,1385.6 z" class="terrain sea"/><path d="M 330.0,1437.6 L 270.0,1437.6 L 250.0,1472.2 L 350.0,1472.2 L 330.0,1437.6 z" class="terrain sea"/><path d="M300.0 1299.0 Q 300.0 1385.6 225.0 1428.9" class="path roads" /><path d="M 400.0,1558.8 L 350.0,1472.2 L 250.0,1472.2 L 200.0,1558.8 L 250.0,1645.4 L 350.0,1645.4 L 400.0,1558.8 z" class="terrain "/><path d="M 400.0,173.2 L 350.0,86.6 L 250.0,86.6 L 200.0,173.2 L 250.0,259.8 L 350.0,259.8 L 400.0,173.2 z" class="terrain "/><path d="M 400.0,346.4 L 350.0,259.8 L 250.0,259.8 L 200.0,346.4 L 250.0,433.0 L 350.0,433.0 L 400.0,346.4 z" class="terrain grassland"/><path d="M 330.0,294.4 L 270.0,294.4 L 250.0,259.8 L 350.0,259.8 L 330.0,294.4 z" class="terrain sea"/><path d="M 360.0,346.4 L 330.0,294.4 L 350.0,259.8 L 400.0,346.4 L 360.0,346.4 z" class="terrain sea"/><path d="M 360.0,346.4 L 330.0,398.4 L 350.0,433.0 L 400.0,346.4 L 360.0,346.4 z" class="terrain sea"/><path d="M225.0 303.1 Q 300.0 346.4 300.0 433.0" class="path roads" /><path d="M300.0 259.8 Q 300.0 346.4 375.0 389.7" class="path rivers" /><path d="M 400.0,519.6 L 350.0,433.0 L 250.0,433.0 L 200.0,519.6 L 250.0,606.2 L 350.0,606.2 L 400.0,519.6 z" class="terrain grassland"/><path d="M 330.0,467.6 L 270.0,467.6 L 250.0,433.0 L 350.0,433.0 L 330.0,467.6 z" class="terrain sea"/><path d="M 360.0,519.6 L 330.0,467.6 L 350.0,433.0 L 400.0,519.6 L 360.0,519.6 z" class="terrain sea"/><path d="M 360.0,519.6 L 330.0,571.6 L 350.0,606.2 L 400.0,519.6 L 360.0,519.6 z" class="terrain sea"/><path d="M225.0 476.3 Q 300.0 519.6 300.0 606.2" class="path roads" /><path d="M300.0 433.0 Q 300.0 519.6 375.0 562.9" class="path rivers" /><path d="M 400.0,692.8 L 350.0,606.2 L 250.0,606.2 L 200.0,692.8 L 250.0,779.4 L 350.0,779.4 L 400.0,692.8 z" class="terrain "/><path d="M 550.0,1125.8 L 500.0,1039.2 L 400.0,1039.2 L 350.0,1125.8 L 400.0,1212.4 L 500.0,1212.4 L 550.0,1125.8 z" class="terrain "/><path d="M 550.0,1299.0 L 500.0,1212.4 L 400.0,1212.4 L 350.0,1299.0 L 400.0,1385.6 L 500.0,1385.6 L 550.0,1299.0 z" class="terrain "/><path d="M 550.0,1472.2 L 500.0,1385.6 L 400.0,1385.6 L 350.0,1472.2 L 400.0,1558.8 L 500.0,1558.8 L 550.0,1472.2 z" class="terrain "/><path d="M 550.0,259.8 L 500.0,173.2 L 400.0,173.2 L 350.0,259.8 L 400.0,346.4 L 500.0,346.4 L 550.0,259.8 z" class="terrain "/><path d="M 550.0,433.0 L 500.0,346.4 L 400.0,346.4 L 350.0,433.0 L 400.0,519.6 L 500.0,519.6 L 550.0,433.0 z" class="terrain "/><path d="M 550.0,606.2 L 500.0,519.6 L 400.0,519.6 L 350.0,606.2 L 400.0,692.8 L 500.0,692.8 L 550.0,606.2 z" class="terrain "/><path d="M 550.0,779.4 L 500.0,692.8 L 400.0,692.8 L 350.0,779.4 L 400.0,866.0 L 500.0,866.0 L 550.0,779.4 z" class="terrain "/><path d="M 700.0,1039.2 L 650.0,952.6 L 550.0,952.6 L 500.0,1039.2 L 550.0,1125.8 L 650.0,1125.8 L 700.0,1039.2 z" class="terrain "/><path d="M 700.0,1212.4 L 650.0,1125.8 L 550.0,1125.8 L 500.0,1212.4 L 550.0,1299.0 L 650.0,1299.0 L 700.0,1212.4 z" class="terrain "/><path d="M 700.0,346.4 L 650.0,259.8 L 550.0,259.8 L 500.0,346.4 L 550.0,433.0 L 650.0,433.0 L 700.0,346.4 z" class="terrain "/><path d="M 700.0,519.6 L 650.0,433.0 L 550.0,433.0 L 500.0,519.6 L 550.0,606.2 L 650.0,606.2 L 700.0,519.6 z" class="terrain sea"/><path d="M 700.0,692.8 L 650.0,606.2 L 550.0,606.2 L 500.0,692.8 L 550.0,779.4 L 650.0,779.4 L 700.0,692.8 z" class="terrain heavy_woods"/><path d="M 700.0,866.0 L 650.0,779.4 L 550.0,779.4 L 500.0,866.0 L 550.0,952.6 L 650.0,952.6 L 700.0,866.0 z" class="terrain "/><path d="M 850.0,1125.8 L 800.0,1039.2 L 700.0,1039.2 L 650.0,1125.8 L 700.0,1212.4 L 800.0,1212.4 L 850.0,1125.8 z" class="terrain marsh"/><path d="M 690.0,1125.8 L 720.0,1177.8 L 700.0,1212.4 L 650.0,1125.8 L 690.0,1125.8 z" class="terrain sea"/><path d="M 810.0,1125.8 L 780.0,1073.8 L 720.0,1073.8 L 690.0,1125.8 L 720.0,1177.8 L 780.0,1177.8 L 810.0,1125.8 z" class="terrain sea"/><path d="M750.0 1125.8 Q 750.0 1125.8 825.0 1082.5" class="path rivers" /><path d="M 850.0,1299.0 L 800.0,1212.4 L 700.0,1212.4 L 650.0,1299.0 L 700.0,1385.6 L 800.0,1385.6 L 850.0,1299.0 z" class="terrain "/><path d="M 850.0,259.8 L 800.0,173.2 L 700.0,173.2 L 650.0,259.8 L 700.0,346.4 L 800.0,346.4 L 850.0,259.8 z" class="terrain "/><path d="M 850.0,433.0 L 800.0,346.4 L 700.0,346.4 L 650.0,433.0 L 700.0,519.6 L 800.0,519.6 L 850.0,433.0 z" class="terrain plains"/><path d="M 850.0,606.2 L 800.0,519.6 L 700.0,519.6 L 650.0,606.2 L 700.0,692.8 L 800.0,692.8 L 850.0,606.2 z" class="terrain mountains"/><path d="M 850.0,779.4 L 800.0,692.8 L 700.0,692.8 L 650.0,779.4 L 700.0,866.0 L 800.0,866.0 L 850.0,779.4 z" class="terrain "/><path d="M 850.0,952.6 L 800.0,866.0 L 700.0,866.0 L 650.0,952.6 L 700.0,1039.2 L 800.0,1039.2 L 850.0,952.6 z" class="terrain grassland"/><path d="M 690.0,952.6 L 720.0,900.6 L 700.0,866.0 L 650.0,952.6 L 690.0,952.6 z" class="terrain sea"/><path d="M 780.0,900.6 L 720.0,900.6 L 700.0,866.0 L 800.0,866.0 L 780.0,900.6 z" class="terrain sea"/><path d="M750.0 952.6 Q 750.0 952.6 825.0 909.3" class="path roads" /><use xlink:href="#fortin" transform="translate(710.6 913.2) scale(0.15376871516058924 0.15376871516058924)" />
<path d="M -200.0,-173.2 L -250.0,-259.8 L -350.0,-259.8 L -400.0,-173.2 L -350.0,-86.6 L -250.0,-86.6 L -200.0,-173.2 z" class="grid"/><path d="M -200.0,-346.4 L -250.0,-433.0 L -350.0,-433.0 L -400.0,-346.4 L -350.0,-259.8 L -250.0,-259.8 L -200.0,-346.4 z" class="grid"/><path d="M -200.0,0.0 L -250.0,-86.6 L -350.0,-86.6 L -400.0,0.0 L -350.0,86.6 L -250.0,86.6 L -200.0,0.0 z" class="grid"/><path d="M -200.0,173.2 L -250.0,86.6 L -350.0,86.6 L -400.0,173.2 L -350.0,259.8 L -250.0,259.8 L -200.0,173.2 z" class="grid"/><path d="M -50.0,-259.8 L -100.0,-346.4 L -200.0,-346.4 L -250.0,-259.8 L -200.0,-173.2 L -100.0,-173.2 L -50.0,-259.8 z" class="grid"/><path d="M -50.0,-433.0 L -100.0,-519.6 L -200.0,-519.6 L -250.0,-433.0 L -200.0,-346.4 L -100.0,-346.4 L -50.0,-433.0 z" class="grid"/><path d="M -50.0,-86.6 L -100.0,-173.2 L -200.0,-173.2 L -250.0,-86.6 L -200.0,0.0 L -100.0,0.0 L -50.0,-86.6 z" class="grid"/><path d="M -50.0,1125.8 L -100.0,1039.2 L -200.0,1039.2 L -250.0,1125.8 L -200.0,1212.4 L -100.0,1212.4 L -50.0,1125.8 z" class="grid"/><path d="M -50.0,1299.0 L -100.0,1212.4 L -200.0,1212.4 L -250.0,1299.0 L -200.0,1385.6 L -100.0,1385.6 L -50.0,1299.0 z" class="grid"/><path d="M -50.0,1472.2 L -100.0,1385.6 L -200.0,1385.6 L -250.0,1472.2 L -200.0,1558.8 L -100.0,1558.8 L -50.0,1472.2 z" class="grid"/><path d="M -50.0,259.8 L -100.0,173.2 L -200.0,173.2 L -250.0,259.8 L -200.0,346.4 L -100.0,346.4 L -50.0,259.8 z" class="grid"/><path d="M -50.0,86.6 L -100.0,-0.0 L -200.0,-0.0 L -250.0,86.6 L -200.0,173.2 L -100.0,173.2 L -50.0,86.6 z" class="grid"/><path d="M 100.0,-173.2 L 50.0,-259.8 L -50.0,-259.8 L -100.0,-173.2 L -50.0,-86.6 L 50.0,-86.6 L 100.0,-173.2 z" class="grid"/><path d="M 100.0,-346.4 L 50.0,-433.0 L -50.0,-433.0 L -100.0,-346.4 L -50.0,-259.8 L 50.0,-259.8 L 100.0,-346.4 z" class="grid"/><path d="M 100.0,0.0 L 50.0,-86.6 L -50.0,-86.6 L -100.0,0.0 L -50.0,86.6 L 50.0,86.6 L 100.0,0.0 z" class="grid"/><path d="M 100.0,1039.2 L 50.0,952.6 L -50.0,952.6 L -100.0,1039.2 L -50.0,1125.8 L 50.0,1125.8 L 100.0,1039.2 z" class="grid"/><path d="M 100.0,1212.4 L 50.0,1125.8 L -50.0,1125.8 L -100.0,1212.4 L -50.0,1299.0 L 50.0,1299.0 L 100.0,1212.4 z" class="grid"/><path d="M 100.0,1385.6 L 50.0,1299.0 L -50.0,1299.0 L -100.0,1385.6 L -50.0,1472.2 L 50.0,1472.2 L 100.0,1385.6 z" class="grid"/><path d="M 100.0,1558.8 L 50.0,1472.2 L -50.0,1472.2 L -100.0,1558.8 L -50.0,1645.4 L 50.0,1645.4 L 100.0,1558.8 z" class="grid"/><path d="M 100.0,173.2 L 50.0,86.6 L -50.0,86.6 L -100.0,173.2 L -50.0,259.8 L 50.0,259.8 L 100.0,173.2 z" class="grid"/><path d="M 100.0,346.4 L 50.0,259.8 L -50.0,259.8 L -100.0,346.4 L -50.0,433.0 L 50.0,433.0 L 100.0,346.4 z" class="grid"/><path d="M 1000.0,1039.2 L 950.0,952.6 L 850.0,952.6 L 800.0,1039.2 L 850.0,1125.8 L 950.0,1125.8 L 1000.0,1039.2 z" class="grid"/><path d="M 1000.0,1212.4 L 950.0,1125.8 L 850.0,1125.8 L 800.0,1212.4 L 850.0,1299.0 L 950.0,1299.0 L 1000.0,1212.4 z" class="grid"/><path d="M 1000.0,1385.6 L 950.0,1299.0 L 850.0,1299.0 L 800.0,1385.6 L 850.0,1472.2 L 950.0,1472.2 L 1000.0,1385.6 z" class="grid"/><path d="M 1000.0,173.2 L 950.0,86.6 L 850.0,86.6 L 800.0,173.2 L 850.0,259.8 L 950.0,259.8 L 1000.0,173.2 z" class="grid"/><path d="M 1000.0,346.4 L 950.0,259.8 L 850.0,259.8 L 800.0,346.4 L 850.0,433.0 L 950.0,433.0 L 1000.0,346.4 z" class="grid"/><path d="M 1000.0,519.6 L 950.0,433.0 L 850.0,433.0 L 800.0,519.6 L 850.0,606.2 L 950.0,606.2 L 1000.0,519.6 z" class="grid"/><path d="M 1000.0,692.8 L 950.0,606.2 L 850.0,606.2 L 800.0,692.8 L 850.0,779.4 L 950.0,779.4 L 1000.0,692.8 z" class="grid"/><path d="M 1000.0,866.0 L 950.0,779.4 L 850.0,779.4 L 800.0,866.0 L 850.0,952.6 L 950.0,952.6 L 1000.0,866.0 z" class="grid"/><path d="M 1150.0,1125.8 L 1100.0,1039.2 L 1000.0,1039.2 L 950.0,1125.8 L 1000.0,1212.4 L 1100.0,1212.4 L 1150.0,1125.8 z" class="grid"/><path d="M 1150.0,1299.0 L 1100.0,1212.4 L 1000.0,1212.4 L 950.0,1299.0 L 1000.0,1385.6 L 1100.0,1385.6 L 1150.0,1299.0 z" class="grid"/><path d="M 1150.0,259.8 L 1100.0,173.2 L 1000.0,173.2 L 950.0,259.8 L 1000.0,346.4 L 1100.0,346.4 L 1150.0,259.8 z" class="grid"/><path d="M 1150.0,433.0 L 1100.0,346.4 L 1000.0,346.4 L 950.0,433.0 L 1000.0,519.6 L 1100.0,519.6 L 1150.0,433.0 z" class="grid"/><path d="M 1150.0,606.2 L 1100.0,519.6 L 1000.0,519.6 L 950.0,606.2 L 1000.0,692.8 L 1100.0,692.8 L 1150.0,606.2 z" class="grid"/><path d="M 1150.0,779.4 L 1100.0,692.8 L 1000.0,692.8 L 950.0,779.4 L 1000.0,866.0 L 1100.0,866.0 L 1150.0,779.4 z" class="grid"/><path d="M 1150.0,952.6 L 1100.0,866.0 L 1000.0,866.0 L 950.0,952.6 L 1000.0,1039.2 L 1100.0,1039.2 L 1150.0,952.6 z" class="grid"/><path d="M 1300.0,1039.2 L 1250.0,952.6 L 1150.0,952.6 L 1100.0,1039.2 L 1150.0,1125.8 L 1250.0,1125.8 L 1300.0,1039.2 z" class="grid"/><path d="M 1300.0,1212.4 L 1250.0,1125.8 L 1150.0,1125.8 L 1100.0,1212.4 L 1150.0,1299.0 L 1250.0,1299.0 L 1300.0,1212.4 z" class="grid"/><path d="M 1300.0,346.4 L 1250.0,259.8 L 1150.0,259.8 L 1100.0,346.4 L 1150.0,433.0 L 1250.0,433.0 L 1300.0,346.4 z" class="grid"/><path d="M 1300.0,519.6 L 1250.0,433.0 L 1150.0,433.0 L 1100.0,519.6 L 1150.0,606.2 L 1250.0,606.2 L 1300.0,519.6 z" class="grid"/><path d="M 1300.0,692.8 L 1250.0,606.2 L 1150.0,606.2 L 1100.0,692.8 L 1150.0,779.4 L 1250.0,779.4 L 1300.0,692.8 z" class="grid"/><path d="M 1300.0,866.0 L 1250.0,779.4 L 1150.0,779.4 L 1100.0,866.0 L 1150.0,952.6 L 1250.0,952.6 L 1300.0,866.0 z" class="grid"/><path d="M 1450.0,433.0 L 1400.0,346.4 L 1300.0,346.4 L 1250.0,433.0 L 1300.0,519.6 L 1400.0,519.6 L 1450.0,433.0 z" class="grid"/><path d="M 1450.0,606.2 L 1400.0,519.6 L 1300.0,519.6 L 1250.0,606.2 L 1300.0,692.8 L 1400.0,692.8 L 1450.0,606.2 z" class="grid"/><path d="M 1450.0,779.4 L 1400.0,692.8 L 1300.0,692.8 L 1250.0,779.4 L 1300.0,866.0 L 1400.0,866.0 L 1450.0,779.4 z" class="grid"/><path d="M 250.0,1125.8 L 200.0,1039.2 L 100.0,1039.2 L 50.0,1125.8 L 100.0,1212.4 L 200.0,1212.4 L 250.0,1125.8 z" class="grid"/><path d="M 250.0,1299.0 L 200.0,1212.4 L 100.0,1212.4 L 50.0,1299.0 L 100.0,1385.6 L 200.0,1385.6 L 250.0,1299.0 z" class="grid"/><path d="M 250.0,1472.2 L 200.0,1385.6 L 100.0,1385.6 L 50.0,1472.2 L 100.0,1558.8 L 200.0,1558.8 L 250.0,1472.2 z" class="grid"/><path d="M 250.0,1645.4 L 200.0,1558.8 L 100.0,1558.8 L 50.0,1645.4 L 100.0,1732.0 L 200.0,1732.0 L 250.0,1645.4 z" class="grid"/><path d="M 250.0,259.8 L 200.0,173.2 L 100.0,173.2 L 50.0,259.8 L 100.0,346.4 L 200.0,346.4 L 250.0,259.8 z" class="grid"/><path d="M 250.0,433.0 L 200.0,346.4 L 100.0,346.4 L 50.0,433.0 L 100.0,519.6 L 200.0,519.6 L 250.0,433.0 z" class="grid"/><path d="M 250.0,606.2 L 200.0,519.6 L 100.0,519.6 L 50.0,606.2 L 100.0,692.8 L 200.0,692.8 L 250.0,606.2 z" class="grid"/><path d="M 250.0,86.6 L 200.0,-0.0 L 100.0,-0.0 L 50.0,86.6 L 100.0,173.2 L 200.0,173.2 L 250.0,86.6 z" class="grid"/><path d="M 250.0,952.6 L 200.0,866.0 L 100.0,866.0 L 50.0,952.6 L 100.0,1039.2 L 200.0,1039.2 L 250.0,952.6 z" class="grid"/><path d="M 400.0,1039.2 L 350.0,952.6 L 250.0,952.6 L 200.0,1039.2 L 250.0,1125.8 L 350.0,1125.8 L 400.0,1039.2 z" class="grid"/><path d="M 400.0,1212.4 L 350.0,1125.8 L 250.0,1125.8 L 200.0,1212.4 L 250.0,1299.0 L 350.0,1299.0 L 400.0,1212.4 z" class="grid"/><path d="M 400.0,1385.6 L 350.0,1299.0 L 250.0,1299.0 L 200.0,1385.6 L 250.0,1472.2 L 350.0,1472.2 L 400.0,1385.6 z" class="grid"/><path d="M 400.0,1558.8 L 350.0,1472.2 L 250.0,1472.2 L 200.0,1558.8 L 250.0,1645.4 L 350.0,1645.4 L 400.0,1558.8 z" class="grid"/><path d="M 400.0,173.2 L 350.0,86.6 L 250.0,86.6 L 200.0,173.2 L 250.0,259.8 L 350.0,259.8 L 400.0,173.2 z" class="grid"/><path d="M 400.0,346.4 L 350.0,259.8 L 250.0,259.8 L 200.0,346.4 L 250.0,433.0 L 350.0,433.0 L 400.0,346.4 z" class="grid"/><path d="M 400.0,519.6 L 350.0,433.0 L 250.0,433.0 L 200.0,519.6 L 250.0,606.2 L 350.0,606.2 L 400.0,519.6 z" class="grid"/><path d="M 400.0,692.8 L 350.0,606.2 L 250.0,606.2 L 200.0,692.8 L 250.0,779.4 L 350.0,779.4 L 400.0,692.8 z" class="grid"/><path d="M 550.0,1125.8 L 500.0,1039.2 L 400.0,1039.2 L 350.0,1125.8 L 400.0,1212.4 L 500.0,1212.4 L 550.0,1125.8 z" class="grid"/><path d="M 550.0,1299.0 L 500.0,1212.4 L 400.0,1212.4 L 350.0,1299.0 L 400.0,1385.6 L 500.0,1385.6 L 550.0,1299.0 z" class="grid"/><path d="M 550.0,1472.2 L 500.0,1385.6 L 400.0,1385.6 L 350.0,1472.2 L 400.0,1558.8 L 500.0,1558.8 L 550.0,1472.2 z" class="grid"/><path d="M 550.0,259.8 L 500.0,173.2 L 400.0,173.2 L 350.0,259.8 L 400.0,346.4 L 500.0,346.4 L 550.0,259.8 z" class="grid"/><path d="M 550.0,433.0 L 500.0,346.4 L 400.0,346.4 L 350.0,433.0 L 400.0,519.6 L 500.0,519.6 L 550.0,433.0 z" class="grid"/><path d="M 550.0,606.2 L 500.0,519.6 L 400.0,519.6 L 350.0,606.2 L 400.0,692.8 L 500.0,692.8 L 550.0,606.2 z" class="grid"/><path d="M 550.0,779.4 L 500.0,692.8 L 400.0,692.8 L 350.0,779.4 L 400.0,866.0 L 500.0,866.0 L 550.0,779.4 z" class="grid"/><path d="M 700.0,1039.2 L 650.0,952.6 L 550.0,952.6 L 500.0,1039.2 L 550.0,1125.8 L 650.0,1125.8 L 700.0,1039.2 z" class="grid"/><path d="M 700.0,1212.4 L 650.0,1125.8 L 550.0,1125.8 L 500.0,1212.4 L 550.0,1299.0 L 650.0,1299.0 L 700.0,1212.4 z" class="grid"/><path d="M 700.0,346.4 L 650.0,259.8 L 550.0,259.8 L 500.0,346.4 L 550.0,433.0 L 650.0,433.0 L 700.0,346.4 z" class="grid"/><path d="M 700.0,519.6 L 650.0,433.0 L 550.0,433.0 L 500.0,519.6 L 550.0,606.2 L 650.0,606.2 L 700.0,519.6 z" class="grid"/><path d="M 700.0,692.8 L 650.0,606.2 L 550.0,606.2 L 500.0,692.8 L 550.0,779.4 L 650.0,779.4 L 700.0,692.8 z" class="grid"/><path d="M 700.0,866.0 L 650.0,779.4 L 550.0,779.4 L 500.0,866.0 L 550.0,952.6 L 650.0,952.6 L 700.0,866.0 z" class="grid"/><path d="M 850.0,1125.8 L 800.0,1039.2 L 700.0,1039.2 L 650.0,1125.8 L 700.0,1212.4 L 800.0,1212.4 L 850.0,1125.8 z" class="grid"/><path d="M 850.0,1299.0 L 800.0,1212.4 L 700.0,1212.4 L 650.0,1299.0 L 700.0,1385.6 L 800.0,1385.6 L 850.0,1299.0 z" class="grid"/><path d="M 850.0,259.8 L 800.0,173.2 L 700.0,173.2 L 650.0,259.8 L 700.0,346.4 L 800.0,346.4 L 850.0,259.8 z" class="grid"/><path d="M 850.0,433.0 L 800.0,346.4 L 700.0,346.4 L 650.0,433.0 L 700.0,519.6 L 800.0,519.6 L 850.0,433.0 z" class="grid"/><path d="M 850.0,606.2 L 800.0,519.6 L 700.0,519.6 L 650.0,606.2 L 700.0,692.8 L 800.0,692.8 L 850.0,606.2 z" class="grid"/><path d="M 850.0,779.4 L 800.0,692.8 L 700.0,692.8 L 650.0,779.4 L 700.0,866.0 L 800.0,866.0 L 850.0,779.4 z" class="grid"/><path d="M 850.0,952.6 L 800.0,866.0 L 700.0,866.0 L 650.0,952.6 L 700.0,1039.2 L 800.0,1039.2 L 850.0,952.6 z" class="grid"/>
<text transform="translate(-180.0 -138.6)" class="number">-1.-1</text><text transform="translate(-180.0 -311.8)" class="number">-2.-1</text><text transform="translate(-180.0 -485.0)" class="number">-3.-1</text><text transform="translate(-180.0 1073.8)" class="number">6.-1</text><text transform="translate(-180.0 1247.0)" class="number">7.-1</text><text transform="translate(-180.0 1420.2)" class="number">8.-1</text><text transform="translate(-180.0 207.8)" class="number">1.-1</text><text transform="translate(-180.0 34.6)" class="number">0.-1</text><text transform="translate(-30.0 -225.2)" class="number">-1.0</text><text transform="translate(-30.0 -398.4)" class="number">-2.0</text><text transform="translate(-30.0 -52.0)" class="number">0.0</text><text transform="translate(-30.0 1160.4)" class="number">7.0</text><text transform="translate(-30.0 121.2)" class="number">1.0</text><text transform="translate(-30.0 1333.6)" class="number">8.0</text><text transform="translate(-30.0 1506.8)" class="number">9.0</text><text transform="translate(-30.0 294.4)" class="number">2.0</text><text transform="translate(-30.0 987.2)" class="number">6.0</text><text transform="translate(-330.0 -225.2)" class="number">-1.-2</text><text transform="translate(-330.0 -398.4)" class="number">-2.-2</text><text transform="translate(-330.0 -52.0)" class="number">0.-2</text><text transform="translate(-330.0 121.2)" class="number">1.-2</text><text transform="translate(1020.0 1073.8)" class="number">6.7</text><text transform="translate(1020.0 1247.0)" class="number">7.7</text><text transform="translate(1020.0 207.8)" class="number">1.7</text><text transform="translate(1020.0 381.0)" class="number">2.7</text><text transform="translate(1020.0 554.2)" class="number">3.7</text><text transform="translate(1020.0 727.4)" class="number">4.7</text><text transform="translate(1020.0 900.6)" class="number">5.7</text><text transform="translate(1170.0 1160.4)" class="number">7.8</text><text transform="translate(1170.0 294.4)" class="number">2.8</text><text transform="translate(1170.0 467.6)" class="number">3.8</text><text transform="translate(1170.0 640.8)" class="number">4.8</text><text transform="translate(1170.0 814.0)" class="number">5.8</text><text transform="translate(1170.0 987.2)" class="number">6.8</text><text transform="translate(120.0 1073.8)" class="number">6.1</text><text transform="translate(120.0 1247.0)" class="number">7.1</text><text transform="translate(120.0 1420.2)" class="number">8.1</text><text transform="translate(120.0 1593.4)" class="number">9.1</text><text transform="translate(120.0 207.8)" class="number">1.1</text><text transform="translate(120.0 34.6)" class="number">0.1</text><text transform="translate(120.0 381.0)" class="number">2.1</text><text transform="translate(120.0 554.2)" class="number">3.1</text><text transform="translate(120.0 900.6)" class="number">5.1</text><text transform="translate(1320.0 381.0)" class="number">2.9</text><text transform="translate(1320.0 554.2)" class="number">3.9</text><text transform="translate(1320.0 727.4)" class="number">4.9</text><text transform="translate(270.0 1160.4)" class="number">7.2</text><text transform="translate(270.0 121.2)" class="number">1.2</text><text transform="translate(270.0 1333.6)" class="number">8.2</text><text transform="translate(270.0 1506.8)" class="number">9.2</text><text transform="translate(270.0 294.4)" class="number">2.2</text><text transform="translate(270.0 467.6)" class="number">3.2</text><text transform="translate(270.0 640.8)" class="number">4.2</text><text transform="translate(270.0 987.2)" class="number">6.2</text><text transform="translate(420.0 1073.8)" class="number">6.3</text><text transform="translate(420.0 1247.0)" class="number">7.3</text><text transform="translate(420.0 1420.2)" class="number">8.3</text><text transform="translate(420.0 207.8)" class="number">1.3</text><text transform="translate(420.0 381.0)" class="number">2.3</text><text transform="translate(420.0 554.2)" class="number">3.3</text><text transform="translate(420.0 727.4)" class="number">4.3</text><text transform="translate(570.0 1160.4)" class="number">7.4</text><text transform="translate(570.0 294.4)" class="number">2.4</text><text transform="translate(570.0 467.6)" class="number">3.4</text><text transform="translate(570.0 640.8)" class="number">4.4</text><text transform="translate(570.0 814.0)" class="number">5.4</text><text transform="translate(570.0 987.2)" class="number">6.4</text><text transform="translate(720.0 1073.8)" class="number">6.5</text><text transform="translate(720.0 1247.0)" class="number">7.5</text><text transform="translate(720.0 207.8)" class="number">1.5</text><text transform="translate(720.0 381.0)" class="number">2.5</text><text transform="translate(720.0 554.2)" class="number">3.5</text><text transform="translate(720.0 727.4)" class="number">4.5</text><text transform="translate(720.0 900.6)" class="number">5.5</text><text transform="translate(870.0 1160.4)" class="number">7.6</text><text transform="translate(870.0 121.2)" class="number">1.6</text><text transform="translate(870.0 1333.6)" class="number">8.6</text><text transform="translate(870.0 294.4)" class="number">2.6</text><text transform="translate(870.0 467.6)" class="number">3.6</text><text transform="translate(870.0 640.8)" class="number">4.6</text><text transform="translate(870.0 814.0)" class="number">5.6</text><text transform="translate(870.0 987.2)" class="number">6.6</text>
<path d="M 1100.0,1039.2 L 1000.0,1039.2 L 950.0,1125.8 L 1000.0,1212.4 L 1100.0,1212.4 L 1150.0,1125.8 L 1100.0,1039.2 z" class="zone dangerous"/><path d="M 50.0,1125.8 L -50.0,1125.8 L -100.0,1212.4 L -50.0,1299.0 L -100.0,1385.6 L -50.0,1472.2 L 50.0,1472.2 L 100.0,1558.8 L 200.0,1558.8 L 250.0,1472.2 L 350.0,1472.2 L 400.0,1385.6 L 350.0,1299.0 L 400.0,1212.4 L 350.0,1125.8 L 250.0,1125.8 L 200.0,1039.2 L 100.0,1039.2 L 50.0,1125.8 z M 100.0,1212.4 L 200.0,1212.4 L 250.0,1299.0 L 200.0,1385.6 L 100.0,1385.6 L 50.0,1299.0 L 100.0,1212.4 z" class="zone secured"/><path d="M 650.0,1125.8 L 700.0,1212.4 L 800.0,1212.4 L 850.0,1299.0 L 950.0,1299.0 L 1000.0,1212.4 L 1100.0,1212.4 L 1150.0,1125.8 L 1100.0,1039.2 L 1000.0,1039.2 L 950.0,1125.8 L 850.0,1125.8 L 800.0,1039.2 L 700.0,1039.2 L 650.0,1125.8 z" class="zone secured"/><path d="M 950.0,779.4 L 850.0,779.4 L 800.0,866.0 L 850.0,952.6 L 950.0,952.6 L 1000.0,866.0 L 950.0,779.4 z" class="zone dangerous"/>
</svg>