<svg width="150mm" height="208mm" data-name="Layer 1" id="Layer_1" xmlns="http://www.w3.org/2000/svg">
    <style type="text/css">
        polygon {
            fill: none;
            stroke: #8E8E8E;
            stroke-width: 2.0;
            stroke-miterlimit: 10;
        }

        .plain {
            fill: lightgreen;
        }

        .lwood {
            fill: green;
        }

        .hwood {
            fill: darkgreen;
        }

        .grass {
            fill: chartreuse;
        }

        .mountain {
            fill: maroon;
        }

        .hill {
            fill: bisque;
        }

        .sea {
            fill: blue;
        }


        .lake {
            fill: lightskyblue;
        }


        .marsh {
            fill: yellowgreen;
        }


        .desert {
            fill: lightyellow;
        }

        .unknown {
            fill: gray;
        }
    </style>
    <polygon class="st0" points="56.692666599999995,0.0 28.346333299999998,-49.09728948388156 -28.346333299999998,-49.09728948388156 -56.692666599999995,0.0 -28.346333299999998,49.09728948388156 28.346333299999998,49.09728948388156 " /><polygon class="st0" points="141.7316665,49.09728948388156 113.38533319999999,0.0 56.692666599999995,0.0 28.346333299999998,49.09728948388156 56.692666599999995,98.19457896776312 113.38533319999999,98.19457896776312 " /><polygon class="st0" points="226.77066639999998,0.0 198.42433309999998,-49.09728948388156 141.7316665,-49.09728948388156 113.38533319999999,0.0 141.7316665,49.09728948388156 198.42433309999998,49.09728948388156 " /><polygon class="st0" points="311.8096663,49.09728948388156 283.463333,0.0 226.77066639999998,0.0 198.42433309999998,49.09728948388156 226.77066639999998,98.19457896776312 283.463333,98.19457896776312 " /><polygon class="st0" points="396.84866619999997,0.0 368.5023329,-49.09728948388156 311.8096663,-49.09728948388156 283.463333,0.0 311.8096663,49.09728948388156 368.5023329,49.09728948388156 " /><polygon class="st0" points="56.692666599999995,98.19457896776312 28.346333299999998,49.09728948388156 -28.346333299999998,49.09728948388156 -56.692666599999995,98.19457896776312 -28.346333299999998,147.2918684516447 28.346333299999998,147.2918684516447 " /><polygon class="hwood" points="141.7316665,147.2918684516447 113.38533319999999,98.1945789677631 56.692666599999995,98.1945789677631 28.346333299999998,147.2918684516447 56.692666599999995,196.38915793552624 113.38533319999999,196.38915793552624 " /><polygon class="marsh" points="226.77066639999998,98.19457896776312 198.42433309999998,49.09728948388156 141.7316665,49.09728948388156 113.38533319999999,98.19457896776312 141.7316665,147.2918684516447 198.42433309999998,147.2918684516447 " /><polygon class="lwood" points="311.8096663,147.2918684516447 283.463333,98.1945789677631 226.77066639999998,98.1945789677631 198.42433309999998,147.2918684516447 226.77066639999998,196.38915793552624 283.463333,196.38915793552624 " /><polygon class="st0" points="396.84866619999997,98.19457896776312 368.5023329,49.09728948388156 311.8096663,49.09728948388156 283.463333,98.19457896776312 311.8096663,147.2918684516447 368.5023329,147.2918684516447 " /><polygon class="st0" points="56.692666599999995,196.38915793552624 28.346333299999998,147.2918684516447 -28.346333299999998,147.2918684516447 -56.692666599999995,196.38915793552624 -28.346333299999998,245.48644741940782 28.346333299999998,245.48644741940782 " /><polygon class="mountain" points="141.7316665,245.48644741940782 113.38533319999999,196.38915793552624 56.692666599999995,196.38915793552624 28.346333299999998,245.48644741940782 56.692666599999995,294.5837369032894 113.38533319999999,294.5837369032894 " /><polygon class="hill" points="226.77066639999998,196.38915793552624 198.42433309999998,147.2918684516447 141.7316665,147.2918684516447 113.38533319999999,196.38915793552624 141.7316665,245.48644741940782 198.42433309999998,245.48644741940782 " /><polygon class="unknown" points="311.8096663,245.48644741940782 283.463333,196.38915793552624 226.77066639999998,196.38915793552624 198.42433309999998,245.48644741940782 226.77066639999998,294.5837369032894 283.463333,294.5837369032894 " /><polygon class="st0" points="396.84866619999997,196.38915793552624 368.5023329,147.2918684516447 311.8096663,147.2918684516447 283.463333,196.38915793552624 311.8096663,245.48644741940782 368.5023329,245.48644741940782 " /><polygon class="st0" points="56.692666599999995,294.5837369032894 28.346333299999998,245.48644741940777 -28.346333299999998,245.48644741940777 -56.692666599999995,294.5837369032894 -28.346333299999998,343.6810263871709 28.346333299999998,343.6810263871709 " /><polygon class="grass" points="141.7316665,343.6810263871709 113.38533319999999,294.5837369032894 56.692666599999995,294.5837369032894 28.346333299999998,343.6810263871709 56.692666599999995,392.7783158710525 113.38533319999999,392.7783158710525 " /><polygon class="sea" points="226.77066639999998,294.5837369032894 198.42433309999998,245.48644741940777 141.7316665,245.48644741940777 113.38533319999999,294.5837369032894 141.7316665,343.6810263871709 198.42433309999998,343.6810263871709 " /><polygon class="lake" points="311.8096663,343.6810263871709 283.463333,294.5837369032894 226.77066639999998,294.5837369032894 198.42433309999998,343.6810263871709 226.77066639999998,392.7783158710525 283.463333,392.7783158710525 " /><polygon class="st0" points="396.84866619999997,294.5837369032894 368.5023329,245.48644741940777 311.8096663,245.48644741940777 283.463333,294.5837369032894 311.8096663,343.6810263871709 368.5023329,343.6810263871709 " /><polygon class="st0" points="56.692666599999995,392.7783158710525 28.346333299999998,343.6810263871709 -28.346333299999998,343.6810263871709 -56.692666599999995,392.7783158710525 -28.346333299999998,441.875605354934 28.346333299999998,441.875605354934 " /><polygon class="st0" points="141.7316665,441.875605354934 113.38533319999999,392.7783158710525 56.692666599999995,392.7783158710525 28.346333299999998,441.875605354934 56.692666599999995,490.97289483881553 113.38533319999999,490.97289483881553 " /><polygon class="plain" points="226.77066639999998,392.7783158710525 198.42433309999998,343.6810263871709 141.7316665,343.6810263871709 113.38533319999999,392.7783158710525 141.7316665,441.875605354934 198.42433309999998,441.875605354934 " /><polygon class="st0" points="311.8096663,441.875605354934 283.463333,392.7783158710525 226.77066639999998,392.7783158710525 198.42433309999998,441.875605354934 226.77066639999998,490.97289483881553 283.463333,490.97289483881553 " /><polygon class="st0" points="396.84866619999997,392.7783158710525 368.5023329,343.6810263871709 311.8096663,343.6810263871709 283.463333,392.7783158710525 311.8096663,441.875605354934 368.5023329,441.875605354934 " /><polygon class="st0" points="56.692666599999995,490.97289483881565 28.346333299999998,441.8756053549341 -28.346333299999998,441.8756053549341 -56.692666599999995,490.97289483881565 -28.346333299999998,540.0701843226972 28.346333299999998,540.0701843226972 " /><polygon class="st0" points="141.7316665,540.0701843226972 113.38533319999999,490.97289483881565 56.692666599999995,490.97289483881565 28.346333299999998,540.0701843226972 56.692666599999995,589.1674738065788 113.38533319999999,589.1674738065788 " /><polygon class="st0" points="226.77066639999998,490.97289483881565 198.42433309999998,441.8756053549341 141.7316665,441.8756053549341 113.38533319999999,490.97289483881565 141.7316665,540.0701843226972 198.42433309999998,540.0701843226972 " /><polygon class="st0" points="311.8096663,540.0701843226972 283.463333,490.97289483881565 226.77066639999998,490.97289483881565 198.42433309999998,540.0701843226972 226.77066639999998,589.1674738065788 283.463333,589.1674738065788 " /><polygon class="st0" points="396.84866619999997,490.97289483881565 368.5023329,441.8756053549341 311.8096663,441.8756053549341 283.463333,490.97289483881565 311.8096663,540.0701843226972 368.5023329,540.0701843226972 " /><text transform="translate(-28.346333299999998 -28.346333299999998)" style="font-size: 5.66926666mm;font-family: PTSans-NarrowBold, PT Sans Narrow;font-weight: 700">0.0</text><text transform="translate(56.692666599999995 20.750956183881563)" style="font-size: 5.66926666mm;font-family: PTSans-NarrowBold, PT Sans Narrow;font-weight: 700">1.0</text><text transform="translate(141.7316665 -28.346333299999998)" style="font-size: 5.66926666mm;font-family: PTSans-NarrowBold, PT Sans Narrow;font-weight: 700">2.0</text><text transform="translate(226.77066639999998 20.750956183881563)" style="font-size: 5.66926666mm;font-family: PTSans-NarrowBold, PT Sans Narrow;font-weight: 700">3.0</text><text transform="translate(311.8096663 -28.346333299999998)" style="font-size: 5.66926666mm;font-family: PTSans-NarrowBold, PT Sans Narrow;font-weight: 700">4.0</text><text transform="translate(-28.346333299999998 69.84824566776312)" style="font-size: 5.66926666mm;font-family: PTSans-NarrowBold, PT Sans Narrow;font-weight: 700">0.1</text><text transform="translate(56.692666599999995 118.94553515164468)" style="font-size: 5.66926666mm;font-family: PTSans-NarrowBold, PT Sans Narrow;font-weight: 700">1.1</text><text transform="translate(141.7316665 69.84824566776312)" style="font-size: 5.66926666mm;font-family: PTSans-NarrowBold, PT Sans Narrow;font-weight: 700">2.1</text><text transform="translate(226.77066639999998 118.94553515164468)" style="font-size: 5.66926666mm;font-family: PTSans-NarrowBold, PT Sans Narrow;font-weight: 700">3.1</text><text transform="translate(311.8096663 69.84824566776312)" style="font-size: 5.66926666mm;font-family: PTSans-NarrowBold, PT Sans Narrow;font-weight: 700">4.1</text><text transform="translate(-28.346333299999998 168.04282463552624)" style="font-size: 5.66926666mm;font-family: PTSans-NarrowBold, PT Sans Narrow;font-weight: 700">0.2</text><text transform="translate(56.692666599999995 217.14011411940783)" style="font-size: 5.66926666mm;font-family: PTSans-NarrowBold, PT Sans Narrow;font-weight: 700">1.2</text><text transform="translate(141.7316665 168.04282463552624)" style="font-size: 5.66926666mm;font-family: PTSans-NarrowBold, PT Sans Narrow;font-weight: 700">2.2</text><text transform="translate(226.77066639999998 217.14011411940783)" style="font-size: 5.66926666mm;font-family: PTSans-NarrowBold, PT Sans Narrow;font-weight: 700">3.2</text><text transform="translate(311.8096663 168.04282463552624)" style="font-size: 5.66926666mm;font-family: PTSans-NarrowBold, PT Sans Narrow;font-weight: 700">4.2</text><text transform="translate(-28.346333299999998 266.23740360328935)" style="font-size: 5.66926666mm;font-family: PTSans-NarrowBold, PT Sans Narrow;font-weight: 700">0.3</text><text transform="translate(56.692666599999995 315.33469308717093)" style="font-size: 5.66926666mm;font-family: PTSans-NarrowBold, PT Sans Narrow;font-weight: 700">1.3</text><text transform="translate(141.7316665 266.23740360328935)" style="font-size: 5.66926666mm;font-family: PTSans-NarrowBold, PT Sans Narrow;font-weight: 700">2.3</text><text transform="translate(226.77066639999998 315.33469308717093)" style="font-size: 5.66926666mm;font-family: PTSans-NarrowBold, PT Sans Narrow;font-weight: 700">3.3</text><text transform="translate(311.8096663 266.23740360328935)" style="font-size: 5.66926666mm;font-family: PTSans-NarrowBold, PT Sans Narrow;font-weight: 700">4.3</text><text transform="translate(-28.346333299999998 364.4319825710525)" style="font-size: 5.66926666mm;font-family: PTSans-NarrowBold, PT Sans Narrow;font-weight: 700">0.4</text><text transform="translate(56.692666599999995 413.52927205493404)" style="font-size: 5.66926666mm;font-family: PTSans-NarrowBold, PT Sans Narrow;font-weight: 700">1.4</text><text transform="translate(141.7316665 364.4319825710525)" style="font-size: 5.66926666mm;font-family: PTSans-NarrowBold, PT Sans Narrow;font-weight: 700">2.4</text><text transform="translate(226.77066639999998 413.52927205493404)" style="font-size: 5.66926666mm;font-family: PTSans-NarrowBold, PT Sans Narrow;font-weight: 700">3.4</text><text transform="translate(311.8096663 364.4319825710525)" style="font-size: 5.66926666mm;font-family: PTSans-NarrowBold, PT Sans Narrow;font-weight: 700">4.4</text><text transform="translate(-28.346333299999998 462.6265615388156)" style="font-size: 5.66926666mm;font-family: PTSans-NarrowBold, PT Sans Narrow;font-weight: 700">0.5</text><text transform="translate(56.692666599999995 511.7238510226972)" style="font-size: 5.66926666mm;font-family: PTSans-NarrowBold, PT Sans Narrow;font-weight: 700">1.5</text><text transform="translate(141.7316665 462.6265615388156)" style="font-size: 5.66926666mm;font-family: PTSans-NarrowBold, PT Sans Narrow;font-weight: 700">2.5</text><text transform="translate(226.77066639999998 511.7238510226972)" style="font-size: 5.66926666mm;font-family: PTSans-NarrowBold, PT Sans Narrow;font-weight: 700">3.5</text><text transform="translate(311.8096663 462.6265615388156)" style="font-size: 5.66926666mm;font-family: PTSans-NarrowBold, PT Sans Narrow;font-weight: 700">4.5</text>
</svg>