<svg width="150mm" height="208mm" data-name="Layer 1" id="Layer_1" xmlns="http://www.w3.org/2000/svg">
    <style type="text/css">
        polygon {
            fill: none;
            stroke: #8E8E8E;
            stroke-width: 2.0;
            stroke-miterlimit: 10;
        }

        .plain {
            fill: lightgreen;
        }

        .lwood {
            fill: green;
        }

        .hwood {
            fill: darkgreen;
        }

        .grass {
            fill: chartreuse;
        }

        .mountain {
            fill: maroon;
        }

        .hill {
            fill: bisque;
        }

        .sea {
            fill: blue;
        }


        .lake {
            fill: lightskyblue;
        }


        .marsh {
            fill: yellowgreen;
        }


        .desert {
            fill: lightyellow;
        }

        .unknown {
            fill: gray;
        }
    </style>
    <polygon class="st0" points="60.0,0.0 30.0,-51.96152422706632 -30.0,-51.96152422706632 -60.0,0.0 -30.0,51.96152422706632 30.0,51.96152422706632 " /><polygon class="st0" points="150.0,51.96152422706632 120.0,0.0 60.0,0.0 30.0,51.96152422706632 60.0,103.92304845413264 120.0,103.92304845413264 " /><polygon class="st0" points="240.0,0.0 210.0,-51.96152422706632 150.0,-51.96152422706632 120.0,0.0 150.0,51.96152422706632 210.0,51.96152422706632 " /><polygon class="st0" points="330.0,51.96152422706632 300.0,0.0 240.0,0.0 210.0,51.96152422706632 240.0,103.92304845413264 300.0,103.92304845413264 " /><polygon class="st0" points="420.0,0.0 390.0,-51.96152422706632 330.0,-51.96152422706632 300.0,0.0 330.0,51.96152422706632 390.0,51.96152422706632 " /><polygon class="st0" points="60.0,103.92304845413264 30.0,51.96152422706632 -30.0,51.96152422706632 -60.0,103.92304845413264 -30.0,155.88457268119896 30.0,155.88457268119896 " /><polygon class="hwood" points="150.0,155.88457268119896 120.0,103.92304845413263 60.0,103.92304845413263 30.0,155.88457268119896 60.0,207.84609690826528 120.0,207.84609690826528 " /><polygon class="marsh" points="240.0,103.92304845413264 210.0,51.96152422706632 150.0,51.96152422706632 120.0,103.92304845413264 150.0,155.88457268119896 210.0,155.88457268119896 " /><polygon class="lwood" points="330.0,155.88457268119896 300.0,103.92304845413263 240.0,103.92304845413263 210.0,155.88457268119896 240.0,207.84609690826528 300.0,207.84609690826528 " /><polygon class="st0" points="420.0,103.92304845413264 390.0,51.96152422706632 330.0,51.96152422706632 300.0,103.92304845413264 330.0,155.88457268119896 390.0,155.88457268119896 " /><polygon class="st0" points="60.0,207.84609690826528 30.0,155.88457268119896 -30.0,155.88457268119896 -60.0,207.84609690826528 -30.0,259.8076211353316 30.0,259.8076211353316 " /><polygon class="mountain" points="150.0,259.8076211353316 120.0,207.84609690826528 60.0,207.84609690826528 30.0,259.8076211353316 60.0,311.769145362398 120.0,311.769145362398 " /><polygon class="hill" points="240.0,207.84609690826528 210.0,155.88457268119896 150.0,155.88457268119896 120.0,207.84609690826528 150.0,259.8076211353316 210.0,259.8076211353316 " /><polygon class="unknown" points="330.0,259.8076211353316 300.0,207.84609690826528 240.0,207.84609690826528 210.0,259.8076211353316 240.0,311.769145362398 300.0,311.769145362398 " /><polygon class="st0" points="420.0,207.84609690826528 390.0,155.88457268119896 330.0,155.88457268119896 300.0,207.84609690826528 330.0,259.8076211353316 390.0,259.8076211353316 " /><polygon class="st0" points="60.0,311.7691453623979 30.0,259.8076211353316 -30.0,259.8076211353316 -60.0,311.7691453623979 -30.0,363.73066958946424 30.0,363.73066958946424 " /><polygon class="grass" points="150.0,363.73066958946424 120.0,311.7691453623979 60.0,311.7691453623979 30.0,363.73066958946424 60.0,415.69219381653056 120.0,415.69219381653056 " /><polygon class="sea" points="240.0,311.7691453623979 210.0,259.8076211353316 150.0,259.8076211353316 120.0,311.7691453623979 150.0,363.73066958946424 210.0,363.73066958946424 " /><polygon class="lake" points="330.0,363.73066958946424 300.0,311.7691453623979 240.0,311.7691453623979 210.0,363.73066958946424 240.0,415.69219381653056 300.0,415.69219381653056 " /><polygon class="st0" points="420.0,311.7691453623979 390.0,259.8076211353316 330.0,259.8076211353316 300.0,311.7691453623979 330.0,363.73066958946424 390.0,363.73066958946424 " /><polygon class="st0" points="60.0,415.69219381653056 30.0,363.73066958946424 -30.0,363.73066958946424 -60.0,415.69219381653056 -30.0,467.6537180435969 30.0,467.6537180435969 " /><polygon class="st0" points="150.0,467.6537180435969 120.0,415.69219381653056 60.0,415.69219381653056 30.0,467.6537180435969 60.0,519.6152422706632 120.0,519.6152422706632 " /><polygon class="plain" points="240.0,415.69219381653056 210.0,363.73066958946424 150.0,363.73066958946424 120.0,415.69219381653056 150.0,467.6537180435969 210.0,467.6537180435969 " /><polygon class="st0" points="330.0,467.6537180435969 300.0,415.69219381653056 240.0,415.69219381653056 210.0,467.6537180435969 240.0,519.6152422706632 300.0,519.6152422706632 " /><polygon class="st0" points="420.0,415.69219381653056 390.0,363.73066958946424 330.0,363.73066958946424 300.0,415.69219381653056 330.0,467.6537180435969 390.0,467.6537180435969 " /><polygon class="st0" points="60.0,519.6152422706632 30.0,467.653718043597 -30.0,467.653718043597 -60.0,519.6152422706632 -30.0,571.5767664977295 30.0,571.5767664977295 " /><polygon class="st0" points="150.0,571.5767664977295 120.0,519.6152422706632 60.0,519.6152422706632 30.0,571.5767664977295 60.0,623.5382907247958 120.0,623.5382907247958 " /><polygon class="st0" points="240.0,519.6152422706632 210.0,467.653718043597 150.0,467.653718043597 120.0,519.6152422706632 150.0,571.5767664977295 210.0,571.5767664977295 " /><polygon class="st0" points="330.0,571.5767664977295 300.0,519.6152422706632 240.0,519.6152422706632 210.0,571.5767664977295 240.0,623.5382907247958 300.0,623.5382907247958 " /><polygon class="st0" points="420.0,519.6152422706632 390.0,467.653718043597 330.0,467.653718043597 300.0,519.6152422706632 330.0,571.5767664977295 390.0,571.5767664977295 " /><text transform="translate(-30.0 -30.0)" style="font-size: 6.0mm;font-family: PTSans-NarrowBold, PT Sans Narrow;font-weight: 700">0.0</text><text transform="translate(60.0 21.961524227066324)" style="font-size: 6.0mm;font-family: PTSans-NarrowBold, PT Sans Narrow;font-weight: 700">0.1</text><text transform="translate(150.0 -30.0)" style="font-size: 6.0mm;font-family: PTSans-NarrowBold, PT Sans Narrow;font-weight: 700">0.2</text><text transform="translate(240.0 21.961524227066324)" style="font-size: 6.0mm;font-family: PTSans-NarrowBold, PT Sans Narrow;font-weight: 700">0.3</text><text transform="translate(330.0 -30.0)" style="font-size: 6.0mm;font-family: PTSans-NarrowBold, PT Sans Narrow;font-weight: 700">0.4</text><text transform="translate(-30.0 73.92304845413264)" style="font-size: 6.0mm;font-family: PTSans-NarrowBold, PT Sans Narrow;font-weight: 700">1.0</text><text transform="translate(60.0 125.88457268119896)" style="font-size: 6.0mm;font-family: PTSans-NarrowBold, PT Sans Narrow;font-weight: 700">1.1</text><text transform="translate(150.0 73.92304845413264)" style="font-size: 6.0mm;font-family: PTSans-NarrowBold, PT Sans Narrow;font-weight: 700">1.2</text><text transform="translate(240.0 125.88457268119896)" style="font-size: 6.0mm;font-family: PTSans-NarrowBold, PT Sans Narrow;font-weight: 700">1.3</text><text transform="translate(330.0 73.92304845413264)" style="font-size: 6.0mm;font-family: PTSans-NarrowBold, PT Sans Narrow;font-weight: 700">1.4</text><text transform="translate(-30.0 177.84609690826528)" style="font-size: 6.0mm;font-family: PTSans-NarrowBold, PT Sans Narrow;font-weight: 700">2.0</text><text transform="translate(60.0 229.80762113533163)" style="font-size: 6.0mm;font-family: PTSans-NarrowBold, PT Sans Narrow;font-weight: 700">2.1</text><text transform="translate(150.0 177.84609690826528)" style="font-size: 6.0mm;font-family: PTSans-NarrowBold, PT Sans Narrow;font-weight: 700">2.2</text><text transform="translate(240.0 229.80762113533163)" style="font-size: 6.0mm;font-family: PTSans-NarrowBold, PT Sans Narrow;font-weight: 700">2.3</text><text transform="translate(330.0 177.84609690826528)" style="font-size: 6.0mm;font-family: PTSans-NarrowBold, PT Sans Narrow;font-weight: 700">2.4</text><text transform="translate(-30.0 281.7691453623979)" style="font-size: 6.0mm;font-family: PTSans-NarrowBold, PT Sans Narrow;font-weight: 700">3.0</text><text transform="translate(60.0 333.73066958946424)" style="font-size: 6.0mm;font-family: PTSans-NarrowBold, PT Sans Narrow;font-weight: 700">3.1</text><text transform="translate(150.0 281.7691453623979)" style="font-size: 6.0mm;font-family: PTSans-NarrowBold, PT Sans Narrow;font-weight: 700">3.2</text><text transform="translate(240.0 333.73066958946424)" style="font-size: 6.0mm;font-family: PTSans-NarrowBold, PT Sans Narrow;font-weight: 700">3.3</text><text transform="translate(330.0 281.7691453623979)" style="font-size: 6.0mm;font-family: PTSans-NarrowBold, PT Sans Narrow;font-weight: 700">3.4</text><text transform="translate(-30.0 385.69219381653056)" style="font-size: 6.0mm;font-family: PTSans-NarrowBold, PT Sans Narrow;font-weight: 700">4.0</text><text transform="translate(60.0 437.6537180435969)" style="font-size: 6.0mm;font-family: PTSans-NarrowBold, PT Sans Narrow;font-weight: 700">4.1</text><text transform="translate(150.0 385.69219381653056)" style="font-size: 6.0mm;font-family: PTSans-NarrowBold, PT Sans Narrow;font-weight: 700">4.2</text><text transform="translate(240.0 437.6537180435969)" style="font-size: 6.0mm;font-family: PTSans-NarrowBold, PT Sans Narrow;font-weight: 700">4.3</text><text transform="translate(330.0 385.69219381653056)" style="font-size: 6.0mm;font-family: PTSans-NarrowBold, PT Sans Narrow;font-weight: 700">4.4</text><text transform="translate(-30.0 489.61524227066326)" style="font-size: 6.0mm;font-family: PTSans-NarrowBold, PT Sans Narrow;font-weight: 700">5.0</text><text transform="translate(60.0 541.5767664977295)" style="font-size: 6.0mm;font-family: PTSans-NarrowBold, PT Sans Narrow;font-weight: 700">5.1</text><text transform="translate(150.0 489.61524227066326)" style="font-size: 6.0mm;font-family: PTSans-NarrowBold, PT Sans Narrow;font-weight: 700">5.2</text><text transform="translate(240.0 541.5767664977295)" style="font-size: 6.0mm;font-family: PTSans-NarrowBold, PT Sans Narrow;font-weight: 700">5.3</text><text transform="translate(330.0 489.61524227066326)" style="font-size: 6.0mm;font-family: PTSans-NarrowBold, PT Sans Narrow;font-weight: 700">5.4</text>
</svg>