<svg width="360.0mm" height="69.2820323027551mm" data-name="Layer 1" id="Layer_1" xmlns="http://www.w3.org/2000/svg" >
<style type="text/css">
	.st0{fill:none;stroke:#8E8E8E;stroke-width:2.0;stroke-miterlimit:10;}
</style>
<polygon class="st0" points="141.7316665,147.2918684516447 113.38533319999999,98.1945789677631 56.692666599999995,98.1945789677631 28.346333299999998,147.2918684516447 56.692666599999995,196.38915793552624 113.38533319999999,196.38915793552624 "/><polygon class="st0" points="226.77066639999998,98.19457896776312 198.42433309999998,49.09728948388156 141.7316665,49.09728948388156 113.38533319999999,98.19457896776312 141.7316665,147.2918684516447 198.42433309999998,147.2918684516447 "/><polygon class="st0" points="311.8096663,147.2918684516447 283.463333,98.1945789677631 226.77066639999998,98.1945789677631 198.42433309999998,147.2918684516447 226.77066639999998,196.38915793552624 283.463333,196.38915793552624 "/><polygon class="st0" points="396.84866619999997,98.19457896776312 368.5023329,49.09728948388156 311.8096663,49.09728948388156 283.463333,98.19457896776312 311.8096663,147.2918684516447 368.5023329,147.2918684516447 "/><polygon class="st0" points="481.8876661,147.2918684516447 453.54133279999996,98.1945789677631 396.84866619999997,98.1945789677631 368.5023329,147.2918684516447 396.84866619999997,196.38915793552624 453.54133279999996,196.38915793552624 "/><polygon class="st0" points="566.926666,98.19457896776312 538.5803327,49.09728948388156 481.8876661,49.09728948388156 453.54133279999996,98.19457896776312 481.8876661,147.2918684516447 538.5803327,147.2918684516447 "/><polygon class="st0" points="651.9656659,147.2918684516447 623.6193326,98.1945789677631 566.926666,98.1945789677631 538.5803327,147.2918684516447 566.926666,196.38915793552624 623.6193326,196.38915793552624 "/><polygon class="st0" points="737.0046658,98.19457896776312 708.6583325,49.09728948388156 651.9656659,49.09728948388156 623.6193326,98.19457896776312 651.9656659,147.2918684516447 708.6583325,147.2918684516447 "/><polygon class="st0" points="822.0436657,147.2918684516447 793.6973323999999,98.1945789677631 737.0046658,98.1945789677631 708.6583325,147.2918684516447 737.0046658,196.38915793552624 793.6973323999999,196.38915793552624 "/><polygon class="st0" points="907.0826655999999,98.19457896776312 878.7363323,49.09728948388156 822.0436657,49.09728948388156 793.6973323999999,98.19457896776312 822.0436657,147.2918684516447 878.7363323,147.2918684516447 "/><polygon class="st0" points="992.1216655,147.2918684516447 963.7753322,98.1945789677631 907.0826655999999,98.1945789677631 878.7363323,147.2918684516447 907.0826655999999,196.38915793552624 963.7753322,196.38915793552624 "/><polygon class="st0" points="1077.1606654,98.19457896776312 1048.8143321,49.09728948388156 992.1216655,49.09728948388156 963.7753322,98.19457896776312 992.1216655,147.2918684516447 1048.8143321,147.2918684516447 "/><polygon class="st0" points="1162.1996652999999,147.2918684516447 1133.853332,98.1945789677631 1077.1606654,98.1945789677631 1048.8143321,147.2918684516447 1077.1606654,196.38915793552624 1133.853332,196.38915793552624 "/><polygon class="st0" points="141.7316665,245.48644741940782 113.38533319999999,196.38915793552624 56.692666599999995,196.38915793552624 28.346333299999998,245.48644741940782 56.692666599999995,294.5837369032894 113.38533319999999,294.5837369032894 "/><polygon class="st0" points="226.77066639999998,196.38915793552624 198.42433309999998,147.2918684516447 141.7316665,147.2918684516447 113.38533319999999,196.38915793552624 141.7316665,245.48644741940782 198.42433309999998,245.48644741940782 "/><polygon class="st0" points="311.8096663,245.48644741940782 283.463333,196.38915793552624 226.77066639999998,196.38915793552624 198.42433309999998,245.48644741940782 226.77066639999998,294.5837369032894 283.463333,294.5837369032894 "/><polygon class="st0" points="396.84866619999997,196.38915793552624 368.5023329,147.2918684516447 311.8096663,147.2918684516447 283.463333,196.38915793552624 311.8096663,245.48644741940782 368.5023329,245.48644741940782 "/><polygon class="st0" points="481.8876661,245.48644741940782 453.54133279999996,196.38915793552624 396.84866619999997,196.38915793552624 368.5023329,245.48644741940782 396.84866619999997,294.5837369032894 453.54133279999996,294.5837369032894 "/><polygon class="st0" points="566.926666,196.38915793552624 538.5803327,147.2918684516447 481.8876661,147.2918684516447 453.54133279999996,196.38915793552624 481.8876661,245.48644741940782 538.5803327,245.48644741940782 "/><polygon class="st0" points="651.9656659,245.48644741940782 623.6193326,196.38915793552624 566.926666,196.38915793552624 538.5803327,245.48644741940782 566.926666,294.5837369032894 623.6193326,294.5837369032894 "/><polygon class="st0" points="737.0046658,196.38915793552624 708.6583325,147.2918684516447 651.9656659,147.2918684516447 623.6193326,196.38915793552624 651.9656659,245.48644741940782 708.6583325,245.48644741940782 "/><polygon class="st0" points="822.0436657,245.48644741940782 793.6973323999999,196.38915793552624 737.0046658,196.38915793552624 708.6583325,245.48644741940782 737.0046658,294.5837369032894 793.6973323999999,294.5837369032894 "/><polygon class="st0" points="907.0826655999999,196.38915793552624 878.7363323,147.2918684516447 822.0436657,147.2918684516447 793.6973323999999,196.38915793552624 822.0436657,245.48644741940782 878.7363323,245.48644741940782 "/><polygon class="st0" points="992.1216655,245.48644741940782 963.7753322,196.38915793552624 907.0826655999999,196.38915793552624 878.7363323,245.48644741940782 907.0826655999999,294.5837369032894 963.7753322,294.5837369032894 "/><polygon class="st0" points="1077.1606654,196.38915793552624 1048.8143321,147.2918684516447 992.1216655,147.2918684516447 963.7753322,196.38915793552624 992.1216655,245.48644741940782 1048.8143321,245.48644741940782 "/><polygon class="st0" points="1162.1996652999999,245.48644741940782 1133.853332,196.38915793552624 1077.1606654,196.38915793552624 1048.8143321,245.48644741940782 1077.1606654,294.5837369032894 1133.853332,294.5837369032894 "/><polygon class="st0" points="141.7316665,343.6810263871709 113.38533319999999,294.5837369032894 56.692666599999995,294.5837369032894 28.346333299999998,343.6810263871709 56.692666599999995,392.7783158710525 113.38533319999999,392.7783158710525 "/><polygon class="st0" points="226.77066639999998,294.5837369032894 198.42433309999998,245.48644741940777 141.7316665,245.48644741940777 113.38533319999999,294.5837369032894 141.7316665,343.6810263871709 198.42433309999998,343.6810263871709 "/><polygon class="st0" points="311.8096663,343.6810263871709 283.463333,294.5837369032894 226.77066639999998,294.5837369032894 198.42433309999998,343.6810263871709 226.77066639999998,392.7783158710525 283.463333,392.7783158710525 "/><polygon class="st0" points="396.84866619999997,294.5837369032894 368.5023329,245.48644741940777 311.8096663,245.48644741940777 283.463333,294.5837369032894 311.8096663,343.6810263871709 368.5023329,343.6810263871709 "/><polygon class="st0" points="481.8876661,343.6810263871709 453.54133279999996,294.5837369032894 396.84866619999997,294.5837369032894 368.5023329,343.6810263871709 396.84866619999997,392.7783158710525 453.54133279999996,392.7783158710525 "/><polygon class="st0" points="566.926666,294.5837369032894 538.5803327,245.48644741940777 481.8876661,245.48644741940777 453.54133279999996,294.5837369032894 481.8876661,343.6810263871709 538.5803327,343.6810263871709 "/><polygon class="st0" points="651.9656659,343.6810263871709 623.6193326,294.5837369032894 566.926666,294.5837369032894 538.5803327,343.6810263871709 566.926666,392.7783158710525 623.6193326,392.7783158710525 "/><polygon class="st0" points="737.0046658,294.5837369032894 708.6583325,245.48644741940777 651.9656659,245.48644741940777 623.6193326,294.5837369032894 651.9656659,343.6810263871709 708.6583325,343.6810263871709 "/><polygon class="st0" points="822.0436657,343.6810263871709 793.6973323999999,294.5837369032894 737.0046658,294.5837369032894 708.6583325,343.6810263871709 737.0046658,392.7783158710525 793.6973323999999,392.7783158710525 "/><polygon class="st0" points="907.0826655999999,294.5837369032894 878.7363323,245.48644741940777 822.0436657,245.48644741940777 793.6973323999999,294.5837369032894 822.0436657,343.6810263871709 878.7363323,343.6810263871709 "/><polygon class="st0" points="992.1216655,343.6810263871709 963.7753322,294.5837369032894 907.0826655999999,294.5837369032894 878.7363323,343.6810263871709 907.0826655999999,392.7783158710525 963.7753322,392.7783158710525 "/><polygon class="st0" points="1077.1606654,294.5837369032894 1048.8143321,245.48644741940777 992.1216655,245.48644741940777 963.7753322,294.5837369032894 992.1216655,343.6810263871709 1048.8143321,343.6810263871709 "/><polygon class="st0" points="1162.1996652999999,343.6810263871709 1133.853332,294.5837369032894 1077.1606654,294.5837369032894 1048.8143321,343.6810263871709 1077.1606654,392.7783158710525 1133.853332,392.7783158710525 "/><text transform="translate(56.692666599999995 118.94553515164468)" style="font-size: 5.66926666mm;font-family: PTSans-NarrowBold, PT Sans Narrow;font-weight: 700">2.2</text><text transform="translate(141.7316665 69.84824566776312)" style="font-size: 5.66926666mm;font-family: PTSans-NarrowBold, PT Sans Narrow;font-weight: 700">3.2</text><text transform="translate(226.77066639999998 118.94553515164468)" style="font-size: 5.66926666mm;font-family: PTSans-NarrowBold, PT Sans Narrow;font-weight: 700">4.2</text><text transform="translate(311.8096663 69.84824566776312)" style="font-size: 5.66926666mm;font-family: PTSans-NarrowBold, PT Sans Narrow;font-weight: 700">5.2</text><text transform="translate(396.84866619999997 118.94553515164468)" style="font-size: 5.66926666mm;font-family: PTSans-NarrowBold, PT Sans Narrow;font-weight: 700">6.2</text><text transform="translate(481.8876661 69.84824566776312)" style="font-size: 5.66926666mm;font-family: PTSans-NarrowBold, PT Sans Narrow;font-weight: 700">7.2</text><text transform="translate(566.926666 118.94553515164468)" style="font-size: 5.66926666mm;font-family: PTSans-NarrowBold, PT Sans Narrow;font-weight: 700">8.2</text><text transform="translate(651.9656659 69.84824566776312)" style="font-size: 5.66926666mm;font-family: PTSans-NarrowBold, PT Sans Narrow;font-weight: 700">9.2</text><text transform="translate(737.0046658 118.94553515164468)" style="font-size: 5.66926666mm;font-family: PTSans-NarrowBold, PT Sans Narrow;font-weight: 700">10.2</text><text transform="translate(822.0436657 69.84824566776312)" style="font-size: 5.66926666mm;font-family: PTSans-NarrowBold, PT Sans Narrow;font-weight: 700">11.2</text><text transform="translate(907.0826655999999 118.94553515164468)" style="font-size: 5.66926666mm;font-family: PTSans-NarrowBold, PT Sans Narrow;font-weight: 700">12.2</text><text transform="translate(992.1216655 69.84824566776312)" style="font-size: 5.66926666mm;font-family: PTSans-NarrowBold, PT Sans Narrow;font-weight: 700">13.2</text><text transform="translate(1077.1606654 118.94553515164468)" style="font-size: 5.66926666mm;font-family: PTSans-NarrowBold, PT Sans Narrow;font-weight: 700">14.2</text><text transform="translate(56.692666599999995 217.14011411940783)" style="font-size: 5.66926666mm;font-family: PTSans-NarrowBold, PT Sans Narrow;font-weight: 700">2.3</text><text transform="translate(141.7316665 168.04282463552624)" style="font-size: 5.66926666mm;font-family: PTSans-NarrowBold, PT Sans Narrow;font-weight: 700">3.3</text><text transform="translate(226.77066639999998 217.14011411940783)" style="font-size: 5.66926666mm;font-family: PTSans-NarrowBold, PT Sans Narrow;font-weight: 700">4.3</text><text transform="translate(311.8096663 168.04282463552624)" style="font-size: 5.66926666mm;font-family: PTSans-NarrowBold, PT Sans Narrow;font-weight: 700">5.3</text><text transform="translate(396.84866619999997 217.14011411940783)" style="font-size: 5.66926666mm;font-family: PTSans-NarrowBold, PT Sans Narrow;font-weight: 700">6.3</text><text transform="translate(481.8876661 168.04282463552624)" style="font-size: 5.66926666mm;font-family: PTSans-NarrowBold, PT Sans Narrow;font-weight: 700">7.3</text><text transform="translate(566.926666 217.14011411940783)" style="font-size: 5.66926666mm;font-family: PTSans-NarrowBold, PT Sans Narrow;font-weight: 700">8.3</text><text transform="translate(651.9656659 168.04282463552624)" style="font-size: 5.66926666mm;font-family: PTSans-NarrowBold, PT Sans Narrow;font-weight: 700">9.3</text><text transform="translate(737.0046658 217.14011411940783)" style="font-size: 5.66926666mm;font-family: PTSans-NarrowBold, PT Sans Narrow;font-weight: 700">10.3</text><text transform="translate(822.0436657 168.04282463552624)" style="font-size: 5.66926666mm;font-family: PTSans-NarrowBold, PT Sans Narrow;font-weight: 700">11.3</text><text transform="translate(907.0826655999999 217.14011411940783)" style="font-size: 5.66926666mm;font-family: PTSans-NarrowBold, PT Sans Narrow;font-weight: 700">12.3</text><text transform="translate(992.1216655 168.04282463552624)" style="font-size: 5.66926666mm;font-family: PTSans-NarrowBold, PT Sans Narrow;font-weight: 700">13.3</text><text transform="translate(1077.1606654 217.14011411940783)" style="font-size: 5.66926666mm;font-family: PTSans-NarrowBold, PT Sans Narrow;font-weight: 700">14.3</text><text transform="translate(56.692666599999995 315.33469308717093)" style="font-size: 5.66926666mm;font-family: PTSans-NarrowBold, PT Sans Narrow;font-weight: 700">2.4</text><text transform="translate(141.7316665 266.23740360328935)" style="font-size: 5.66926666mm;font-family: PTSans-NarrowBold, PT Sans Narrow;font-weight: 700">3.4</text><text transform="translate(226.77066639999998 315.33469308717093)" style="font-size: 5.66926666mm;font-family: PTSans-NarrowBold, PT Sans Narrow;font-weight: 700">4.4</text><text transform="translate(311.8096663 266.23740360328935)" style="font-size: 5.66926666mm;font-family: PTSans-NarrowBold, PT Sans Narrow;font-weight: 700">5.4</text><text transform="translate(396.84866619999997 315.33469308717093)" style="font-size: 5.66926666mm;font-family: PTSans-NarrowBold, PT Sans Narrow;font-weight: 700">6.4</text><text transform="translate(481.8876661 266.23740360328935)" style="font-size: 5.66926666mm;font-family: PTSans-NarrowBold, PT Sans Narrow;font-weight: 700">7.4</text><text transform="translate(566.926666 315.33469308717093)" style="font-size: 5.66926666mm;font-family: PTSans-NarrowBold, PT Sans Narrow;font-weight: 700">8.4</text><text transform="translate(651.9656659 266.23740360328935)" style="font-size: 5.66926666mm;font-family: PTSans-NarrowBold, PT Sans Narrow;font-weight: 700">9.4</text><text transform="translate(737.0046658 315.33469308717093)" style="font-size: 5.66926666mm;font-family: PTSans-NarrowBold, PT Sans Narrow;font-weight: 700">10.4</text><text transform="translate(822.0436657 266.23740360328935)" style="font-size: 5.66926666mm;font-family: PTSans-NarrowBold, PT Sans Narrow;font-weight: 700">11.4</text><text transform="translate(907.0826655999999 315.33469308717093)" style="font-size: 5.66926666mm;font-family: PTSans-NarrowBold, PT Sans Narrow;font-weight: 700">12.4</text><text transform="translate(992.1216655 266.23740360328935)" style="font-size: 5.66926666mm;font-family: PTSans-NarrowBold, PT Sans Narrow;font-weight: 700">13.4</text><text transform="translate(1077.1606654 315.33469308717093)" style="font-size: 5.66926666mm;font-family: PTSans-NarrowBold, PT Sans Narrow;font-weight: 700">14.4</text>
</svg>