<svg width="270mm" height="312mm" data-name="Layer 1" id="Layer_1" xmlns="http://www.w3.org/2000/svg">
    <style type="text/css">
        polygon {
            stroke-width: 2.0;
        }

        .grid {
            fill: none;
            stroke: #8E8E8E;
            stroke-miterlimit: 10;
        }

        .plain {
            fill: lightgreen;
        }

        .lwood {
            fill: green;
        }

        .hwood {
            fill: darkgreen;
        }

        .grass {
            fill: chartreuse;
        }

        .mountain {
            fill: maroon;
        }

        .hill {
            fill: bisque;
        }

        .sea {
            fill: blue;
        }


        .lake {
            fill: lightskyblue;
        }


        .marsh {
            fill: yellowgreen;
        }


        .desert {
            fill: lightyellow;
        }

        .unknown {
            fill: gray;
        }
    </style>
    <polygon class="grid " points="60.0,0.0 30.0,-51.96152422706632 -30.0,-51.96152422706632 -60.0,0.0 -30.0,51.96152422706632 30.0,51.96152422706632 " /><polygon class="grid " points="150.0,51.96152422706632 120.0,0.0 60.0,0.0 30.0,51.96152422706632 60.0,103.92304845413264 120.0,103.92304845413264 " /><polygon class="grid " points="240.0,0.0 210.0,-51.96152422706632 150.0,-51.96152422706632 120.0,0.0 150.0,51.96152422706632 210.0,51.96152422706632 " /><polygon class="grid " points="330.0,51.96152422706632 300.0,0.0 240.0,0.0 210.0,51.96152422706632 240.0,103.92304845413264 300.0,103.92304845413264 " /><polygon class="grid " points="420.0,0.0 390.0,-51.96152422706632 330.0,-51.96152422706632 300.0,0.0 330.0,51.96152422706632 390.0,51.96152422706632 " /><polygon class="grid " points="510.0,51.96152422706632 480.0,0.0 420.0,0.0 390.0,51.96152422706632 420.0,103.92304845413264 480.0,103.92304845413264 " /><polygon class="grid " points="600.0,0.0 570.0,-51.96152422706632 510.0,-51.96152422706632 480.0,0.0 510.0,51.96152422706632 570.0,51.96152422706632 " /><polygon class="grid " points="690.0,51.96152422706632 660.0,0.0 600.0,0.0 570.0,51.96152422706632 600.0,103.92304845413264 660.0,103.92304845413264 " /><polygon class="grid " points="780.0,0.0 750.0,-51.96152422706632 690.0,-51.96152422706632 660.0,0.0 690.0,51.96152422706632 750.0,51.96152422706632 " /><polygon class="grid " points="60.0,103.92304845413264 30.0,51.96152422706632 -30.0,51.96152422706632 -60.0,103.92304845413264 -30.0,155.88457268119896 30.0,155.88457268119896 " /><polygon class="grid  hwood" points="150.0,155.88457268119896 120.0,103.92304845413263 60.0,103.92304845413263 30.0,155.88457268119896 60.0,207.84609690826528 120.0,207.84609690826528 " /><polygon class="grid  mountain" points="240.0,103.92304845413264 210.0,51.96152422706632 150.0,51.96152422706632 120.0,103.92304845413264 150.0,155.88457268119896 210.0,155.88457268119896 " /><polygon class="grid  grass" points="330.0,155.88457268119896 300.0,103.92304845413263 240.0,103.92304845413263 210.0,155.88457268119896 240.0,207.84609690826528 300.0,207.84609690826528 " /><polygon class="grid " points="420.0,103.92304845413264 390.0,51.96152422706632 330.0,51.96152422706632 300.0,103.92304845413264 330.0,155.88457268119896 390.0,155.88457268119896 " /><polygon class="grid " points="510.0,155.88457268119896 480.0,103.92304845413263 420.0,103.92304845413263 390.0,155.88457268119896 420.0,207.84609690826528 480.0,207.84609690826528 " /><polygon class="grid " points="600.0,103.92304845413264 570.0,51.96152422706632 510.0,51.96152422706632 480.0,103.92304845413264 510.0,155.88457268119896 570.0,155.88457268119896 " /><polygon class="grid " points="690.0,155.88457268119896 660.0,103.92304845413263 600.0,103.92304845413263 570.0,155.88457268119896 600.0,207.84609690826528 660.0,207.84609690826528 " /><polygon class="grid " points="780.0,103.92304845413264 750.0,51.96152422706632 690.0,51.96152422706632 660.0,103.92304845413264 690.0,155.88457268119896 750.0,155.88457268119896 " /><polygon class="grid " points="60.0,207.84609690826528 30.0,155.88457268119896 -30.0,155.88457268119896 -60.0,207.84609690826528 -30.0,259.8076211353316 30.0,259.8076211353316 " /><polygon class="grid  marsh" points="150.0,259.8076211353316 120.0,207.84609690826528 60.0,207.84609690826528 30.0,259.8076211353316 60.0,311.769145362398 120.0,311.769145362398 " /><polygon class="grid  hill" points="240.0,207.84609690826528 210.0,155.88457268119896 150.0,155.88457268119896 120.0,207.84609690826528 150.0,259.8076211353316 210.0,259.8076211353316 " /><polygon class="grid  sea" points="330.0,259.8076211353316 300.0,207.84609690826528 240.0,207.84609690826528 210.0,259.8076211353316 240.0,311.769145362398 300.0,311.769145362398 " /><polygon class="grid  plain" points="420.0,207.84609690826528 390.0,155.88457268119896 330.0,155.88457268119896 300.0,207.84609690826528 330.0,259.8076211353316 390.0,259.8076211353316 " /><polygon class="grid " points="510.0,259.8076211353316 480.0,207.84609690826528 420.0,207.84609690826528 390.0,259.8076211353316 420.0,311.769145362398 480.0,311.769145362398 " /><polygon class="grid " points="600.0,207.84609690826528 570.0,155.88457268119896 510.0,155.88457268119896 480.0,207.84609690826528 510.0,259.8076211353316 570.0,259.8076211353316 " /><polygon class="grid " points="690.0,259.8076211353316 660.0,207.84609690826528 600.0,207.84609690826528 570.0,259.8076211353316 600.0,311.769145362398 660.0,311.769145362398 " /><polygon class="grid " points="780.0,207.84609690826528 750.0,155.88457268119896 690.0,155.88457268119896 660.0,207.84609690826528 690.0,259.8076211353316 750.0,259.8076211353316 " /><polygon class="grid " points="60.0,311.7691453623979 30.0,259.8076211353316 -30.0,259.8076211353316 -60.0,311.7691453623979 -30.0,363.73066958946424 30.0,363.73066958946424 " /><polygon class="grid  lwood" points="150.0,363.73066958946424 120.0,311.7691453623979 60.0,311.7691453623979 30.0,363.73066958946424 60.0,415.69219381653056 120.0,415.69219381653056 " /><polygon class="grid  unknown" points="240.0,311.7691453623979 210.0,259.8076211353316 150.0,259.8076211353316 120.0,311.7691453623979 150.0,363.73066958946424 210.0,363.73066958946424 " /><polygon class="grid  lake" points="330.0,363.73066958946424 300.0,311.7691453623979 240.0,311.7691453623979 210.0,363.73066958946424 240.0,415.69219381653056 300.0,415.69219381653056 " /><polygon class="grid " points="420.0,311.7691453623979 390.0,259.8076211353316 330.0,259.8076211353316 300.0,311.7691453623979 330.0,363.73066958946424 390.0,363.73066958946424 " /><polygon class="grid " points="510.0,363.73066958946424 480.0,311.7691453623979 420.0,311.7691453623979 390.0,363.73066958946424 420.0,415.69219381653056 480.0,415.69219381653056 " /><polygon class="grid " points="600.0,311.7691453623979 570.0,259.8076211353316 510.0,259.8076211353316 480.0,311.7691453623979 510.0,363.73066958946424 570.0,363.73066958946424 " /><polygon class="grid " points="690.0,363.73066958946424 660.0,311.7691453623979 600.0,311.7691453623979 570.0,363.73066958946424 600.0,415.69219381653056 660.0,415.69219381653056 " /><polygon class="grid " points="780.0,311.7691453623979 750.0,259.8076211353316 690.0,259.8076211353316 660.0,311.7691453623979 690.0,363.73066958946424 750.0,363.73066958946424 " /><polygon class="grid " points="60.0,415.69219381653056 30.0,363.73066958946424 -30.0,363.73066958946424 -60.0,415.69219381653056 -30.0,467.6537180435969 30.0,467.6537180435969 " /><polygon class="grid " points="150.0,467.6537180435969 120.0,415.69219381653056 60.0,415.69219381653056 30.0,467.6537180435969 60.0,519.6152422706632 120.0,519.6152422706632 " /><polygon class="grid " points="240.0,415.69219381653056 210.0,363.73066958946424 150.0,363.73066958946424 120.0,415.69219381653056 150.0,467.6537180435969 210.0,467.6537180435969 " /><polygon class="grid " points="330.0,467.6537180435969 300.0,415.69219381653056 240.0,415.69219381653056 210.0,467.6537180435969 240.0,519.6152422706632 300.0,519.6152422706632 " /><polygon class="grid " points="420.0,415.69219381653056 390.0,363.73066958946424 330.0,363.73066958946424 300.0,415.69219381653056 330.0,467.6537180435969 390.0,467.6537180435969 " /><polygon class="grid " points="510.0,467.6537180435969 480.0,415.69219381653056 420.0,415.69219381653056 390.0,467.6537180435969 420.0,519.6152422706632 480.0,519.6152422706632 " /><polygon class="grid " points="600.0,415.69219381653056 570.0,363.73066958946424 510.0,363.73066958946424 480.0,415.69219381653056 510.0,467.6537180435969 570.0,467.6537180435969 " /><polygon class="grid " points="690.0,467.6537180435969 660.0,415.69219381653056 600.0,415.69219381653056 570.0,467.6537180435969 600.0,519.6152422706632 660.0,519.6152422706632 " /><polygon class="grid " points="780.0,415.69219381653056 750.0,363.73066958946424 690.0,363.73066958946424 660.0,415.69219381653056 690.0,467.6537180435969 750.0,467.6537180435969 " /><polygon class="grid " points="60.0,519.6152422706632 30.0,467.653718043597 -30.0,467.653718043597 -60.0,519.6152422706632 -30.0,571.5767664977295 30.0,571.5767664977295 " /><polygon class="grid " points="150.0,571.5767664977295 120.0,519.6152422706632 60.0,519.6152422706632 30.0,571.5767664977295 60.0,623.5382907247958 120.0,623.5382907247958 " /><polygon class="grid " points="240.0,519.6152422706632 210.0,467.653718043597 150.0,467.653718043597 120.0,519.6152422706632 150.0,571.5767664977295 210.0,571.5767664977295 " /><polygon class="grid " points="330.0,571.5767664977295 300.0,519.6152422706632 240.0,519.6152422706632 210.0,571.5767664977295 240.0,623.5382907247958 300.0,623.5382907247958 " /><polygon class="grid " points="420.0,519.6152422706632 390.0,467.653718043597 330.0,467.653718043597 300.0,519.6152422706632 330.0,571.5767664977295 390.0,571.5767664977295 " /><polygon class="grid  grass" points="510.0,571.5767664977295 480.0,519.6152422706632 420.0,519.6152422706632 390.0,571.5767664977295 420.0,623.5382907247958 480.0,623.5382907247958 " /><polygon class="sea" points="414.0,571.5767664977295 432.0,540.3998519614897 420.0,519.6152422706632 390.0,571.5767664977295" /><polygon class="sea" points="468.0,540.3998519614897 432.0,540.3998519614897 420.0,519.6152422706632 480.0,519.6152422706632" /><polygon class="grid  grass" points="600.0,519.6152422706632 570.0,467.653718043597 510.0,467.653718043597 480.0,519.6152422706632 510.0,571.5767664977295 570.0,571.5767664977295 " /><polygon class="sea" points="576.0,519.6152422706632 558.0,488.43832773442347 570.0,467.653718043597 600.0,519.6152422706632" /><polygon class="grid  grass" points="690.0,571.5767664977295 660.0,519.6152422706632 600.0,519.6152422706632 570.0,571.5767664977295 600.0,623.5382907247958 660.0,623.5382907247958 " /><polygon class="sea" points="666.0,571.5767664977295 648.0,540.3998519614897 660.0,519.6152422706632 690.0,571.5767664977295" /><polygon class="sea" points="648.0,540.3998519614897 612.0,540.3998519614897 600.0,519.6152422706632 660.0,519.6152422706632" /><polygon class="sea" points="666.0,571.5767664977295 648.0,602.7536810339693 660.0,623.5382907247958 690.0,571.5767664977295" /><polygon class="sea" points="648.0,602.7536810339693 612.0,602.7536810339693 600.0,623.5382907247958 660.0,623.5382907247958" /><polygon class="sea" points="666.0,571.5767664977295 648.0,540.3998519614897 612.0,540.3998519614897 594.0,571.5767664977295 612.0,602.7536810339693 648.0,602.7536810339693" /><polygon class="grid " points="780.0,519.6152422706632 750.0,467.653718043597 690.0,467.653718043597 660.0,519.6152422706632 690.0,571.5767664977295 750.0,571.5767664977295 " /><polygon class="grid " points="60.0,623.5382907247958 30.0,571.5767664977295 -30.0,571.5767664977295 -60.0,623.5382907247958 -30.0,675.4998149518622 30.0,675.4998149518622 " /><polygon class="grid " points="150.0,675.4998149518622 120.0,623.5382907247958 60.0,623.5382907247958 30.0,675.4998149518622 60.0,727.4613391789285 120.0,727.4613391789285 " /><polygon class="grid " points="240.0,623.5382907247958 210.0,571.5767664977295 150.0,571.5767664977295 120.0,623.5382907247958 150.0,675.4998149518622 210.0,675.4998149518622 " /><polygon class="grid " points="330.0,675.4998149518622 300.0,623.5382907247958 240.0,623.5382907247958 210.0,675.4998149518622 240.0,727.4613391789285 300.0,727.4613391789285 " /><polygon class="grid " points="420.0,623.5382907247958 390.0,571.5767664977295 330.0,571.5767664977295 300.0,623.5382907247958 330.0,675.4998149518622 390.0,675.4998149518622 " /><polygon class="grid  marsh" points="510.0,675.4998149518622 480.0,623.5382907247958 420.0,623.5382907247958 390.0,675.4998149518622 420.0,727.4613391789285 480.0,727.4613391789285 " /><polygon class="sea" points="414.0,675.4998149518622 432.0,706.676729488102 420.0,727.4613391789285 390.0,675.4998149518622" /><polygon class="sea" points="486.0,675.4998149518622 468.0,644.3229004156224 432.0,644.3229004156224 414.0,675.4998149518622 432.0,706.676729488102 468.0,706.676729488102" /><polygon class="grid  grass" points="600.0,623.5382907247958 570.0,571.5767664977295 510.0,571.5767664977295 480.0,623.5382907247958 510.0,675.4998149518622 570.0,675.4998149518622 " /><polygon class="lake" points="576.0,623.5382907247958 558.0,592.361376188556 522.0,592.361376188556 504.0,623.5382907247958 522.0,654.7152052610356 558.0,654.7152052610356" /><polygon class="marsh" points="504.0,623.5382907247958 522.0,654.7152052610356 510.0,675.4998149518622 480.0,623.5382907247958" /><polygon class="grid  grass" points="690.0,675.4998149518622 660.0,623.5382907247958 600.0,623.5382907247958 570.0,675.4998149518622 600.0,727.4613391789285 660.0,727.4613391789285 " /><polygon class="sea" points="594.0,675.4998149518622 612.0,706.676729488102 600.0,727.4613391789285 570.0,675.4998149518622" /><polygon class="grid " points="780.0,623.5382907247958 750.0,571.5767664977295 690.0,571.5767664977295 660.0,623.5382907247958 690.0,675.4998149518622 750.0,675.4998149518622 " /><polygon class="grid " points="60.0,727.4613391789285 30.0,675.4998149518622 -30.0,675.4998149518622 -60.0,727.4613391789285 -30.0,779.4228634059948 30.0,779.4228634059948 " /><polygon class="grid " points="150.0,779.4228634059948 120.0,727.4613391789285 60.0,727.4613391789285 30.0,779.4228634059948 60.0,831.3843876330611 120.0,831.3843876330611 " /><polygon class="grid " points="240.0,727.4613391789285 210.0,675.4998149518622 150.0,675.4998149518622 120.0,727.4613391789285 150.0,779.4228634059948 210.0,779.4228634059948 " /><polygon class="grid " points="330.0,779.4228634059948 300.0,727.4613391789285 240.0,727.4613391789285 210.0,779.4228634059948 240.0,831.3843876330611 300.0,831.3843876330611 " /><polygon class="grid " points="420.0,727.4613391789285 390.0,675.4998149518622 330.0,675.4998149518622 300.0,727.4613391789285 330.0,779.4228634059948 390.0,779.4228634059948 " /><polygon class="grid " points="510.0,779.4228634059948 480.0,727.4613391789285 420.0,727.4613391789285 390.0,779.4228634059948 420.0,831.3843876330611 480.0,831.3843876330611 " /><polygon class="grid  grass" points="600.0,727.4613391789285 570.0,675.4998149518622 510.0,675.4998149518622 480.0,727.4613391789285 510.0,779.4228634059948 570.0,779.4228634059948 " /><polygon class="sea" points="504.0,727.4613391789285 522.0,758.6382537151683 510.0,779.4228634059948 480.0,727.4613391789285" /><polygon class="sea" points="558.0,758.6382537151683 522.0,758.6382537151683 510.0,779.4228634059948 570.0,779.4228634059948" /><polygon class="sea" points="576.0,727.4613391789285 558.0,758.6382537151683 570.0,779.4228634059948 600.0,727.4613391789285" /><polygon class="sea" points="576.0,727.4613391789285 558.0,696.2844246426887 522.0,696.2844246426887 504.0,727.4613391789285 522.0,758.6382537151683 558.0,758.6382537151683" /><polygon class="sea" points="576.0,727.4613391789285 558.0,696.2844246426887 570.0,675.4998149518622 600.0,727.4613391789285" /><polygon class="grid " points="690.0,779.4228634059948 660.0,727.4613391789285 600.0,727.4613391789285 570.0,779.4228634059948 600.0,831.3843876330611 660.0,831.3843876330611 " /><polygon class="grid " points="780.0,727.4613391789285 750.0,675.4998149518622 690.0,675.4998149518622 660.0,727.4613391789285 690.0,779.4228634059948 750.0,779.4228634059948 " /><polygon class="grid " points="60.0,831.3843876330611 30.0,779.4228634059948 -30.0,779.4228634059948 -60.0,831.3843876330611 -30.0,883.3459118601276 30.0,883.3459118601276 " /><polygon class="grid " points="150.0,883.3459118601276 120.0,831.3843876330611 60.0,831.3843876330611 30.0,883.3459118601276 60.0,935.307436087194 120.0,935.307436087194 " /><polygon class="grid " points="240.0,831.3843876330611 210.0,779.4228634059948 150.0,779.4228634059948 120.0,831.3843876330611 150.0,883.3459118601276 210.0,883.3459118601276 " /><polygon class="grid " points="330.0,883.3459118601276 300.0,831.3843876330611 240.0,831.3843876330611 210.0,883.3459118601276 240.0,935.307436087194 300.0,935.307436087194 " /><polygon class="grid " points="420.0,831.3843876330611 390.0,779.4228634059948 330.0,779.4228634059948 300.0,831.3843876330611 330.0,883.3459118601276 390.0,883.3459118601276 " /><polygon class="grid " points="510.0,883.3459118601276 480.0,831.3843876330611 420.0,831.3843876330611 390.0,883.3459118601276 420.0,935.307436087194 480.0,935.307436087194 " /><polygon class="grid " points="600.0,831.3843876330611 570.0,779.4228634059948 510.0,779.4228634059948 480.0,831.3843876330611 510.0,883.3459118601276 570.0,883.3459118601276 " /><polygon class="grid " points="690.0,883.3459118601276 660.0,831.3843876330611 600.0,831.3843876330611 570.0,883.3459118601276 600.0,935.307436087194 660.0,935.307436087194 " /><polygon class="grid " points="780.0,831.3843876330611 750.0,779.4228634059948 690.0,779.4228634059948 660.0,831.3843876330611 690.0,883.3459118601276 750.0,883.3459118601276 " /><text transform="translate(-30.0 -30.0)" style="font-size: 6.0mm;font-family: PTSans-NarrowBold, PT Sans Narrow;font-weight: 700">0.0</text><text transform="translate(60.0 21.961524227066324)" style="font-size: 6.0mm;font-family: PTSans-NarrowBold, PT Sans Narrow;font-weight: 700">0.1</text><text transform="translate(150.0 -30.0)" style="font-size: 6.0mm;font-family: PTSans-NarrowBold, PT Sans Narrow;font-weight: 700">0.2</text><text transform="translate(240.0 21.961524227066324)" style="font-size: 6.0mm;font-family: PTSans-NarrowBold, PT Sans Narrow;font-weight: 700">0.3</text><text transform="translate(330.0 -30.0)" style="font-size: 6.0mm;font-family: PTSans-NarrowBold, PT Sans Narrow;font-weight: 700">0.4</text><text transform="translate(420.0 21.961524227066324)" style="font-size: 6.0mm;font-family: PTSans-NarrowBold, PT Sans Narrow;font-weight: 700">0.5</text><text transform="translate(510.0 -30.0)" style="font-size: 6.0mm;font-family: PTSans-NarrowBold, PT Sans Narrow;font-weight: 700">0.6</text><text transform="translate(600.0 21.961524227066324)" style="font-size: 6.0mm;font-family: PTSans-NarrowBold, PT Sans Narrow;font-weight: 700">0.7</text><text transform="translate(690.0 -30.0)" style="font-size: 6.0mm;font-family: PTSans-NarrowBold, PT Sans Narrow;font-weight: 700">0.8</text><text transform="translate(-30.0 73.92304845413264)" style="font-size: 6.0mm;font-family: PTSans-NarrowBold, PT Sans Narrow;font-weight: 700">1.0</text><text transform="translate(60.0 125.88457268119896)" style="font-size: 6.0mm;font-family: PTSans-NarrowBold, PT Sans Narrow;font-weight: 700">1.1</text><text transform="translate(150.0 73.92304845413264)" style="font-size: 6.0mm;font-family: PTSans-NarrowBold, PT Sans Narrow;font-weight: 700">1.2</text><text transform="translate(240.0 125.88457268119896)" style="font-size: 6.0mm;font-family: PTSans-NarrowBold, PT Sans Narrow;font-weight: 700">1.3</text><text transform="translate(330.0 73.92304845413264)" style="font-size: 6.0mm;font-family: PTSans-NarrowBold, PT Sans Narrow;font-weight: 700">1.4</text><text transform="translate(420.0 125.88457268119896)" style="font-size: 6.0mm;font-family: PTSans-NarrowBold, PT Sans Narrow;font-weight: 700">1.5</text><text transform="translate(510.0 73.92304845413264)" style="font-size: 6.0mm;font-family: PTSans-NarrowBold, PT Sans Narrow;font-weight: 700">1.6</text><text transform="translate(600.0 125.88457268119896)" style="font-size: 6.0mm;font-family: PTSans-NarrowBold, PT Sans Narrow;font-weight: 700">1.7</text><text transform="translate(690.0 73.92304845413264)" style="font-size: 6.0mm;font-family: PTSans-NarrowBold, PT Sans Narrow;font-weight: 700">1.8</text><text transform="translate(-30.0 177.84609690826528)" style="font-size: 6.0mm;font-family: PTSans-NarrowBold, PT Sans Narrow;font-weight: 700">2.0</text><text transform="translate(60.0 229.80762113533163)" style="font-size: 6.0mm;font-family: PTSans-NarrowBold, PT Sans Narrow;font-weight: 700">2.1</text><text transform="translate(150.0 177.84609690826528)" style="font-size: 6.0mm;font-family: PTSans-NarrowBold, PT Sans Narrow;font-weight: 700">2.2</text><text transform="translate(240.0 229.80762113533163)" style="font-size: 6.0mm;font-family: PTSans-NarrowBold, PT Sans Narrow;font-weight: 700">2.3</text><text transform="translate(330.0 177.84609690826528)" style="font-size: 6.0mm;font-family: PTSans-NarrowBold, PT Sans Narrow;font-weight: 700">2.4</text><text transform="translate(420.0 229.80762113533163)" style="font-size: 6.0mm;font-family: PTSans-NarrowBold, PT Sans Narrow;font-weight: 700">2.5</text><text transform="translate(510.0 177.84609690826528)" style="font-size: 6.0mm;font-family: PTSans-NarrowBold, PT Sans Narrow;font-weight: 700">2.6</text><text transform="translate(600.0 229.80762113533163)" style="font-size: 6.0mm;font-family: PTSans-NarrowBold, PT Sans Narrow;font-weight: 700">2.7</text><text transform="translate(690.0 177.84609690826528)" style="font-size: 6.0mm;font-family: PTSans-NarrowBold, PT Sans Narrow;font-weight: 700">2.8</text><text transform="translate(-30.0 281.7691453623979)" style="font-size: 6.0mm;font-family: PTSans-NarrowBold, PT Sans Narrow;font-weight: 700">3.0</text><text transform="translate(60.0 333.73066958946424)" style="font-size: 6.0mm;font-family: PTSans-NarrowBold, PT Sans Narrow;font-weight: 700">3.1</text><text transform="translate(150.0 281.7691453623979)" style="font-size: 6.0mm;font-family: PTSans-NarrowBold, PT Sans Narrow;font-weight: 700">3.2</text><text transform="translate(240.0 333.73066958946424)" style="font-size: 6.0mm;font-family: PTSans-NarrowBold, PT Sans Narrow;font-weight: 700">3.3</text><text transform="translate(330.0 281.7691453623979)" style="font-size: 6.0mm;font-family: PTSans-NarrowBold, PT Sans Narrow;font-weight: 700">3.4</text><text transform="translate(420.0 333.73066958946424)" style="font-size: 6.0mm;font-family: PTSans-NarrowBold, PT Sans Narrow;font-weight: 700">3.5</text><text transform="translate(510.0 281.7691453623979)" style="font-size: 6.0mm;font-family: PTSans-NarrowBold, PT Sans Narrow;font-weight: 700">3.6</text><text transform="translate(600.0 333.73066958946424)" style="font-size: 6.0mm;font-family: PTSans-NarrowBold, PT Sans Narrow;font-weight: 700">3.7</text><text transform="translate(690.0 281.7691453623979)" style="font-size: 6.0mm;font-family: PTSans-NarrowBold, PT Sans Narrow;font-weight: 700">3.8</text><text transform="translate(-30.0 385.69219381653056)" style="font-size: 6.0mm;font-family: PTSans-NarrowBold, PT Sans Narrow;font-weight: 700">4.0</text><text transform="translate(60.0 437.6537180435969)" style="font-size: 6.0mm;font-family: PTSans-NarrowBold, PT Sans Narrow;font-weight: 700">4.1</text><text transform="translate(150.0 385.69219381653056)" style="font-size: 6.0mm;font-family: PTSans-NarrowBold, PT Sans Narrow;font-weight: 700">4.2</text><text transform="translate(240.0 437.6537180435969)" style="font-size: 6.0mm;font-family: PTSans-NarrowBold, PT Sans Narrow;font-weight: 700">4.3</text><text transform="translate(330.0 385.69219381653056)" style="font-size: 6.0mm;font-family: PTSans-NarrowBold, PT Sans Narrow;font-weight: 700">4.4</text><text transform="translate(420.0 437.6537180435969)" style="font-size: 6.0mm;font-family: PTSans-NarrowBold, PT Sans Narrow;font-weight: 700">4.5</text><text transform="translate(510.0 385.69219381653056)" style="font-size: 6.0mm;font-family: PTSans-NarrowBold, PT Sans Narrow;font-weight: 700">4.6</text><text transform="translate(600.0 437.6537180435969)" style="font-size: 6.0mm;font-family: PTSans-NarrowBold, PT Sans Narrow;font-weight: 700">4.7</text><text transform="translate(690.0 385.69219381653056)" style="font-size: 6.0mm;font-family: PTSans-NarrowBold, PT Sans Narrow;font-weight: 700">4.8</text><text transform="translate(-30.0 489.61524227066326)" style="font-size: 6.0mm;font-family: PTSans-NarrowBold, PT Sans Narrow;font-weight: 700">5.0</text><text transform="translate(60.0 541.5767664977295)" style="font-size: 6.0mm;font-family: PTSans-NarrowBold, PT Sans Narrow;font-weight: 700">5.1</text><text transform="translate(150.0 489.61524227066326)" style="font-size: 6.0mm;font-family: PTSans-NarrowBold, PT Sans Narrow;font-weight: 700">5.2</text><text transform="translate(240.0 541.5767664977295)" style="font-size: 6.0mm;font-family: PTSans-NarrowBold, PT Sans Narrow;font-weight: 700">5.3</text><text transform="translate(330.0 489.61524227066326)" style="font-size: 6.0mm;font-family: PTSans-NarrowBold, PT Sans Narrow;font-weight: 700">5.4</text><text transform="translate(420.0 541.5767664977295)" style="font-size: 6.0mm;font-family: PTSans-NarrowBold, PT Sans Narrow;font-weight: 700">5.5</text><text transform="translate(510.0 489.61524227066326)" style="font-size: 6.0mm;font-family: PTSans-NarrowBold, PT Sans Narrow;font-weight: 700">5.6</text><text transform="translate(600.0 541.5767664977295)" style="font-size: 6.0mm;font-family: PTSans-NarrowBold, PT Sans Narrow;font-weight: 700">5.7</text><text transform="translate(690.0 489.61524227066326)" style="font-size: 6.0mm;font-family: PTSans-NarrowBold, PT Sans Narrow;font-weight: 700">5.8</text><text transform="translate(-30.0 593.5382907247958)" style="font-size: 6.0mm;font-family: PTSans-NarrowBold, PT Sans Narrow;font-weight: 700">6.0</text><text transform="translate(60.0 645.4998149518622)" style="font-size: 6.0mm;font-family: PTSans-NarrowBold, PT Sans Narrow;font-weight: 700">6.1</text><text transform="translate(150.0 593.5382907247958)" style="font-size: 6.0mm;font-family: PTSans-NarrowBold, PT Sans Narrow;font-weight: 700">6.2</text><text transform="translate(240.0 645.4998149518622)" style="font-size: 6.0mm;font-family: PTSans-NarrowBold, PT Sans Narrow;font-weight: 700">6.3</text><text transform="translate(330.0 593.5382907247958)" style="font-size: 6.0mm;font-family: PTSans-NarrowBold, PT Sans Narrow;font-weight: 700">6.4</text><text transform="translate(420.0 645.4998149518622)" style="font-size: 6.0mm;font-family: PTSans-NarrowBold, PT Sans Narrow;font-weight: 700">6.5</text><text transform="translate(510.0 593.5382907247958)" style="font-size: 6.0mm;font-family: PTSans-NarrowBold, PT Sans Narrow;font-weight: 700">6.6</text><text transform="translate(600.0 645.4998149518622)" style="font-size: 6.0mm;font-family: PTSans-NarrowBold, PT Sans Narrow;font-weight: 700">6.7</text><text transform="translate(690.0 593.5382907247958)" style="font-size: 6.0mm;font-family: PTSans-NarrowBold, PT Sans Narrow;font-weight: 700">6.8</text><text transform="translate(-30.0 697.4613391789285)" style="font-size: 6.0mm;font-family: PTSans-NarrowBold, PT Sans Narrow;font-weight: 700">7.0</text><text transform="translate(60.0 749.4228634059948)" style="font-size: 6.0mm;font-family: PTSans-NarrowBold, PT Sans Narrow;font-weight: 700">7.1</text><text transform="translate(150.0 697.4613391789285)" style="font-size: 6.0mm;font-family: PTSans-NarrowBold, PT Sans Narrow;font-weight: 700">7.2</text><text transform="translate(240.0 749.4228634059948)" style="font-size: 6.0mm;font-family: PTSans-NarrowBold, PT Sans Narrow;font-weight: 700">7.3</text><text transform="translate(330.0 697.4613391789285)" style="font-size: 6.0mm;font-family: PTSans-NarrowBold, PT Sans Narrow;font-weight: 700">7.4</text><text transform="translate(420.0 749.4228634059948)" style="font-size: 6.0mm;font-family: PTSans-NarrowBold, PT Sans Narrow;font-weight: 700">7.5</text><text transform="translate(510.0 697.4613391789285)" style="font-size: 6.0mm;font-family: PTSans-NarrowBold, PT Sans Narrow;font-weight: 700">7.6</text><text transform="translate(600.0 749.4228634059948)" style="font-size: 6.0mm;font-family: PTSans-NarrowBold, PT Sans Narrow;font-weight: 700">7.7</text><text transform="translate(690.0 697.4613391789285)" style="font-size: 6.0mm;font-family: PTSans-NarrowBold, PT Sans Narrow;font-weight: 700">7.8</text><text transform="translate(-30.0 801.3843876330611)" style="font-size: 6.0mm;font-family: PTSans-NarrowBold, PT Sans Narrow;font-weight: 700">8.0</text><text transform="translate(60.0 853.3459118601276)" style="font-size: 6.0mm;font-family: PTSans-NarrowBold, PT Sans Narrow;font-weight: 700">8.1</text><text transform="translate(150.0 801.3843876330611)" style="font-size: 6.0mm;font-family: PTSans-NarrowBold, PT Sans Narrow;font-weight: 700">8.2</text><text transform="translate(240.0 853.3459118601276)" style="font-size: 6.0mm;font-family: PTSans-NarrowBold, PT Sans Narrow;font-weight: 700">8.3</text><text transform="translate(330.0 801.3843876330611)" style="font-size: 6.0mm;font-family: PTSans-NarrowBold, PT Sans Narrow;font-weight: 700">8.4</text><text transform="translate(420.0 853.3459118601276)" style="font-size: 6.0mm;font-family: PTSans-NarrowBold, PT Sans Narrow;font-weight: 700">8.5</text><text transform="translate(510.0 801.3843876330611)" style="font-size: 6.0mm;font-family: PTSans-NarrowBold, PT Sans Narrow;font-weight: 700">8.6</text><text transform="translate(600.0 853.3459118601276)" style="font-size: 6.0mm;font-family: PTSans-NarrowBold, PT Sans Narrow;font-weight: 700">8.7</text><text transform="translate(690.0 801.3843876330611)" style="font-size: 6.0mm;font-family: PTSans-NarrowBold, PT Sans Narrow;font-weight: 700">8.8</text>
</svg>