<svg width="330mm" height="382mm" data-name="Layer 1" id="Layer_1" xmlns="http://www.w3.org/2000/svg" >
<style type="text/css">
	.st0{fill:none;stroke:#8E8E8E;stroke-width:2.0;stroke-miterlimit:10;}
</style>
<polygon class="st0" points="141.7316665,147.2918684516447 113.38533319999999,98.1945789677631 56.692666599999995,98.1945789677631 28.346333299999998,147.2918684516447 56.692666599999995,196.38915793552624 113.38533319999999,196.38915793552624 "/><polygon class="st0" points="226.77066639999998,98.19457896776312 198.42433309999998,49.09728948388156 141.7316665,49.09728948388156 113.38533319999999,98.19457896776312 141.7316665,147.2918684516447 198.42433309999998,147.2918684516447 "/><polygon class="st0" points="311.8096663,147.2918684516447 283.463333,98.1945789677631 226.77066639999998,98.1945789677631 198.42433309999998,147.2918684516447 226.77066639999998,196.38915793552624 283.463333,196.38915793552624 "/><polygon class="st0" points="396.84866619999997,98.19457896776312 368.5023329,49.09728948388156 311.8096663,49.09728948388156 283.463333,98.19457896776312 311.8096663,147.2918684516447 368.5023329,147.2918684516447 "/><polygon class="st0" points="481.8876661,147.2918684516447 453.54133279999996,98.1945789677631 396.84866619999997,98.1945789677631 368.5023329,147.2918684516447 396.84866619999997,196.38915793552624 453.54133279999996,196.38915793552624 "/><polygon class="st0" points="566.926666,98.19457896776312 538.5803327,49.09728948388156 481.8876661,49.09728948388156 453.54133279999996,98.19457896776312 481.8876661,147.2918684516447 538.5803327,147.2918684516447 "/><polygon class="st0" points="651.9656659,147.2918684516447 623.6193326,98.1945789677631 566.926666,98.1945789677631 538.5803327,147.2918684516447 566.926666,196.38915793552624 623.6193326,196.38915793552624 "/><polygon class="st0" points="737.0046658,98.19457896776312 708.6583325,49.09728948388156 651.9656659,49.09728948388156 623.6193326,98.19457896776312 651.9656659,147.2918684516447 708.6583325,147.2918684516447 "/><polygon class="st0" points="822.0436657,147.2918684516447 793.6973323999999,98.1945789677631 737.0046658,98.1945789677631 708.6583325,147.2918684516447 737.0046658,196.38915793552624 793.6973323999999,196.38915793552624 "/><polygon class="st0" points="907.0826655999999,98.19457896776312 878.7363323,49.09728948388156 822.0436657,49.09728948388156 793.6973323999999,98.19457896776312 822.0436657,147.2918684516447 878.7363323,147.2918684516447 "/><polygon class="st0" points="992.1216655,147.2918684516447 963.7753322,98.1945789677631 907.0826655999999,98.1945789677631 878.7363323,147.2918684516447 907.0826655999999,196.38915793552624 963.7753322,196.38915793552624 "/><polygon class="st0" points="1077.1606654,98.19457896776312 1048.8143321,49.09728948388156 992.1216655,49.09728948388156 963.7753322,98.19457896776312 992.1216655,147.2918684516447 1048.8143321,147.2918684516447 "/><polygon class="st0" points="1162.1996652999999,147.2918684516447 1133.853332,98.1945789677631 1077.1606654,98.1945789677631 1048.8143321,147.2918684516447 1077.1606654,196.38915793552624 1133.853332,196.38915793552624 "/><polygon class="st0" points="141.7316665,245.48644741940782 113.38533319999999,196.38915793552624 56.692666599999995,196.38915793552624 28.346333299999998,245.48644741940782 56.692666599999995,294.5837369032894 113.38533319999999,294.5837369032894 "/><polygon class="st0" points="226.77066639999998,196.38915793552624 198.42433309999998,147.2918684516447 141.7316665,147.2918684516447 113.38533319999999,196.38915793552624 141.7316665,245.48644741940782 198.42433309999998,245.48644741940782 "/><polygon class="st0" points="311.8096663,245.48644741940782 283.463333,196.38915793552624 226.77066639999998,196.38915793552624 198.42433309999998,245.48644741940782 226.77066639999998,294.5837369032894 283.463333,294.5837369032894 "/><polygon class="st0" points="396.84866619999997,196.38915793552624 368.5023329,147.2918684516447 311.8096663,147.2918684516447 283.463333,196.38915793552624 311.8096663,245.48644741940782 368.5023329,245.48644741940782 "/><polygon class="st0" points="481.8876661,245.48644741940782 453.54133279999996,196.38915793552624 396.84866619999997,196.38915793552624 368.5023329,245.48644741940782 396.84866619999997,294.5837369032894 453.54133279999996,294.5837369032894 "/><polygon class="st0" points="566.926666,196.38915793552624 538.5803327,147.2918684516447 481.8876661,147.2918684516447 453.54133279999996,196.38915793552624 481.8876661,245.48644741940782 538.5803327,245.48644741940782 "/><polygon class="st0" points="651.9656659,245.48644741940782 623.6193326,196.38915793552624 566.926666,196.38915793552624 538.5803327,245.48644741940782 566.926666,294.5837369032894 623.6193326,294.5837369032894 "/><polygon class="st0" points="737.0046658,196.38915793552624 708.6583325,147.2918684516447 651.9656659,147.2918684516447 623.6193326,196.38915793552624 651.9656659,245.48644741940782 708.6583325,245.48644741940782 "/><polygon class="st0" points="822.0436657,245.48644741940782 793.6973323999999,196.38915793552624 737.0046658,196.38915793552624 708.6583325,245.48644741940782 737.0046658,294.5837369032894 793.6973323999999,294.5837369032894 "/><polygon class="st0" points="907.0826655999999,196.38915793552624 878.7363323,147.2918684516447 822.0436657,147.2918684516447 793.6973323999999,196.38915793552624 822.0436657,245.48644741940782 878.7363323,245.48644741940782 "/><polygon class="st0" points="992.1216655,245.48644741940782 963.7753322,196.38915793552624 907.0826655999999,196.38915793552624 878.7363323,245.48644741940782 907.0826655999999,294.5837369032894 963.7753322,294.5837369032894 "/><polygon class="st0" points="1077.1606654,196.38915793552624 1048.8143321,147.2918684516447 992.1216655,147.2918684516447 963.7753322,196.38915793552624 992.1216655,245.48644741940782 1048.8143321,245.48644741940782 "/><polygon class="st0" points="1162.1996652999999,245.48644741940782 1133.853332,196.38915793552624 1077.1606654,196.38915793552624 1048.8143321,245.48644741940782 1077.1606654,294.5837369032894 1133.853332,294.5837369032894 "/><polygon class="st0" points="141.7316665,343.6810263871709 113.38533319999999,294.5837369032894 56.692666599999995,294.5837369032894 28.346333299999998,343.6810263871709 56.692666599999995,392.7783158710525 113.38533319999999,392.7783158710525 "/><polygon class="st0" points="226.77066639999998,294.5837369032894 198.42433309999998,245.48644741940777 141.7316665,245.48644741940777 113.38533319999999,294.5837369032894 141.7316665,343.6810263871709 198.42433309999998,343.6810263871709 "/><polygon class="st0" points="311.8096663,343.6810263871709 283.463333,294.5837369032894 226.77066639999998,294.5837369032894 198.42433309999998,343.6810263871709 226.77066639999998,392.7783158710525 283.463333,392.7783158710525 "/><polygon class="st0" points="396.84866619999997,294.5837369032894 368.5023329,245.48644741940777 311.8096663,245.48644741940777 283.463333,294.5837369032894 311.8096663,343.6810263871709 368.5023329,343.6810263871709 "/><polygon class="st0" points="481.8876661,343.6810263871709 453.54133279999996,294.5837369032894 396.84866619999997,294.5837369032894 368.5023329,343.6810263871709 396.84866619999997,392.7783158710525 453.54133279999996,392.7783158710525 "/><polygon class="st0" points="566.926666,294.5837369032894 538.5803327,245.48644741940777 481.8876661,245.48644741940777 453.54133279999996,294.5837369032894 481.8876661,343.6810263871709 538.5803327,343.6810263871709 "/><polygon class="st0" points="651.9656659,343.6810263871709 623.6193326,294.5837369032894 566.926666,294.5837369032894 538.5803327,343.6810263871709 566.926666,392.7783158710525 623.6193326,392.7783158710525 "/><polygon class="st0" points="737.0046658,294.5837369032894 708.6583325,245.48644741940777 651.9656659,245.48644741940777 623.6193326,294.5837369032894 651.9656659,343.6810263871709 708.6583325,343.6810263871709 "/><polygon class="st0" points="822.0436657,343.6810263871709 793.6973323999999,294.5837369032894 737.0046658,294.5837369032894 708.6583325,343.6810263871709 737.0046658,392.7783158710525 793.6973323999999,392.7783158710525 "/><polygon class="st0" points="907.0826655999999,294.5837369032894 878.7363323,245.48644741940777 822.0436657,245.48644741940777 793.6973323999999,294.5837369032894 822.0436657,343.6810263871709 878.7363323,343.6810263871709 "/><polygon class="st0" points="992.1216655,343.6810263871709 963.7753322,294.5837369032894 907.0826655999999,294.5837369032894 878.7363323,343.6810263871709 907.0826655999999,392.7783158710525 963.7753322,392.7783158710525 "/><polygon class="st0" points="1077.1606654,294.5837369032894 1048.8143321,245.48644741940777 992.1216655,245.48644741940777 963.7753322,294.5837369032894 992.1216655,343.6810263871709 1048.8143321,343.6810263871709 "/><polygon class="st0" points="1162.1996652999999,343.6810263871709 1133.853332,294.5837369032894 1077.1606654,294.5837369032894 1048.8143321,343.6810263871709 1077.1606654,392.7783158710525 1133.853332,392.7783158710525 "/><polygon class="st0" points="141.7316665,441.875605354934 113.38533319999999,392.7783158710525 56.692666599999995,392.7783158710525 28.346333299999998,441.875605354934 56.692666599999995,490.97289483881553 113.38533319999999,490.97289483881553 "/><polygon class="st0" points="226.77066639999998,392.7783158710525 198.42433309999998,343.6810263871709 141.7316665,343.6810263871709 113.38533319999999,392.7783158710525 141.7316665,441.875605354934 198.42433309999998,441.875605354934 "/><polygon class="st0" points="311.8096663,441.875605354934 283.463333,392.7783158710525 226.77066639999998,392.7783158710525 198.42433309999998,441.875605354934 226.77066639999998,490.97289483881553 283.463333,490.97289483881553 "/><polygon class="st0" points="396.84866619999997,392.7783158710525 368.5023329,343.6810263871709 311.8096663,343.6810263871709 283.463333,392.7783158710525 311.8096663,441.875605354934 368.5023329,441.875605354934 "/><polygon class="st0" points="481.8876661,441.875605354934 453.54133279999996,392.7783158710525 396.84866619999997,392.7783158710525 368.5023329,441.875605354934 396.84866619999997,490.97289483881553 453.54133279999996,490.97289483881553 "/><polygon class="st0" points="566.926666,392.7783158710525 538.5803327,343.6810263871709 481.8876661,343.6810263871709 453.54133279999996,392.7783158710525 481.8876661,441.875605354934 538.5803327,441.875605354934 "/><polygon class="st0" points="651.9656659,441.875605354934 623.6193326,392.7783158710525 566.926666,392.7783158710525 538.5803327,441.875605354934 566.926666,490.97289483881553 623.6193326,490.97289483881553 "/><polygon class="st0" points="737.0046658,392.7783158710525 708.6583325,343.6810263871709 651.9656659,343.6810263871709 623.6193326,392.7783158710525 651.9656659,441.875605354934 708.6583325,441.875605354934 "/><polygon class="st0" points="822.0436657,441.875605354934 793.6973323999999,392.7783158710525 737.0046658,392.7783158710525 708.6583325,441.875605354934 737.0046658,490.97289483881553 793.6973323999999,490.97289483881553 "/><polygon class="st0" points="907.0826655999999,392.7783158710525 878.7363323,343.6810263871709 822.0436657,343.6810263871709 793.6973323999999,392.7783158710525 822.0436657,441.875605354934 878.7363323,441.875605354934 "/><polygon class="st0" points="992.1216655,441.875605354934 963.7753322,392.7783158710525 907.0826655999999,392.7783158710525 878.7363323,441.875605354934 907.0826655999999,490.97289483881553 963.7753322,490.97289483881553 "/><polygon class="st0" points="1077.1606654,392.7783158710525 1048.8143321,343.6810263871709 992.1216655,343.6810263871709 963.7753322,392.7783158710525 992.1216655,441.875605354934 1048.8143321,441.875605354934 "/><polygon class="st0" points="1162.1996652999999,441.875605354934 1133.853332,392.7783158710525 1077.1606654,392.7783158710525 1048.8143321,441.875605354934 1077.1606654,490.97289483881553 1133.853332,490.97289483881553 "/><polygon class="st0" points="141.7316665,540.0701843226972 113.38533319999999,490.97289483881565 56.692666599999995,490.97289483881565 28.346333299999998,540.0701843226972 56.692666599999995,589.1674738065788 113.38533319999999,589.1674738065788 "/><polygon class="st0" points="226.77066639999998,490.97289483881565 198.42433309999998,441.8756053549341 141.7316665,441.8756053549341 113.38533319999999,490.97289483881565 141.7316665,540.0701843226972 198.42433309999998,540.0701843226972 "/><polygon class="st0" points="311.8096663,540.0701843226972 283.463333,490.97289483881565 226.77066639999998,490.97289483881565 198.42433309999998,540.0701843226972 226.77066639999998,589.1674738065788 283.463333,589.1674738065788 "/><polygon class="st0" points="396.84866619999997,490.97289483881565 368.5023329,441.8756053549341 311.8096663,441.8756053549341 283.463333,490.97289483881565 311.8096663,540.0701843226972 368.5023329,540.0701843226972 "/><polygon class="st0" points="481.8876661,540.0701843226972 453.54133279999996,490.97289483881565 396.84866619999997,490.97289483881565 368.5023329,540.0701843226972 396.84866619999997,589.1674738065788 453.54133279999996,589.1674738065788 "/><polygon class="st0" points="566.926666,490.97289483881565 538.5803327,441.8756053549341 481.8876661,441.8756053549341 453.54133279999996,490.97289483881565 481.8876661,540.0701843226972 538.5803327,540.0701843226972 "/><polygon class="st0" points="651.9656659,540.0701843226972 623.6193326,490.97289483881565 566.926666,490.97289483881565 538.5803327,540.0701843226972 566.926666,589.1674738065788 623.6193326,589.1674738065788 "/><polygon class="st0" points="737.0046658,490.97289483881565 708.6583325,441.8756053549341 651.9656659,441.8756053549341 623.6193326,490.97289483881565 651.9656659,540.0701843226972 708.6583325,540.0701843226972 "/><polygon class="st0" points="822.0436657,540.0701843226972 793.6973323999999,490.97289483881565 737.0046658,490.97289483881565 708.6583325,540.0701843226972 737.0046658,589.1674738065788 793.6973323999999,589.1674738065788 "/><polygon class="st0" points="907.0826655999999,490.97289483881565 878.7363323,441.8756053549341 822.0436657,441.8756053549341 793.6973323999999,490.97289483881565 822.0436657,540.0701843226972 878.7363323,540.0701843226972 "/><polygon class="st0" points="992.1216655,540.0701843226972 963.7753322,490.97289483881565 907.0826655999999,490.97289483881565 878.7363323,540.0701843226972 907.0826655999999,589.1674738065788 963.7753322,589.1674738065788 "/><polygon class="st0" points="1077.1606654,490.97289483881565 1048.8143321,441.8756053549341 992.1216655,441.8756053549341 963.7753322,490.97289483881565 992.1216655,540.0701843226972 1048.8143321,540.0701843226972 "/><polygon class="st0" points="1162.1996652999999,540.0701843226972 1133.853332,490.97289483881565 1077.1606654,490.97289483881565 1048.8143321,540.0701843226972 1077.1606654,589.1674738065788 1133.853332,589.1674738065788 "/><polygon class="st0" points="141.7316665,638.2647632904602 113.38533319999999,589.1674738065788 56.692666599999995,589.1674738065788 28.346333299999998,638.2647632904602 56.692666599999995,687.3620527743418 113.38533319999999,687.3620527743418 "/><polygon class="st0" points="226.77066639999998,589.1674738065788 198.42433309999998,540.0701843226972 141.7316665,540.0701843226972 113.38533319999999,589.1674738065788 141.7316665,638.2647632904602 198.42433309999998,638.2647632904602 "/><polygon class="st0" points="311.8096663,638.2647632904602 283.463333,589.1674738065788 226.77066639999998,589.1674738065788 198.42433309999998,638.2647632904602 226.77066639999998,687.3620527743418 283.463333,687.3620527743418 "/><polygon class="st0" points="396.84866619999997,589.1674738065788 368.5023329,540.0701843226972 311.8096663,540.0701843226972 283.463333,589.1674738065788 311.8096663,638.2647632904602 368.5023329,638.2647632904602 "/><polygon class="st0" points="481.8876661,638.2647632904602 453.54133279999996,589.1674738065788 396.84866619999997,589.1674738065788 368.5023329,638.2647632904602 396.84866619999997,687.3620527743418 453.54133279999996,687.3620527743418 "/><polygon class="st0" points="566.926666,589.1674738065788 538.5803327,540.0701843226972 481.8876661,540.0701843226972 453.54133279999996,589.1674738065788 481.8876661,638.2647632904602 538.5803327,638.2647632904602 "/><polygon class="st0" points="651.9656659,638.2647632904602 623.6193326,589.1674738065788 566.926666,589.1674738065788 538.5803327,638.2647632904602 566.926666,687.3620527743418 623.6193326,687.3620527743418 "/><polygon class="st0" points="737.0046658,589.1674738065788 708.6583325,540.0701843226972 651.9656659,540.0701843226972 623.6193326,589.1674738065788 651.9656659,638.2647632904602 708.6583325,638.2647632904602 "/><polygon class="st0" points="822.0436657,638.2647632904602 793.6973323999999,589.1674738065788 737.0046658,589.1674738065788 708.6583325,638.2647632904602 737.0046658,687.3620527743418 793.6973323999999,687.3620527743418 "/><polygon class="st0" points="907.0826655999999,589.1674738065788 878.7363323,540.0701843226972 822.0436657,540.0701843226972 793.6973323999999,589.1674738065788 822.0436657,638.2647632904602 878.7363323,638.2647632904602 "/><polygon class="st0" points="992.1216655,638.2647632904602 963.7753322,589.1674738065788 907.0826655999999,589.1674738065788 878.7363323,638.2647632904602 907.0826655999999,687.3620527743418 963.7753322,687.3620527743418 "/><polygon class="st0" points="1077.1606654,589.1674738065788 1048.8143321,540.0701843226972 992.1216655,540.0701843226972 963.7753322,589.1674738065788 992.1216655,638.2647632904602 1048.8143321,638.2647632904602 "/><polygon class="st0" points="1162.1996652999999,638.2647632904602 1133.853332,589.1674738065788 1077.1606654,589.1674738065788 1048.8143321,638.2647632904602 1077.1606654,687.3620527743418 1133.853332,687.3620527743418 "/><polygon class="st0" points="141.7316665,736.4593422582234 113.38533319999999,687.3620527743418 56.692666599999995,687.3620527743418 28.346333299999998,736.4593422582234 56.692666599999995,785.556631742105 113.38533319999999,785.556631742105 "/><polygon class="st0" points="226.77066639999998,687.3620527743418 198.42433309999998,638.2647632904603 141.7316665,638.2647632904603 113.38533319999999,687.3620527743418 141.7316665,736.4593422582234 198.42433309999998,736.4593422582234 "/><polygon class="st0" points="311.8096663,736.4593422582234 283.463333,687.3620527743418 226.77066639999998,687.3620527743418 198.42433309999998,736.4593422582234 226.77066639999998,785.556631742105 283.463333,785.556631742105 "/><polygon class="st0" points="396.84866619999997,687.3620527743418 368.5023329,638.2647632904603 311.8096663,638.2647632904603 283.463333,687.3620527743418 311.8096663,736.4593422582234 368.5023329,736.4593422582234 "/><polygon class="st0" points="481.8876661,736.4593422582234 453.54133279999996,687.3620527743418 396.84866619999997,687.3620527743418 368.5023329,736.4593422582234 396.84866619999997,785.556631742105 453.54133279999996,785.556631742105 "/><polygon class="st0" points="566.926666,687.3620527743418 538.5803327,638.2647632904603 481.8876661,638.2647632904603 453.54133279999996,687.3620527743418 481.8876661,736.4593422582234 538.5803327,736.4593422582234 "/><polygon class="st0" points="651.9656659,736.4593422582234 623.6193326,687.3620527743418 566.926666,687.3620527743418 538.5803327,736.4593422582234 566.926666,785.556631742105 623.6193326,785.556631742105 "/><polygon class="st0" points="737.0046658,687.3620527743418 708.6583325,638.2647632904603 651.9656659,638.2647632904603 623.6193326,687.3620527743418 651.9656659,736.4593422582234 708.6583325,736.4593422582234 "/><polygon class="st0" points="822.0436657,736.4593422582234 793.6973323999999,687.3620527743418 737.0046658,687.3620527743418 708.6583325,736.4593422582234 737.0046658,785.556631742105 793.6973323999999,785.556631742105 "/><polygon class="st0" points="907.0826655999999,687.3620527743418 878.7363323,638.2647632904603 822.0436657,638.2647632904603 793.6973323999999,687.3620527743418 822.0436657,736.4593422582234 878.7363323,736.4593422582234 "/><polygon class="st0" points="992.1216655,736.4593422582234 963.7753322,687.3620527743418 907.0826655999999,687.3620527743418 878.7363323,736.4593422582234 907.0826655999999,785.556631742105 963.7753322,785.556631742105 "/><polygon class="st0" points="1077.1606654,687.3620527743418 1048.8143321,638.2647632904603 992.1216655,638.2647632904603 963.7753322,687.3620527743418 992.1216655,736.4593422582234 1048.8143321,736.4593422582234 "/><polygon class="st0" points="1162.1996652999999,736.4593422582234 1133.853332,687.3620527743418 1077.1606654,687.3620527743418 1048.8143321,736.4593422582234 1077.1606654,785.556631742105 1133.853332,785.556631742105 "/><polygon class="st0" points="141.7316665,834.6539212259867 113.38533319999999,785.556631742105 56.692666599999995,785.556631742105 28.346333299999998,834.6539212259867 56.692666599999995,883.7512107098682 113.38533319999999,883.7512107098682 "/><polygon class="st0" points="226.77066639999998,785.556631742105 198.42433309999998,736.4593422582234 141.7316665,736.4593422582234 113.38533319999999,785.556631742105 141.7316665,834.6539212259867 198.42433309999998,834.6539212259867 "/><polygon class="st0" points="311.8096663,834.6539212259867 283.463333,785.556631742105 226.77066639999998,785.556631742105 198.42433309999998,834.6539212259867 226.77066639999998,883.7512107098682 283.463333,883.7512107098682 "/><polygon class="st0" points="396.84866619999997,785.556631742105 368.5023329,736.4593422582234 311.8096663,736.4593422582234 283.463333,785.556631742105 311.8096663,834.6539212259867 368.5023329,834.6539212259867 "/><polygon class="st0" points="481.8876661,834.6539212259867 453.54133279999996,785.556631742105 396.84866619999997,785.556631742105 368.5023329,834.6539212259867 396.84866619999997,883.7512107098682 453.54133279999996,883.7512107098682 "/><polygon class="st0" points="566.926666,785.556631742105 538.5803327,736.4593422582234 481.8876661,736.4593422582234 453.54133279999996,785.556631742105 481.8876661,834.6539212259867 538.5803327,834.6539212259867 "/><polygon class="st0" points="651.9656659,834.6539212259867 623.6193326,785.556631742105 566.926666,785.556631742105 538.5803327,834.6539212259867 566.926666,883.7512107098682 623.6193326,883.7512107098682 "/><polygon class="st0" points="737.0046658,785.556631742105 708.6583325,736.4593422582234 651.9656659,736.4593422582234 623.6193326,785.556631742105 651.9656659,834.6539212259867 708.6583325,834.6539212259867 "/><polygon class="st0" points="822.0436657,834.6539212259867 793.6973323999999,785.556631742105 737.0046658,785.556631742105 708.6583325,834.6539212259867 737.0046658,883.7512107098682 793.6973323999999,883.7512107098682 "/><polygon class="st0" points="907.0826655999999,785.556631742105 878.7363323,736.4593422582234 822.0436657,736.4593422582234 793.6973323999999,785.556631742105 822.0436657,834.6539212259867 878.7363323,834.6539212259867 "/><polygon class="st0" points="992.1216655,834.6539212259867 963.7753322,785.556631742105 907.0826655999999,785.556631742105 878.7363323,834.6539212259867 907.0826655999999,883.7512107098682 963.7753322,883.7512107098682 "/><polygon class="st0" points="1077.1606654,785.556631742105 1048.8143321,736.4593422582234 992.1216655,736.4593422582234 963.7753322,785.556631742105 992.1216655,834.6539212259867 1048.8143321,834.6539212259867 "/><polygon class="st0" points="1162.1996652999999,834.6539212259867 1133.853332,785.556631742105 1077.1606654,785.556631742105 1048.8143321,834.6539212259867 1077.1606654,883.7512107098682 1133.853332,883.7512107098682 "/><polygon class="st0" points="141.7316665,932.8485001937497 113.38533319999999,883.751210709868 56.692666599999995,883.751210709868 28.346333299999998,932.8485001937497 56.692666599999995,981.9457896776313 113.38533319999999,981.9457896776313 "/><polygon class="st0" points="226.77066639999998,883.751210709868 198.42433309999998,834.6539212259864 141.7316665,834.6539212259864 113.38533319999999,883.751210709868 141.7316665,932.8485001937497 198.42433309999998,932.8485001937497 "/><polygon class="st0" points="311.8096663,932.8485001937497 283.463333,883.751210709868 226.77066639999998,883.751210709868 198.42433309999998,932.8485001937497 226.77066639999998,981.9457896776313 283.463333,981.9457896776313 "/><polygon class="st0" points="396.84866619999997,883.751210709868 368.5023329,834.6539212259864 311.8096663,834.6539212259864 283.463333,883.751210709868 311.8096663,932.8485001937497 368.5023329,932.8485001937497 "/><polygon class="st0" points="481.8876661,932.8485001937497 453.54133279999996,883.751210709868 396.84866619999997,883.751210709868 368.5023329,932.8485001937497 396.84866619999997,981.9457896776313 453.54133279999996,981.9457896776313 "/><polygon class="st0" points="566.926666,883.751210709868 538.5803327,834.6539212259864 481.8876661,834.6539212259864 453.54133279999996,883.751210709868 481.8876661,932.8485001937497 538.5803327,932.8485001937497 "/><polygon class="st0" points="651.9656659,932.8485001937497 623.6193326,883.751210709868 566.926666,883.751210709868 538.5803327,932.8485001937497 566.926666,981.9457896776313 623.6193326,981.9457896776313 "/><polygon class="st0" points="737.0046658,883.751210709868 708.6583325,834.6539212259864 651.9656659,834.6539212259864 623.6193326,883.751210709868 651.9656659,932.8485001937497 708.6583325,932.8485001937497 "/><polygon class="st0" points="822.0436657,932.8485001937497 793.6973323999999,883.751210709868 737.0046658,883.751210709868 708.6583325,932.8485001937497 737.0046658,981.9457896776313 793.6973323999999,981.9457896776313 "/><polygon class="st0" points="907.0826655999999,883.751210709868 878.7363323,834.6539212259864 822.0436657,834.6539212259864 793.6973323999999,883.751210709868 822.0436657,932.8485001937497 878.7363323,932.8485001937497 "/><polygon class="st0" points="992.1216655,932.8485001937497 963.7753322,883.751210709868 907.0826655999999,883.751210709868 878.7363323,932.8485001937497 907.0826655999999,981.9457896776313 963.7753322,981.9457896776313 "/><polygon class="st0" points="1077.1606654,883.751210709868 1048.8143321,834.6539212259864 992.1216655,834.6539212259864 963.7753322,883.751210709868 992.1216655,932.8485001937497 1048.8143321,932.8485001937497 "/><polygon class="st0" points="1162.1996652999999,932.8485001937497 1133.853332,883.751210709868 1077.1606654,883.751210709868 1048.8143321,932.8485001937497 1077.1606654,981.9457896776313 1133.853332,981.9457896776313 "/><polygon class="st0" points="141.7316665,1031.0430791615129 113.38533319999999,981.9457896776313 56.692666599999995,981.9457896776313 28.346333299999998,1031.0430791615129 56.692666599999995,1080.1403686453946 113.38533319999999,1080.1403686453946 "/><polygon class="st0" points="226.77066639999998,981.9457896776313 198.42433309999998,932.8485001937497 141.7316665,932.8485001937497 113.38533319999999,981.9457896776313 141.7316665,1031.0430791615129 198.42433309999998,1031.0430791615129 "/><polygon class="st0" points="311.8096663,1031.0430791615129 283.463333,981.9457896776313 226.77066639999998,981.9457896776313 198.42433309999998,1031.0430791615129 226.77066639999998,1080.1403686453946 283.463333,1080.1403686453946 "/><polygon class="st0" points="396.84866619999997,981.9457896776313 368.5023329,932.8485001937497 311.8096663,932.8485001937497 283.463333,981.9457896776313 311.8096663,1031.0430791615129 368.5023329,1031.0430791615129 "/><polygon class="st0" points="481.8876661,1031.0430791615129 453.54133279999996,981.9457896776313 396.84866619999997,981.9457896776313 368.5023329,1031.0430791615129 396.84866619999997,1080.1403686453946 453.54133279999996,1080.1403686453946 "/><polygon class="st0" points="566.926666,981.9457896776313 538.5803327,932.8485001937497 481.8876661,932.8485001937497 453.54133279999996,981.9457896776313 481.8876661,1031.0430791615129 538.5803327,1031.0430791615129 "/><polygon class="st0" points="651.9656659,1031.0430791615129 623.6193326,981.9457896776313 566.926666,981.9457896776313 538.5803327,1031.0430791615129 566.926666,1080.1403686453946 623.6193326,1080.1403686453946 "/><polygon class="st0" points="737.0046658,981.9457896776313 708.6583325,932.8485001937497 651.9656659,932.8485001937497 623.6193326,981.9457896776313 651.9656659,1031.0430791615129 708.6583325,1031.0430791615129 "/><polygon class="st0" points="822.0436657,1031.0430791615129 793.6973323999999,981.9457896776313 737.0046658,981.9457896776313 708.6583325,1031.0430791615129 737.0046658,1080.1403686453946 793.6973323999999,1080.1403686453946 "/><polygon class="st0" points="907.0826655999999,981.9457896776313 878.7363323,932.8485001937497 822.0436657,932.8485001937497 793.6973323999999,981.9457896776313 822.0436657,1031.0430791615129 878.7363323,1031.0430791615129 "/><polygon class="st0" points="992.1216655,1031.0430791615129 963.7753322,981.9457896776313 907.0826655999999,981.9457896776313 878.7363323,1031.0430791615129 907.0826655999999,1080.1403686453946 963.7753322,1080.1403686453946 "/><polygon class="st0" points="1077.1606654,981.9457896776313 1048.8143321,932.8485001937497 992.1216655,932.8485001937497 963.7753322,981.9457896776313 992.1216655,1031.0430791615129 1048.8143321,1031.0430791615129 "/><polygon class="st0" points="1162.1996652999999,1031.0430791615129 1133.853332,981.9457896776313 1077.1606654,981.9457896776313 1048.8143321,1031.0430791615129 1077.1606654,1080.1403686453946 1133.853332,1080.1403686453946 "/><polygon class="st0" points="141.7316665,1129.237658129276 113.38533319999999,1080.1403686453943 56.692666599999995,1080.1403686453943 28.346333299999998,1129.237658129276 56.692666599999995,1178.3349476131575 113.38533319999999,1178.3349476131575 "/><polygon class="st0" points="226.77066639999998,1080.1403686453943 198.42433309999998,1031.0430791615127 141.7316665,1031.0430791615127 113.38533319999999,1080.1403686453943 141.7316665,1129.237658129276 198.42433309999998,1129.237658129276 "/><polygon class="st0" points="311.8096663,1129.237658129276 283.463333,1080.1403686453943 226.77066639999998,1080.1403686453943 198.42433309999998,1129.237658129276 226.77066639999998,1178.3349476131575 283.463333,1178.3349476131575 "/><polygon class="st0" points="396.84866619999997,1080.1403686453943 368.5023329,1031.0430791615127 311.8096663,1031.0430791615127 283.463333,1080.1403686453943 311.8096663,1129.237658129276 368.5023329,1129.237658129276 "/><polygon class="st0" points="481.8876661,1129.237658129276 453.54133279999996,1080.1403686453943 396.84866619999997,1080.1403686453943 368.5023329,1129.237658129276 396.84866619999997,1178.3349476131575 453.54133279999996,1178.3349476131575 "/><polygon class="st0" points="566.926666,1080.1403686453943 538.5803327,1031.0430791615127 481.8876661,1031.0430791615127 453.54133279999996,1080.1403686453943 481.8876661,1129.237658129276 538.5803327,1129.237658129276 "/><polygon class="st0" points="651.9656659,1129.237658129276 623.6193326,1080.1403686453943 566.926666,1080.1403686453943 538.5803327,1129.237658129276 566.926666,1178.3349476131575 623.6193326,1178.3349476131575 "/><polygon class="st0" points="737.0046658,1080.1403686453943 708.6583325,1031.0430791615127 651.9656659,1031.0430791615127 623.6193326,1080.1403686453943 651.9656659,1129.237658129276 708.6583325,1129.237658129276 "/><polygon class="st0" points="822.0436657,1129.237658129276 793.6973323999999,1080.1403686453943 737.0046658,1080.1403686453943 708.6583325,1129.237658129276 737.0046658,1178.3349476131575 793.6973323999999,1178.3349476131575 "/><polygon class="st0" points="907.0826655999999,1080.1403686453943 878.7363323,1031.0430791615127 822.0436657,1031.0430791615127 793.6973323999999,1080.1403686453943 822.0436657,1129.237658129276 878.7363323,1129.237658129276 "/><polygon class="st0" points="992.1216655,1129.237658129276 963.7753322,1080.1403686453943 907.0826655999999,1080.1403686453943 878.7363323,1129.237658129276 907.0826655999999,1178.3349476131575 963.7753322,1178.3349476131575 "/><polygon class="st0" points="1077.1606654,1080.1403686453943 1048.8143321,1031.0430791615127 992.1216655,1031.0430791615127 963.7753322,1080.1403686453943 992.1216655,1129.237658129276 1048.8143321,1129.237658129276 "/><polygon class="st0" points="1162.1996652999999,1129.237658129276 1133.853332,1080.1403686453943 1077.1606654,1080.1403686453943 1048.8143321,1129.237658129276 1077.1606654,1178.3349476131575 1133.853332,1178.3349476131575 "/><polygon class="st0" points="141.7316665,1227.432237097039 113.38533319999999,1178.3349476131575 56.692666599999995,1178.3349476131575 28.346333299999998,1227.432237097039 56.692666599999995,1276.5295265809207 113.38533319999999,1276.5295265809207 "/><polygon class="st0" points="226.77066639999998,1178.3349476131575 198.42433309999998,1129.2376581292758 141.7316665,1129.2376581292758 113.38533319999999,1178.3349476131575 141.7316665,1227.432237097039 198.42433309999998,1227.432237097039 "/><polygon class="st0" points="311.8096663,1227.432237097039 283.463333,1178.3349476131575 226.77066639999998,1178.3349476131575 198.42433309999998,1227.432237097039 226.77066639999998,1276.5295265809207 283.463333,1276.5295265809207 "/><polygon class="st0" points="396.84866619999997,1178.3349476131575 368.5023329,1129.2376581292758 311.8096663,1129.2376581292758 283.463333,1178.3349476131575 311.8096663,1227.432237097039 368.5023329,1227.432237097039 "/><polygon class="st0" points="481.8876661,1227.432237097039 453.54133279999996,1178.3349476131575 396.84866619999997,1178.3349476131575 368.5023329,1227.432237097039 396.84866619999997,1276.5295265809207 453.54133279999996,1276.5295265809207 "/><polygon class="st0" points="566.926666,1178.3349476131575 538.5803327,1129.2376581292758 481.8876661,1129.2376581292758 453.54133279999996,1178.3349476131575 481.8876661,1227.432237097039 538.5803327,1227.432237097039 "/><polygon class="st0" points="651.9656659,1227.432237097039 623.6193326,1178.3349476131575 566.926666,1178.3349476131575 538.5803327,1227.432237097039 566.926666,1276.5295265809207 623.6193326,1276.5295265809207 "/><polygon class="st0" points="737.0046658,1178.3349476131575 708.6583325,1129.2376581292758 651.9656659,1129.2376581292758 623.6193326,1178.3349476131575 651.9656659,1227.432237097039 708.6583325,1227.432237097039 "/><polygon class="st0" points="822.0436657,1227.432237097039 793.6973323999999,1178.3349476131575 737.0046658,1178.3349476131575 708.6583325,1227.432237097039 737.0046658,1276.5295265809207 793.6973323999999,1276.5295265809207 "/><polygon class="st0" points="907.0826655999999,1178.3349476131575 878.7363323,1129.2376581292758 822.0436657,1129.2376581292758 793.6973323999999,1178.3349476131575 822.0436657,1227.432237097039 878.7363323,1227.432237097039 "/><polygon class="st0" points="992.1216655,1227.432237097039 963.7753322,1178.3349476131575 907.0826655999999,1178.3349476131575 878.7363323,1227.432237097039 907.0826655999999,1276.5295265809207 963.7753322,1276.5295265809207 "/><polygon class="st0" points="1077.1606654,1178.3349476131575 1048.8143321,1129.2376581292758 992.1216655,1129.2376581292758 963.7753322,1178.3349476131575 992.1216655,1227.432237097039 1048.8143321,1227.432237097039 "/><polygon class="st0" points="1162.1996652999999,1227.432237097039 1133.853332,1178.3349476131575 1077.1606654,1178.3349476131575 1048.8143321,1227.432237097039 1077.1606654,1276.5295265809207 1133.853332,1276.5295265809207 "/><polygon class="st0" points="141.7316665,1325.6268160648021 113.38533319999999,1276.5295265809207 56.692666599999995,1276.5295265809207 28.346333299999998,1325.6268160648021 56.692666599999995,1374.7241055486838 113.38533319999999,1374.7241055486838 "/><polygon class="st0" points="226.77066639999998,1276.5295265809207 198.42433309999998,1227.432237097039 141.7316665,1227.432237097039 113.38533319999999,1276.5295265809207 141.7316665,1325.6268160648021 198.42433309999998,1325.6268160648021 "/><polygon class="st0" points="311.8096663,1325.6268160648021 283.463333,1276.5295265809207 226.77066639999998,1276.5295265809207 198.42433309999998,1325.6268160648021 226.77066639999998,1374.7241055486838 283.463333,1374.7241055486838 "/><polygon class="st0" points="396.84866619999997,1276.5295265809207 368.5023329,1227.432237097039 311.8096663,1227.432237097039 283.463333,1276.5295265809207 311.8096663,1325.6268160648021 368.5023329,1325.6268160648021 "/><polygon class="st0" points="481.8876661,1325.6268160648021 453.54133279999996,1276.5295265809207 396.84866619999997,1276.5295265809207 368.5023329,1325.6268160648021 396.84866619999997,1374.7241055486838 453.54133279999996,1374.7241055486838 "/><polygon class="st0" points="566.926666,1276.5295265809207 538.5803327,1227.432237097039 481.8876661,1227.432237097039 453.54133279999996,1276.5295265809207 481.8876661,1325.6268160648021 538.5803327,1325.6268160648021 "/><polygon class="st0" points="651.9656659,1325.6268160648021 623.6193326,1276.5295265809207 566.926666,1276.5295265809207 538.5803327,1325.6268160648021 566.926666,1374.7241055486838 623.6193326,1374.7241055486838 "/><polygon class="st0" points="737.0046658,1276.5295265809207 708.6583325,1227.432237097039 651.9656659,1227.432237097039 623.6193326,1276.5295265809207 651.9656659,1325.6268160648021 708.6583325,1325.6268160648021 "/><polygon class="st0" points="822.0436657,1325.6268160648021 793.6973323999999,1276.5295265809207 737.0046658,1276.5295265809207 708.6583325,1325.6268160648021 737.0046658,1374.7241055486838 793.6973323999999,1374.7241055486838 "/><polygon class="st0" points="907.0826655999999,1276.5295265809207 878.7363323,1227.432237097039 822.0436657,1227.432237097039 793.6973323999999,1276.5295265809207 822.0436657,1325.6268160648021 878.7363323,1325.6268160648021 "/><polygon class="st0" points="992.1216655,1325.6268160648021 963.7753322,1276.5295265809207 907.0826655999999,1276.5295265809207 878.7363323,1325.6268160648021 907.0826655999999,1374.7241055486838 963.7753322,1374.7241055486838 "/><polygon class="st0" points="1077.1606654,1276.5295265809207 1048.8143321,1227.432237097039 992.1216655,1227.432237097039 963.7753322,1276.5295265809207 992.1216655,1325.6268160648021 1048.8143321,1325.6268160648021 "/><polygon class="st0" points="1162.1996652999999,1325.6268160648021 1133.853332,1276.5295265809207 1077.1606654,1276.5295265809207 1048.8143321,1325.6268160648021 1077.1606654,1374.7241055486838 1133.853332,1374.7241055486838 "/><text transform="translate(56.692666599999995 118.94553515164468)" style="font-size: 5.66926666mm;font-family: PTSans-NarrowBold, PT Sans Narrow;font-weight: 700">2.2</text><text transform="translate(141.7316665 69.84824566776312)" style="font-size: 5.66926666mm;font-family: PTSans-NarrowBold, PT Sans Narrow;font-weight: 700">3.2</text><text transform="translate(226.77066639999998 118.94553515164468)" style="font-size: 5.66926666mm;font-family: PTSans-NarrowBold, PT Sans Narrow;font-weight: 700">4.2</text><text transform="translate(311.8096663 69.84824566776312)" style="font-size: 5.66926666mm;font-family: PTSans-NarrowBold, PT Sans Narrow;font-weight: 700">5.2</text><text transform="translate(396.84866619999997 118.94553515164468)" style="font-size: 5.66926666mm;font-family: PTSans-NarrowBold, PT Sans Narrow;font-weight: 700">6.2</text><text transform="translate(481.8876661 69.84824566776312)" style="font-size: 5.66926666mm;font-family: PTSans-NarrowBold, PT Sans Narrow;font-weight: 700">7.2</text><text transform="translate(566.926666 118.94553515164468)" style="font-size: 5.66926666mm;font-family: PTSans-NarrowBold, PT Sans Narrow;font-weight: 700">8.2</text><text transform="translate(651.9656659 69.84824566776312)" style="font-size: 5.66926666mm;font-family: PTSans-NarrowBold, PT Sans Narrow;font-weight: 700">9.2</text><text transform="translate(737.0046658 118.94553515164468)" style="font-size: 5.66926666mm;font-family: PTSans-NarrowBold, PT Sans Narrow;font-weight: 700">10.2</text><text transform="translate(822.0436657 69.84824566776312)" style="font-size: 5.66926666mm;font-family: PTSans-NarrowBold, PT Sans Narrow;font-weight: 700">11.2</text><text transform="translate(907.0826655999999 118.94553515164468)" style="font-size: 5.66926666mm;font-family: PTSans-NarrowBold, PT Sans Narrow;font-weight: 700">12.2</text><text transform="translate(992.1216655 69.84824566776312)" style="font-size: 5.66926666mm;font-family: PTSans-NarrowBold, PT Sans Narrow;font-weight: 700">13.2</text><text transform="translate(1077.1606654 118.94553515164468)" style="font-size: 5.66926666mm;font-family: PTSans-NarrowBold, PT Sans Narrow;font-weight: 700">14.2</text><text transform="translate(56.692666599999995 217.14011411940783)" style="font-size: 5.66926666mm;font-family: PTSans-NarrowBold, PT Sans Narrow;font-weight: 700">2.3</text><text transform="translate(141.7316665 168.04282463552624)" style="font-size: 5.66926666mm;font-family: PTSans-NarrowBold, PT Sans Narrow;font-weight: 700">3.3</text><text transform="translate(226.77066639999998 217.14011411940783)" style="font-size: 5.66926666mm;font-family: PTSans-NarrowBold, PT Sans Narrow;font-weight: 700">4.3</text><text transform="translate(311.8096663 168.04282463552624)" style="font-size: 5.66926666mm;font-family: PTSans-NarrowBold, PT Sans Narrow;font-weight: 700">5.3</text><text transform="translate(396.84866619999997 217.14011411940783)" style="font-size: 5.66926666mm;font-family: PTSans-NarrowBold, PT Sans Narrow;font-weight: 700">6.3</text><text transform="translate(481.8876661 168.04282463552624)" style="font-size: 5.66926666mm;font-family: PTSans-NarrowBold, PT Sans Narrow;font-weight: 700">7.3</text><text transform="translate(566.926666 217.14011411940783)" style="font-size: 5.66926666mm;font-family: PTSans-NarrowBold, PT Sans Narrow;font-weight: 700">8.3</text><text transform="translate(651.9656659 168.04282463552624)" style="font-size: 5.66926666mm;font-family: PTSans-NarrowBold, PT Sans Narrow;font-weight: 700">9.3</text><text transform="translate(737.0046658 217.14011411940783)" style="font-size: 5.66926666mm;font-family: PTSans-NarrowBold, PT Sans Narrow;font-weight: 700">10.3</text><text transform="translate(822.0436657 168.04282463552624)" style="font-size: 5.66926666mm;font-family: PTSans-NarrowBold, PT Sans Narrow;font-weight: 700">11.3</text><text transform="translate(907.0826655999999 217.14011411940783)" style="font-size: 5.66926666mm;font-family: PTSans-NarrowBold, PT Sans Narrow;font-weight: 700">12.3</text><text transform="translate(992.1216655 168.04282463552624)" style="font-size: 5.66926666mm;font-family: PTSans-NarrowBold, PT Sans Narrow;font-weight: 700">13.3</text><text transform="translate(1077.1606654 217.14011411940783)" style="font-size: 5.66926666mm;font-family: PTSans-NarrowBold, PT Sans Narrow;font-weight: 700">14.3</text><text transform="translate(56.692666599999995 315.33469308717093)" style="font-size: 5.66926666mm;font-family: PTSans-NarrowBold, PT Sans Narrow;font-weight: 700">2.4</text><text transform="translate(141.7316665 266.23740360328935)" style="font-size: 5.66926666mm;font-family: PTSans-NarrowBold, PT Sans Narrow;font-weight: 700">3.4</text><text transform="translate(226.77066639999998 315.33469308717093)" style="font-size: 5.66926666mm;font-family: PTSans-NarrowBold, PT Sans Narrow;font-weight: 700">4.4</text><text transform="translate(311.8096663 266.23740360328935)" style="font-size: 5.66926666mm;font-family: PTSans-NarrowBold, PT Sans Narrow;font-weight: 700">5.4</text><text transform="translate(396.84866619999997 315.33469308717093)" style="font-size: 5.66926666mm;font-family: PTSans-NarrowBold, PT Sans Narrow;font-weight: 700">6.4</text><text transform="translate(481.8876661 266.23740360328935)" style="font-size: 5.66926666mm;font-family: PTSans-NarrowBold, PT Sans Narrow;font-weight: 700">7.4</text><text transform="translate(566.926666 315.33469308717093)" style="font-size: 5.66926666mm;font-family: PTSans-NarrowBold, PT Sans Narrow;font-weight: 700">8.4</text><text transform="translate(651.9656659 266.23740360328935)" style="font-size: 5.66926666mm;font-family: PTSans-NarrowBold, PT Sans Narrow;font-weight: 700">9.4</text><text transform="translate(737.0046658 315.33469308717093)" style="font-size: 5.66926666mm;font-family: PTSans-NarrowBold, PT Sans Narrow;font-weight: 700">10.4</text><text transform="translate(822.0436657 266.23740360328935)" style="font-size: 5.66926666mm;font-family: PTSans-NarrowBold, PT Sans Narrow;font-weight: 700">11.4</text><text transform="translate(907.0826655999999 315.33469308717093)" style="font-size: 5.66926666mm;font-family: PTSans-NarrowBold, PT Sans Narrow;font-weight: 700">12.4</text><text transform="translate(992.1216655 266.23740360328935)" style="font-size: 5.66926666mm;font-family: PTSans-NarrowBold, PT Sans Narrow;font-weight: 700">13.4</text><text transform="translate(1077.1606654 315.33469308717093)" style="font-size: 5.66926666mm;font-family: PTSans-NarrowBold, PT Sans Narrow;font-weight: 700">14.4</text><text transform="translate(56.692666599999995 413.52927205493404)" style="font-size: 5.66926666mm;font-family: PTSans-NarrowBold, PT Sans Narrow;font-weight: 700">2.5</text><text transform="translate(141.7316665 364.4319825710525)" style="font-size: 5.66926666mm;font-family: PTSans-NarrowBold, PT Sans Narrow;font-weight: 700">3.5</text><text transform="translate(226.77066639999998 413.52927205493404)" style="font-size: 5.66926666mm;font-family: PTSans-NarrowBold, PT Sans Narrow;font-weight: 700">4.5</text><text transform="translate(311.8096663 364.4319825710525)" style="font-size: 5.66926666mm;font-family: PTSans-NarrowBold, PT Sans Narrow;font-weight: 700">5.5</text><text transform="translate(396.84866619999997 413.52927205493404)" style="font-size: 5.66926666mm;font-family: PTSans-NarrowBold, PT Sans Narrow;font-weight: 700">6.5</text><text transform="translate(481.8876661 364.4319825710525)" style="font-size: 5.66926666mm;font-family: PTSans-NarrowBold, PT Sans Narrow;font-weight: 700">7.5</text><text transform="translate(566.926666 413.52927205493404)" style="font-size: 5.66926666mm;font-family: PTSans-NarrowBold, PT Sans Narrow;font-weight: 700">8.5</text><text transform="translate(651.9656659 364.4319825710525)" style="font-size: 5.66926666mm;font-family: PTSans-NarrowBold, PT Sans Narrow;font-weight: 700">9.5</text><text transform="translate(737.0046658 413.52927205493404)" style="font-size: 5.66926666mm;font-family: PTSans-NarrowBold, PT Sans Narrow;font-weight: 700">10.5</text><text transform="translate(822.0436657 364.4319825710525)" style="font-size: 5.66926666mm;font-family: PTSans-NarrowBold, PT Sans Narrow;font-weight: 700">11.5</text><text transform="translate(907.0826655999999 413.52927205493404)" style="font-size: 5.66926666mm;font-family: PTSans-NarrowBold, PT Sans Narrow;font-weight: 700">12.5</text><text transform="translate(992.1216655 364.4319825710525)" style="font-size: 5.66926666mm;font-family: PTSans-NarrowBold, PT Sans Narrow;font-weight: 700">13.5</text><text transform="translate(1077.1606654 413.52927205493404)" style="font-size: 5.66926666mm;font-family: PTSans-NarrowBold, PT Sans Narrow;font-weight: 700">14.5</text><text transform="translate(56.692666599999995 511.7238510226972)" style="font-size: 5.66926666mm;font-family: PTSans-NarrowBold, PT Sans Narrow;font-weight: 700">2.6</text><text transform="translate(141.7316665 462.6265615388156)" style="font-size: 5.66926666mm;font-family: PTSans-NarrowBold, PT Sans Narrow;font-weight: 700">3.6</text><text transform="translate(226.77066639999998 511.7238510226972)" style="font-size: 5.66926666mm;font-family: PTSans-NarrowBold, PT Sans Narrow;font-weight: 700">4.6</text><text transform="translate(311.8096663 462.6265615388156)" style="font-size: 5.66926666mm;font-family: PTSans-NarrowBold, PT Sans Narrow;font-weight: 700">5.6</text><text transform="translate(396.84866619999997 511.7238510226972)" style="font-size: 5.66926666mm;font-family: PTSans-NarrowBold, PT Sans Narrow;font-weight: 700">6.6</text><text transform="translate(481.8876661 462.6265615388156)" style="font-size: 5.66926666mm;font-family: PTSans-NarrowBold, PT Sans Narrow;font-weight: 700">7.6</text><text transform="translate(566.926666 511.7238510226972)" style="font-size: 5.66926666mm;font-family: PTSans-NarrowBold, PT Sans Narrow;font-weight: 700">8.6</text><text transform="translate(651.9656659 462.6265615388156)" style="font-size: 5.66926666mm;font-family: PTSans-NarrowBold, PT Sans Narrow;font-weight: 700">9.6</text><text transform="translate(737.0046658 511.7238510226972)" style="font-size: 5.66926666mm;font-family: PTSans-NarrowBold, PT Sans Narrow;font-weight: 700">10.6</text><text transform="translate(822.0436657 462.6265615388156)" style="font-size: 5.66926666mm;font-family: PTSans-NarrowBold, PT Sans Narrow;font-weight: 700">11.6</text><text transform="translate(907.0826655999999 511.7238510226972)" style="font-size: 5.66926666mm;font-family: PTSans-NarrowBold, PT Sans Narrow;font-weight: 700">12.6</text><text transform="translate(992.1216655 462.6265615388156)" style="font-size: 5.66926666mm;font-family: PTSans-NarrowBold, PT Sans Narrow;font-weight: 700">13.6</text><text transform="translate(1077.1606654 511.7238510226972)" style="font-size: 5.66926666mm;font-family: PTSans-NarrowBold, PT Sans Narrow;font-weight: 700">14.6</text><text transform="translate(56.692666599999995 609.9184299904603)" style="font-size: 5.66926666mm;font-family: PTSans-NarrowBold, PT Sans Narrow;font-weight: 700">2.7</text><text transform="translate(141.7316665 560.8211405065787)" style="font-size: 5.66926666mm;font-family: PTSans-NarrowBold, PT Sans Narrow;font-weight: 700">3.7</text><text transform="translate(226.77066639999998 609.9184299904603)" style="font-size: 5.66926666mm;font-family: PTSans-NarrowBold, PT Sans Narrow;font-weight: 700">4.7</text><text transform="translate(311.8096663 560.8211405065787)" style="font-size: 5.66926666mm;font-family: PTSans-NarrowBold, PT Sans Narrow;font-weight: 700">5.7</text><text transform="translate(396.84866619999997 609.9184299904603)" style="font-size: 5.66926666mm;font-family: PTSans-NarrowBold, PT Sans Narrow;font-weight: 700">6.7</text><text transform="translate(481.8876661 560.8211405065787)" style="font-size: 5.66926666mm;font-family: PTSans-NarrowBold, PT Sans Narrow;font-weight: 700">7.7</text><text transform="translate(566.926666 609.9184299904603)" style="font-size: 5.66926666mm;font-family: PTSans-NarrowBold, PT Sans Narrow;font-weight: 700">8.7</text><text transform="translate(651.9656659 560.8211405065787)" style="font-size: 5.66926666mm;font-family: PTSans-NarrowBold, PT Sans Narrow;font-weight: 700">9.7</text><text transform="translate(737.0046658 609.9184299904603)" style="font-size: 5.66926666mm;font-family: PTSans-NarrowBold, PT Sans Narrow;font-weight: 700">10.7</text><text transform="translate(822.0436657 560.8211405065787)" style="font-size: 5.66926666mm;font-family: PTSans-NarrowBold, PT Sans Narrow;font-weight: 700">11.7</text><text transform="translate(907.0826655999999 609.9184299904603)" style="font-size: 5.66926666mm;font-family: PTSans-NarrowBold, PT Sans Narrow;font-weight: 700">12.7</text><text transform="translate(992.1216655 560.8211405065787)" style="font-size: 5.66926666mm;font-family: PTSans-NarrowBold, PT Sans Narrow;font-weight: 700">13.7</text><text transform="translate(1077.1606654 609.9184299904603)" style="font-size: 5.66926666mm;font-family: PTSans-NarrowBold, PT Sans Narrow;font-weight: 700">14.7</text><text transform="translate(56.692666599999995 708.1130089582234)" style="font-size: 5.66926666mm;font-family: PTSans-NarrowBold, PT Sans Narrow;font-weight: 700">2.8</text><text transform="translate(141.7316665 659.0157194743418)" style="font-size: 5.66926666mm;font-family: PTSans-NarrowBold, PT Sans Narrow;font-weight: 700">3.8</text><text transform="translate(226.77066639999998 708.1130089582234)" style="font-size: 5.66926666mm;font-family: PTSans-NarrowBold, PT Sans Narrow;font-weight: 700">4.8</text><text transform="translate(311.8096663 659.0157194743418)" style="font-size: 5.66926666mm;font-family: PTSans-NarrowBold, PT Sans Narrow;font-weight: 700">5.8</text><text transform="translate(396.84866619999997 708.1130089582234)" style="font-size: 5.66926666mm;font-family: PTSans-NarrowBold, PT Sans Narrow;font-weight: 700">6.8</text><text transform="translate(481.8876661 659.0157194743418)" style="font-size: 5.66926666mm;font-family: PTSans-NarrowBold, PT Sans Narrow;font-weight: 700">7.8</text><text transform="translate(566.926666 708.1130089582234)" style="font-size: 5.66926666mm;font-family: PTSans-NarrowBold, PT Sans Narrow;font-weight: 700">8.8</text><text transform="translate(651.9656659 659.0157194743418)" style="font-size: 5.66926666mm;font-family: PTSans-NarrowBold, PT Sans Narrow;font-weight: 700">9.8</text><text transform="translate(737.0046658 708.1130089582234)" style="font-size: 5.66926666mm;font-family: PTSans-NarrowBold, PT Sans Narrow;font-weight: 700">10.8</text><text transform="translate(822.0436657 659.0157194743418)" style="font-size: 5.66926666mm;font-family: PTSans-NarrowBold, PT Sans Narrow;font-weight: 700">11.8</text><text transform="translate(907.0826655999999 708.1130089582234)" style="font-size: 5.66926666mm;font-family: PTSans-NarrowBold, PT Sans Narrow;font-weight: 700">12.8</text><text transform="translate(992.1216655 659.0157194743418)" style="font-size: 5.66926666mm;font-family: PTSans-NarrowBold, PT Sans Narrow;font-weight: 700">13.8</text><text transform="translate(1077.1606654 708.1130089582234)" style="font-size: 5.66926666mm;font-family: PTSans-NarrowBold, PT Sans Narrow;font-weight: 700">14.8</text><text transform="translate(56.692666599999995 806.3075879259866)" style="font-size: 5.66926666mm;font-family: PTSans-NarrowBold, PT Sans Narrow;font-weight: 700">2.9</text><text transform="translate(141.7316665 757.210298442105)" style="font-size: 5.66926666mm;font-family: PTSans-NarrowBold, PT Sans Narrow;font-weight: 700">3.9</text><text transform="translate(226.77066639999998 806.3075879259866)" style="font-size: 5.66926666mm;font-family: PTSans-NarrowBold, PT Sans Narrow;font-weight: 700">4.9</text><text transform="translate(311.8096663 757.210298442105)" style="font-size: 5.66926666mm;font-family: PTSans-NarrowBold, PT Sans Narrow;font-weight: 700">5.9</text><text transform="translate(396.84866619999997 806.3075879259866)" style="font-size: 5.66926666mm;font-family: PTSans-NarrowBold, PT Sans Narrow;font-weight: 700">6.9</text><text transform="translate(481.8876661 757.210298442105)" style="font-size: 5.66926666mm;font-family: PTSans-NarrowBold, PT Sans Narrow;font-weight: 700">7.9</text><text transform="translate(566.926666 806.3075879259866)" style="font-size: 5.66926666mm;font-family: PTSans-NarrowBold, PT Sans Narrow;font-weight: 700">8.9</text><text transform="translate(651.9656659 757.210298442105)" style="font-size: 5.66926666mm;font-family: PTSans-NarrowBold, PT Sans Narrow;font-weight: 700">9.9</text><text transform="translate(737.0046658 806.3075879259866)" style="font-size: 5.66926666mm;font-family: PTSans-NarrowBold, PT Sans Narrow;font-weight: 700">10.9</text><text transform="translate(822.0436657 757.210298442105)" style="font-size: 5.66926666mm;font-family: PTSans-NarrowBold, PT Sans Narrow;font-weight: 700">11.9</text><text transform="translate(907.0826655999999 806.3075879259866)" style="font-size: 5.66926666mm;font-family: PTSans-NarrowBold, PT Sans Narrow;font-weight: 700">12.9</text><text transform="translate(992.1216655 757.210298442105)" style="font-size: 5.66926666mm;font-family: PTSans-NarrowBold, PT Sans Narrow;font-weight: 700">13.9</text><text transform="translate(1077.1606654 806.3075879259866)" style="font-size: 5.66926666mm;font-family: PTSans-NarrowBold, PT Sans Narrow;font-weight: 700">14.9</text><text transform="translate(56.692666599999995 904.5021668937496)" style="font-size: 5.66926666mm;font-family: PTSans-NarrowBold, PT Sans Narrow;font-weight: 700">2.10</text><text transform="translate(141.7316665 855.404877409868)" style="font-size: 5.66926666mm;font-family: PTSans-NarrowBold, PT Sans Narrow;font-weight: 700">3.10</text><text transform="translate(226.77066639999998 904.5021668937496)" style="font-size: 5.66926666mm;font-family: PTSans-NarrowBold, PT Sans Narrow;font-weight: 700">4.10</text><text transform="translate(311.8096663 855.404877409868)" style="font-size: 5.66926666mm;font-family: PTSans-NarrowBold, PT Sans Narrow;font-weight: 700">5.10</text><text transform="translate(396.84866619999997 904.5021668937496)" style="font-size: 5.66926666mm;font-family: PTSans-NarrowBold, PT Sans Narrow;font-weight: 700">6.10</text><text transform="translate(481.8876661 855.404877409868)" style="font-size: 5.66926666mm;font-family: PTSans-NarrowBold, PT Sans Narrow;font-weight: 700">7.10</text><text transform="translate(566.926666 904.5021668937496)" style="font-size: 5.66926666mm;font-family: PTSans-NarrowBold, PT Sans Narrow;font-weight: 700">8.10</text><text transform="translate(651.9656659 855.404877409868)" style="font-size: 5.66926666mm;font-family: PTSans-NarrowBold, PT Sans Narrow;font-weight: 700">9.10</text><text transform="translate(737.0046658 904.5021668937496)" style="font-size: 5.66926666mm;font-family: PTSans-NarrowBold, PT Sans Narrow;font-weight: 700">10.10</text><text transform="translate(822.0436657 855.404877409868)" style="font-size: 5.66926666mm;font-family: PTSans-NarrowBold, PT Sans Narrow;font-weight: 700">11.10</text><text transform="translate(907.0826655999999 904.5021668937496)" style="font-size: 5.66926666mm;font-family: PTSans-NarrowBold, PT Sans Narrow;font-weight: 700">12.10</text><text transform="translate(992.1216655 855.404877409868)" style="font-size: 5.66926666mm;font-family: PTSans-NarrowBold, PT Sans Narrow;font-weight: 700">13.10</text><text transform="translate(1077.1606654 904.5021668937496)" style="font-size: 5.66926666mm;font-family: PTSans-NarrowBold, PT Sans Narrow;font-weight: 700">14.10</text><text transform="translate(56.692666599999995 1002.6967458615129)" style="font-size: 5.66926666mm;font-family: PTSans-NarrowBold, PT Sans Narrow;font-weight: 700">2.11</text><text transform="translate(141.7316665 953.5994563776313)" style="font-size: 5.66926666mm;font-family: PTSans-NarrowBold, PT Sans Narrow;font-weight: 700">3.11</text><text transform="translate(226.77066639999998 1002.6967458615129)" style="font-size: 5.66926666mm;font-family: PTSans-NarrowBold, PT Sans Narrow;font-weight: 700">4.11</text><text transform="translate(311.8096663 953.5994563776313)" style="font-size: 5.66926666mm;font-family: PTSans-NarrowBold, PT Sans Narrow;font-weight: 700">5.11</text><text transform="translate(396.84866619999997 1002.6967458615129)" style="font-size: 5.66926666mm;font-family: PTSans-NarrowBold, PT Sans Narrow;font-weight: 700">6.11</text><text transform="translate(481.8876661 953.5994563776313)" style="font-size: 5.66926666mm;font-family: PTSans-NarrowBold, PT Sans Narrow;font-weight: 700">7.11</text><text transform="translate(566.926666 1002.6967458615129)" style="font-size: 5.66926666mm;font-family: PTSans-NarrowBold, PT Sans Narrow;font-weight: 700">8.11</text><text transform="translate(651.9656659 953.5994563776313)" style="font-size: 5.66926666mm;font-family: PTSans-NarrowBold, PT Sans Narrow;font-weight: 700">9.11</text><text transform="translate(737.0046658 1002.6967458615129)" style="font-size: 5.66926666mm;font-family: PTSans-NarrowBold, PT Sans Narrow;font-weight: 700">10.11</text><text transform="translate(822.0436657 953.5994563776313)" style="font-size: 5.66926666mm;font-family: PTSans-NarrowBold, PT Sans Narrow;font-weight: 700">11.11</text><text transform="translate(907.0826655999999 1002.6967458615129)" style="font-size: 5.66926666mm;font-family: PTSans-NarrowBold, PT Sans Narrow;font-weight: 700">12.11</text><text transform="translate(992.1216655 953.5994563776313)" style="font-size: 5.66926666mm;font-family: PTSans-NarrowBold, PT Sans Narrow;font-weight: 700">13.11</text><text transform="translate(1077.1606654 1002.6967458615129)" style="font-size: 5.66926666mm;font-family: PTSans-NarrowBold, PT Sans Narrow;font-weight: 700">14.11</text><text transform="translate(56.692666599999995 1100.891324829276)" style="font-size: 5.66926666mm;font-family: PTSans-NarrowBold, PT Sans Narrow;font-weight: 700">2.12</text><text transform="translate(141.7316665 1051.7940353453944)" style="font-size: 5.66926666mm;font-family: PTSans-NarrowBold, PT Sans Narrow;font-weight: 700">3.12</text><text transform="translate(226.77066639999998 1100.891324829276)" style="font-size: 5.66926666mm;font-family: PTSans-NarrowBold, PT Sans Narrow;font-weight: 700">4.12</text><text transform="translate(311.8096663 1051.7940353453944)" style="font-size: 5.66926666mm;font-family: PTSans-NarrowBold, PT Sans Narrow;font-weight: 700">5.12</text><text transform="translate(396.84866619999997 1100.891324829276)" style="font-size: 5.66926666mm;font-family: PTSans-NarrowBold, PT Sans Narrow;font-weight: 700">6.12</text><text transform="translate(481.8876661 1051.7940353453944)" style="font-size: 5.66926666mm;font-family: PTSans-NarrowBold, PT Sans Narrow;font-weight: 700">7.12</text><text transform="translate(566.926666 1100.891324829276)" style="font-size: 5.66926666mm;font-family: PTSans-NarrowBold, PT Sans Narrow;font-weight: 700">8.12</text><text transform="translate(651.9656659 1051.7940353453944)" style="font-size: 5.66926666mm;font-family: PTSans-NarrowBold, PT Sans Narrow;font-weight: 700">9.12</text><text transform="translate(737.0046658 1100.891324829276)" style="font-size: 5.66926666mm;font-family: PTSans-NarrowBold, PT Sans Narrow;font-weight: 700">10.12</text><text transform="translate(822.0436657 1051.7940353453944)" style="font-size: 5.66926666mm;font-family: PTSans-NarrowBold, PT Sans Narrow;font-weight: 700">11.12</text><text transform="translate(907.0826655999999 1100.891324829276)" style="font-size: 5.66926666mm;font-family: PTSans-NarrowBold, PT Sans Narrow;font-weight: 700">12.12</text><text transform="translate(992.1216655 1051.7940353453944)" style="font-size: 5.66926666mm;font-family: PTSans-NarrowBold, PT Sans Narrow;font-weight: 700">13.12</text><text transform="translate(1077.1606654 1100.891324829276)" style="font-size: 5.66926666mm;font-family: PTSans-NarrowBold, PT Sans Narrow;font-weight: 700">14.12</text><text transform="translate(56.692666599999995 1199.085903797039)" style="font-size: 5.66926666mm;font-family: PTSans-NarrowBold, PT Sans Narrow;font-weight: 700">2.13</text><text transform="translate(141.7316665 1149.9886143131573)" style="font-size: 5.66926666mm;font-family: PTSans-NarrowBold, PT Sans Narrow;font-weight: 700">3.13</text><text transform="translate(226.77066639999998 1199.085903797039)" style="font-size: 5.66926666mm;font-family: PTSans-NarrowBold, PT Sans Narrow;font-weight: 700">4.13</text><text transform="translate(311.8096663 1149.9886143131573)" style="font-size: 5.66926666mm;font-family: PTSans-NarrowBold, PT Sans Narrow;font-weight: 700">5.13</text><text transform="translate(396.84866619999997 1199.085903797039)" style="font-size: 5.66926666mm;font-family: PTSans-NarrowBold, PT Sans Narrow;font-weight: 700">6.13</text><text transform="translate(481.8876661 1149.9886143131573)" style="font-size: 5.66926666mm;font-family: PTSans-NarrowBold, PT Sans Narrow;font-weight: 700">7.13</text><text transform="translate(566.926666 1199.085903797039)" style="font-size: 5.66926666mm;font-family: PTSans-NarrowBold, PT Sans Narrow;font-weight: 700">8.13</text><text transform="translate(651.9656659 1149.9886143131573)" style="font-size: 5.66926666mm;font-family: PTSans-NarrowBold, PT Sans Narrow;font-weight: 700">9.13</text><text transform="translate(737.0046658 1199.085903797039)" style="font-size: 5.66926666mm;font-family: PTSans-NarrowBold, PT Sans Narrow;font-weight: 700">10.13</text><text transform="translate(822.0436657 1149.9886143131573)" style="font-size: 5.66926666mm;font-family: PTSans-NarrowBold, PT Sans Narrow;font-weight: 700">11.13</text><text transform="translate(907.0826655999999 1199.085903797039)" style="font-size: 5.66926666mm;font-family: PTSans-NarrowBold, PT Sans Narrow;font-weight: 700">12.13</text><text transform="translate(992.1216655 1149.9886143131573)" style="font-size: 5.66926666mm;font-family: PTSans-NarrowBold, PT Sans Narrow;font-weight: 700">13.13</text><text transform="translate(1077.1606654 1199.085903797039)" style="font-size: 5.66926666mm;font-family: PTSans-NarrowBold, PT Sans Narrow;font-weight: 700">14.13</text><text transform="translate(56.692666599999995 1297.2804827648022)" style="font-size: 5.66926666mm;font-family: PTSans-NarrowBold, PT Sans Narrow;font-weight: 700">2.14</text><text transform="translate(141.7316665 1248.1831932809207)" style="font-size: 5.66926666mm;font-family: PTSans-NarrowBold, PT Sans Narrow;font-weight: 700">3.14</text><text transform="translate(226.77066639999998 1297.2804827648022)" style="font-size: 5.66926666mm;font-family: PTSans-NarrowBold, PT Sans Narrow;font-weight: 700">4.14</text><text transform="translate(311.8096663 1248.1831932809207)" style="font-size: 5.66926666mm;font-family: PTSans-NarrowBold, PT Sans Narrow;font-weight: 700">5.14</text><text transform="translate(396.84866619999997 1297.2804827648022)" style="font-size: 5.66926666mm;font-family: PTSans-NarrowBold, PT Sans Narrow;font-weight: 700">6.14</text><text transform="translate(481.8876661 1248.1831932809207)" style="font-size: 5.66926666mm;font-family: PTSans-NarrowBold, PT Sans Narrow;font-weight: 700">7.14</text><text transform="translate(566.926666 1297.2804827648022)" style="font-size: 5.66926666mm;font-family: PTSans-NarrowBold, PT Sans Narrow;font-weight: 700">8.14</text><text transform="translate(651.9656659 1248.1831932809207)" style="font-size: 5.66926666mm;font-family: PTSans-NarrowBold, PT Sans Narrow;font-weight: 700">9.14</text><text transform="translate(737.0046658 1297.2804827648022)" style="font-size: 5.66926666mm;font-family: PTSans-NarrowBold, PT Sans Narrow;font-weight: 700">10.14</text><text transform="translate(822.0436657 1248.1831932809207)" style="font-size: 5.66926666mm;font-family: PTSans-NarrowBold, PT Sans Narrow;font-weight: 700">11.14</text><text transform="translate(907.0826655999999 1297.2804827648022)" style="font-size: 5.66926666mm;font-family: PTSans-NarrowBold, PT Sans Narrow;font-weight: 700">12.14</text><text transform="translate(992.1216655 1248.1831932809207)" style="font-size: 5.66926666mm;font-family: PTSans-NarrowBold, PT Sans Narrow;font-weight: 700">13.14</text><text transform="translate(1077.1606654 1297.2804827648022)" style="font-size: 5.66926666mm;font-family: PTSans-NarrowBold, PT Sans Narrow;font-weight: 700">14.14</text>
</svg>