<svg width="90mm" height="104mm" data-name="Layer 1" id="Layer_1" xmlns="http://www.w3.org/2000/svg" >
<style type="text/css">
	.st0{fill:none;stroke:#8E8E8E;stroke-width:2.0;stroke-miterlimit:10;}
</style>
<polygon class="st0" points="141.7316665,147.2918684516447 113.38533319999999,98.1945789677631 56.692666599999995,98.1945789677631 28.346333299999998,147.2918684516447 56.692666599999995,196.38915793552624 113.38533319999999,196.38915793552624 "/><polygon class="st0" points="226.77066639999998,98.19457896776312 198.42433309999998,49.09728948388156 141.7316665,49.09728948388156 113.38533319999999,98.19457896776312 141.7316665,147.2918684516447 198.42433309999998,147.2918684516447 "/><polygon class="st0" points="311.8096663,147.2918684516447 283.463333,98.1945789677631 226.77066639999998,98.1945789677631 198.42433309999998,147.2918684516447 226.77066639999998,196.38915793552624 283.463333,196.38915793552624 "/><polygon class="st0" points="141.7316665,245.48644741940782 113.38533319999999,196.38915793552624 56.692666599999995,196.38915793552624 28.346333299999998,245.48644741940782 56.692666599999995,294.5837369032894 113.38533319999999,294.5837369032894 "/><polygon class="st0" points="226.77066639999998,196.38915793552624 198.42433309999998,147.2918684516447 141.7316665,147.2918684516447 113.38533319999999,196.38915793552624 141.7316665,245.48644741940782 198.42433309999998,245.48644741940782 "/><polygon class="st0" points="311.8096663,245.48644741940782 283.463333,196.38915793552624 226.77066639999998,196.38915793552624 198.42433309999998,245.48644741940782 226.77066639999998,294.5837369032894 283.463333,294.5837369032894 "/><polygon class="st0" points="141.7316665,343.6810263871709 113.38533319999999,294.5837369032894 56.692666599999995,294.5837369032894 28.346333299999998,343.6810263871709 56.692666599999995,392.7783158710525 113.38533319999999,392.7783158710525 "/><polygon class="st0" points="226.77066639999998,294.5837369032894 198.42433309999998,245.48644741940777 141.7316665,245.48644741940777 113.38533319999999,294.5837369032894 141.7316665,343.6810263871709 198.42433309999998,343.6810263871709 "/><polygon class="st0" points="311.8096663,343.6810263871709 283.463333,294.5837369032894 226.77066639999998,294.5837369032894 198.42433309999998,343.6810263871709 226.77066639999998,392.7783158710525 283.463333,392.7783158710525 "/><text transform="translate(56.692666599999995 118.94553515164468)" style="font-size: 5.66926666mm;font-family: PTSans-NarrowBold, PT Sans Narrow;font-weight: 700">1.1</text><text transform="translate(141.7316665 69.84824566776312)" style="font-size: 5.66926666mm;font-family: PTSans-NarrowBold, PT Sans Narrow;font-weight: 700">2.1</text><text transform="translate(226.77066639999998 118.94553515164468)" style="font-size: 5.66926666mm;font-family: PTSans-NarrowBold, PT Sans Narrow;font-weight: 700">3.1</text><text transform="translate(56.692666599999995 217.14011411940783)" style="font-size: 5.66926666mm;font-family: PTSans-NarrowBold, PT Sans Narrow;font-weight: 700">1.2</text><text transform="translate(141.7316665 168.04282463552624)" style="font-size: 5.66926666mm;font-family: PTSans-NarrowBold, PT Sans Narrow;font-weight: 700">2.2</text><text transform="translate(226.77066639999998 217.14011411940783)" style="font-size: 5.66926666mm;font-family: PTSans-NarrowBold, PT Sans Narrow;font-weight: 700">3.2</text><text transform="translate(56.692666599999995 315.33469308717093)" style="font-size: 5.66926666mm;font-family: PTSans-NarrowBold, PT Sans Narrow;font-weight: 700">1.3</text><text transform="translate(141.7316665 266.23740360328935)" style="font-size: 5.66926666mm;font-family: PTSans-NarrowBold, PT Sans Narrow;font-weight: 700">2.3</text><text transform="translate(226.77066639999998 315.33469308717093)" style="font-size: 5.66926666mm;font-family: PTSans-NarrowBold, PT Sans Narrow;font-weight: 700">3.3</text>
</svg>