<?xml version="1.0" encoding="UTF-8" standalone="no"?>
<svg
   viewBox="0 0 512 512"
   style="height: 512px; width: 512px;"
   version="1.1"
   id="svg63"
   sodipodi:docname="desert.svg"
   inkscape:version="1.2 (dc2aedaf03, 2022-05-15)"
   xmlns:inkscape="http://www.inkscape.org/namespaces/inkscape"
   xmlns:sodipodi="http://sodipodi.sourceforge.net/DTD/sodipodi-0.dtd"
   xmlns="http://www.w3.org/2000/svg"
   xmlns:svg="http://www.w3.org/2000/svg">
  <defs
     id="defs67" />
  <sodipodi:namedview
     id="namedview65"
     pagecolor="#ffffff"
     bordercolor="#000000"
     borderopacity="0.25"
     inkscape:showpageshadow="2"
     inkscape:pageopacity="0.0"
     inkscape:pagecheckerboard="0"
     inkscape:deskcolor="#d1d1d1"
     showgrid="false"
     inkscape:zoom="2.2929688"
     inkscape:cx="256"
     inkscape:cy="256"
     inkscape:window-width="3440"
     inkscape:window-height="1377"
     inkscape:window-x="1912"
     inkscape:window-y="-8"
     inkscape:window-maximized="1"
     inkscape:current-layer="g371" />
  <g
     id="g371">
    <path
       d="M 99.440369,7.1830283 C 99.027798,7.197121 98.752747,7.2112255 98.477696,7.2394227 93.939405,7.6905418 87.88835,12.13125 82.249865,19.588817 78.811756,47.924749 78.811756,79.644085 82.662426,107.83905 l 2.337916,16.63504 -16.365366,-2.39658 c -7.013728,-0.98683 -9.777963,-1.1278 -17.754359,-0.56391 l -12.033355,0.84587 -1.100194,-12.4058 C 36.646876,97.829835 32.56241,80.771889 27.969107,68.648056 c -4.68957,-4.088269 -7.88013,-4.793152 -10.699373,-4.511203 -2.544195,0.422934 -6.106069,2.11462 -10.3280582,6.343876 2.4891864,26.503263 4.6208102,52.019701 11.9645942,77.395181 13.243568,5.92094 32.208138,9.02237 50.828898,8.03556 l 13.75241,-0.70488 -0.825152,14.09748 c -5.913536,104.1804 -8.388961,201.03011 -1.375233,304.22368 -75.966624,46.03933 46.616257,11.10895 52.841087,-3.43086 0.50992,-40.25029 -6.70354,-134.88698 -8.69585,-169.68623 l -0.68763,-13.25163 12.92726,-0.14097 c 14.71507,-0.14098 27.09225,-3.24242 35.61874,-7.61264 8.25144,-3.9473 12.10211,-9.0224 12.78973,-10.99605 7.70135,-54.41628 12.92727,-102.34771 9.90174,-154.08547 -0.13753,-3.10146 -0.96268,-4.08827 -2.47543,-5.35705 -1.37525,-1.26878 -4.12572,-2.39657 -7.15126,-2.53754 -3.02553,-0.28195 -6.3261,0.42292 -8.38897,1.55071 -2.06285,1.1278 -2.75048,2.11463 -3.16306,3.38341 -12.92725,43.84316 -23.79165,87.40438 -25.57947,133.50315 v 0.14097 l -24.75433,-1.26876 v -0.14098 C 128.1829,171.70065 125.2949,95.997162 120.89412,23.395134 110.99239,10.157597 104.11618,7.1266388 99.440369,7.1830283 Z M 338.47744,74.654437 V 142.0404 l -10.45182,-2.53754 -5.50097,-39.7549 -24.47929,3.66535 7.97641,56.95382 32.45567,7.75361 v 23.34294 5.69789 c -27.95083,41.62968 24.75434,0 24.75434,0 v -54.27531 l 31.63054,-7.47167 6.60114,-34.96176 -24.20423,-4.793139 -3.57563,18.608669 -10.45182,2.39657 V 74.654437 Z M 440.97851,214.3493 v 67.38597 l -10.45183,-2.53755 -5.50096,-39.7549 -24.4793,3.66535 7.97642,56.95382 32.45567,7.75362 v 23.34294 5.69787 c -27.95083,41.62969 24.75433,0 24.75433,0 v -54.27529 l 31.63054,-7.47168 6.60115,-34.96176 -24.20423,-4.79314 -3.57563,18.60868 -10.45183,2.39657 v -42.0105 z"
       fill="#ffffff"
       fill-opacity="1"
       id="path59"
       style="fill:#1a1a1a;stroke-width:1.39239"
       sodipodi:nodetypes="ccccccccccccccccccccccccccsccccccccccccccccccccccccccccccccccccccccccc" />
  </g>
</svg>
