<?xml version="1.0" encoding="UTF-8" standalone="no"?>
<svg
   viewBox="0 0 512 512"
   style="height: 512px; width: 512px;"
   version="1.1"
   id="svg20"
   sodipodi:docname="grassland.svg"
   inkscape:version="1.2 (dc2aedaf03, 2022-05-15)"
   xmlns:inkscape="http://www.inkscape.org/namespaces/inkscape"
   xmlns:sodipodi="http://sodipodi.sourceforge.net/DTD/sodipodi-0.dtd"
   xmlns="http://www.w3.org/2000/svg"
   xmlns:svg="http://www.w3.org/2000/svg">
  <defs
     id="defs24" />
  <sodipodi:namedview
     id="namedview22"
     pagecolor="#ffffff"
     bordercolor="#000000"
     borderopacity="0.25"
     inkscape:showpageshadow="2"
     inkscape:pageopacity="0.0"
     inkscape:pagecheckerboard="0"
     inkscape:deskcolor="#d1d1d1"
     showgrid="false"
     inkscape:zoom="1.9570312"
     inkscape:cx="256.51098"
     inkscape:cy="256.00001"
     inkscape:window-width="3440"
     inkscape:window-height="1377"
     inkscape:window-x="1912"
     inkscape:window-y="-8"
     inkscape:window-maximized="1"
     inkscape:current-layer="svg20" />
  <g
     class=""
     transform="matrix(1.0716222,0,0,0.35370027,-19.684408,154.73714)"
     style="fill:#000000"
     id="g18">
    <path
       d="M 18,494 54.35,163.6 c 6.728,107.62 4.086,231.82 35.556,295.67 11.205,-84.926 15.707,-168.18 10.562,-249.01 15.225,71.69 35.543,141.68 39.468,217.14 7.395,-55.935 12.667,-111.52 31.798,-169.41 -0.76,65.19 -17.16,124.9 12.677,157.47 14.433,-51.01 28.992,-101.9 31.46,-164.88 21.27,61.862 18.342,135.82 24.948,205.02 8.417,-68.06 15.28,-257.84 46.907,-318.17 -3.11,124.98 -3.862,223.94 27.398,274.23 30.897,-38.673 33.566,-114.44 34.28,-186.34 21.812,61.75 36.457,132.1 37.857,218.34 8.626,-71.955 18.667,-143.91 43.39,-215.86 -5.748,88.29 -1.284,156.95 19.525,194.17 13.76,-55.55 25.504,-111.1 29.12,-166.66 18.42,82.78 13,159.59 16.706,238.69 z"
       fill="#fff"
       fill-opacity="1"
       id="path16"
       style="fill:#000000" />
  </g>
</svg>
