<?xml version="1.0" encoding="UTF-8" standalone="no"?>
<svg
   viewBox="0 0 512 512"
   style="height: 512px; width: 512px;"
   version="1.1"
   id="svg308"
   sodipodi:docname="lake.svg"
   inkscape:version="1.2 (dc2aedaf03, 2022-05-15)"
   xmlns:inkscape="http://www.inkscape.org/namespaces/inkscape"
   xmlns:sodipodi="http://sodipodi.sourceforge.net/DTD/sodipodi-0.dtd"
   xmlns="http://www.w3.org/2000/svg"
   xmlns:svg="http://www.w3.org/2000/svg">
  <defs
     id="defs312" />
  <sodipodi:namedview
     id="namedview310"
     pagecolor="#ffffff"
     bordercolor="#000000"
     borderopacity="0.25"
     inkscape:showpageshadow="2"
     inkscape:pageopacity="0.0"
     inkscape:pagecheckerboard="0"
     inkscape:deskcolor="#d1d1d1"
     showgrid="false"
     inkscape:zoom="1.9570312"
     inkscape:cx="256"
     inkscape:cy="391.92016"
     inkscape:window-width="3440"
     inkscape:window-height="1377"
     inkscape:window-x="1912"
     inkscape:window-y="-8"
     inkscape:window-maximized="1"
     inkscape:current-layer="svg308" />
  <path
     d="m 16.656,253.968 c -11.104,-169.312 -5.552,-84.656 0,0 z m 461.25,13.469 c -30.945,8.15 -68.07,-14.224 -85.406,-43.844 -47.56,66.05 -89.736,73.192 -129.156,-1.563 -36.942,67.55 -104.172,73.156 -137.125,20.064 -33.724,45.983 -56.65,52.056 -91.064,28.562 -0.408,-5.506 -0.625,-11.076 -0.625,-16.687 38.03662,373.58112 469.85943,205.08493 443.376,13.468 z m -82.968,9.877 c 20.212,40.226 58.603,27.536 81.968,1.56 -4.73,42.46 -21.395,81.254 -46.594,113 -33.743,18.582 -58.868,7.2 -89.562,-45.624 -41.883,74.754 -109.812,67.614 -160.344,1.563 -17.546,28.218 -62.92,49.844 -97.28,44.78 -21.883,-27.33 -37.445,-59.944 -44.44,-95.656 23.49,22.105 63.89,29.177 84.408,-3.625 32.368,48.656 100.402,51.536 140.25,-5.062 23.826,34.047 85.965,64.59 131.594,-10.938 z M 177.813,401.5 c 48.48,75.528 137.623,45.016 162.937,10.97 17.197,19.63 37.55,20.796 57.688,12.06 -88.42516,66.34524 -206.20792,64.14304 -285.375,-1.155 24.17,8.208 50.552,4.72 64.75,-21.875 z"
     fill="#fff"
     fill-opacity="1"
     id="path304"
     style="fill:#000000"
     sodipodi:nodetypes="ccccccccccccccccccccccccc" />
</svg>
