<?xml version="1.0" encoding="UTF-8" standalone="no"?>
<svg
   viewBox="0 0 512 512"
   style="height: 512px; width: 512px;"
   version="1.1"
   id="svg325"
   sodipodi:docname="light_woods.svg"
   inkscape:version="1.2 (dc2aedaf03, 2022-05-15)"
   xmlns:inkscape="http://www.inkscape.org/namespaces/inkscape"
   xmlns:sodipodi="http://sodipodi.sourceforge.net/DTD/sodipodi-0.dtd"
   xmlns="http://www.w3.org/2000/svg"
   xmlns:svg="http://www.w3.org/2000/svg">
  <defs
     id="defs329" />
  <sodipodi:namedview
     id="namedview327"
     pagecolor="#ffffff"
     bordercolor="#000000"
     borderopacity="0.25"
     inkscape:showpageshadow="2"
     inkscape:pageopacity="0.0"
     inkscape:pagecheckerboard="0"
     inkscape:deskcolor="#d1d1d1"
     showgrid="false"
     inkscape:zoom="1.9570312"
     inkscape:cx="256"
     inkscape:cy="256"
     inkscape:window-width="3440"
     inkscape:window-height="1377"
     inkscape:window-x="1912"
     inkscape:window-y="-8"
     inkscape:window-maximized="1"
     inkscape:current-layer="svg325" />
  <g
     class=""
     transform="translate(0,0)"
     style="fill:#000000"
     id="g323">
    <path
       d="M249.28 19.188v.25c-18.114 38.634-45.065 72.36-77.686 102.937l37.72-3.938-51.345 65.032 24.81-7.907-33.624 54.875 16.53 9.843-65.25 92.157 36.095.188-51.686 83.594 63.562-8.126 12 32.094 66.438-25.282L215.5 493.28h52.938l-6.532-68.217 38.188 16.406 10.187-24.783 44.283 20.97 56.406-20.75-37.064-64.094-12.437-2.282 6.78 17.19 7.844 19.905-19.938-7.78-50.906-19.908V395.688l-14.156-8.594-69.375-42-21.595 21.25-18.03 17.75 2.155-25.22 2.125-24.655 18.188 1.56 9.218-9.092 5.19-5.094 6.218 3.75 61.375 37.156v-29.906l12.75 4.97 43.718 17.092-5.092-12.906-6.157-15.656 16.533 3.03 45.468 8.345-34.53-38.94-23.625 14.033-6.688 3.968-5.125-5.874-14.28-16.437.218 1.217-18.406 3.22-5.97-34.313-5.75-33.063 22 25.345 31.188 35.875 43.907-26.03c-24.67-19.543-39.507-33.87-49.658-48.814l.813 12.656 1.97 31-18.75-24.75-34.47-45.437-22.25 46.813-13.844 29.125-3.843-32.032-3.5-28.843 16.532-1.968 16.624-34.97 6.594-13.875 9.28 12.22 25 32.936-.75-11.53-.906-14.28 13.47 4.936L341.81 188l-26.125-35.156-55.843-28.875-8.938 20.218-9.656 21.937-7.72-22.688-7.468-21.875 16.97-5.78 3.718-8.438 4-9.125 8.844 4.593 49.375 25.53 16.467-5.562c-43.42-34.31-64.63-68.886-76.156-103.593z"
       fill="#fff"
       fill-opacity="1"
       id="path321"
       style="fill:#000000" />
  </g>
</svg>
