<?xml version="1.0" encoding="UTF-8" standalone="no"?>
<svg
   viewBox="0 0 512 512"
   style="height: 512px; width: 512px;"
   version="1.1"
   id="svg376"
   sodipodi:docname="sea.svg"
   inkscape:version="1.2 (dc2aedaf03, 2022-05-15)"
   xmlns:inkscape="http://www.inkscape.org/namespaces/inkscape"
   xmlns:sodipodi="http://sodipodi.sourceforge.net/DTD/sodipodi-0.dtd"
   xmlns="http://www.w3.org/2000/svg"
   xmlns:svg="http://www.w3.org/2000/svg">
  <defs
     id="defs380" />
  <sodipodi:namedview
     id="namedview378"
     pagecolor="#ffffff"
     bordercolor="#000000"
     borderopacity="0.25"
     inkscape:showpageshadow="2"
     inkscape:pageopacity="0.0"
     inkscape:pagecheckerboard="0"
     inkscape:deskcolor="#d1d1d1"
     showgrid="false"
     inkscape:zoom="1.9570312"
     inkscape:cx="256"
     inkscape:cy="256"
     inkscape:window-width="3440"
     inkscape:window-height="1377"
     inkscape:window-x="1912"
     inkscape:window-y="-8"
     inkscape:window-maximized="1"
     inkscape:current-layer="svg376" />
  <g
     class=""
     transform="translate(0,0)"
     style="fill:#000000"
     id="g374">
    <path
       d="M319.406 75.156c-50.542.49-104.39 20.876-150.094 72.844-10.232 9.65-19.88 19.59-29.187 29.313-20.516 21.433-39.694 41.877-60.22 56.468-18.484 13.142-37.73 21.617-61 22.75v89.876c53.93-32.793 59.934-67.832 115.595-136.312 6.38-6.524 12.727-13.19 19.125-19.875 9.96-10.407 20.016-20.803 30.563-30.657 46.422-36.83 92.022-27.93 107.218 2.5 4.6-49.27 57.958-30.564 66.813 18.875 6.91-33.696 20.327-44.354 34.03-31.625-28.136 49.585-26.61 110.87-8.406 164.937 20.51 60.915 61.743 114.13 110.344 133.75v-20.563c-38.34-19.194-74.662-65.71-92.657-119.156-15.937-47.336-17.777-99.07 2.75-141.655 8.492 16.92 16.342 43.406 21.94 79.53 17.992-84.587 54.762-72.463 56.624-10.593 42.998-66.287-52.197-161.48-163.438-160.406zm-35.656 95.78C194.225 181.69 66.158 359.648 43.625 494.97h91.25c1.02-133.954 71.114-282.045 148.875-324.033zm32.406 13.69c-76.76 49.056-114.574 208.732-109.812 310.343h78.437c-41.213-80.74-23.207-252.666 31.376-310.345zm21.875 26.218c-34.686 82.23-25.705 191.077 25.158 284.125h78c-75.605-53.774-120.09-190.455-103.157-284.126z"
       fill="#fff"
       fill-opacity="1"
       id="path372"
       style="fill:#000000" />
  </g>
</svg>
